<?xml version="1.0" encoding="UTF-8"?>
<svg id="katman_1" data-name="katman 1" xmlns="http://www.w3.org/2000/svg" viewBox="0 0 701.9 538.2">
  <defs>
    <style>
      .cls-1 {
        font-size: 21px;
      }

      .cls-1, .cls-2, .cls-3 {
        fill: #fff;
      }

      .cls-4 {
        fill: #2d3f3e;
      }

      .cls-5 {
        stroke-width: 1.9px;
      }

      .cls-5, .cls-6, .cls-2, .cls-7, .cls-8, .cls-9, .cls-10 {
        stroke-miterlimit: 10;
      }

      .cls-5, .cls-6, .cls-7, .cls-8, .cls-9, .cls-10 {
        fill: none;
      }

      .cls-5, .cls-8, .cls-9, .cls-10 {
        stroke: #2d3f3d;
      }

      .cls-6 {
        stroke-width: 3px;
      }

      .cls-6, .cls-2, .cls-7 {
        stroke: #2d3f3e;
      }

      .cls-2, .cls-7, .cls-8 {
        stroke-width: 2px;
      }

      .cls-11 {
        fill: #e52629;
      }

      .cls-12 {
        fill: #fffefe;
      }

      .cls-13 {
        fill: #878787;
      }

      .cls-14 {
        fill: #706f6f;
      }

      .cls-9 {
        stroke-width: 2px;
      }

      .cls-10 {
        stroke-width: 2px;
      }

      .cls-15 {
        fill: #dadada;
        font-size: 14px;
      }
    </style>
  </defs>
  <rect class="cls-6" x="294" y="100.3" width="178.4" height="373"/>
  <g>
    <path class="cls-4" d="M27.3,204.3H.4v-18.8h3.6v14h8.1v-12.1h3.6v12.1h11.6v4.7Z"/>
    <path class="cls-4" d="M27.3,180.9H.4v-4.7h23.2v-13.7h3.6v18.4Z"/>
    <path class="cls-4" d="M8.4,136.7h10.9c6.3,0,8.4,5.3,8.4,11.4s-2.1,11.4-8.4,11.4h-10.9c-6.3,0-8.4-5.3-8.4-11.4s2.1-11.4,8.4-11.4ZM9.4,154.7h8.9c4.5,0,5.7-2.7,5.7-6.6s-1.2-6.6-5.7-6.6h-8.9c-4.4,0-5.6,2.7-5.6,6.6s1.2,6.6,5.6,6.6Z"/>
    <path class="cls-4" d="M8.4,107.1h10.9c6.3,0,8.4,5.3,8.4,11.4s-2.1,11.4-8.4,11.4h-10.9c-6.3,0-8.4-5.3-8.4-11.4s2.1-11.4,8.4-11.4ZM9.4,125.1h8.9c4.5,0,5.7-2.7,5.7-6.6s-1.2-6.6-5.7-6.6h-8.9c-4.4,0-5.6,2.7-5.6,6.6s1.2,6.6,5.6,6.6Z"/>
    <path class="cls-4" d="M27.3,81.9l-11.3,6.7v6.9h11.3v4.7H.4v-14.1c0-3.9,2.7-6.7,6-6.7h3.7c2.6,0,4.8,1.7,5.6,4.3l11.6-7v5.2ZM7.3,84.1c-2.2,0-3.3,1.1-3.3,4v7.3h8.3v-7.3c0-2.9-1.1-4-3.3-4h-1.7Z"/>
    <path class="cls-4" d="M18.2,64.4h-3.6v-13.1h3.6v13.1Z"/>
    <path class="cls-4" d="M23.6,29.3h3.6v19.1h-3.5l-5.6-9.7c-1.2-2-1.9-3.4-4-3.4h-.6c-1.3,0-1.8.5-1.8,2.5s.5,8.8.5,8.8h-3.8s-.5-6.1-.5-9.2.9-6.9,4.2-6.9h2.4c2.1,0,3.7,1.3,5.2,3.9l3.7,6.5h.2v-11.7Z"/>
  </g>
  <rect class="cls-7" x="483.5" y="339.2" width="149.2" height="27.9"/>
  <rect class="cls-8" x="293.8" y="99.9" width="79.5" height="74.2"/>
  <rect class="cls-8" x="125" y="1" width="351" height="82.8"/>
  <path class="cls-4" d="M698.9,339.9v189.4h-59.4v-189.4h59.4M700.9,337.9h-63.4v193.4h63.4v-193.4h0Z"/>
  <rect class="cls-9" x="293.7" y="174.7" width="79.7" height="74.2"/>
  <rect class="cls-7" x="293.8" y="248.8" width="79.5" height="74.2"/>
  <rect class="cls-5" x="41" y="132.1" width="108.8" height="220"/>
  <g>
    <rect class="cls-13" x="292.1" y="500.9" width="83.8" height="30.4"/>
    <rect class="cls-13" x="390.5" y="500.9" width="83.8" height="30.4"/>
    <g>
      <polygon class="cls-4" points="483.9 518.1 484.2 520.4 498.3 518.5 498 516.2 483.9 518.1"/>
      <polygon class="cls-4" points="498.1 512.6 483.9 511.1 483.6 513.5 497.8 514.9 498.1 512.6"/>
      <polygon class="cls-4" points="484.6 506.7 498.2 510.9 498.9 508.7 485.3 504.5 484.6 506.7"/>
      <polygon class="cls-4" points="488.5 498.7 499.7 507.5 501.1 505.7 490 496.8 488.5 498.7"/>
      <polygon class="cls-4" points="494.1 493.1 502.4 504.8 504.3 503.4 496.1 491.8 494.1 493.1"/>
      <polygon class="cls-4" points="501.2 489.6 506 503.1 508.2 502.3 503.4 488.9 501.2 489.6"/>
      <polygon class="cls-4" points="532.2 507.1 531.6 504.8 517.7 508.3 518.3 510.5 532.2 507.1"/>
      <polygon class="cls-4" points="518.6 511.7 518.6 514.1 532.9 514 532.9 511.7 518.6 511.7"/>
      <polygon class="cls-4" points="518.2 518 532.2 520.8 532.7 518.5 518.7 515.7 518.2 518"/>
      <polygon class="cls-4" points="516.3 521.3 528.4 528.9 529.7 526.9 517.6 519.3 516.3 521.3"/>
      <polygon class="cls-4" points="513.5 523.9 522.9 534.5 524.7 533 515.2 522.3 513.5 523.9"/>
      <polygon class="cls-4" points="509.7 525.4 515.9 538.2 518 537.2 511.8 524.4 509.7 525.4"/>
    </g>
    <g>
      <path class="cls-11" d="M507,514.3v.4s-.5,0-.5,0v.2s.4,0,.4,0v.4s-.4,0-.4,0v.5s-.5,0-.5,0v-1.6s1,0,1,0Z"/>
      <path class="cls-11" d="M507.7,514.3v1.5s-.5,0-.5,0v-1.5s.5,0,.5,0Z"/>
      <path class="cls-11" d="M508.5,515.4h0s0,.5,0,.5h-.5s0-1.5,0-1.5h.7s.4,0,.4,0v.8s-.1,0-.1,0l.3.4-.4.2-.3-.5ZM508.4,515.1h.3s0-.3,0-.3h-.3s0,.3,0,.3Z"/>
      <path class="cls-11" d="M510.3,515.9h-1s0-1.5,0-1.5h0c0,0,.8,0,.8,0v.4s-.5,0-.5,0v.2s.4,0,.4,0v.4s-.4,0-.4,0v.2s.5,0,.5,0v.4Z"/>
      <path class="cls-11" d="M506.2,516.8h-.3s0-.4,0-.4h0s.3,0,.3,0h0c0,.1-.1.1-.1.1h0c0,0,.1,0,.1,0h0c0,.1-.1.1-.1.1h0c0,0,.2,0,.2,0h0Z"/>
      <path class="cls-11" d="M506.5,516.6h0s0,.2,0,.2h-.2s0-.2,0-.2h0s0,0,0,0v-.2s.1,0,.1,0h0c0,.1,0,.2,0,.2h0s0-.1,0-.1h.1s0,.2,0,.2h0s0,0,0,0v.2s-.1,0-.1,0h0c0-.1,0-.2,0-.2Z"/>
      <path class="cls-11" d="M507.1,516.4h-.1s0,.3,0,.3h-.1s0-.3,0-.3h-.1s0-.1,0-.1h.4s0,.1,0,.1Z"/>
      <path class="cls-11" d="M507.3,516.3v.5s-.1,0-.1,0v-.5s.1,0,.1,0Z"/>
      <path class="cls-11" d="M507.7,516.8h-.1s0-.1,0-.1h-.1c0-.1,0,.1,0,.1h-.1s0-.4,0-.4h.1s.1.1.1.1h0c0-.1.1-.2.1-.2v.5Z"/>
      <path class="cls-11" d="M507.9,516.3h.3s0,.1,0,.1h-.2v.2h0s0-.1,0-.1h.1s0,.3,0,.3h-.3s0-.4,0-.4h0Z"/>
      <path class="cls-11" d="M508.6,516.3v.4s0,0,0,0h-.3s0,0,0,0v-.4s.1,0,.1,0v.3s0,0,0,0v-.3s.1,0,.1,0Z"/>
      <path class="cls-11" d="M508.8,516.3v.5s-.1,0-.1,0v-.5s.1,0,.1,0Z"/>
      <path class="cls-11" d="M509.2,516.3h0c0,.1-.1.1-.1.1h0s.2.1.2.1v.2s-.3,0-.3,0v-.2s.2,0,.2,0h0s-.2-.1-.2-.1v-.2s.1,0,.1,0h.2Z"/>
      <path class="cls-11" d="M509.5,516.6h0s0,.2,0,.2h-.1v-.5s.1,0,.1,0v.2s0,0,0,0v-.2s.1,0,.1,0v.5s-.1,0-.1,0v-.2Z"/>
      <path class="cls-11" d="M510,516.8h-.3s0-.4,0-.4h0s.3,0,.3,0h0c0,.1-.1.1-.1.1h0c0,0,.1,0,.1,0h0c0,.1-.1.1-.1.1h0c0,0,.2,0,.2,0h0Z"/>
      <path class="cls-11" d="M510.2,516.6h0s0,.2,0,.2h-.1s0-.5,0-.5h.2s.1,0,.1,0v.3s0,0,0,0h0c0,.1-.1.2-.1.2v-.2ZM510.2,516.5h0s0-.1,0-.1h0s0,.1,0,.1Z"/>
    </g>
    <path class="cls-11" d="M504.2,519.6l3.9,2.9c0,0,.1,0,.2,0l3.9-2.9c0,0,0-.1,0-.2,0,0,0-.1-.2-.1h-1.7v-1.8c0,0,0-.2-.2-.2h-3.9c0,0-.2,0-.2.2v1.8h-1.7c0,0-.1,0-.2.1,0,0,0,.1,0,.2Z"/>
    <path class="cls-11" d="M515.2,509.1s0,0-.1,0,0,0,0,0l-3.1.7c0,0,0,0-.1,0,0,0,0,0,0,.1h-3.4c0-.1,0-.3,0-.4,0-.3-.1-.6-.3-.8-.2-.2-.5-.3-.8-.3s-.6.1-.8.3c-.2.2-.3.5-.3.8s0,.4.2.6c-.3,0-.5.2-.8.4-.2.2-.4.3-.6.5-.2.2-.3.3-.4.5-.1.2-.2.3-.3.4,0,0,0,.1-.1.2,0,.1,0,.2,0,.3,0,.1.1.2.2.3,0,0,.1,0,.2,0,.2,0,.3,0,.4-.2,0,0,0,0,0-.2,0,0,.1-.2.3-.4.1-.2.3-.3.5-.5.2-.1.4-.3.6-.4.3-.1.5-.2.8-.2h.2v.8c-.5.1-.8.4-1.1.8-.3.4-.4.8-.4,1.3h0c0,0,4.4,0,4.4,0h0c0-.6-.2-1.1-.5-1.5-.3-.4-.8-.7-1.3-.8v-.7h3.1c0,0,0,0,0,.1,0,0,0,0,.1,0l3.1.7s0,0,0,0c0,0,.1,0,.1,0,0,0,0,0,0-.2v-2.2c0,0,0-.1,0-.2ZM507.7,509.8c0,0-.2.1-.3.1s-.2,0-.3-.1c0,0-.1-.2-.1-.3s0-.2.1-.3c0,0,.2-.1.3-.1s.2,0,.3.1c0,0,.1.2.1.3s0,.2-.1.3Z"/>
    <polygon class="cls-4" points="264.9 522 264.9 512.5 252.1 512.5 252.1 502.8 239.3 502.8 239.3 493.1 226.5 493.1 226.5 483.5 213.8 483.5 213.8 493.1 213.8 531.6 239.3 531.6 252.1 531.6 264.7 531.6 277.5 531.6 277.5 522 264.9 522"/>
  </g>
  <g id="tvstudio">
    <rect class="cls-8" x="160.3" y="99.1" width="123.2" height="252.4"/>
    <g>
      <path class="cls-12" d="M173.1,306.8v-2h8.8v2h-3.4v10h-2v-10h-3.4Z"/>
      <path class="cls-12" d="M187.7,317h-.4l-4.8-12.2h2.2l2.8,7.3,2.8-7.3h2.2l-4.8,12.2Z"/>
      <path class="cls-12" d="M177.2,338.6c-1.3,0-2.3-.4-3.4-1.3l.2-1.8c1.2.6,2.2,1.1,3.2,1.1s2.1-.5,2.1-1.5c0-2.3-5.7-1.4-5.7-5.4s1.8-3.5,4-3.5,2.3.5,3.5,1.4l-.6,1.6c-.8-.6-1.9-1-2.8-1s-1.9.6-1.9,1.4c0,2.1,5.7,1.6,5.7,5.3s-2.1,3.8-4.2,3.8Z"/>
      <path class="cls-12" d="M184.1,331v-2h1.8v-3.4h2v3.4h3v2h-3v3.9c0,1.4.7,2,1.5,2s.8-.1,1.2-.3l.2,1.2c-.5.5-1.2.8-1.9.8-1.7,0-3-1.4-3-3.7v-3.8h-1.8Z"/>
      <path class="cls-12" d="M201.8,338.4l-.8-1.4c-.7,1-1.9,1.6-3.1,1.6-2.1,0-3.7-1.7-3.7-4.5v-5.1h2v5.1c0,1.7.9,2.6,2,2.6s2.2-1,2.2-2.2v-5.5h2v9.4h-.7Z"/>
      <path class="cls-12" d="M213.8,338.4l-.8-1.4c-.8,1-1.8,1.6-3,1.6-2.2,0-4-2.2-4-4.9s1.8-4.9,4-4.9,1.8.4,2.4,1v-5.4h2v14h-.7ZM210.3,330.7c-1.2,0-2.2,1.4-2.2,3s1,3,2.2,3,2.2-1.4,2.2-3-1-3-2.2-3Z"/>
      <path class="cls-12" d="M220.7,325.4c0,.6-.5,1.2-1.2,1.2s-1.2-.5-1.2-1.2.5-1.2,1.2-1.2,1.2.5,1.2,1.2ZM218.5,329h2v9.4h-2v-9.4Z"/>
      <path class="cls-12" d="M233,333.7c0,2.7-2,4.9-4.5,4.9s-4.5-2.2-4.5-4.9,2-4.9,4.5-4.9,4.5,2.2,4.5,4.9ZM226.1,333.7c0,1.7,1.1,3,2.4,3s2.4-1.4,2.4-3-1.1-3-2.4-3-2.4,1.4-2.4,3Z"/>
    </g>
  </g>
  <g>
    <path class="cls-12" d="M301.8,281.9h3.7v1.2h-2.4v1.5h2.4v1.2h-2.4v2.2h2.4v1.2h-3.7v-7.3Z"/>
    <path class="cls-12" d="M311.6,291.6v-2.9c-.4.4-.9.6-1.5.6-1.4,0-2.5-1.3-2.5-3s1.1-3,2.5-3,1.4.4,1.8,1l.5-.9h.4v8.2h-1.2ZM310.2,284.5c-.7,0-1.3.8-1.3,1.8s.6,1.8,1.3,1.8,1.3-.8,1.3-1.8-.6-1.8-1.3-1.8Z"/>
    <path class="cls-12" d="M319.7,289.2l-.5-.8c-.4.6-1.2,1-1.9,1-1.3,0-2.2-1-2.2-2.7v-3.1h1.2v3.1c0,1,.6,1.6,1.2,1.6s1.4-.6,1.4-1.3v-3.3h1.2v5.7h-.4Z"/>
    <path class="cls-12" d="M323.9,281.3c0,.4-.3.7-.7.7s-.7-.3-.7-.7.3-.7.7-.7.7.3.7.7ZM322.6,283.5h1.2v5.7h-1.2v-5.7Z"/>
    <path class="cls-12" d="M329,289.3c-.6,0-1.1-.2-1.5-.6v2.9h-1.2v-8.2h.4l.5.9c.5-.6,1.1-1,1.8-1,1.4,0,2.5,1.3,2.5,3s-1.1,3-2.5,3ZM328.8,284.5c-.7,0-1.3.8-1.3,1.8s.6,1.8,1.3,1.8,1.3-.8,1.3-1.8-.6-1.8-1.3-1.8Z"/>
    <path class="cls-12" d="M337.2,289.2h-1.2v-3.9c0-.5-.3-.8-.6-.8s-.6.3-.6.7v4h-1.2v-5.7h.4l.3.6c.3-.4.8-.7,1.3-.7s.9.2,1.2.6c.3-.4.7-.6,1.2-.6.9,0,1.7.8,1.7,2v3.9h-1.2v-3.9c0-.5-.3-.8-.6-.8s-.6.3-.6.7v4Z"/>
    <path class="cls-12" d="M344.9,288.2c.6,0,1.2-.4,1.5-.7l.6.8c-.5.6-1.3,1-2.2,1-1.9,0-3-1.3-3-3s1.1-3,2.8-3,2.8,1.4,2.5,3.1h-4c0,.8.5,1.7,1.7,1.7ZM345.9,285.5c0-.6-.4-1-1.2-1s-1.1.2-1.3,1h2.5Z"/>
    <path class="cls-12" d="M353.3,289.2v-3.1c0-1-.6-1.6-1.2-1.6s-1.3.6-1.3,1.4v3.3h-1.2v-5.7h.4l.5.8c.4-.6,1.2-1,1.9-1,1.3,0,2.3,1,2.3,2.7v3.1h-1.2Z"/>
    <path class="cls-12" d="M356.6,284.7v-1.2h1.1v-2.1h1.2v2.1h1.8v1.2h-1.8v2.4c0,.9.4,1.2.9,1.2s.5,0,.7-.2v.7c-.2.3-.6.5-1,.5-1,0-1.8-.9-1.8-2.3v-2.3h-1.1Z"/>
    <path class="cls-12" d="M301.8,295.1h2.6c1.1,0,2,.9,2,2s-.2.9-.4,1.2c.6.4.9,1,.9,1.8,0,1.3-1,2.3-2.3,2.3h-2.7v-7.3ZM303,297.8h1.3c.4,0,.7-.3.7-.7s-.3-.7-.7-.7h-1.3v1.5ZM303,301.2h1.5c.6,0,1.1-.5,1.1-1.1s-.5-1.1-1.1-1.1h-1.5v2.2Z"/>
    <path class="cls-12" d="M314.3,299.5c0,1.7-1.2,3-2.7,3s-2.7-1.3-2.7-3,1.2-3,2.7-3,2.7,1.3,2.7,3ZM310.1,299.5c0,1,.6,1.8,1.5,1.8s1.5-.8,1.5-1.8-.6-1.8-1.5-1.8-1.5.8-1.5,1.8Z"/>
    <path class="cls-12" d="M317.7,299.1v3.3h-1.2v-5.7h.4l.5.8c.4-.6,1-1,1.8-1s.4,0,.4,0v2.4h-.4l-.6-1.1c-.4.2-.8.7-.8,1.3Z"/>
    <path class="cls-12" d="M322.6,299.1v3.3h-1.2v-5.7h.4l.5.8c.4-.6,1-1,1.8-1s.4,0,.4,0v2.4h-.4l-.6-1.1c-.4.2-.8.7-.8,1.3Z"/>
    <path class="cls-12" d="M331.4,299.5c0,1.7-1.2,3-2.7,3s-2.7-1.3-2.7-3,1.2-3,2.7-3,2.7,1.3,2.7,3ZM327.2,299.5c0,1,.6,1.8,1.5,1.8s1.5-.8,1.5-1.8-.6-1.8-1.5-1.8-1.5.8-1.5,1.8Z"/>
    <path class="cls-12" d="M339.4,296.7h1.3l-2.4,5.9h-.4l-1.3-3.1-1.3,3.1h-.4l-2.4-5.9h1.3l1.3,3.2.8-2-.5-1.1h1.3l1.3,3.2,1.3-3.2Z"/>
    <path class="cls-12" d="M343.5,294.5c0,.4-.3.7-.7.7s-.7-.3-.7-.7.3-.7.7-.7.7.3.7.7ZM342.1,296.7h1.2v5.7h-1.2v-5.7Z"/>
    <path class="cls-12" d="M349.6,302.4v-3.1c0-1-.6-1.6-1.2-1.6s-1.3.6-1.3,1.4v3.3h-1.2v-5.7h.4l.5.8c.4-.6,1.2-1,1.9-1,1.3,0,2.3,1,2.3,2.7v3.1h-1.2Z"/>
    <path class="cls-12" d="M355.4,304.8c-1,0-1.9-.6-2.3-1.2l.7-.7c.5.5.9.8,1.7.8s1.3-.5,1.3-1.6v-.2c-.4.4-.9.6-1.5.6-1.4,0-2.5-1.3-2.5-3s1.1-3,2.5-3,1.4.4,1.8,1l.5-.9h.4v5.4c0,1.8-1.2,2.8-2.6,2.8ZM355.5,297.7c-.7,0-1.3.8-1.3,1.8s.6,1.8,1.3,1.8,1.3-.8,1.3-1.8-.6-1.8-1.3-1.8Z"/>
    <path class="cls-12" d="M304.2,308.1c1.7,0,2.6,1.7,2.6,3.8s-.9,3.8-2.6,3.8-2.6-1.7-2.6-3.8.9-3.8,2.6-3.8ZM304.2,314.5c.8,0,1.3-1.2,1.3-2.6s-.5-2.6-1.3-2.6-1.3,1.2-1.3,2.6.5,2.6,1.3,2.6Z"/>
    <path class="cls-12" d="M313.3,308.4c-.2,0-.6-.2-.9-.2s-.9.3-.9,1.2v.5h1.7v1.2h-1.7v4.5h-1.2v-4.5h-1.3v-1.2h1.3v-.5c0-1.4.8-2.3,1.8-2.3s1.2.2,1.5.4l-.2,1Z"/>
    <path class="cls-12" d="M317.6,311.1v4.5h-1.2v-4.5h-1.3v-1.2h1.3v-.5c0-1.4.8-2.3,1.8-2.3s1.2.2,1.5.4l-.2,1c-.2,0-.6-.2-.9-.2s-.9.3-.9,1.2v.5h5v5.7h-1.2v-4.5h-3.8ZM322.7,307.7c0,.4-.3.7-.7.7s-.7-.3-.7-.7.3-.7.7-.7.7.3.7.7Z"/>
    <path class="cls-12" d="M328.7,311.5c-.3-.4-.8-.6-1.2-.6-.8,0-1.4.8-1.4,1.8s.6,1.8,1.4,1.8,1-.2,1.2-.6l.7.6c-.5.7-1.2,1.1-2.1,1.1-1.5,0-2.6-1.3-2.6-3s1.2-3,2.6-3,1.6.5,2.1,1.1l-.7.6Z"/>
    <path class="cls-12" d="M333.9,314.6c.6,0,1.2-.4,1.5-.7l.6.8c-.5.6-1.3,1-2.2,1-1.9,0-3-1.3-3-3s1.1-3,2.8-3,2.8,1.4,2.5,3.1h-4c0,.8.5,1.7,1.7,1.7ZM334.9,311.9c0-.6-.4-1-1.2-1s-1.1.2-1.3,1h2.5Z"/>
  </g>
  <g>
    <path class="cls-12" d="M301.8,207.6h3.7v1.2h-2.4v1.5h2.4v1.2h-2.4v2.2h2.4v1.2h-3.7v-7.3Z"/>
    <path class="cls-12" d="M311.6,217.4v-2.9c-.4.4-.9.6-1.5.6-1.4,0-2.5-1.3-2.5-3s1.1-3,2.5-3,1.4.4,1.8,1l.5-.9h.4v8.2h-1.2ZM310.3,210.2c-.7,0-1.3.8-1.3,1.8s.6,1.8,1.3,1.8,1.3-.8,1.3-1.8-.6-1.8-1.3-1.8Z"/>
    <path class="cls-12" d="M319.7,215l-.5-.8c-.4.6-1.2,1-1.9,1-1.3,0-2.2-1-2.2-2.7v-3.1h1.2v3.1c0,1,.6,1.6,1.2,1.6s1.4-.6,1.4-1.3v-3.3h1.2v5.7h-.4Z"/>
    <path class="cls-12" d="M323.9,207c0,.4-.3.7-.7.7s-.7-.3-.7-.7.3-.7.7-.7.7.3.7.7ZM322.6,209.2h1.2v5.7h-1.2v-5.7Z"/>
    <path class="cls-12" d="M329,215.1c-.6,0-1.1-.2-1.5-.6v2.9h-1.2v-8.2h.4l.5.9c.5-.6,1.1-1,1.8-1,1.4,0,2.5,1.3,2.5,3s-1.1,3-2.5,3ZM328.8,210.2c-.7,0-1.3.8-1.3,1.8s.6,1.8,1.3,1.8,1.3-.8,1.3-1.8-.6-1.8-1.3-1.8Z"/>
    <path class="cls-12" d="M337.3,215h-1.2v-3.9c0-.5-.3-.8-.6-.8s-.6.3-.6.7v4h-1.2v-5.7h.4l.3.6c.3-.4.8-.7,1.3-.7s.9.2,1.2.6c.3-.4.7-.6,1.2-.6.9,0,1.7.8,1.7,2v3.9h-1.2v-3.9c0-.5-.3-.8-.6-.8s-.6.3-.6.7v4Z"/>
    <path class="cls-12" d="M344.9,213.9c.6,0,1.2-.4,1.5-.7l.6.8c-.5.6-1.3,1-2.2,1-1.9,0-3-1.3-3-3s1.1-3,2.8-3,2.8,1.4,2.5,3.1h-4c0,.8.5,1.7,1.7,1.7ZM345.9,211.2c0-.6-.4-1-1.2-1s-1.1.2-1.3,1h2.5Z"/>
    <path class="cls-12" d="M353.3,215v-3.1c0-1-.6-1.6-1.2-1.6s-1.3.6-1.3,1.4v3.3h-1.2v-5.7h.4l.5.8c.4-.6,1.2-1,1.9-1,1.3,0,2.3,1,2.3,2.7v3.1h-1.2Z"/>
    <path class="cls-12" d="M356.6,210.4v-1.2h1.1v-2.1h1.2v2.1h1.8v1.2h-1.8v2.4c0,.9.4,1.2.9,1.2s.5,0,.7-.2v.7c-.2.3-.6.5-1,.5-1,0-1.8-.9-1.8-2.3v-2.3h-1.1Z"/>
    <path class="cls-12" d="M301.8,220.8h2.6c1.1,0,2,.9,2,2s-.2.9-.4,1.2c.6.4.9,1,.9,1.8,0,1.3-1,2.3-2.3,2.3h-2.7v-7.3ZM303,223.5h1.3c.4,0,.7-.3.7-.7s-.3-.7-.7-.7h-1.3v1.5ZM303,226.9h1.5c.6,0,1.1-.5,1.1-1.1s-.5-1.1-1.1-1.1h-1.5v2.2Z"/>
    <path class="cls-12" d="M314.3,225.3c0,1.7-1.2,3-2.7,3s-2.7-1.3-2.7-3,1.2-3,2.7-3,2.7,1.3,2.7,3ZM310.1,225.3c0,1,.6,1.8,1.5,1.8s1.5-.8,1.5-1.8-.6-1.8-1.5-1.8-1.5.8-1.5,1.8Z"/>
    <path class="cls-12" d="M317.7,224.8v3.3h-1.2v-5.7h.4l.5.8c.4-.6,1-1,1.8-1s.4,0,.4,0v2.4h-.4l-.6-1.1c-.4.2-.8.7-.8,1.3Z"/>
    <path class="cls-12" d="M322.6,224.8v3.3h-1.2v-5.7h.4l.5.8c.4-.6,1-1,1.8-1s.4,0,.4,0v2.4h-.4l-.6-1.1c-.4.2-.8.7-.8,1.3Z"/>
    <path class="cls-12" d="M331.4,225.3c0,1.7-1.2,3-2.7,3s-2.7-1.3-2.7-3,1.2-3,2.7-3,2.7,1.3,2.7,3ZM327.2,225.3c0,1,.6,1.8,1.5,1.8s1.5-.8,1.5-1.8-.6-1.8-1.5-1.8-1.5.8-1.5,1.8Z"/>
    <path class="cls-12" d="M339.4,222.4h1.3l-2.4,5.9h-.4l-1.3-3.1-1.3,3.1h-.4l-2.4-5.9h1.3l1.3,3.2.8-2-.5-1.1h1.3l1.3,3.2,1.3-3.2Z"/>
    <path class="cls-12" d="M343.5,220.2c0,.4-.3.7-.7.7s-.7-.3-.7-.7.3-.7.7-.7.7.3.7.7ZM342.2,222.4h1.2v5.7h-1.2v-5.7Z"/>
    <path class="cls-12" d="M349.6,228.2v-3.1c0-1-.6-1.6-1.2-1.6s-1.3.6-1.3,1.4v3.3h-1.2v-5.7h.4l.5.8c.4-.6,1.2-1,1.9-1,1.3,0,2.3,1,2.3,2.7v3.1h-1.2Z"/>
    <path class="cls-12" d="M355.5,230.6c-1,0-1.9-.6-2.3-1.2l.7-.7c.5.5.9.8,1.7.8s1.3-.5,1.3-1.6v-.2c-.4.4-.9.6-1.5.6-1.4,0-2.5-1.3-2.5-3s1.1-3,2.5-3,1.4.4,1.8,1l.5-.9h.4v5.4c0,1.8-1.2,2.8-2.6,2.8ZM355.5,223.4c-.7,0-1.3.8-1.3,1.8s.6,1.8,1.3,1.8,1.3-.8,1.3-1.8-.6-1.8-1.3-1.8Z"/>
    <path class="cls-12" d="M304.3,233.9c1.7,0,2.6,1.7,2.6,3.8s-.9,3.8-2.6,3.8-2.6-1.7-2.6-3.8.9-3.8,2.6-3.8ZM304.3,240.3c.8,0,1.3-1.2,1.3-2.6s-.5-2.6-1.3-2.6-1.3,1.2-1.3,2.6.5,2.6,1.3,2.6Z"/>
    <path class="cls-12" d="M313.3,234.2c-.2,0-.6-.2-.9-.2s-.9.3-.9,1.2v.5h1.7v1.2h-1.7v4.5h-1.2v-4.5h-1.3v-1.2h1.3v-.5c0-1.4.8-2.3,1.8-2.3s1.2.2,1.5.4l-.2,1Z"/>
    <path class="cls-12" d="M317.6,236.8v4.5h-1.2v-4.5h-1.3v-1.2h1.3v-.5c0-1.4.8-2.3,1.8-2.3s1.2.2,1.5.4l-.2,1c-.2,0-.6-.2-.9-.2s-.9.3-.9,1.2v.5h5v5.7h-1.2v-4.5h-3.8ZM322.7,233.4c0,.4-.3.7-.7.7s-.7-.3-.7-.7.3-.7.7-.7.7.3.7.7Z"/>
    <path class="cls-12" d="M328.7,237.2c-.3-.4-.8-.6-1.2-.6-.8,0-1.4.8-1.4,1.8s.6,1.8,1.4,1.8,1-.2,1.2-.6l.7.6c-.5.7-1.2,1.1-2.1,1.1-1.5,0-2.6-1.3-2.6-3s1.2-3,2.6-3,1.6.5,2.1,1.1l-.7.6Z"/>
    <path class="cls-12" d="M333.9,240.3c.6,0,1.2-.4,1.5-.7l.6.8c-.5.6-1.3,1-2.2,1-1.9,0-3-1.3-3-3s1.1-3,2.8-3,2.8,1.4,2.5,3.1h-4c0,.8.5,1.7,1.7,1.7ZM334.9,237.6c0-.6-.4-1-1.2-1s-1.1.2-1.3,1h2.5Z"/>
  </g>
  <g>
    <path class="cls-12" d="M301.8,133h3.7v1.2h-2.4v1.5h2.4v1.2h-2.4v2.2h2.4v1.2h-3.7v-7.3Z"/>
    <path class="cls-12" d="M311.6,142.8v-2.9c-.4.4-.9.6-1.5.6-1.4,0-2.5-1.3-2.5-3s1.1-3,2.5-3,1.4.4,1.8,1l.5-.9h.4v8.2h-1.2ZM310.3,135.6c-.7,0-1.3.8-1.3,1.8s.6,1.8,1.3,1.8,1.3-.8,1.3-1.8-.6-1.8-1.3-1.8Z"/>
    <path class="cls-12" d="M319.8,140.3l-.5-.8c-.4.6-1.2,1-1.9,1-1.3,0-2.2-1-2.2-2.7v-3.1h1.2v3.1c0,1,.6,1.6,1.2,1.6s1.4-.6,1.4-1.3v-3.3h1.2v5.7h-.4Z"/>
    <path class="cls-12" d="M324,132.4c0,.4-.3.7-.7.7s-.7-.3-.7-.7.3-.7.7-.7.7.3.7.7ZM322.6,134.6h1.2v5.7h-1.2v-5.7Z"/>
    <path class="cls-12" d="M329,140.4c-.6,0-1.1-.2-1.5-.6v2.9h-1.2v-8.2h.4l.5.9c.5-.6,1.1-1,1.8-1,1.4,0,2.5,1.3,2.5,3s-1.1,3-2.5,3ZM328.8,135.6c-.7,0-1.3.8-1.3,1.8s.6,1.8,1.3,1.8,1.3-.8,1.3-1.8-.6-1.8-1.3-1.8Z"/>
    <path class="cls-12" d="M337.3,140.3h-1.2v-3.9c0-.5-.3-.8-.6-.8s-.6.3-.6.7v4h-1.2v-5.7h.4l.3.6c.3-.4.8-.7,1.3-.7s.9.2,1.2.6c.3-.4.7-.6,1.2-.6.9,0,1.7.8,1.7,2v3.9h-1.2v-3.9c0-.5-.3-.8-.6-.8s-.6.3-.6.7v4Z"/>
    <path class="cls-12" d="M344.9,139.3c.6,0,1.2-.4,1.5-.7l.6.8c-.5.6-1.3,1-2.2,1-1.9,0-3-1.3-3-3s1.1-3,2.8-3,2.8,1.4,2.5,3.1h-4c0,.8.5,1.7,1.7,1.7ZM345.9,136.6c0-.6-.4-1-1.2-1s-1.1.2-1.3,1h2.5Z"/>
    <path class="cls-12" d="M353.3,140.3v-3.1c0-1-.6-1.6-1.2-1.6s-1.3.6-1.3,1.4v3.3h-1.2v-5.7h.4l.5.8c.4-.6,1.2-1,1.9-1,1.3,0,2.3,1,2.3,2.7v3.1h-1.2Z"/>
    <path class="cls-12" d="M356.6,135.8v-1.2h1.1v-2.1h1.2v2.1h1.8v1.2h-1.8v2.4c0,.9.4,1.2.9,1.2s.5,0,.7-.2v.7c-.2.3-.6.5-1,.5-1,0-1.8-.9-1.8-2.3v-2.3h-1.1Z"/>
    <path class="cls-12" d="M301.8,146.2h2.6c1.1,0,2,.9,2,2s-.2.9-.4,1.2c.6.4.9,1,.9,1.8,0,1.3-1,2.3-2.3,2.3h-2.7v-7.3ZM303,148.9h1.3c.4,0,.7-.3.7-.7s-.3-.7-.7-.7h-1.3v1.5ZM303,152.3h1.5c.6,0,1.1-.5,1.1-1.1s-.5-1.1-1.1-1.1h-1.5v2.2Z"/>
    <path class="cls-12" d="M314.3,150.6c0,1.7-1.2,3-2.7,3s-2.7-1.3-2.7-3,1.2-3,2.7-3,2.7,1.3,2.7,3ZM310.1,150.6c0,1,.6,1.8,1.5,1.8s1.5-.8,1.5-1.8-.6-1.8-1.5-1.8-1.5.8-1.5,1.8Z"/>
    <path class="cls-12" d="M317.7,150.2v3.3h-1.2v-5.7h.4l.5.8c.4-.6,1-1,1.8-1s.4,0,.4,0v2.4h-.4l-.6-1.1c-.4.2-.8.7-.8,1.3Z"/>
    <path class="cls-12" d="M322.6,150.2v3.3h-1.2v-5.7h.4l.5.8c.4-.6,1-1,1.8-1s.4,0,.4,0v2.4h-.4l-.6-1.1c-.4.2-.8.7-.8,1.3Z"/>
    <path class="cls-12" d="M331.4,150.6c0,1.7-1.2,3-2.7,3s-2.7-1.3-2.7-3,1.2-3,2.7-3,2.7,1.3,2.7,3ZM327.3,150.6c0,1,.6,1.8,1.5,1.8s1.5-.8,1.5-1.8-.6-1.8-1.5-1.8-1.5.8-1.5,1.8Z"/>
    <path class="cls-12" d="M339.4,147.8h1.3l-2.4,5.9h-.4l-1.3-3.1-1.3,3.1h-.4l-2.4-5.9h1.3l1.3,3.2.8-2-.5-1.1h1.3l1.3,3.2,1.3-3.2Z"/>
    <path class="cls-12" d="M343.5,145.6c0,.4-.3.7-.7.7s-.7-.3-.7-.7.3-.7.7-.7.7.3.7.7ZM342.2,147.8h1.2v5.7h-1.2v-5.7Z"/>
    <path class="cls-12" d="M349.6,153.5v-3.1c0-1-.6-1.6-1.2-1.6s-1.3.6-1.3,1.4v3.3h-1.2v-5.7h.4l.5.8c.4-.6,1.2-1,1.9-1,1.3,0,2.3,1,2.3,2.7v3.1h-1.2Z"/>
    <path class="cls-12" d="M355.5,156c-1,0-1.9-.6-2.3-1.2l.7-.7c.5.5.9.8,1.7.8s1.3-.5,1.3-1.6v-.2c-.4.4-.9.6-1.5.6-1.4,0-2.5-1.3-2.5-3s1.1-3,2.5-3,1.4.4,1.8,1l.5-.9h.4v5.4c0,1.8-1.2,2.8-2.6,2.8ZM355.5,148.8c-.7,0-1.3.8-1.3,1.8s.6,1.8,1.3,1.8,1.3-.8,1.3-1.8-.6-1.8-1.3-1.8Z"/>
    <path class="cls-12" d="M304.3,159.3c1.7,0,2.6,1.7,2.6,3.8s-.9,3.8-2.6,3.8-2.6-1.7-2.6-3.8.9-3.8,2.6-3.8ZM304.3,165.6c.8,0,1.3-1.2,1.3-2.6s-.5-2.6-1.3-2.6-1.3,1.2-1.3,2.6.5,2.6,1.3,2.6Z"/>
    <path class="cls-12" d="M313.3,159.5c-.2,0-.6-.2-.9-.2s-.9.3-.9,1.2v.5h1.7v1.2h-1.7v4.5h-1.2v-4.5h-1.3v-1.2h1.3v-.5c0-1.4.8-2.3,1.8-2.3s1.2.2,1.5.4l-.2,1Z"/>
    <path class="cls-12" d="M317.6,162.2v4.5h-1.2v-4.5h-1.3v-1.2h1.3v-.5c0-1.4.8-2.3,1.8-2.3s1.2.2,1.5.4l-.2,1c-.2,0-.6-.2-.9-.2s-.9.3-.9,1.2v.5h5v5.7h-1.2v-4.5h-3.8ZM322.7,158.8c0,.4-.3.7-.7.7s-.7-.3-.7-.7.3-.7.7-.7.7.3.7.7Z"/>
    <path class="cls-12" d="M328.7,162.6c-.3-.4-.8-.6-1.2-.6-.8,0-1.4.8-1.4,1.8s.6,1.8,1.4,1.8,1-.2,1.2-.6l.7.6c-.5.7-1.2,1.1-2.1,1.1-1.5,0-2.6-1.3-2.6-3s1.2-3,2.6-3,1.6.5,2.1,1.1l-.7.6Z"/>
    <path class="cls-12" d="M333.9,165.7c.6,0,1.2-.4,1.5-.7l.6.8c-.5.6-1.3,1-2.2,1-1.9,0-3-1.3-3-3s1.1-3,2.8-3,2.8,1.4,2.5,3.1h-4c0,.8.5,1.7,1.7,1.7ZM334.9,163c0-.6-.4-1-1.2-1s-1.1.2-1.3,1h2.5Z"/>
  </g>
  <g id="gltedit1">
    <rect class="cls-7" x="484.8" y="280.3" width="71" height="47.9"/>
    <g>
      <path class="cls-3" d="M531.9,300.9h-1.6v-1.6h3.1v4.7h-.5l-.3-.6c-.6.5-1.3.7-2,.7-2.3,0-3.8-2.2-3.8-4.8s1.5-4.8,3.8-4.8,2.3.7,2.9,1.8l-.9.9c-.6-.8-1.2-1.1-1.9-1.1-1.2,0-2.2,1.2-2.2,3.3s1,3.3,2.2,3.3.7-.1,1.1-.4v-1.3Z"/>
      <path class="cls-3" d="M538,302.4h2.6v1.6h-4.2v-9.3h1.6v7.8Z"/>
      <path class="cls-3" d="M541.5,296.2v-1.6h6.8v1.6h-2.6v7.8h-1.6v-7.8h-2.6Z"/>
      <path class="cls-3" d="M503.7,311.4h4.7v1.6h-3.1v1.9h3.1v1.6h-3.1v2.8h3.1v1.6h-4.7v-9.3Z"/>
      <path class="cls-3" d="M511.5,311.4h2.2c2.3,0,4.2,2.1,4.2,4.7s-1.9,4.7-4.2,4.7h-2.2v-9.3ZM513.1,319.2h.6c1.4,0,2.5-1.4,2.5-3.1s-1.1-3.1-2.5-3.1h-.6v6.2Z"/>
      <path class="cls-3" d="M522.4,313h-1.6v-1.6h4.7v1.6h-1.6v6.2h1.6v1.6h-4.7v-1.6h1.6v-6.2Z"/>
      <path class="cls-3" d="M527.5,313v-1.6h6.8v1.6h-2.6v7.8h-1.6v-7.8h-2.6Z"/>
      <path class="cls-3" d="M543.4,314.4l-1.7.6-.4-.6,3.1-3.1h.5v7.9h1.6v1.6h-4.7v-1.6h1.6v-4.8Z"/>
    </g>
    <rect class="cls-2" x="539.1" y="271.3" width="7.6" height="25.7" transform="translate(827.1 -258.8) rotate(90)"/>
  </g>
  <g id="gltedit2">
    <rect class="cls-7" x="560.6" y="280.3" width="71" height="47.9"/>
    <g>
      <path class="cls-3" d="M607.6,300.9h-1.6v-1.6h3.1v4.7h-.5l-.3-.6c-.6.5-1.3.7-2,.7-2.3,0-3.8-2.2-3.8-4.8s1.5-4.8,3.8-4.8,2.3.7,2.9,1.8l-.9.9c-.6-.8-1.2-1.1-1.9-1.1-1.2,0-2.2,1.2-2.2,3.3s1,3.3,2.2,3.3.7-.1,1.1-.4v-1.3Z"/>
      <path class="cls-3" d="M613.7,302.5h2.6v1.6h-4.2v-9.3h1.6v7.8Z"/>
      <path class="cls-3" d="M617.3,296.2v-1.6h6.8v1.6h-2.6v7.8h-1.6v-7.8h-2.6Z"/>
      <path class="cls-3" d="M579.5,311.5h4.7v1.6h-3.1v1.9h3.1v1.6h-3.1v2.8h3.1v1.6h-4.7v-9.3Z"/>
      <path class="cls-3" d="M587.2,311.5h2.2c2.3,0,4.2,2.1,4.2,4.7s-1.9,4.7-4.2,4.7h-2.2v-9.3ZM588.8,319.3h.6c1.4,0,2.5-1.4,2.5-3.1s-1.1-3.1-2.5-3.1h-.6v6.2Z"/>
      <path class="cls-3" d="M598.1,313h-1.6v-1.6h4.7v1.6h-1.6v6.2h1.6v1.6h-4.7v-1.6h1.6v-6.2Z"/>
      <path class="cls-3" d="M603.3,313v-1.6h6.8v1.6h-2.6v7.8h-1.6v-7.8h-2.6Z"/>
      <path class="cls-3" d="M621.5,314.4c0-.9-.7-1.6-1.6-1.6s-1.6.7-1.6,1.6v.8h-1.6v-.8c0-1.7,1.4-3.1,3.1-3.1s3.1,1.4,3.1,3.1-.6,2.1-1.5,2.9l-2,1.9h3.5v1.6h-6.2v-.6l3.3-3.5c.5-.5,1.3-1.4,1.3-2.3Z"/>
    </g>
    <rect class="cls-2" x="569.6" y="271.3" width="7.6" height="25.7" transform="translate(857.5 -289.3) rotate(90)"/>
  </g>
  <g id="gltedit3">
    <rect class="cls-7" x="637" y="226.1" width="63.9" height="102.2"/>
    <g>
      <path class="cls-3" d="M677.3,300.8h-1.6v-1.6h3.1v4.7h-.5l-.3-.6c-.6.5-1.3.7-2,.7-2.3,0-3.8-2.2-3.8-4.8s1.5-4.8,3.8-4.8,2.3.7,2.9,1.8l-.9.9c-.6-.8-1.2-1.1-1.9-1.1-1.2,0-2.2,1.2-2.2,3.3s1,3.3,2.2,3.3.7-.1,1.1-.4v-1.3Z"/>
      <path class="cls-3" d="M683.3,302.3h2.6v1.6h-4.2v-9.3h1.6v7.8Z"/>
      <path class="cls-3" d="M686.9,296.1v-1.6h6.8v1.6h-2.6v7.8h-1.6v-7.8h-2.6Z"/>
      <path class="cls-3" d="M649.1,311.3h4.7v1.6h-3.1v1.9h3.1v1.6h-3.1v2.8h3.1v1.6h-4.7v-9.3Z"/>
      <path class="cls-3" d="M656.9,311.3h2.2c2.3,0,4.2,2.1,4.2,4.7s-1.9,4.7-4.2,4.7h-2.2v-9.3ZM658.4,319.1h.6c1.4,0,2.5-1.4,2.5-3.1s-1.1-3.1-2.5-3.1h-.6v6.2Z"/>
      <path class="cls-3" d="M667.8,312.9h-1.6v-1.6h4.7v1.6h-1.6v6.2h1.6v1.6h-4.7v-1.6h1.6v-6.2Z"/>
      <path class="cls-3" d="M672.9,312.9v-1.6h6.8v1.6h-2.6v7.8h-1.6v-7.8h-2.6Z"/>
      <path class="cls-3" d="M692.7,317.7c0,1.7-1.4,3.1-3.1,3.1s-2.6-.9-3-2.2l1.5-.5c.2.6.8,1.2,1.5,1.2s1.6-.7,1.6-1.6-.7-1.6-1.6-1.6h-1.2v-.5l2.1-2.8h-2.5l-.8,1.2h-.5v-2.8h6.1v.8l-2,2.7c1.1.5,1.9,1.5,1.9,2.9Z"/>
    </g>
    <rect class="cls-2" x="637" y="226.1" width="7.6" height="25.7" transform="translate(1281.6 477.9) rotate(180)"/>
  </g>
  <g id="gltmovie">
    <rect class="cls-7" x="482.2" y="31.6" width="218.7" height="174.5"/>
    <g>
      <path class="cls-3" d="M562.2,120.4h-1.6v-1.6h3.1v4.7h-.5l-.3-.6c-.6.5-1.3.7-2,.7-2.3,0-3.8-2.2-3.8-4.8s1.5-4.8,3.8-4.8,2.3.7,2.9,1.8l-.9.9c-.6-.8-1.2-1.1-1.9-1.1-1.2,0-2.2,1.2-2.2,3.3s1,3.3,2.2,3.3.7-.1,1.1-.4v-1.3Z"/>
      <path class="cls-3" d="M568.3,122h2.6v1.6h-4.2v-9.3h1.6v7.8Z"/>
      <path class="cls-3" d="M571.9,115.7v-1.6h6.8v1.6h-2.6v7.8h-1.6v-7.8h-2.6Z"/>
      <path class="cls-3" d="M591.7,123.5v-5.6l-2.3,4.2h-.3l-2.3-4.2v5.6h-1.5v-9.3h1.3l2.6,4.9,2.6-4.9h1.3v9.3h-1.5Z"/>
      <path class="cls-3" d="M599.4,114c2.1,0,3.3,2.2,3.3,4.8s-1.2,4.8-3.3,4.8-3.3-2.2-3.3-4.8,1.2-4.8,3.3-4.8ZM599.4,122.1c1.1,0,1.6-1.5,1.6-3.3s-.6-3.3-1.6-3.3-1.6,1.5-1.6,3.3.6,3.3,1.6,3.3Z"/>
      <path class="cls-3" d="M608.1,123.7h-.3l-3.7-9.5h1.7l2.2,5.6,2.2-5.6h1.7l-3.7,9.5Z"/>
      <path class="cls-3" d="M615,115.7h-1.6v-1.6h4.7v1.6h-1.6v6.2h1.6v1.6h-4.7v-1.6h1.6v-6.2Z"/>
      <path class="cls-3" d="M621.2,114.2h4.7v1.6h-3.1v1.9h3.1v1.6h-3.1v2.8h3.1v1.6h-4.7v-9.3Z"/>
    </g>
    <rect class="cls-2" x="482.2" y="180.4" width="7.6" height="25.7" transform="translate(972 386.4) rotate(180)"/>
  </g>
  <rect class="cls-3" x="469.6" y="226.1" width="7.6" height="25.7" transform="translate(946.9 477.9) rotate(180)"/>
  <g id="gltdark">
    <g id="gltdark-2" data-name="gltdark">
      <rect class="cls-4" x="566" y="456.1" width="62.2" height="75.3"/>
      <rect class="cls-4" x="482.8" y="400.3" width="145.4" height="74.5"/>
    </g>
    <text class="cls-1" transform="translate(492.3 462.6)"><tspan x="0" y="0">Darkroom</tspan></text>
    <text class="cls-15" transform="translate(556.6 421.5)"><tspan x="0" y="0">GLTDARK</tspan></text>
    <g>
      <rect class="cls-4" x="495" y="399.3" width="27.7" height="9.6"/>
      <path class="cls-3" d="M521.7,400.3v7.6h-25.7v-7.6h25.7M523.7,398.3h-29.7v11.6h29.7v-11.6h0Z"/>
    </g>
  </g>
  <rect class="cls-3" x="468.7" y="369.9" width="7.6" height="25.7" transform="translate(945 765.5) rotate(180)"/>
  <rect class="cls-2" x="364.7" y="174.8" width="7.6" height="25.7" transform="translate(737 375.3) rotate(180)"/>
  <rect class="cls-2" x="365.6" y="101.4" width="7.6" height="25.7" transform="translate(738.8 228.5) rotate(180)"/>
  <rect class="cls-2" x="365.7" y="249" width="7.6" height="25.7" transform="translate(739.1 523.7) rotate(180)"/>
  <rect class="cls-2" x="504.3" y="350.4" width="7.6" height="25.7" transform="translate(871.4 -144.9) rotate(90)"/>
  <rect class="cls-2" x="275.9" y="325.5" width="7.6" height="25.7" transform="translate(559.5 676.8) rotate(180)"/>
  <g id="gltfocus">
    <g id="gltfocus-2" data-name="gltfocus">
      <rect class="cls-10" x="25.8" y="363.8" width="123.4" height="166.3"/>
      <g>
        <path class="cls-14" d="M43.6,497.2h-1.6v-1.6h3.1v4.7h-.5l-.3-.6c-.6.5-1.3.7-2,.7-2.3,0-3.8-2.2-3.8-4.8s1.5-4.8,3.8-4.8,2.3.7,2.9,1.8l-.9.9c-.6-.8-1.2-1.1-1.9-1.1-1.2,0-2.2,1.2-2.2,3.3s1,3.3,2.2,3.3.7-.1,1.1-.4v-1.3Z"/>
        <path class="cls-14" d="M49.7,498.7h2.6v1.6h-4.2v-9.3h1.6v7.8Z"/>
        <path class="cls-14" d="M53.3,492.5v-1.6h6.8v1.6h-2.6v7.8h-1.6v-7.8h-2.6Z"/>
        <path class="cls-14" d="M38.8,507.8h5v1.6h-3.4v1.9h3.4v1.6h-3.4v4.4h-1.6v-9.3Z"/>
        <path class="cls-14" d="M49.7,507.6c2.1,0,3.3,2.2,3.3,4.8s-1.2,4.8-3.3,4.8-3.3-2.2-3.3-4.8,1.2-4.8,3.3-4.8ZM49.7,515.7c1.1,0,1.6-1.5,1.6-3.3s-.6-3.3-1.6-3.3-1.6,1.5-1.6,3.3.6,3.3,1.6,3.3Z"/>
        <path class="cls-14" d="M59.7,507.6c1.1,0,2.4.7,3,1.8l-1,.9c-.6-.8-1.3-1.1-2-1.1-1.2,0-2.3,1.2-2.3,3.3s1.1,3.3,2.3,3.3,1.3-.3,2-1.1l1,.9c-.7,1.1-1.9,1.8-3,1.8-2.4,0-3.9-2.2-3.9-4.8s1.6-4.8,3.9-4.8Z"/>
        <path class="cls-14" d="M66.8,507.8v5.9c0,1.4.7,2,1.6,2s1.6-.7,1.6-2v-5.9h1.6v5.9c0,2.3-1.4,3.6-3.1,3.6s-3.1-1.3-3.1-3.6v-5.9h1.6Z"/>
        <path class="cls-14" d="M76.7,517.3c-1,0-1.8-.3-2.6-1l.2-1.4c.9.5,1.7.8,2.5.8s1.6-.4,1.6-1.1c0-1.8-4.4-1.1-4.4-4.2s1.4-2.7,3.1-2.7,1.8.4,2.7,1.1l-.5,1.2c-.7-.4-1.4-.8-2.2-.8s-1.5.5-1.5,1.1c0,1.7,4.4,1.2,4.4,4.1s-1.6,2.9-3.3,2.9Z"/>
      </g>
    </g>
    <rect class="cls-2" x="141.5" y="459.6" width="7.6" height="25.7" transform="translate(290.6 944.9) rotate(180)"/>
  </g>
  <rect class="cls-7" x="149.1" y="459.6" width="39.7" height="34.6" transform="translate(338 953.8) rotate(180)"/>
  <g id="gltcep">
    <rect class="cls-8" x="163" y="363.8" width="123.4" height="95.7"/>
    <g>
      <path class="cls-3" d="M203.8,413.2h-1.6v-1.6h3.1v4.7h-.5l-.3-.6c-.6.5-1.3.7-2,.7-2.3,0-3.8-2.2-3.8-4.8s1.5-4.8,3.8-4.8,2.3.7,2.9,1.8l-.9.9c-.6-.8-1.2-1.1-1.9-1.1-1.2,0-2.2,1.2-2.2,3.3s1,3.3,2.2,3.3.7-.1,1.1-.4v-1.3Z"/>
      <path class="cls-3" d="M209.9,414.8h2.6v1.6h-4.2v-9.3h1.6v7.8Z"/>
      <path class="cls-3" d="M213.4,408.5v-1.6h6.8v1.6h-2.6v7.8h-1.6v-7.8h-2.6Z"/>
      <path class="cls-3" d="M230.8,406.8c1.1,0,2.4.7,3,1.8l-1,.9c-.6-.8-1.3-1.1-2-1.1-1.2,0-2.3,1.2-2.3,3.3s1.1,3.3,2.3,3.3,1.3-.3,2-1.1l1,.9c-.7,1.1-1.9,1.8-3,1.8-2.4,0-3.9-2.2-3.9-4.8s1.6-4.8,3.9-4.8Z"/>
      <path class="cls-3" d="M236.3,407h4.7v1.6h-3.1v1.9h3.1v1.6h-3.1v2.8h3.1v1.6h-4.7v-9.3Z"/>
      <path class="cls-3" d="M250.6,410.1c0,1.7-1.4,3.1-3.1,3.1h-1.9v3.1h-1.6v-9.3h3.4c1.7,0,3.1,1.4,3.1,3.1ZM249.1,410.1c0-.9-.7-1.6-1.6-1.6h-1.9v3.1h1.9c.9,0,1.6-.7,1.6-1.6Z"/>
    </g>
    <rect class="cls-2" x="278.8" y="374.6" width="7.6" height="25.7" transform="translate(565.2 774.9) rotate(180)"/>
    <rect class="cls-2" x="172.2" y="442.8" width="7.6" height="25.7" transform="translate(-279.7 631.6) rotate(-90)"/>
  </g>
  <rect class="cls-2" x="142.1" y="326.4" width="7.6" height="25.7" transform="translate(291.8 678.4) rotate(180)"/>
</svg>