<?xml version="1.0" encoding="UTF-8"?>
<svg id="katman_1" data-name="katman 1" xmlns="http://www.w3.org/2000/svg" viewBox="0 0 714.5 560.3">
  <defs>
    <style>
      .cls-1 {
        fill: #ea5254;
      }

      .cls-2 {
        fill: none;
        stroke: #b6373d;
        stroke-miterlimit: 10;
        stroke-width: 2px;
      }

      .cls-3 {
        fill: #e52629;
      }

      .cls-4 {
        fill: #dadada;
      }

      .cls-5 {
        fill: #fff;
      }

      .cls-6 {
        fill: #fffefe;
      }

      .cls-7 {
        font-family: ArialRoundedMTBold, 'Arial Rounded MT Bold';
        font-size: 20.7px;
      }

      .cls-7, .cls-8 {
        fill: #b6373d;
      }

      .cls-9 {
        fill: #878787;
      }
    </style>
  </defs>
  <rect class="cls-2" x="295.3" y="153.1" width="182.1" height="340.2"/>
  <path class="cls-8" d="M293.6,385.2v107.1h-88.4v-107.1h88.4M295.6,383.2h-92.4v111.1h92.4v-111.1h0Z"/>
  <g>
    <path class="cls-8" d="M27.4,213.6H.4v-18.9h3.6v14.1h8.1v-12.2h3.6v12.2h11.7v4.8Z"/>
    <path class="cls-8" d="M27.4,190.1H.4v-4.8h23.3v-13.7h3.7v18.5Z"/>
    <path class="cls-8" d="M8.4,145.6h11c6.3,0,8.4,5.3,8.4,11.5s-2.1,11.5-8.4,11.5h-11c-6.3,0-8.4-5.4-8.4-11.5s2.1-11.5,8.4-11.5ZM9.4,163.8h9c4.5,0,5.7-2.8,5.7-6.7s-1.2-6.7-5.7-6.7h-9c-4.5,0-5.7,2.8-5.7,6.7s1.2,6.7,5.7,6.7Z"/>
    <path class="cls-8" d="M8.4,115.8h11c6.3,0,8.4,5.3,8.4,11.5s-2.1,11.5-8.4,11.5h-11c-6.3,0-8.4-5.4-8.4-11.5s2.1-11.5,8.4-11.5ZM9.4,133.9h9c4.5,0,5.7-2.8,5.7-6.7s-1.2-6.7-5.7-6.7h-9c-4.5,0-5.7,2.8-5.7,6.7s1.2,6.7,5.7,6.7Z"/>
    <path class="cls-8" d="M27.4,90.4l-11.3,6.7v6.9h11.3v4.8H.4v-14.2c0-3.9,2.7-6.7,6-6.7h3.7c2.6,0,4.8,1.7,5.6,4.3l11.7-7v5.2ZM7.4,92.7c-2.2,0-3.3,1.1-3.3,4.1v7.3h8.4v-7.3c0-2.9-1.1-4.1-3.3-4.1h-1.8Z"/>
    <path class="cls-8" d="M29.3,53.7c5.3,0,6.7,4.1,6.7,9.3s-.5,8.9-.5,8.9h-3.7s.5-4.8.5-7.7-.5-5.8-3.5-5.8h-2.8c-2.7,0-3.3,2.2-3.3,4.5v8.3h-14.1v-16.2h3.6v11.4h6.9v-4.3c0-6,2.7-8.5,6.6-8.5h3.7Z"/>
  </g>
  <path class="cls-8" d="M203,385.8v157.1H16.3v-157.1h186.6M205.6,383.2H13.7v162.4h192v-162.4h0Z"/>
  <path class="cls-8" d="M439.8,398.9v39.8h-117.2v-39.8h117.2M441.8,396.9h-121.2v43.8h121.2v-43.8h0Z"/>
  <rect class="cls-5" x="322.6" y="396.2" width="20.3" height="6.7"/>
  <g>
    <rect class="cls-5" x="300.7" y="405.1" width="20.8" height="41.8"/>
    <path class="cls-8" d="M320.5,406.1v39.8h-18.8v-39.8h18.8M322.5,404.1h-22.8v43.8h22.8v-43.8h0Z"/>
  </g>
  <rect class="cls-5" x="289.5" y="419.3" width="20.3" height="13.3"/>
  <line class="cls-2" x1="203" y1="439" x2="252.2" y2="439"/>
  <rect class="cls-5" x="289.5" y="385.2" width="9.6" height="107.1"/>
  <rect class="cls-5" x="301.7" y="393.9" width="18.9" height="52"/>
  <g>
    <rect class="cls-9" x="295" y="522.9" width="83.8" height="30.4"/>
    <rect class="cls-9" x="393.4" y="522.9" width="83.8" height="30.4"/>
    <g>
      <polygon class="cls-8" points="501.3 540.5 487.1 542.4 486.8 540.1 501 538.2 501.3 540.5"/>
      <polygon class="cls-8" points="500.8 536.9 486.5 535.5 486.8 533.2 501 534.6 500.8 536.9"/>
      <polygon class="cls-8" points="501.1 533 487.5 528.7 488.2 526.5 501.8 530.7 501.1 533"/>
      <polygon class="cls-8" points="502.6 529.5 491.4 520.7 492.9 518.9 504.1 527.7 502.6 529.5"/>
      <polygon class="cls-8" points="505.3 526.8 497.1 515.1 499 513.8 507.2 525.5 505.3 526.8"/>
      <polygon class="cls-8" points="508.9 525.1 504.1 511.7 506.3 510.9 511.1 524.3 508.9 525.1"/>
    </g>
    <g>
      <polygon class="cls-8" points="520.6 530.3 534.5 526.8 535.1 529.1 521.2 532.6 520.6 530.3"/>
      <polygon class="cls-8" points="521.5 533.8 535.8 533.7 535.8 536 521.5 536.1 521.5 533.8"/>
      <polygon class="cls-8" points="521.6 537.8 535.6 540.5 535.1 542.8 521.1 540.1 521.6 537.8"/>
      <polygon class="cls-8" points="520.5 541.3 532.6 548.9 531.3 550.9 519.3 543.3 520.5 541.3"/>
      <polygon class="cls-8" points="518.1 544.4 527.6 555 525.8 556.6 516.4 545.9 518.1 544.4"/>
      <polygon class="cls-8" points="514.7 546.4 521 559.3 518.8 560.3 512.6 547.4 514.7 546.4"/>
    </g>
    <g>
      <path class="cls-3" d="M510,536.3v.4s-.5,0-.5,0v.2s.4,0,.4,0v.4s-.4,0-.4,0v.5s-.5,0-.5,0v-1.6s1,0,1,0Z"/>
      <path class="cls-3" d="M510.7,536.4v1.5s-.5,0-.5,0v-1.5s.5,0,.5,0Z"/>
      <path class="cls-3" d="M511.5,537.4h0s0,.5,0,.5h-.5s0-1.5,0-1.5h.7s.4,0,.4,0v.8s-.1,0-.1,0l.3.4-.4.2-.3-.5ZM511.3,537.1h.3s0-.3,0-.3h-.3s0,.3,0,.3Z"/>
      <path class="cls-3" d="M513.3,537.9h-1s0-1.5,0-1.5h0c0,0,.8,0,.8,0v.4s-.5,0-.5,0v.2s.4,0,.4,0v.4s-.4,0-.4,0v.2s.5,0,.5,0v.4Z"/>
      <path class="cls-3" d="M509.2,538.8h-.3s0-.4,0-.4h0s.3,0,.3,0h0c0,.1-.1.1-.1.1h0c0,0,.1,0,.1,0h0c0,.1-.1.1-.1.1h0c0,0,.2,0,.2,0h0Z"/>
      <path class="cls-3" d="M509.4,538.6h0s0,.2,0,.2h-.2s0-.2,0-.2h0s0,0,0,0v-.2s.1,0,.1,0h0c0,.1,0,.2,0,.2h0s0-.1,0-.1h.1s0,.2,0,.2h0s0,0,0,0v.2s-.1,0-.1,0h0c0-.1,0-.2,0-.2Z"/>
      <path class="cls-3" d="M510,538.5h-.1s0,.3,0,.3h-.1s0-.3,0-.3h-.1s0-.1,0-.1h.4s0,.1,0,.1Z"/>
      <path class="cls-3" d="M510.2,538.3v.5s-.1,0-.1,0v-.5s.1,0,.1,0Z"/>
      <path class="cls-3" d="M510.6,538.8h-.1s0-.1,0-.1h-.1c0-.1,0,.1,0,.1h-.1s0-.4,0-.4h.1s.1.1.1.1h0c0-.1.1-.2.1-.2v.5Z"/>
      <path class="cls-3" d="M510.8,538.3h.3s0,.1,0,.1h-.2v.2h0s0-.1,0-.1h.1s0,.3,0,.3h-.3s0-.4,0-.4h0Z"/>
      <path class="cls-3" d="M511.5,538.3v.4s0,0,0,0h-.3s0,0,0,0v-.4s.1,0,.1,0v.3s0,0,0,0v-.3s.1,0,.1,0Z"/>
      <path class="cls-3" d="M511.7,538.3v.5s-.1,0-.1,0v-.5s.1,0,.1,0Z"/>
      <path class="cls-3" d="M512.1,538.3h0c0,.1-.1.1-.1.1h0s.2.1.2.1v.2s-.3,0-.3,0v-.2s.2,0,.2,0h0s-.2-.1-.2-.1v-.2s.1,0,.1,0h.2Z"/>
      <path class="cls-3" d="M512.4,538.6h0s0,.2,0,.2h-.1v-.5s.1,0,.1,0v.2s0,0,0,0v-.2s.1,0,.1,0v.5s-.1,0-.1,0v-.2Z"/>
      <path class="cls-3" d="M512.9,538.8h-.3s0-.4,0-.4h0s.3,0,.3,0h0c0,.1-.1.1-.1.1h0c0,0,.1,0,.1,0h0c0,.1-.1.1-.1.1h0c0,0,.2,0,.2,0h0Z"/>
      <path class="cls-3" d="M513.1,538.7h0s0,.2,0,.2h-.1s0-.5,0-.5h.2s.1,0,.1,0v.3s0,0,0,0h0c0,.1-.1.2-.1.2v-.2ZM513.1,538.5h0s0-.1,0-.1h0s0,.1,0,.1Z"/>
    </g>
    <path class="cls-3" d="M507.1,541.7l3.9,2.9c0,0,.1,0,.2,0l3.9-2.9c0,0,0-.1,0-.2,0,0,0-.1-.2-.1h-1.7v-1.8c0,0,0-.2-.2-.2h-3.9c0,0-.2,0-.2.2v1.8h-1.7c0,0-.1,0-.2.1,0,0,0,.1,0,.2Z"/>
    <path class="cls-3" d="M518.1,531.1s0,0-.1,0,0,0,0,0l-3.1.7c0,0,0,0-.1,0,0,0,0,0,0,.1h-3.4c0-.1,0-.3,0-.4,0-.3-.1-.6-.3-.8-.2-.2-.5-.3-.8-.3s-.6.1-.8.3c-.2.2-.3.5-.3.8s0,.4.2.6c-.3,0-.5.2-.8.4-.2.2-.4.3-.6.5-.2.2-.3.3-.4.5-.1.2-.2.3-.3.4,0,0,0,.1-.1.2,0,.1,0,.2,0,.3,0,.1.1.2.2.3,0,0,.1,0,.2,0,.2,0,.3,0,.4-.2,0,0,0,0,0-.2,0,0,.1-.2.3-.4.1-.2.3-.3.5-.5.2-.1.4-.3.6-.4.3-.1.5-.2.8-.2h.2v.8c-.5.1-.8.4-1.1.8-.3.4-.4.8-.4,1.3h0c0,0,4.4,0,4.4,0h0c0-.6-.2-1.1-.5-1.5-.3-.4-.8-.7-1.3-.8v-.7h3.1c0,0,0,0,0,.1,0,0,0,0,.1,0l3.1.7s0,0,0,0c0,0,.1,0,.1,0,0,0,0,0,0-.2v-2.2c0,0,0-.1,0-.2ZM510.6,531.8c0,0-.2.1-.3.1s-.2,0-.3-.1c0,0-.1-.2-.1-.3s0-.2.1-.3c0,0,.2-.1.3-.1s.2,0,.3.1c0,0,.1.2.1.3s0,.2-.1.3Z"/>
    <polygon class="cls-8" points="267.8 544 267.8 534.5 255 534.5 255 524.8 242.3 524.8 242.3 515.1 229.5 515.1 229.5 505.5 216.7 505.5 216.7 515.1 216.7 553.7 242.3 553.7 255 553.7 267.6 553.7 280.4 553.7 280.4 544 267.8 544"/>
  </g>
  <g>
    <path class="cls-6" d="M28.1,512.4h7v2.3h-4.7v2.8h4.7v2.3h-4.7v4.2h4.7v2.3h-7v-14Z"/>
    <path class="cls-6" d="M46.7,519v2.4h-7v-2.4h7Z"/>
    <path class="cls-6" d="M54.7,526.7c-1.3,0-2.3-.4-3.5-1.3l.3-2c1.4.7,2.4,1.1,3.3,1.1s1.8-.4,1.8-1.2c0-1.9-5.5-1.2-5.5-4.9s1.8-3.3,4-3.3,2.3.4,3.6,1.4l-.7,1.7c-1-.6-2-1-2.9-1s-1.7.5-1.7,1.1c0,1.7,5.5,1.3,5.5,4.8s-2.1,3.5-4.3,3.5Z"/>
    <path class="cls-6" d="M68.3,526.7c-1.1,0-2.1-.4-2.9-1.1v5.6h-2.3v-15.6h.8l.9,1.7c.9-1.2,2.1-1.9,3.5-1.9,2.6,0,4.7,2.5,4.7,5.7s-2.1,5.7-4.7,5.7ZM68,517.4c-1.4,0-2.6,1.6-2.6,3.5s1.2,3.5,2.6,3.5,2.6-1.6,2.6-3.5-1.1-3.5-2.6-3.5Z"/>
    <path class="cls-6" d="M87,521c0,3.2-2.3,5.7-5.2,5.7s-5.2-2.5-5.2-5.7,2.3-5.7,5.2-5.7,5.2,2.5,5.2,5.7ZM79,521c0,1.9,1.2,3.5,2.8,3.5s2.8-1.6,2.8-3.5-1.2-3.5-2.8-3.5-2.8,1.6-2.8,3.5Z"/>
    <path class="cls-6" d="M93.4,520.1v6.4h-2.3v-11h.8l.9,1.6c.8-1.1,2-1.8,3.4-1.8s.7,0,.7,0v4.5h-.8l-1.2-2.2c-.8.4-1.4,1.3-1.4,2.4Z"/>
  </g>
  <g id="facultysecretary">
    <rect class="cls-2" x="489.4" y="412.7" width="224" height="79"/>
    <g>
      <path class="cls-6" d="M621.7,435h7.5v2.3h-5.1v2.8h5.1v2.3h-5.1v6.5h-2.3v-14Z"/>
      <path class="cls-6" d="M641.9,449l-.9-1.7c-.9,1.2-2.1,1.9-3.5,1.9-2.6,0-4.7-2.5-4.7-5.7,0-3.2,2.1-5.7,4.7-5.7s2.6.7,3.5,1.9l.9-1.7h.8v11h-.8ZM637.8,440c-1.4,0-2.6,1.6-2.6,3.5s1.1,3.5,2.6,3.5,2.6-1.6,2.6-3.5-1.1-3.5-2.6-3.5Z"/>
      <path class="cls-6" d="M654.4,441.1c-.5-.8-1.5-1.2-2.3-1.2-1.5,0-2.8,1.5-2.8,3.5s1.2,3.5,2.8,3.5,1.9-.3,2.3-1.2l1.4,1.2c-.9,1.3-2.3,2.2-3.9,2.2-2.8,0-5-2.5-5-5.7s2.2-5.7,5-5.7,3,.9,3.9,2.2l-1.4,1.2Z"/>
      <path class="cls-6" d="M667.6,449l-.9-1.6c-.8,1.1-2.2,1.8-3.6,1.8-2.4,0-4.3-2-4.3-5.2v-6h2.3v5.9c0,2,1.1,3,2.3,3s2.6-1.1,2.6-2.6v-6.4h2.3v11h-.8Z"/>
      <path class="cls-6" d="M673.1,432.6h2.3v16.3h-2.3v-16.3Z"/>
      <path class="cls-6" d="M679.6,440.3v-2.3h2.1v-4h2.3v4h3.5v2.3h-3.5v4.6c0,1.7.8,2.3,1.7,2.3s.9-.1,1.3-.3l.3,1.4c-.6.5-1.4.9-2.2.9-1.9,0-3.5-1.7-3.5-4.4v-4.5h-2.1Z"/>
      <path class="cls-6" d="M691.4,453.6l2.6-6.5-3.7-9.1h2.5l2.5,6.1,2.4-6.1h2.5l-6.3,15.6h-2.5Z"/>
      <path class="cls-6" d="M599.3,474.4c-1.5,0-2.6-.5-3.9-1.5l.3-2.1c1.4.8,2.6,1.2,3.8,1.2s2.4-.6,2.4-1.7c0-2.7-6.6-1.6-6.6-6.3s2.1-4.1,4.6-4.1,2.6.5,4.1,1.7l-.7,1.8c-1-.7-2.2-1.2-3.3-1.2s-2.3.8-2.3,1.6c0,2.5,6.6,1.9,6.6,6.2s-2.4,4.4-4.9,4.4Z"/>
      <path class="cls-6" d="M613,472.2c1.2,0,2.2-.7,2.8-1.3l1.2,1.5c-.9,1.1-2.5,2-4.2,2-3.5,0-5.6-2.5-5.6-5.7s2.2-5.8,5.4-5.8,5.4,2.6,4.8,6h-7.7c-.1,1.5,1,3.3,3.3,3.3ZM614.8,467c0-1.1-.8-1.9-2.3-1.9s-2.1.5-2.6,1.9h4.8Z"/>
      <path class="cls-6" d="M628.7,466.3c-.5-.8-1.5-1.2-2.3-1.2-1.5,0-2.8,1.5-2.8,3.5s1.2,3.5,2.8,3.5,1.9-.3,2.3-1.2l1.4,1.2c-.9,1.3-2.3,2.2-3.9,2.2-2.8,0-5-2.5-5-5.7s2.2-5.7,5-5.7,3,.9,3.9,2.2l-1.4,1.2Z"/>
      <path class="cls-6" d="M635.7,467.8v6.4h-2.3v-11h.8l.9,1.6c.8-1.1,2-1.8,3.4-1.8s.7,0,.7,0v4.5h-.8l-1.2-2.2c-.8.4-1.4,1.3-1.4,2.4Z"/>
      <path class="cls-6" d="M648,472.2c1.2,0,2.2-.7,2.8-1.3l1.2,1.5c-.9,1.1-2.5,2-4.2,2-3.5,0-5.6-2.5-5.6-5.7s2.2-5.8,5.4-5.8,5.4,2.6,4.8,6h-7.7c-.1,1.5,1,3.3,3.3,3.3ZM649.9,467c0-1.1-.8-1.9-2.3-1.9s-2.1.5-2.6,1.9h4.8Z"/>
      <path class="cls-6" d="M656.3,465.5v-2.3h2.1v-4h2.3v4h3.5v2.3h-3.5v4.6c0,1.7.8,2.3,1.7,2.3s.9-.1,1.3-.3l.3,1.4c-.6.5-1.4.9-2.2.9-1.9,0-3.5-1.7-3.5-4.4v-4.5h-2.1Z"/>
      <path class="cls-6" d="M677,474.2l-.9-1.7c-.9,1.2-2.1,1.9-3.5,1.9-2.6,0-4.7-2.5-4.7-5.7,0-3.2,2.1-5.7,4.7-5.7s2.6.7,3.5,1.9l.9-1.7h.8v11h-.8ZM672.9,465.2c-1.4,0-2.6,1.6-2.6,3.5s1.1,3.5,2.6,3.5,2.6-1.6,2.6-3.5-1.1-3.5-2.6-3.5Z"/>
      <path class="cls-6" d="M684.8,467.8v6.4h-2.3v-11h.8l.9,1.6c.8-1.1,2-1.8,3.4-1.8s.7,0,.7,0v4.5h-.8l-1.2-2.2c-.8.4-1.4,1.3-1.4,2.4Z"/>
      <path class="cls-6" d="M691.4,478.8l2.6-6.5-3.7-9.1h2.5l2.5,6.1,2.4-6.1h2.5l-6.3,15.6h-2.5Z"/>
    </g>
    <rect class="cls-2" x="489.5" y="466.1" width="7.6" height="25.7"/>
  </g>
  <g id="deansoffice">
    <text class="cls-7" transform="translate(329 95.3) scale(.9 1)"><tspan x="0" y="0" xml:space="preserve">  </tspan></text>
    <polyline class="cls-2" points="530.7 120.3 530.7 1 393.1 1 393.1 33.5 303.4 33.5 303.4 60.7 215.2 60.7 215.2 120.3"/>
    <polyline class="cls-2" points="215.2 120.3 215.2 133.3 136.1 133.3 136.1 243.4 278.6 243.4 278.6 133.3 489.4 133.3 489.4 248.9 634.9 248.9 634.9 133.6 530.7 133.6 530.7 120.3"/>
    <g>
      <path class="cls-6" d="M300.3,80.4h3.3c3.5,0,6.3,3.1,6.3,7s-2.8,7-6.3,7h-3.3v-14ZM302.6,92h.9c2,0,3.7-2.1,3.7-4.7s-1.7-4.7-3.7-4.7h-.9v9.3Z"/>
      <path class="cls-6" d="M319.6,92.4c1.2,0,2.2-.7,2.8-1.3l1.2,1.5c-.9,1.1-2.5,2-4.2,2-3.5,0-5.6-2.5-5.6-5.7s2.2-5.8,5.4-5.8,5.4,2.6,4.8,6h-7.7c-.1,1.5,1,3.3,3.3,3.3ZM321.4,87.2c0-1.1-.8-1.9-2.3-1.9s-2.1.5-2.6,1.9h4.8Z"/>
      <path class="cls-6" d="M336.9,94.4l-.9-1.7c-.9,1.2-2.1,1.9-3.5,1.9-2.6,0-4.7-2.5-4.7-5.7,0-3.2,2.1-5.7,4.7-5.7s2.6.7,3.5,1.9l.9-1.7h.8v11h-.8ZM332.8,85.4c-1.4,0-2.6,1.6-2.6,3.5s1.1,3.5,2.6,3.5,2.6-1.6,2.6-3.5-1.1-3.5-2.6-3.5Z"/>
      <path class="cls-6" d="M349.6,94.4v-5.9c0-2-1.1-3-2.4-3s-2.6,1.2-2.6,2.6v6.4h-2.3v-11h.8l.9,1.6c.8-1.1,2.2-1.8,3.6-1.8,2.4,0,4.3,2,4.3,5.2v6h-2.3Z"/>
      <path class="cls-6" d="M356.8,84.3c1.2-.8,1.8-1.8,1.8-3.1-.8-.2-1.3-.9-1.3-1.7s.8-1.7,1.7-1.7,1.9,1.1,1.9,2c0,2.2-1.5,4.3-3.6,5.3l-.5-.8Z"/>
      <path class="cls-6" d="M369,94.6c-1.3,0-2.3-.4-3.5-1.3l.3-2c1.4.7,2.4,1.1,3.3,1.1s1.8-.4,1.8-1.2c0-1.9-5.5-1.2-5.5-4.9s1.8-3.3,4-3.3,2.3.4,3.6,1.4l-.7,1.7c-1-.6-2-1-2.9-1s-1.7.5-1.7,1.1c0,1.7,5.5,1.3,5.5,4.8s-2.1,3.5-4.3,3.5Z"/>
      <path class="cls-6" d="M389,80.1c3.1,0,4.9,3.3,4.9,7.2s-1.8,7.2-4.9,7.2-4.9-3.3-4.9-7.2,1.7-7.2,4.9-7.2ZM389,92.3c1.6,0,2.4-2.2,2.4-4.9s-.9-4.9-2.4-4.9-2.4,2.2-2.4,4.9.9,4.9,2.4,4.9Z"/>
      <path class="cls-6" d="M406.3,80.6c-.4-.2-1.1-.4-1.8-.4s-1.7.6-1.7,2.3v.9h3.3v2.3h-3.3v8.6h-2.3v-8.6h-2.6v-2.3h2.6v-1c0-2.7,1.5-4.4,3.5-4.4s2.2.4,2.8.7l-.4,1.9Z"/>
      <path class="cls-6" d="M414.4,85.7v8.6h-2.3v-8.6h-2.6v-2.3h2.6v-1c0-2.7,1.5-4.4,3.5-4.4s2.2.4,2.8.7l-.4,1.9c-.4-.2-1.1-.4-1.8-.4s-1.7.6-1.7,2.3v.9h9.6v11h-2.3v-8.6h-7.2ZM424.2,79.2c0,.8-.6,1.4-1.4,1.4s-1.4-.6-1.4-1.4.6-1.4,1.4-1.4,1.4.6,1.4,1.4Z"/>
      <path class="cls-6" d="M435.7,86.5c-.5-.8-1.5-1.2-2.3-1.2-1.5,0-2.8,1.5-2.8,3.5s1.2,3.5,2.8,3.5,1.9-.3,2.3-1.2l1.4,1.2c-.9,1.3-2.3,2.2-3.9,2.2-2.8,0-5-2.5-5-5.7s2.2-5.7,5-5.7,3,.9,3.9,2.2l-1.4,1.2Z"/>
      <path class="cls-6" d="M445.6,92.4c1.2,0,2.2-.7,2.8-1.3l1.2,1.5c-.9,1.1-2.5,2-4.2,2-3.5,0-5.6-2.5-5.6-5.7s2.2-5.8,5.4-5.8,5.4,2.6,4.8,6h-7.7c-.1,1.5,1,3.3,3.3,3.3ZM447.5,87.2c0-1.1-.8-1.9-2.3-1.9s-2.1.5-2.6,1.9h4.8Z"/>
    </g>
    <rect class="cls-2" x="287.7" y="116.4" width="7.6" height="25.7" transform="translate(162.2 420.8) rotate(-90)"/>
    <rect class="cls-2" x="429.4" y="116.4" width="7.6" height="25.7" transform="translate(304 562.5) rotate(-90)"/>
    <rect class="cls-2" x="472.8" y="116.6" width="7.6" height="25.7" transform="translate(347.1 606.1) rotate(-90)"/>
  </g>
  <g id="gltsc02">
    <g id="gltsc02-2" data-name="gltsc02">
      <rect class="cls-8" x="117.8" y="269.8" width="160.8" height="101"/>
      <g>
        <path class="cls-4" d="M134.6,288h-1.6v-1.6h3.1v4.7h-.5l-.3-.6c-.6.5-1.3.7-2,.7-2.3,0-3.8-2.2-3.8-4.8s1.5-4.8,3.8-4.8,2.3.7,2.9,1.8l-.9.9c-.6-.8-1.2-1.1-1.9-1.1-1.2,0-2.2,1.2-2.2,3.3s1,3.3,2.2,3.3.7-.1,1.1-.4v-1.3Z"/>
        <path class="cls-4" d="M140.7,289.6h2.6v1.6h-4.2v-9.3h1.6v7.8Z"/>
        <path class="cls-4" d="M144.2,283.4v-1.6h6.8v1.6h-2.6v7.8h-1.6v-7.8h-2.6Z"/>
        <path class="cls-4" d="M159.9,291.3c-1,0-1.8-.3-2.6-1l.2-1.4c.9.5,1.7.8,2.5.8s1.6-.4,1.6-1.1c0-1.8-4.4-1.1-4.4-4.2s1.4-2.7,3.1-2.7,1.8.4,2.7,1.1l-.5,1.2c-.7-.4-1.4-.8-2.2-.8s-1.5.5-1.5,1.1c0,1.7,4.4,1.2,4.4,4.1s-1.6,2.9-3.3,2.9Z"/>
        <path class="cls-4" d="M169.3,281.7c1.1,0,2.4.7,3,1.8l-1,.9c-.6-.8-1.3-1.1-2-1.1-1.2,0-2.3,1.2-2.3,3.3s1.1,3.3,2.3,3.3,1.3-.3,2-1.1l1,.9c-.7,1.1-1.9,1.8-3,1.8-2.4,0-3.9-2.2-3.9-4.8s1.6-4.8,3.9-4.8Z"/>
        <path class="cls-4" d="M178,281.7c2.1,0,3.3,2.2,3.3,4.8s-1.2,4.8-3.3,4.8-3.3-2.2-3.3-4.8,1.2-4.8,3.3-4.8ZM178,289.8c1.1,0,1.6-1.5,1.6-3.3s-.6-3.3-1.6-3.3-1.6,1.5-1.6,3.3.6,3.3,1.6,3.3Z"/>
        <path class="cls-4" d="M188.9,284.8c0-.9-.7-1.6-1.6-1.6s-1.6.7-1.6,1.6v.8h-1.6v-.8c0-1.7,1.4-3.1,3.1-3.1s3.1,1.4,3.1,3.1-.6,2.1-1.5,2.9l-2,1.9h3.5v1.6h-6.2v-.6l3.3-3.5c.5-.5,1.3-1.4,1.3-2.3Z"/>
      </g>
    </g>
    <g>
      <path class="cls-5" d="M134,333.4c-1.5,0-2.6-.5-3.9-1.5l.3-2.1c1.4.8,2.6,1.2,3.8,1.2s2.4-.6,2.4-1.7c0-2.7-6.6-1.6-6.6-6.3s2.1-4.1,4.6-4.1,2.6.5,4.1,1.7l-.7,1.8c-1-.7-2.2-1.2-3.3-1.2s-2.3.8-2.3,1.6c0,2.5,6.6,1.9,6.6,6.2s-2.4,4.4-4.9,4.4Z"/>
      <path class="cls-5" d="M149.5,333.2h-2.3v-7.4c0-1-.5-1.5-1.2-1.5s-1.2.6-1.2,1.3v7.6h-2.3v-11h.8l.6,1.1c.5-.8,1.4-1.3,2.4-1.3s1.8.4,2.4,1.2c.5-.7,1.4-1.2,2.3-1.2,1.8,0,3.1,1.5,3.1,3.8v7.3h-2.3v-7.4c0-1-.5-1.5-1.2-1.5s-1.2.6-1.2,1.3v7.6Z"/>
      <path class="cls-5" d="M167.4,333.2l-.9-1.7c-.9,1.2-2.1,1.9-3.5,1.9-2.6,0-4.7-2.5-4.7-5.7,0-3.2,2.1-5.7,4.7-5.7s2.6.7,3.5,1.9l.9-1.7h.8v11h-.8ZM163.3,324.2c-1.4,0-2.6,1.6-2.6,3.5s1.1,3.5,2.6,3.5,2.6-1.6,2.6-3.5-1.1-3.5-2.6-3.5Z"/>
      <path class="cls-5" d="M175.2,326.8v6.4h-2.3v-11h.8l.9,1.6c.8-1.1,2-1.8,3.4-1.8s.7,0,.7,0v4.5h-.8l-1.2-2.2c-.8.4-1.4,1.3-1.4,2.4Z"/>
      <path class="cls-5" d="M181.7,324.6v-2.3h2.1v-4h2.3v4h3.5v2.3h-3.5v4.6c0,1.7.8,2.3,1.7,2.3s.9-.1,1.3-.3l.3,1.4c-.6.5-1.4.9-2.2.9-1.9,0-3.5-1.7-3.5-4.4v-4.5h-2.1Z"/>
      <path class="cls-5" d="M136.5,344.2c1.7,0,3.5,1.1,4.5,2.7l-1.5,1.3c-.9-1.2-1.9-1.7-2.9-1.7-1.8,0-3.4,1.9-3.4,4.9s1.6,4.9,3.4,4.9,2-.5,2.9-1.7l1.5,1.3c-1,1.6-2.8,2.7-4.5,2.7-3.5,0-5.9-3.3-5.9-7.2s2.4-7.2,5.9-7.2Z"/>
      <path class="cls-5" d="M144.8,342.1h2.3v16.3h-2.3v-16.3Z"/>
      <path class="cls-5" d="M160.3,358.4l-.9-1.7c-.9,1.2-2.1,1.9-3.5,1.9-2.6,0-4.7-2.5-4.7-5.7,0-3.2,2.1-5.7,4.7-5.7s2.6.7,3.5,1.9l.9-1.7h.8v11h-.8ZM156.3,349.4c-1.4,0-2.6,1.6-2.6,3.5s1.1,3.5,2.6,3.5,2.6-1.6,2.6-3.5-1.1-3.5-2.6-3.5Z"/>
      <path class="cls-5" d="M169.1,358.7c-1.3,0-2.3-.4-3.5-1.3l.3-2c1.4.7,2.4,1.1,3.3,1.1s1.8-.4,1.8-1.2c0-1.9-5.5-1.2-5.5-4.9s1.8-3.3,4-3.3,2.3.4,3.6,1.4l-.7,1.7c-1-.6-2-1-2.9-1s-1.7.5-1.7,1.1c0,1.7,5.5,1.3,5.5,4.8s-2.1,3.5-4.3,3.5Z"/>
      <path class="cls-5" d="M180.8,358.7c-1.3,0-2.3-.4-3.5-1.3l.3-2c1.4.7,2.4,1.1,3.3,1.1s1.8-.4,1.8-1.2c0-1.9-5.5-1.2-5.5-4.9s1.8-3.3,4-3.3,2.3.4,3.6,1.4l-.7,1.7c-1-.6-2-1-2.9-1s-1.7.5-1.7,1.1c0,1.7,5.5,1.3,5.5,4.8s-2.1,3.5-4.3,3.5Z"/>
      <path class="cls-5" d="M203.1,348.8c0-1.3-1-2.3-2.3-2.3s-2.3,1-2.3,2.3v1.2h-2.3v-1.2c0-2.6,2.1-4.7,4.7-4.7s4.7,2.1,4.7,4.7-.9,3.1-2.2,4.4l-3,2.9h5.2v2.3h-9.3v-.8l5-5.3c.8-.8,2-2.1,2-3.4Z"/>
    </g>
  </g>
  <g>
    <rect class="cls-8" x="270" y="344.1" width="9.6" height="27.7"/>
    <path class="cls-5" d="M278.6,345.1v25.7h-7.6v-25.7h7.6M280.6,343.1h-11.6v29.7h11.6v-29.7h0Z"/>
  </g>
  <g id="tanzermac01">
    <rect class="cls-1" x="488.5" y="281.9" width="188.8" height="117"/>
  </g>
  <g>
    <path class="cls-5" d="M592.4,350v-2.3h10.3v2.3h-4v11.7h-2.3v-11.7h-4Z"/>
    <path class="cls-5" d="M614.3,361.7l-.9-1.7c-.9,1.2-2.1,1.9-3.5,1.9-2.6,0-4.7-2.5-4.7-5.7,0-3.2,2.1-5.7,4.7-5.7s2.6.7,3.5,1.9l.9-1.7h.8v11h-.8ZM610.2,352.7c-1.4,0-2.6,1.6-2.6,3.5s1.1,3.5,2.6,3.5,2.6-1.6,2.6-3.5-1.1-3.5-2.6-3.5Z"/>
    <path class="cls-5" d="M627,361.7v-5.9c0-2-1.1-3-2.4-3s-2.6,1.2-2.6,2.6v6.4h-2.3v-11h.8l.9,1.6c.8-1.1,2.2-1.8,3.6-1.8,2.4,0,4.3,2,4.3,5.2v6h-2.3Z"/>
    <path class="cls-5" d="M633.2,353.1v-2.3h8.1l-4.4,8.6h4.3v2.3h-8.1l4.4-8.6h-4.3Z"/>
    <path class="cls-5" d="M650.7,359.7c1.2,0,2.2-.7,2.8-1.3l1.2,1.5c-.9,1.1-2.5,2-4.2,2-3.5,0-5.6-2.5-5.6-5.7s2.2-5.8,5.4-5.8,5.4,2.6,4.8,6h-7.7c-.1,1.5,1,3.3,3.3,3.3ZM652.5,354.6c0-1.1-.8-1.9-2.3-1.9s-2.1.5-2.6,1.9h4.8Z"/>
    <path class="cls-5" d="M661.7,355.3v6.4h-2.3v-11h.8l.9,1.6c.8-1.1,2-1.8,3.4-1.8s.7,0,.7,0v4.5h-.8l-1.2-2.2c-.8.4-1.4,1.3-1.4,2.4Z"/>
    <path class="cls-5" d="M605.8,386.9v-8.4l-3.4,6.3h-.5l-3.4-6.3v8.4h-2.2v-14h1.9l3.9,7.4,3.9-7.4h1.9v14h-2.2Z"/>
    <path class="cls-5" d="M615,386.9h-2.3v-8.9c0-3.5,2.1-5.4,4.7-5.4s4.7,1.9,4.7,5.4v8.9h-2.3v-4.7h-4.7v4.7ZM619.7,378c0-2.1-1.1-3-2.4-3s-2.3,1-2.3,3v1.9h4.7v-1.9Z"/>
    <path class="cls-5" d="M632.4,372.7c1.7,0,3.5,1.1,4.5,2.7l-1.5,1.3c-.9-1.2-1.9-1.7-2.9-1.7-1.8,0-3.4,1.9-3.4,4.9s1.6,4.9,3.4,4.9,2-.5,2.9-1.7l1.5,1.3c-1,1.6-2.8,2.7-4.5,2.7-3.5,0-5.9-3.3-5.9-7.2s2.4-7.2,5.9-7.2Z"/>
    <path class="cls-5" d="M645.4,372.7c3.1,0,4.9,3.3,4.9,7.2s-1.8,7.2-4.9,7.2-4.9-3.3-4.9-7.2,1.7-7.2,4.9-7.2ZM645.4,384.8c1.6,0,2.4-2.2,2.4-4.9s-.9-4.9-2.4-4.9-2.4,2.2-2.4,4.9.9,4.9,2.4,4.9Z"/>
    <path class="cls-5" d="M658.2,377.4l-2.5.9-.5-1,4.7-4.7h.7v11.9h2.3v2.3h-7v-2.3h2.3v-7.2Z"/>
  </g>
  <g>
    <rect class="cls-1" x="487.4" y="372.4" width="9.6" height="27.7"/>
    <path class="cls-5" d="M496.1,373.4v25.7h-7.6v-25.7h7.6M498.1,371.4h-11.6v29.7h11.6v-29.7h0Z"/>
  </g>
</svg>