<?xml version="1.0" encoding="UTF-8"?>
<svg id="katman_1" data-name="katman 1" xmlns="http://www.w3.org/2000/svg" xmlns:xlink="http://www.w3.org/1999/xlink" viewBox="0 0 778.9 519.2">
  <defs>
    <style>
      .cls-1 {
        fill: #3c3c3b;
      }

      .cls-2, .cls-3, .cls-4, .cls-5, .cls-6, .cls-7, .cls-8, .cls-9, .cls-10, .cls-11, .cls-12 {
        stroke-miterlimit: 10;
      }

      .cls-2, .cls-6, .cls-8 {
        stroke-width: 2px;
      }

      .cls-2, .cls-8, .cls-9, .cls-10 {
        stroke: #2954a1;
      }

      .cls-2, .cls-13 {
        fill: #fff;
      }

      .cls-14 {
        fill: #f6f6f6;
      }

      .cls-3 {
        stroke-width: 2.2px;
      }

      .cls-3, .cls-4, .cls-5, .cls-6, .cls-7, .cls-8, .cls-9, .cls-10, .cls-11, .cls-12 {
        fill: none;
      }

      .cls-3, .cls-4, .cls-5, .cls-6, .cls-7, .cls-11, .cls-12 {
        stroke: #2d54a1;
      }

      .cls-4 {
        stroke-width: 2.1px;
      }

      .cls-5 {
        stroke-width: 2.1px;
      }

      .cls-7 {
        stroke-width: 2px;
      }

      .cls-15 {
        fill: #e52629;
      }

      .cls-16 {
        fill: #dadada;
      }

      .cls-9 {
        stroke-width: 2px;
      }

      .cls-10 {
        stroke-width: 2px;
      }

      .cls-12 {
        stroke-width: 4px;
      }

      .cls-17 {
        fill: #878787;
      }

      .cls-18 {
        fill: #706f6f;
      }

      .cls-19 {
        fill: #2954a1;
      }

      .cls-20 {
        fill: #2d54a1;
      }

      .cls-21 {
        fill: #ececec;
      }
    </style>
    <symbol id="aquarium_class" data-name="aquarium class" viewBox="0 0 148.5 110.1">
      <rect class="cls-20" width="148.5" height="110.1"/>
    </symbol>
    <symbol id="glt_vr" data-name="glt vr" viewBox="0 0 174.6 160.8">
      <g>
        <rect class="cls-20" x="79.3" width="95.3" height="160.8"/>
        <rect class="cls-20" width="82.2" height="160.8"/>
      </g>
    </symbol>
  </defs>
  <rect class="cls-12" x="292.1" y="105.4" width="176.4" height="340.2"/>
  <rect class="cls-6" x="340.2" y="15.7" width="128.7" height="71.5"/>
  <rect class="cls-6" x="486.9" y="25.6" width="173.4" height="61.3"/>
  <rect class="cls-5" x="144.9" y="222.1" width="130.5" height="110.1"/>
  <g>
    <path class="cls-20" d="M28.8,174.7H1.7v-19h3.7v14.2h8.2v-12.2h3.6v12.2h11.7v4.8Z"/>
    <path class="cls-20" d="M28.8,151.1H1.7v-4.8h23.5v-13.8h3.7v18.6Z"/>
    <path class="cls-20" d="M9.7,106.4h11.1c6.3,0,8.5,5.4,8.5,11.5s-2.1,11.5-8.5,11.5h-11.1c-6.3,0-8.5-5.4-8.5-11.5s2.1-11.5,8.5-11.5ZM10.7,124.6h9c4.5,0,5.7-2.8,5.7-6.7s-1.2-6.7-5.7-6.7h-9c-4.5,0-5.7,2.8-5.7,6.7s1.2,6.7,5.7,6.7Z"/>
    <path class="cls-20" d="M9.7,76.4h11.1c6.3,0,8.5,5.4,8.5,11.5s-2.1,11.5-8.5,11.5h-11.1c-6.3,0-8.5-5.4-8.5-11.5s2.1-11.5,8.5-11.5ZM10.7,94.6h9c4.5,0,5.7-2.8,5.7-6.7s-1.2-6.7-5.7-6.7h-9c-4.5,0-5.7,2.8-5.7,6.7s1.2,6.7,5.7,6.7Z"/>
    <path class="cls-20" d="M28.8,50.9l-11.4,6.8v7h11.4v4.8H1.7v-14.3c0-3.9,2.7-6.8,6-6.8h3.7c2.6,0,4.8,1.7,5.7,4.4l11.8-7.1v5.2ZM8.7,53.2c-2.2,0-3.3,1.1-3.3,4.1v7.4h8.4v-7.4c0-3-1.1-4.1-3.3-4.1h-1.8Z"/>
    <path class="cls-20" d="M28.8,15.2h8.1v4.8h-8.1v14.4h-3.6l-15.5-14.7v-4.5h15.3v-4.9h3.7v4.9ZM15.7,20l9.5,8.9v-8.9h-9.5Z"/>
  </g>
  <rect class="cls-7" x="557.4" y="435.9" width="220.6" height="56.9"/>
  <rect class="cls-11" x="743.2" y="480.5" width="34.2" height="11.7"/>
  <rect class="cls-6" x="144.9" y="332.2" width="115.2" height="79.7"/>
  <g>
    <rect class="cls-17" x="293.1" y="481.9" width="83.8" height="30.4"/>
    <rect class="cls-17" x="391.5" y="481.9" width="83.8" height="30.4"/>
    <g>
      <polygon class="cls-20" points="499.3 499.5 485.2 501.4 484.9 499.1 499 497.2 499.3 499.5"/>
      <polygon class="cls-20" points="498.8 495.9 484.6 494.5 484.9 492.1 499.1 493.6 498.8 495.9"/>
      <polygon class="cls-20" points="499.2 492 485.6 487.7 486.3 485.5 499.9 489.7 499.2 492"/>
      <polygon class="cls-20" points="500.7 488.5 489.5 479.7 490.9 477.9 502.1 486.7 500.7 488.5"/>
      <polygon class="cls-20" points="503.4 485.8 495.1 474.1 497.1 472.8 505.3 484.4 503.4 485.8"/>
      <polygon class="cls-20" points="507 484.1 502.2 470.7 504.4 469.9 509.2 483.3 507 484.1"/>
    </g>
    <g>
      <polygon class="cls-20" points="518.7 489.3 532.6 485.8 533.2 488.1 519.3 491.6 518.7 489.3"/>
      <polygon class="cls-20" points="519.6 492.8 533.9 492.7 533.9 495 519.6 495.1 519.6 492.8"/>
      <polygon class="cls-20" points="519.7 496.7 533.7 499.5 533.2 501.8 519.2 499 519.7 496.7"/>
      <polygon class="cls-20" points="518.6 500.3 530.7 507.9 529.4 509.9 517.3 502.3 518.6 500.3"/>
      <polygon class="cls-20" points="516.2 503.3 525.7 514 523.9 515.6 514.4 504.9 516.2 503.3"/>
      <polygon class="cls-20" points="512.8 505.4 519 518.2 516.9 519.2 510.7 506.4 512.8 505.4"/>
    </g>
    <g>
      <path class="cls-15" d="M508,495.3v.4s-.5,0-.5,0v.2s.4,0,.4,0v.4s-.4,0-.4,0v.5s-.5,0-.5,0v-1.6s1,0,1,0Z"/>
      <path class="cls-15" d="M508.7,495.3v1.5s-.5,0-.5,0v-1.5s.5,0,.5,0Z"/>
      <path class="cls-15" d="M509.5,496.4h0s0,.5,0,.5h-.5s0-1.5,0-1.5h.7s.4,0,.4,0v.8s-.1,0-.1,0l.3.4-.4.2-.3-.5ZM509.4,496.1h.3s0-.3,0-.3h-.3s0,.3,0,.3Z"/>
      <path class="cls-15" d="M511.3,496.9h-1s0-1.5,0-1.5h0c0,0,.8,0,.8,0v.4s-.5,0-.5,0v.2s.4,0,.4,0v.4s-.4,0-.4,0v.2s.5,0,.5,0v.4Z"/>
      <path class="cls-15" d="M507.2,497.8h-.3s0-.4,0-.4h0s.3,0,.3,0h0c0,.1-.1.1-.1.1h0c0,0,.1,0,.1,0h0c0,.1-.1.1-.1.1h0c0,0,.2,0,.2,0h0Z"/>
      <path class="cls-15" d="M507.5,497.6h0s0,.2,0,.2h-.2s0-.2,0-.2h0s0,0,0,0v-.2s.1,0,.1,0h0c0,.1,0,.2,0,.2h0s0-.1,0-.1h.1s0,.2,0,.2h0s0,0,0,0v.2s-.1,0-.1,0h0c0-.1,0-.2,0-.2Z"/>
      <path class="cls-15" d="M508.1,497.5h-.1s0,.3,0,.3h-.1s0-.3,0-.3h-.1s0-.1,0-.1h.4s0,.1,0,.1Z"/>
      <path class="cls-15" d="M508.3,497.3v.5s-.1,0-.1,0v-.5s.1,0,.1,0Z"/>
      <path class="cls-15" d="M508.7,497.8h-.1s0-.1,0-.1h-.1c0-.1,0,.1,0,.1h-.1s0-.4,0-.4h.1s.1.1.1.1h0c0-.1.1-.2.1-.2v.5Z"/>
      <path class="cls-15" d="M508.9,497.3h.3s0,.1,0,.1h-.2v.2h0s0-.1,0-.1h.1s0,.3,0,.3h-.3s0-.4,0-.4h0Z"/>
      <path class="cls-15" d="M509.6,497.3v.4s0,0,0,0h-.3s0,0,0,0v-.4s.1,0,.1,0v.3s0,0,0,0v-.3s.1,0,.1,0Z"/>
      <path class="cls-15" d="M509.8,497.3v.5s-.1,0-.1,0v-.5s.1,0,.1,0Z"/>
      <path class="cls-15" d="M510.2,497.3h0c0,.1-.1.1-.1.1h0s.2.1.2.1v.2s-.3,0-.3,0v-.2s.2,0,.2,0h0s-.2-.1-.2-.1v-.2s.1,0,.1,0h.2Z"/>
      <path class="cls-15" d="M510.5,497.6h0s0,.2,0,.2h-.1v-.5s.1,0,.1,0v.2s0,0,0,0v-.2s.1,0,.1,0v.5s-.1,0-.1,0v-.2Z"/>
      <path class="cls-15" d="M511,497.8h-.3s0-.4,0-.4h0s.3,0,.3,0h0c0,.1-.1.1-.1.1h0c0,0,.1,0,.1,0h0c0,.1-.1.1-.1.1h0c0,0,.2,0,.2,0h0Z"/>
      <path class="cls-15" d="M511.2,497.6h0s0,.2,0,.2h-.1s0-.5,0-.5h.2s.1,0,.1,0v.3s0,0,0,0h0c0,.1-.1.2-.1.2v-.2ZM511.2,497.5h0s0-.1,0-.1h0s0,.1,0,.1Z"/>
    </g>
    <path class="cls-15" d="M505.1,500.6l3.9,2.9c0,0,.1,0,.2,0l3.9-2.9c0,0,0-.1,0-.2,0,0,0-.1-.2-.1h-1.7v-1.8c0,0,0-.2-.2-.2h-3.9c0,0-.2,0-.2.2v1.8h-1.7c0,0-.1,0-.2.1,0,0,0,.1,0,.2Z"/>
    <path class="cls-15" d="M516.2,490.1s0,0-.1,0,0,0,0,0l-3.1.7c0,0,0,0-.1,0,0,0,0,0,0,.1h-3.4c0-.1,0-.3,0-.4,0-.3-.1-.6-.3-.8-.2-.2-.5-.3-.8-.3s-.6.1-.8.3c-.2.2-.3.5-.3.8s0,.4.2.6c-.3,0-.5.2-.8.4-.2.2-.4.3-.6.5-.2.2-.3.3-.4.5-.1.2-.2.3-.3.4,0,0,0,.1-.1.2,0,.1,0,.2,0,.3,0,.1.1.2.2.3,0,0,.1,0,.2,0,.2,0,.3,0,.4-.2,0,0,0,0,0-.2,0,0,.1-.2.3-.4.1-.2.3-.3.5-.5.2-.1.4-.3.6-.4.3-.1.5-.2.8-.2h.2v.8c-.5.1-.8.4-1.1.8-.3.4-.4.8-.4,1.3h0c0,0,4.4,0,4.4,0h0c0-.6-.2-1.1-.5-1.5-.3-.4-.8-.7-1.3-.8v-.7h3.1c0,0,0,0,0,.1,0,0,0,0,.1,0l3.1.7s0,0,0,0c0,0,.1,0,.1,0,0,0,0,0,0-.2v-2.2c0,0,0-.1,0-.2ZM508.7,490.8c0,0-.2.1-.3.1s-.2,0-.3-.1c0,0-.1-.2-.1-.3s0-.2.1-.3c0,0,.2-.1.3-.1s.2,0,.3.1c0,0,.1.2.1.3s0,.2-.1.3Z"/>
    <polygon class="cls-20" points="265.9 503 265.9 493.5 253.1 493.5 253.1 483.8 240.3 483.8 240.3 474.1 227.5 474.1 227.5 464.5 214.8 464.5 214.8 474.1 214.8 512.6 240.3 512.6 253.1 512.6 265.7 512.6 278.5 512.6 278.5 503 265.9 503"/>
  </g>
  <line class="cls-11" x1=".5" y1="457.4" x2=".5" y2="456.7"/>
  <g>
    <path class="cls-18" d="M34.3,376.5h-1.6v-1.6h3.1v4.7h-.5l-.3-.6c-.6.5-1.3.7-2,.7-2.3,0-3.8-2.2-3.8-4.8s1.5-4.8,3.8-4.8,2.3.7,2.9,1.8l-.9.9c-.6-.8-1.2-1.1-1.9-1.1-1.2,0-2.2,1.2-2.2,3.3s1,3.3,2.2,3.3.7-.1,1.1-.4v-1.3Z"/>
    <path class="cls-18" d="M40.4,378.1h2.6v1.6h-4.2v-9.3h1.6v7.8Z"/>
    <path class="cls-18" d="M44,371.8v-1.6h6.8v1.6h-2.6v7.8h-1.6v-7.8h-2.6Z"/>
    <path class="cls-18" d="M56.9,376.7l4.6-6.6h.7v6.4h1.6v1.6h-1.6v1.6h-1.6v-1.6h-3.7v-1.4ZM60.6,376.5v-2.9l-2,2.9h2Z"/>
    <path class="cls-18" d="M69.2,373.3l-1.7.6-.4-.6,3.1-3.1h.5v7.9h1.6v1.6h-4.7v-1.6h1.6v-4.8Z"/>
    <path class="cls-18" d="M75.7,371.8v-1.6h6.7v.8l-4.3,8.6h-1.7l3.9-7.8h-4.6Z"/>
  </g>
  <g id="gltaqua">
    <g>
      <use width="148.5" height="110.1" transform="translate(60.8 103.2) scale(1.4 1)" xlink:href="#aquarium_class"/>
      <g>
        <path class="cls-21" d="M77.7,121.4h-1.6v-1.6h3.1v4.7h-.5l-.3-.6c-.6.5-1.3.7-2,.7-2.3,0-3.8-2.2-3.8-4.8s1.5-4.8,3.8-4.8,2.3.7,2.9,1.8l-.9.9c-.6-.8-1.2-1.1-1.9-1.1-1.2,0-2.2,1.2-2.2,3.3s1,3.3,2.2,3.3.7-.1,1.1-.4v-1.3Z"/>
        <path class="cls-21" d="M83.7,122.9h2.6v1.6h-4.2v-9.3h1.6v7.8Z"/>
        <path class="cls-21" d="M87.3,116.7v-1.6h6.8v1.6h-2.6v7.8h-1.6v-7.8h-2.6Z"/>
        <path class="cls-21" d="M100.2,121.6l4.6-6.6h.7v6.4h1.6v1.6h-1.6v1.6h-1.6v-1.6h-3.7v-1.4ZM103.9,121.4v-2.9l-2,2.9h2Z"/>
        <path class="cls-21" d="M112.5,118.2l-1.7.6-.4-.6,3.1-3.1h.5v7.9h1.6v1.6h-4.7v-1.6h1.6v-4.8Z"/>
        <path class="cls-21" d="M125.7,121.5c0,1.7-1.4,3.1-3.1,3.1s-2.6-.9-3-2.2l1.5-.5c.2.6.8,1.2,1.5,1.2s1.6-.7,1.6-1.6-.7-1.6-1.6-1.6h-1.2v-.5l2.1-2.8h-2.5l-.8,1.2h-.5v-2.8h6.1v.8l-2,2.7c1.1.5,1.9,1.5,1.9,2.9Z"/>
        <path class="cls-21" d="M133,115.2h1.5l-5.1,9.3h-1.5l5.1-9.3Z"/>
        <path class="cls-21" d="M146.1,121.4h-1.6v-1.6h3.1v4.7h-.5l-.3-.6c-.6.5-1.3.7-2,.7-2.3,0-3.8-2.2-3.8-4.8s1.5-4.8,3.8-4.8,2.3.7,2.9,1.8l-.9.9c-.6-.8-1.2-1.1-1.9-1.1-1.2,0-2.2,1.2-2.2,3.3s1,3.3,2.2,3.3.7-.1,1.1-.4v-1.3Z"/>
        <path class="cls-21" d="M152.2,122.9h2.6v1.6h-4.2v-9.3h1.6v7.8Z"/>
        <path class="cls-21" d="M155.7,116.7v-1.6h6.8v1.6h-2.6v7.8h-1.6v-7.8h-2.6Z"/>
        <path class="cls-21" d="M166.2,124.5h-1.6v-5.9c0-2.3,1.4-3.6,3.1-3.6s3.1,1.3,3.1,3.6v5.9h-1.6v-3.1h-3.1v3.1ZM169.3,118.6c0-1.4-.7-2-1.6-2s-1.6.7-1.6,2v1.2h3.1v-1.2Z"/>
        <path class="cls-21" d="M179.3,126.2c.4,0,1-.3,1.3-.6l.4,1.1c-.6.6-1.1.9-1.9.9-1.6,0-2.5-1-2.7-3.1-1.6-.4-2.5-2.4-2.5-4.7s1.2-4.8,3.3-4.8,3.3,2.2,3.3,4.8-.9,4.2-2.5,4.7c.1,1.1.5,1.7,1.4,1.7ZM177.1,123.1c1.1,0,1.6-1.5,1.6-3.3s-.6-3.3-1.6-3.3-1.6,1.5-1.6,3.3.6,3.3,1.6,3.3Z"/>
        <path class="cls-21" d="M184.9,115.2v5.9c0,1.4.7,2,1.6,2s1.6-.7,1.6-2v-5.9h1.6v5.9c0,2.3-1.4,3.6-3.1,3.6s-3.1-1.3-3.1-3.6v-5.9h1.6Z"/>
        <path class="cls-21" d="M194.2,124.5h-1.6v-5.9c0-2.3,1.4-3.6,3.1-3.6s3.1,1.3,3.1,3.6v5.9h-1.6v-3.1h-3.1v3.1ZM197.3,118.6c0-1.4-.7-2-1.6-2s-1.6.7-1.6,2v1.2h3.1v-1.2Z"/>
      </g>
    </g>
  </g>
  <rect class="cls-6" x="166.4" y="1" width="158.1" height="86"/>
  <rect class="cls-3" x="292.1" y="361.7" width="176.4" height="83.8"/>
  <g id="gltvr">
    <g>
      <use width="174.6" height="160.8" transform="translate(486.3 224.6) scale(1 .8)" xlink:href="#glt_vr"/>
      <g>
        <path class="cls-18" d="M544.4,165.8h-2.1v-2.1h4.2v6.3h-.6l-.4-.8c-.8.6-1.7,1-2.7,1-3.1,0-5.1-2.9-5.1-6.5s2.1-6.6,5.1-6.6,3.1,1,3.9,2.4l-1.3,1.2c-.8-1-1.6-1.5-2.5-1.5-1.6,0-2.9,1.7-2.9,4.4s1.4,4.4,2.9,4.4,1-.2,1.5-.5v-1.8Z"/>
        <path class="cls-18" d="M552.6,167.9h3.6v2.1h-5.7v-12.7h2.1v10.6Z"/>
        <path class="cls-18" d="M557.5,159.4v-2.1h9.3v2.1h-3.6v10.6h-2.1v-10.6h-3.6Z"/>
        <path class="cls-18" d="M575,166l6.2-8.9h1v8.7h2.1v2.1h-2.1v2.1h-2.1v-2.1h-5.1v-1.9ZM580.1,165.8v-3.9l-2.7,3.9h2.7Z"/>
        <path class="cls-18" d="M592.7,157.1c2.9,0,4.4,3,4.4,6.6s-1.6,6.5-4.4,6.5-4.4-2.9-4.4-6.5,1.6-6.6,4.4-6.6ZM592.7,168.1c1.4,0,2.2-2,2.2-4.4s-.8-4.4-2.2-4.4-2.2,2-2.2,4.4.8,4.4,2.2,4.4Z"/>
        <path class="cls-18" d="M601.9,160.6c0-1.9,1.6-3.5,3.5-3.5s3.5,1.6,3.5,3.5-.3,1.7-.9,2.3c.9.8,1.5,1.9,1.5,3.2,0,2.3-1.8,4.1-4.1,4.1s-4.1-1.8-4.1-4.1.6-2.4,1.5-3.2c-.5-.6-.9-1.4-.9-2.3ZM607.4,166.1c0-1.1-.9-2-2-2s-2,.9-2,2,.9,2,2,2,2-.9,2-2ZM604,160.6c0,.8.6,1.4,1.4,1.4s1.4-.6,1.4-1.4-.6-1.4-1.4-1.4-1.4.6-1.4,1.4Z"/>
      </g>
      <g>
        <path class="cls-16" d="M601,336.1h-1.6v-1.6h3.1v4.7h-.5l-.3-.6c-.6.5-1.3.7-2,.7-2.3,0-3.8-2.2-3.8-4.8s1.5-4.8,3.8-4.8,2.3.7,2.9,1.8l-.9.9c-.6-.8-1.2-1.1-1.9-1.1-1.2,0-2.2,1.2-2.2,3.3s1,3.3,2.2,3.3.7-.1,1.1-.4v-1.3Z"/>
        <path class="cls-16" d="M607,337.6h2.6v1.6h-4.2v-9.3h1.6v7.8Z"/>
        <path class="cls-16" d="M610.6,331.4v-1.6h6.8v1.6h-2.6v7.8h-1.6v-7.8h-2.6Z"/>
        <path class="cls-16" d="M623.5,336.2l4.6-6.6h.7v6.4h1.6v1.6h-1.6v1.6h-1.6v-1.6h-3.7v-1.4ZM627.3,336.1v-2.9l-2,2.9h2Z"/>
        <path class="cls-16" d="M636.6,329.7c2.1,0,3.3,2.2,3.3,4.8s-1.2,4.8-3.3,4.8-3.3-2.2-3.3-4.8,1.2-4.8,3.3-4.8ZM636.6,337.8c1.1,0,1.6-1.5,1.6-3.3s-.6-3.3-1.6-3.3-1.6,1.5-1.6,3.3.6,3.3,1.6,3.3Z"/>
        <path class="cls-16" d="M646.6,329.8h1.9l-2.3,3.3c1.6.1,2.9,1.5,2.9,3.1s-1.4,3.1-3.1,3.1-3.1-1.4-3.1-3.1c0-.9.4-1.5.8-2.1l3-4.2ZM645.9,334.7c-.9,0-1.6.7-1.6,1.6s.7,1.6,1.6,1.6,1.6-.7,1.6-1.6-.7-1.6-1.6-1.6Z"/>
      </g>
      <g>
        <path class="cls-14" d="M543.9,285.4h-2.7v-2.7h5.4v8h-.8l-.6-1c-1,.8-2.2,1.2-3.4,1.2-3.9,0-6.5-3.7-6.5-8.3s2.6-8.3,6.5-8.3,3.9,1.2,4.9,3.1l-1.6,1.5c-1-1.3-2.1-1.9-3.2-1.9-2,0-3.7,2.1-3.7,5.6s1.7,5.6,3.7,5.6,1.3-.2,1.9-.6v-2.3Z"/>
        <path class="cls-14" d="M554.3,288.1h4.5v2.7h-7.2v-16h2.7v13.3Z"/>
        <path class="cls-14" d="M560.4,277.4v-2.7h11.7v2.7h-4.5v13.3h-2.7v-13.3h-4.5Z"/>
        <path class="cls-14" d="M587.9,291h-.5l-6.4-16.3h2.9l3.8,9.7,3.8-9.7h2.9l-6.4,16.3Z"/>
        <path class="cls-14" d="M608.9,290.7h-3.3l-3.8-5.3h-2.1v5.3h-2.7v-16h5.2c2.9,0,5.3,2.4,5.3,5.4s-1.2,3.9-2.9,4.7l4.2,5.9ZM604.9,280.1c0-1.5-1.2-2.7-2.7-2.7h-2.5v5.4h2.5c1.5,0,2.7-1.2,2.7-2.7Z"/>
      </g>
    </g>
  </g>
  <rect class="cls-6" x="487.3" y="362" width="138" height="60.1"/>
  <rect class="cls-6" x="645.3" y="361.7" width="128.4" height="60.1"/>
  <g>
    <path class="cls-18" d="M646,454.8h-1.6v-1.6h3.1v4.7h-.5l-.3-.6c-.6.5-1.3.7-2,.7-2.3,0-3.8-2.2-3.8-4.8s1.5-4.8,3.8-4.8,2.3.7,2.9,1.8l-.9.9c-.6-.8-1.2-1.1-1.9-1.1-1.2,0-2.2,1.2-2.2,3.3s1,3.3,2.2,3.3.7-.1,1.1-.4v-1.3Z"/>
    <path class="cls-18" d="M652.1,456.3h2.6v1.6h-4.2v-9.3h1.6v7.8Z"/>
    <path class="cls-18" d="M655.7,450.1v-1.6h6.8v1.6h-2.6v7.8h-1.6v-7.8h-2.6Z"/>
    <path class="cls-18" d="M668.6,454.9l4.6-6.6h.7v6.4h1.6v1.6h-1.6v1.6h-1.6v-1.6h-3.7v-1.4ZM672.3,454.8v-2.9l-2,2.9h2Z"/>
    <path class="cls-18" d="M681.6,448.4c2.1,0,3.3,2.2,3.3,4.8s-1.2,4.8-3.3,4.8-3.3-2.2-3.3-4.8,1.2-4.8,3.3-4.8ZM681.6,456.5c1.1,0,1.6-1.5,1.6-3.3s-.6-3.3-1.6-3.3-1.6,1.5-1.6,3.3.6,3.3,1.6,3.3Z"/>
    <path class="cls-18" d="M694.1,454.9c0,1.7-1.4,3.1-3.1,3.1s-2.6-.9-3-2.2l1.5-.5c.2.6.8,1.2,1.5,1.2s1.6-.7,1.6-1.6-.7-1.6-1.6-1.6h-1.2v-.5l2.1-2.8h-2.5l-.8,1.2h-.5v-2.8h6.1v.8l-2,2.7c1.1.5,1.9,1.5,1.9,2.9Z"/>
  </g>
  <g>
    <rect class="cls-6" x="674.6" y="230.3" width="68.7" height="119.8"/>
    <g>
      <path class="cls-18" d="M703.9,283.4h-1.6v-1.6h3.1v4.7h-.5l-.3-.6c-.6.5-1.3.7-2,.7-2.3,0-3.8-2.2-3.8-4.8s1.5-4.8,3.8-4.8,2.3.7,2.9,1.8l-.9.9c-.6-.8-1.2-1.1-1.9-1.1-1.2,0-2.2,1.2-2.2,3.3s1,3.3,2.2,3.3.7-.1,1.1-.4v-1.3Z"/>
      <path class="cls-18" d="M710,284.9h2.6v1.6h-4.2v-9.3h1.6v7.8Z"/>
      <path class="cls-18" d="M713.6,278.7v-1.6h6.8v1.6h-2.6v7.8h-1.6v-7.8h-2.6Z"/>
      <path class="cls-18" d="M696.2,300.3l4.6-6.6h.7v6.4h1.6v1.6h-1.6v1.6h-1.6v-1.6h-3.7v-1.4ZM699.9,300.2v-2.9l-2,2.9h2Z"/>
      <path class="cls-18" d="M709.2,293.8c2.1,0,3.3,2.2,3.3,4.8s-1.2,4.8-3.3,4.8-3.3-2.2-3.3-4.8,1.2-4.8,3.3-4.8ZM709.2,301.9c1.1,0,1.6-1.5,1.6-3.3s-.6-3.3-1.6-3.3-1.6,1.5-1.6,3.3.6,3.3,1.6,3.3Z"/>
      <path class="cls-18" d="M715,295.5v-1.6h6.7v.8l-4.3,8.6h-1.7l3.9-7.8h-4.6Z"/>
    </g>
  </g>
  <g>
    <path class="cls-18" d="M552,57.8h-1.6v-1.6h3.1v4.7h-.5l-.3-.6c-.6.5-1.3.7-2,.7-2.3,0-3.8-2.2-3.8-4.8s1.5-4.8,3.8-4.8,2.3.7,2.9,1.8l-.9.9c-.6-.8-1.2-1.1-1.9-1.1-1.2,0-2.2,1.2-2.2,3.3s1,3.3,2.2,3.3.7-.1,1.1-.4v-1.3Z"/>
    <path class="cls-18" d="M558,59.4h2.6v1.6h-4.2v-9.3h1.6v7.8Z"/>
    <path class="cls-18" d="M561.6,53.1v-1.6h6.8v1.6h-2.6v7.8h-1.6v-7.8h-2.6Z"/>
    <path class="cls-18" d="M574.5,58l4.6-6.6h.7v6.4h1.6v1.6h-1.6v1.6h-1.6v-1.6h-3.7v-1.4ZM578.2,57.8v-2.9l-2,2.9h2Z"/>
    <path class="cls-18" d="M586.8,54.6l-1.7.6-.4-.6,3.1-3.1h.5v7.9h1.6v1.6h-4.7v-1.6h1.6v-4.8Z"/>
    <path class="cls-18" d="M596.9,51.4c2.1,0,3.3,2.2,3.3,4.8s-1.2,4.8-3.3,4.8-3.3-2.2-3.3-4.8,1.2-4.8,3.3-4.8ZM596.9,59.5c1.1,0,1.6-1.5,1.6-3.3s-.6-3.3-1.6-3.3-1.6,1.5-1.6,3.3.6,3.3,1.6,3.3Z"/>
  </g>
  <g>
    <path class="cls-18" d="M384,53.1h-1.6v-1.6h3.1v4.7h-.5l-.3-.6c-.6.5-1.3.7-2,.7-2.3,0-3.8-2.2-3.8-4.8s1.5-4.8,3.8-4.8,2.3.7,2.9,1.8l-.9.9c-.6-.8-1.2-1.1-1.9-1.1-1.2,0-2.2,1.2-2.2,3.3s1,3.3,2.2,3.3.7-.1,1.1-.4v-1.3Z"/>
    <path class="cls-18" d="M390,54.7h2.6v1.6h-4.2v-9.3h1.6v7.8Z"/>
    <path class="cls-18" d="M393.6,48.4v-1.6h6.8v1.6h-2.6v7.8h-1.6v-7.8h-2.6Z"/>
    <path class="cls-18" d="M406.5,53.3l4.6-6.6h.7v6.4h1.6v1.6h-1.6v1.6h-1.6v-1.6h-3.7v-1.4ZM410.3,53.1v-2.9l-2,2.9h2Z"/>
    <path class="cls-18" d="M418.8,49.9l-1.7.6-.4-.6,3.1-3.1h.5v7.9h1.6v1.6h-4.7v-1.6h1.6v-4.8Z"/>
    <path class="cls-18" d="M428.2,49.9l-1.7.6-.4-.6,3.1-3.1h.5v7.9h1.6v1.6h-4.7v-1.6h1.6v-4.8Z"/>
  </g>
  <g>
    <path class="cls-18" d="M227.6,45.7h-1.6v-1.6h3.1v4.7h-.5l-.3-.6c-.6.5-1.3.7-2,.7-2.3,0-3.8-2.2-3.8-4.8s1.5-4.8,3.8-4.8,2.3.7,2.9,1.8l-.9.9c-.6-.8-1.2-1.1-1.9-1.1-1.2,0-2.2,1.2-2.2,3.3s1,3.3,2.2,3.3.7-.1,1.1-.4v-1.3Z"/>
    <path class="cls-18" d="M233.7,47.2h2.6v1.6h-4.2v-9.3h1.6v7.8Z"/>
    <path class="cls-18" d="M237.2,41v-1.6h6.8v1.6h-2.6v7.8h-1.6v-7.8h-2.6Z"/>
    <path class="cls-18" d="M250.2,45.9l4.6-6.6h.7v6.4h1.6v1.6h-1.6v1.6h-1.6v-1.6h-3.7v-1.4ZM253.9,45.7v-2.9l-2,2.9h2Z"/>
    <path class="cls-18" d="M262.4,42.4l-1.7.6-.4-.6,3.1-3.1h.5v7.9h1.6v1.6h-4.7v-1.6h1.6v-4.8Z"/>
    <path class="cls-18" d="M274.1,42.4c0-.9-.7-1.6-1.6-1.6s-1.6.7-1.6,1.6v.8h-1.6v-.8c0-1.7,1.4-3.1,3.1-3.1s3.1,1.4,3.1,3.1-.6,2.1-1.5,2.9l-2,1.9h3.5v1.6h-6.2v-.6l3.3-3.5c.5-.5,1.3-1.4,1.3-2.3Z"/>
  </g>
  <g>
    <rect class="cls-6" x="17.8" y="222.1" width="116.2" height="101"/>
    <g>
      <path class="cls-18" d="M54.3,274.1h-1.6v-1.6h3.1v4.7h-.5l-.3-.6c-.6.5-1.3.7-2,.7-2.3,0-3.8-2.2-3.8-4.8s1.5-4.8,3.8-4.8,2.3.7,2.9,1.8l-.9.9c-.6-.8-1.2-1.1-1.9-1.1-1.2,0-2.2,1.2-2.2,3.3s1,3.3,2.2,3.3.7-.1,1.1-.4v-1.3Z"/>
      <path class="cls-18" d="M60.4,275.7h2.6v1.6h-4.2v-9.3h1.6v7.8Z"/>
      <path class="cls-18" d="M63.9,269.5v-1.6h6.8v1.6h-2.6v7.8h-1.6v-7.8h-2.6Z"/>
      <path class="cls-18" d="M76.9,274.3l4.6-6.6h.7v6.4h1.6v1.6h-1.6v1.6h-1.6v-1.6h-3.7v-1.4ZM80.6,274.1v-2.9l-2,2.9h2Z"/>
      <path class="cls-18" d="M89.1,270.9l-1.7.6-.4-.6,3.1-3.1h.5v7.9h1.6v1.6h-4.7v-1.6h1.6v-4.8Z"/>
      <path class="cls-18" d="M96.6,267.9h5.4v2.8h-.5l-.7-1.2h-2.7v1.9c.3-.1.7-.2,1.1-.2,1.7,0,3.1,1.4,3.1,3.1s-1.4,3.1-3.1,3.1-2.6-.9-3-2.2l1.5-.5c.2.6.8,1.2,1.5,1.2s1.6-.7,1.6-1.6-.7-1.6-1.6-1.6-1,.3-1.3.7h-1.4v-5.5Z"/>
    </g>
  </g>
  <g>
    <path class="cls-18" d="M412,375.6h-1.6v-1.6h3.1v4.7h-.5l-.3-.6c-.6.5-1.3.7-2,.7-2.3,0-3.8-2.2-3.8-4.8s1.5-4.8,3.8-4.8,2.3.7,2.9,1.8l-.9.9c-.6-.8-1.2-1.1-1.9-1.1-1.2,0-2.2,1.2-2.2,3.3s1,3.3,2.2,3.3.7-.1,1.1-.4v-1.3Z"/>
    <path class="cls-18" d="M418.1,377.2h2.6v1.6h-4.2v-9.3h1.6v7.8Z"/>
    <path class="cls-18" d="M421.7,371v-1.6h6.8v1.6h-2.6v7.8h-1.6v-7.8h-2.6Z"/>
    <path class="cls-18" d="M434.6,375.8l4.6-6.6h.7v6.4h1.6v1.6h-1.6v1.6h-1.6v-1.6h-3.7v-1.4ZM438.3,375.6v-2.9l-2,2.9h2Z"/>
    <path class="cls-18" d="M446.9,372.4l-1.7.6-.4-.6,3.1-3.1h.5v7.9h1.6v1.6h-4.7v-1.6h1.6v-4.8Z"/>
    <path class="cls-18" d="M454.4,371.8c0-1.4,1.1-2.6,2.6-2.6s2.6,1.1,2.6,2.6-.3,1.2-.7,1.7c.7.6,1.1,1.4,1.1,2.3,0,1.7-1.4,3-3,3s-3-1.4-3-3,.4-1.8,1.1-2.3c-.4-.5-.6-1.1-.6-1.7ZM458.5,375.9c0-.8-.7-1.5-1.5-1.5s-1.5.7-1.5,1.5.6,1.5,1.5,1.5,1.5-.7,1.5-1.5ZM456,371.8c0,.6.5,1,1,1s1-.4,1-1-.5-1-1-1-1,.5-1,1Z"/>
  </g>
  <g>
    <path class="cls-18" d="M534.8,393.6h-1.6v-1.6h3.1v4.7h-.5l-.3-.6c-.6.5-1.3.7-2,.7-2.3,0-3.8-2.2-3.8-4.8s1.5-4.8,3.8-4.8,2.3.7,2.9,1.8l-.9.9c-.6-.8-1.2-1.1-1.9-1.1-1.2,0-2.2,1.2-2.2,3.3s1,3.3,2.2,3.3.7-.1,1.1-.4v-1.3Z"/>
    <path class="cls-18" d="M540.9,395.1h2.6v1.6h-4.2v-9.3h1.6v7.8Z"/>
    <path class="cls-18" d="M544.4,388.9v-1.6h6.8v1.6h-2.6v7.8h-1.6v-7.8h-2.6Z"/>
    <path class="cls-18" d="M557.4,393.8l4.6-6.6h.7v6.4h1.6v1.6h-1.6v1.6h-1.6v-1.6h-3.7v-1.4ZM561.1,393.6v-2.9l-2,2.9h2Z"/>
    <path class="cls-18" d="M570.4,387.2c2.1,0,3.3,2.2,3.3,4.8s-1.2,4.8-3.3,4.8-3.3-2.2-3.3-4.8,1.2-4.8,3.3-4.8ZM570.4,395.3c1.1,0,1.6-1.5,1.6-3.3s-.6-3.3-1.6-3.3-1.6,1.5-1.6,3.3.6,3.3,1.6,3.3Z"/>
    <path class="cls-18" d="M576,393.8l4.6-6.6h.7v6.4h1.6v1.6h-1.6v1.6h-1.6v-1.6h-3.7v-1.4ZM579.8,393.6v-2.9l-2,2.9h2Z"/>
  </g>
  <g>
    <path class="cls-18" d="M728,374.2h-1.2v-1.2h2.5v3.7h-.4l-.3-.5c-.5.4-1,.6-1.6.6-1.8,0-3-1.7-3-3.8s1.2-3.8,3-3.8,1.8.6,2.3,1.4l-.7.7c-.5-.6-1-.9-1.5-.9-.9,0-1.7,1-1.7,2.6s.8,2.6,1.7,2.6.6,0,.9-.3v-1.1Z"/>
    <path class="cls-18" d="M732.8,375.4h2.1v1.2h-3.3v-7.4h1.2v6.2Z"/>
    <path class="cls-18" d="M735.6,370.4v-1.2h5.5v1.2h-2.1v6.2h-1.2v-6.2h-2.1Z"/>
    <path class="cls-18" d="M745.9,374.3l3.6-5.2h.6v5.1h1.2v1.2h-1.2v1.2h-1.2v-1.2h-3v-1.1ZM748.9,374.2v-2.3l-1.6,2.3h1.6Z"/>
    <path class="cls-18" d="M756.3,369.1c1.7,0,2.6,1.7,2.6,3.8s-.9,3.8-2.6,3.8-2.6-1.7-2.6-3.8.9-3.8,2.6-3.8ZM756.3,375.5c.8,0,1.3-1.2,1.3-2.6s-.5-2.6-1.3-2.6-1.3,1.2-1.3,2.6.5,2.6,1.3,2.6Z"/>
    <path class="cls-18" d="M761.6,369.2h4.3v2.2h-.4l-.6-1h-2.1v1.5c.3-.1.6-.2.9-.2,1.4,0,2.5,1.1,2.5,2.5s-1.1,2.5-2.5,2.5-2.1-.7-2.4-1.8l1.2-.4c.1.5.6.9,1.2.9s1.2-.6,1.2-1.2-.6-1.2-1.2-1.2-.8.2-1,.5h-1.1v-4.4Z"/>
  </g>
  <g>
    <path class="cls-18" d="M562.4,488.2h-.9v-.9h1.8v2.7h-.3l-.2-.3c-.3.3-.7.4-1.1.4-1.3,0-2.2-1.2-2.2-2.8s.9-2.8,2.2-2.8,1.3.4,1.6,1l-.5.5c-.3-.4-.7-.6-1.1-.6-.7,0-1.2.7-1.2,1.9s.6,1.9,1.2,1.9.4,0,.6-.2v-.8Z"/>
    <path class="cls-18" d="M565.9,489.1h1.5v.9h-2.4v-5.3h.9v4.4Z"/>
    <path class="cls-18" d="M567.9,485.5v-.9h3.9v.9h-1.5v4.4h-.9v-4.4h-1.5Z"/>
    <path class="cls-18" d="M575.3,488.3l2.6-3.7h.4v3.6h.9v.9h-.9v.9h-.9v-.9h-2.1v-.8ZM577.4,488.2v-1.6l-1.1,1.6h1.1Z"/>
    <path class="cls-18" d="M582.7,484.5c1.2,0,1.9,1.2,1.9,2.8s-.7,2.8-1.9,2.8-1.9-1.2-1.9-2.8.7-2.8,1.9-2.8ZM582.7,489.1c.6,0,.9-.8.9-1.9s-.3-1.9-.9-1.9-.9.8-.9,1.9.3,1.9.9,1.9Z"/>
    <path class="cls-18" d="M587.6,486.3l-1,.4-.2-.4,1.8-1.8h.3v4.5h.9v.9h-2.7v-.9h.9v-2.7Z"/>
  </g>
  <g>
    <path class="cls-18" d="M748.1,487.2h-.9v-.9h1.8v2.7h-.3l-.2-.3c-.3.3-.7.4-1.1.4-1.3,0-2.2-1.2-2.2-2.8s.9-2.8,2.2-2.8,1.3.4,1.6,1l-.5.5c-.3-.4-.7-.6-1.1-.6-.7,0-1.2.7-1.2,1.9s.6,1.9,1.2,1.9.4,0,.6-.2v-.8Z"/>
    <path class="cls-18" d="M751.5,488.1h1.5v.9h-2.4v-5.3h.9v4.4Z"/>
    <path class="cls-18" d="M753.6,484.6v-.9h3.9v.9h-1.5v4.4h-.9v-4.4h-1.5Z"/>
    <path class="cls-18" d="M760.9,487.3l2.6-3.7h.4v3.6h.9v.9h-.9v.9h-.9v-.9h-2.1v-.8ZM763.1,487.2v-1.6l-1.1,1.6h1.1Z"/>
    <path class="cls-18" d="M768.4,483.6c1.2,0,1.9,1.2,1.9,2.8s-.7,2.8-1.9,2.8-1.9-1.2-1.9-2.8.7-2.8,1.9-2.8ZM768.4,488.2c.6,0,.9-.8.9-1.9s-.3-1.9-.9-1.9-.9.8-.9,1.9.3,1.9.9,1.9Z"/>
    <path class="cls-18" d="M774.6,485.4c0-.5-.4-.9-.9-.9s-.9.4-.9.9v.4h-.9v-.4c0-1,.8-1.8,1.8-1.8s1.8.8,1.8,1.8-.3,1.2-.8,1.7l-1.2,1.1h2v.9h-3.6v-.3l1.9-2c.3-.3.8-.8.8-1.3Z"/>
  </g>
  <g>
    <path class="cls-18" d="M157.8,346.9h-1.8v-1.8h3.6v5.3h-.5l-.4-.7c-.7.5-1.5.8-2.2.8-2.6,0-4.3-2.5-4.3-5.5s1.7-5.5,4.3-5.5,2.6.8,3.3,2l-1.1,1c-.7-.9-1.4-1.3-2.1-1.3-1.3,0-2.5,1.4-2.5,3.7s1.1,3.7,2.5,3.7.8-.1,1.3-.4v-1.5Z"/>
    <path class="cls-18" d="M168.3,344.7v1.8h-5.3v-1.8h5.3Z"/>
    <path class="cls-18" d="M171.1,347.1l5.2-7.5h.8v7.3h1.8v1.8h-1.8v1.8h-1.8v-1.8h-4.3v-1.6ZM175.4,346.9v-3.3l-2.3,3.3h2.3Z"/>
    <path class="cls-18" d="M185.2,343.2l-1.9.7-.4-.7,3.6-3.6h.5v9.1h1.8v1.8h-5.3v-1.8h1.8v-5.5Z"/>
    <path class="cls-18" d="M200.3,347.1c0,2-1.6,3.6-3.6,3.6s-2.9-1.1-3.4-2.5l1.7-.6c.2.7.9,1.3,1.7,1.3s1.8-.8,1.8-1.8-.8-1.8-1.8-1.8h-1.3v-.5l2.4-3.2h-2.9l-.9,1.4h-.5v-3.2h7v.9l-2.3,3.1c1.2.6,2.2,1.7,2.2,3.3Z"/>
  </g>
  <g>
    <path class="cls-18" d="M412,120h-1.6v-1.6h3.1v4.7h-.5l-.3-.6c-.6.5-1.3.7-2,.7-2.3,0-3.8-2.2-3.8-4.8s1.5-4.8,3.8-4.8,2.3.7,2.9,1.8l-.9.9c-.6-.8-1.2-1.1-1.9-1.1-1.2,0-2.2,1.2-2.2,3.3s1,3.3,2.2,3.3.7-.1,1.1-.4v-1.3Z"/>
    <path class="cls-18" d="M418.1,121.5h2.6v1.6h-4.2v-9.3h1.6v7.8Z"/>
    <path class="cls-18" d="M421.7,115.3v-1.6h6.8v1.6h-2.6v7.8h-1.6v-7.8h-2.6Z"/>
    <path class="cls-18" d="M434.6,120.2l4.6-6.6h.7v6.4h1.6v1.6h-1.6v1.6h-1.6v-1.6h-3.7v-1.4ZM438.3,120v-2.9l-2,2.9h2Z"/>
    <path class="cls-18" d="M446.9,116.8l-1.7.6-.4-.6,3.1-3.1h.5v7.9h1.6v1.6h-4.7v-1.6h1.6v-4.8Z"/>
    <path class="cls-18" d="M453.3,120.2l4.6-6.6h.7v6.4h1.6v1.6h-1.6v1.6h-1.6v-1.6h-3.7v-1.4ZM457,120v-2.9l-2,2.9h2Z"/>
  </g>
  <g>
    <path class="cls-18" d="M157.2,235.8h-1.6v-1.6h3.1v4.7h-.5l-.3-.6c-.6.5-1.3.7-2,.7-2.3,0-3.8-2.2-3.8-4.8s1.5-4.8,3.8-4.8,2.3.7,2.9,1.8l-.9.9c-.6-.8-1.2-1.1-1.9-1.1-1.2,0-2.2,1.2-2.2,3.3s1,3.3,2.2,3.3.7-.1,1.1-.4v-1.3Z"/>
    <path class="cls-18" d="M163.2,237.4h2.6v1.6h-4.2v-9.3h1.6v7.8Z"/>
    <path class="cls-18" d="M166.8,231.1v-1.6h6.8v1.6h-2.6v7.8h-1.6v-7.8h-2.6Z"/>
    <path class="cls-18" d="M179.7,236l4.6-6.6h.7v6.4h1.6v1.6h-1.6v1.6h-1.6v-1.6h-3.7v-1.4ZM183.5,235.8v-2.9l-2,2.9h2Z"/>
    <path class="cls-18" d="M192,232.6l-1.7.6-.4-.6,3.1-3.1h.5v7.9h1.6v1.6h-4.7v-1.6h1.6v-4.8Z"/>
    <path class="cls-18" d="M202.8,229.6h1.9l-2.3,3.3c1.6.1,2.9,1.5,2.9,3.1s-1.4,3.1-3.1,3.1-3.1-1.4-3.1-3.1c0-.9.4-1.5.8-2.1l3-4.2ZM202.1,234.4c-.9,0-1.6.7-1.6,1.6s.7,1.6,1.6,1.6,1.6-.7,1.6-1.6-.7-1.6-1.6-1.6Z"/>
  </g>
  <g>
    <rect class="cls-6" x="674.6" y="99.1" width="68.7" height="118.9"/>
    <g>
      <path class="cls-18" d="M701.6,151.7h-1.6v-1.6h3.1v4.7h-.5l-.3-.6c-.6.5-1.3.7-2,.7-2.3,0-3.8-2.2-3.8-4.8s1.5-4.8,3.8-4.8,2.3.7,2.9,1.8l-.9.9c-.6-.8-1.2-1.1-1.9-1.1-1.2,0-2.2,1.2-2.2,3.3s1,3.3,2.2,3.3.7-.1,1.1-.4v-1.3Z"/>
      <path class="cls-18" d="M707.7,153.3h2.6v1.6h-4.2v-9.3h1.6v7.8Z"/>
      <path class="cls-18" d="M711.2,147v-1.6h6.8v1.6h-2.6v7.8h-1.6v-7.8h-2.6Z"/>
      <path class="cls-18" d="M696.2,168.7l4.6-6.6h.7v6.4h1.6v1.6h-1.6v1.6h-1.6v-1.6h-3.7v-1.4ZM699.9,168.5v-2.9l-2,2.9h2Z"/>
      <path class="cls-18" d="M709.2,162.1c2.1,0,3.3,2.2,3.3,4.8s-1.2,4.8-3.3,4.8-3.3-2.2-3.3-4.8,1.2-4.8,3.3-4.8ZM709.2,170.2c1.1,0,1.6-1.5,1.6-3.3s-.6-3.3-1.6-3.3-1.6,1.5-1.6,3.3.6,3.3,1.6,3.3Z"/>
      <path class="cls-18" d="M720.9,167.4l-3,4.2h-1.9l2.3-3.3c-1.6-.1-2.8-1.5-2.8-3.1s1.4-3.1,3.1-3.1,3.1,1.4,3.1,3.1c0,.9-.4,1.5-.8,2.2ZM718.6,163.7c-.9,0-1.6.7-1.6,1.6s.7,1.6,1.6,1.6,1.6-.7,1.6-1.6-.7-1.6-1.6-1.6Z"/>
    </g>
  </g>
  <rect class="cls-11" x="557.4" y="481.4" width="34.2" height="11.7"/>
  <g>
    <rect class="cls-19" x="491.6" y="342" width="47.9" height="10.6"/>
    <path class="cls-13" d="M538,343.5v7.6h-44.9v-7.6h44.9M541,340.5h-50.9v13.6h50.9v-13.6h0Z"/>
  </g>
  <g>
    <rect class="cls-19" x="266.3" y="146.5" width="10.6" height="47.9"/>
    <path class="cls-13" d="M275.4,148v44.9h-7.6v-44.9h7.6M278.4,145h-13.6v50.9h13.6v-50.9h0Z"/>
  </g>
  <g>
    <rect class="cls-19" x="210.4" y="204.1" width="47.9" height="10.6"/>
    <path class="cls-13" d="M256.8,205.6v7.6h-44.9v-7.6h44.9M259.8,202.6h-50.9v13.6h50.9v-13.6h0Z"/>
  </g>
  <rect class="cls-10" x="202.1" y="357.6" width="19.8" height="158.1" transform="translate(-224.6 648.6) rotate(-90)"/>
  <rect class="cls-9" x="508.2" y="397.3" width="10.6" height="87.8" transform="translate(72.2 954.6) rotate(-90)"/>
  <rect class="cls-4" x="16.5" y="357.2" width="116.5" height="139.1"/>
  <g>
    <path class="cls-1" d="M29.3,469.5h7v2.3h-4.7v2.8h4.7v2.3h-4.7v4.2h4.7v2.3h-7v-14Z"/>
    <path class="cls-1" d="M48,476.1v2.4h-7v-2.4h7Z"/>
    <path class="cls-1" d="M56,483.8c-1.3,0-2.3-.4-3.5-1.3l.3-2c1.4.7,2.4,1.1,3.3,1.1s1.8-.4,1.8-1.2c0-1.9-5.5-1.2-5.5-4.9s1.8-3.3,4-3.3,2.3.4,3.6,1.4l-.7,1.7c-1-.6-2-1-2.9-1s-1.7.5-1.7,1.1c0,1.7,5.5,1.3,5.5,4.8s-2.1,3.5-4.3,3.5Z"/>
    <path class="cls-1" d="M69.6,483.8c-1.1,0-2.1-.4-2.9-1.1v5.6h-2.3v-15.6h.8l.9,1.7c.9-1.2,2.1-1.9,3.5-1.9,2.6,0,4.7,2.5,4.7,5.7s-2.1,5.7-4.7,5.7ZM69.3,474.5c-1.4,0-2.6,1.6-2.6,3.5s1.2,3.5,2.6,3.5,2.6-1.6,2.6-3.5-1.1-3.5-2.6-3.5Z"/>
    <path class="cls-1" d="M88.3,478.1c0,3.2-2.3,5.7-5.2,5.7s-5.2-2.5-5.2-5.7,2.3-5.7,5.2-5.7,5.2,2.5,5.2,5.7ZM80.3,478.1c0,1.9,1.2,3.5,2.8,3.5s2.8-1.6,2.8-3.5-1.2-3.5-2.8-3.5-2.8,1.6-2.8,3.5Z"/>
    <path class="cls-1" d="M94.7,477.2v6.4h-2.3v-11h.8l.9,1.6c.8-1.1,2-1.8,3.4-1.8s.7,0,.7,0v4.5h-.8l-1.2-2.2c-.8.4-1.4,1.3-1.4,2.4Z"/>
  </g>
  <g>
    <path class="cls-1" d="M364.9,403.3c1.5,0,3,.9,3.9,2.3l-1.3,1.1c-.8-1-1.6-1.4-2.5-1.4-1.6,0-3,1.6-3,4.2s1.4,4.2,3,4.2,1.7-.4,2.5-1.4l1.3,1.1c-.8,1.4-2.4,2.3-3.9,2.3-3,0-5.1-2.8-5.1-6.2s2-6.2,5.1-6.2Z"/>
    <path class="cls-1" d="M380.5,410.8c0,2.7-2,4.9-4.5,4.9s-4.5-2.2-4.5-4.9,2-4.9,4.5-4.9,4.5,2.2,4.5,4.9ZM373.7,410.8c0,1.7,1.1,3,2.4,3s2.4-1.4,2.4-3-1.1-3-2.4-3-2.4,1.4-2.4,3Z"/>
    <path class="cls-1" d="M390.3,415.5v-5.1c0-1.7-.9-2.6-2-2.6s-2.2,1-2.2,2.2v5.5h-2v-9.4h.7l.8,1.4c.7-.9,1.9-1.6,3.1-1.6,2.1,0,3.7,1.7,3.7,4.5v5.1h-2Z"/>
    <path class="cls-1" d="M398.9,415.7c-1.1,0-2-.4-3-1.1l.2-1.7c1.2.6,2,1,2.8,1s1.6-.3,1.6-1c0-1.6-4.7-1-4.7-4.2s1.6-2.9,3.5-2.9,2,.3,3.1,1.2l-.6,1.5c-.9-.5-1.7-.9-2.5-.9s-1.5.4-1.5.9c0,1.5,4.7,1.1,4.7,4.1s-1.8,3-3.7,3Z"/>
    <path class="cls-1" d="M413.4,415.5l-.8-1.4c-.7,1-1.9,1.6-3.1,1.6-2.1,0-3.7-1.7-3.7-4.5v-5.1h2v5.1c0,1.7.9,2.6,2,2.6s2.2-1,2.2-2.2v-5.5h2v9.4h-.7Z"/>
    <path class="cls-1" d="M418.1,401.5h2v14h-2v-14Z"/>
    <path class="cls-1" d="M423.7,408.1v-2h1.8v-3.4h2v3.4h3v2h-3v3.9c0,1.4.7,2,1.5,2s.8-.1,1.2-.3l.2,1.2c-.5.5-1.2.8-1.9.8-1.7,0-3-1.4-3-3.7v-3.8h-1.8Z"/>
    <path class="cls-1" d="M436.3,402.5c0,.6-.5,1.2-1.2,1.2s-1.2-.5-1.2-1.2.5-1.2,1.2-1.2,1.2.5,1.2,1.2ZM434.1,406.1h2v9.4h-2v-9.4Z"/>
    <path class="cls-1" d="M446.3,415.5v-5.1c0-1.7-.9-2.6-2-2.6s-2.2,1-2.2,2.2v5.5h-2v-9.4h.7l.8,1.4c.7-.9,1.9-1.6,3.1-1.6,2.1,0,3.7,1.7,3.7,4.5v5.1h-2Z"/>
    <path class="cls-1" d="M455.9,419.5c-1.6,0-3-1-3.7-2l1.1-1.1c.8.8,1.5,1.3,2.7,1.3s2.1-.8,2.1-2.6v-.4c-.7.6-1.5,1-2.4,1-2.3,0-4-2.2-4-4.9s1.8-4.9,4-4.9,2.3.6,3,1.6l.8-1.4h.7v8.8c0,3-1.9,4.6-4.2,4.6ZM455.9,407.8c-1.2,0-2.2,1.4-2.2,3s1,3,2.2,3,2.2-1.4,2.2-3-1-3-2.2-3Z"/>
    <path class="cls-1" d="M393.4,437.1l-.8-1.4c-.8,1-1.8,1.6-3,1.6-2.3,0-4-2.2-4-4.9,0-2.7,1.8-4.9,4-4.9s2.3.6,3,1.6l.8-1.4h.7v9.4h-.7ZM389.9,429.4c-1.2,0-2.2,1.4-2.2,3s1,3,2.2,3,2.2-1.4,2.2-3-1-3-2.2-3Z"/>
    <path class="cls-1" d="M404.3,437.1v-5.1c0-1.7-.9-2.6-2-2.6s-2.2,1-2.2,2.2v5.5h-2v-9.4h.7l.8,1.4c.7-.9,1.9-1.6,3.1-1.6,2.1,0,3.7,1.7,3.7,4.5v5.1h-2Z"/>
    <path class="cls-1" d="M417.4,437.1l-.8-1.4c-.8,1-1.8,1.6-3,1.6-2.3,0-4-2.2-4-4.9s1.8-4.9,4-4.9,1.8.4,2.4,1v-5.4h2v14h-.7ZM413.9,429.4c-1.2,0-2.2,1.4-2.2,3s1,3,2.2,3,2.2-1.4,2.2-3-1-3-2.2-3Z"/>
    <path class="cls-1" d="M434.1,429.5v-4.4h2v12h-2v-5.6h-4v5.6h-2v-12h2v4.4h4Z"/>
    <path class="cls-1" d="M447.4,437.1l-.8-1.4c-.8,1-1.8,1.6-3,1.6-2.2,0-4-2.2-4-4.9,0-2.7,1.8-4.9,4-4.9s2.3.6,3,1.6l.8-1.4h.7v9.4h-.7ZM443.9,429.4c-1.2,0-2.2,1.4-2.2,3s1,3,2.2,3,2.2-1.4,2.2-3-1-3-2.2-3Z"/>
    <path class="cls-1" d="M452.1,423.1h2v14h-2v-14Z"/>
    <path class="cls-1" d="M458.1,423.1h2v14h-2v-14Z"/>
  </g>
  <g>
    <path class="cls-1" d="M152.3,370.9h4.2c1.8,0,3.2,1.4,3.2,3.2s-.3,1.4-.7,2c.9.7,1.5,1.7,1.5,3,0,2.1-1.7,3.8-3.8,3.8h-4.4v-12ZM154.3,375.3h2.2c.7,0,1.2-.5,1.2-1.2s-.5-1.2-1.2-1.2h-2.2v2.4ZM154.3,380.9h2.4c1,0,1.8-.8,1.8-1.8s-.8-1.8-1.8-1.8h-2.4v3.6Z"/>
    <path class="cls-1" d="M166.3,370.9v7.6c0,1.7.9,2.6,2,2.6s2-.8,2-2.6v-7.6h2v7.6c0,3-1.8,4.6-4,4.6s-4-1.6-4-4.6v-7.6h2Z"/>
    <path class="cls-1" d="M182.5,378.9h-2v-2h4v6h-.6l-.4-.7c-.7.6-1.6.9-2.5.9-2.9,0-4.9-2.8-4.9-6.2s2-6.2,4.9-6.2,2.9.9,3.7,2.3l-1.2,1.1c-.8-1-1.5-1.4-2.4-1.4-1.5,0-2.8,1.6-2.8,4.2s1.3,4.2,2.8,4.2,1-.1,1.4-.5v-1.7Z"/>
    <path class="cls-1" d="M154.3,404.5h-2v-12h2v5.5l4-5.5h2.4l-4.2,5.9,4.4,6.1h-2.4l-4.2-5.8v5.8Z"/>
    <path class="cls-1" d="M166.5,391.5c0,.6-.5,1.2-1.2,1.2s-1.2-.5-1.2-1.2.5-1.2,1.2-1.2,1.2.5,1.2,1.2ZM164.3,395.1h2v9.4h-2v-9.4Z"/>
    <path class="cls-1" d="M169.9,397.1v-2h1.8v-3.4h2v3.4h3v2h-3v3.9c0,1.4.7,2,1.5,2s.8-.1,1.2-.3l.2,1.2c-.5.5-1.2.8-1.9.8-1.7,0-3-1.4-3-3.7v-3.8h-1.8Z"/>
    <path class="cls-1" d="M186.3,397.8c-.5-.7-1.3-1-2-1-1.3,0-2.4,1.3-2.4,3s1.1,3,2.4,3,1.6-.3,2-1l1.2,1c-.8,1.1-2,1.9-3.4,1.9-2.4,0-4.3-2.2-4.3-4.9s1.9-4.9,4.3-4.9,2.6.7,3.4,1.9l-1.2,1Z"/>
    <path class="cls-1" d="M194.8,394.9c2.1,0,3.7,1.7,3.7,4.5v5.1h-2v-5.1c0-1.7-.9-2.6-2-2.6s-2.2,1-2.2,2.2v5.5h-2v-14h2v5.3c.6-.6,1.6-.9,2.5-.9Z"/>
    <path class="cls-1" d="M206.8,402.8c1.1,0,1.9-.6,2.4-1.1l1,1.3c-.8,1-2.2,1.7-3.6,1.7-3,0-4.8-2.2-4.8-4.9s1.9-4.9,4.6-4.9,4.6,2.3,4.1,5.1h-6.6c0,1.3.9,2.8,2.8,2.8ZM208.4,398.4c0-.9-.7-1.6-2-1.6s-1.8.4-2.2,1.6h4.2Z"/>
    <path class="cls-1" d="M220.5,404.5v-5.1c0-1.7-.9-2.6-2-2.6s-2.2,1-2.2,2.2v5.5h-2v-9.4h.7l.8,1.4c.7-.9,1.9-1.6,3.1-1.6,2.1,0,3.7,1.7,3.7,4.5v5.1h-2Z"/>
  </g>
  <g>
    <path class="cls-1" d="M154.3,269.3h2.8c3,0,5.4,2.7,5.4,6s-2.4,6-5.4,6h-2.8v-12ZM156.3,279.3h.8c1.7,0,3.2-1.8,3.2-4s-1.4-4-3.2-4h-.8v8Z"/>
    <path class="cls-1" d="M170.9,279.6c1.1,0,1.9-.6,2.4-1.1l1,1.3c-.8,1-2.2,1.7-3.6,1.7-3,0-4.8-2.2-4.8-4.9s1.9-4.9,4.6-4.9,4.6,2.3,4.1,5.1h-6.6c0,1.3.9,2.8,2.8,2.8ZM172.4,275.2c0-.9-.7-1.6-2-1.6s-1.8.4-2.2,1.6h4.2Z"/>
    <path class="cls-1" d="M184.3,281.3h-2v-6.3c0-.8-.5-1.3-1-1.3s-1,.5-1,1.1v6.5h-2v-9.4h.7l.5.9c.5-.7,1.2-1.1,2.1-1.1s1.5.4,2,1c.5-.6,1.2-1,2-1,1.5,0,2.7,1.3,2.7,3.3v6.3h-2v-6.3c0-.8-.5-1.3-1-1.3s-1,.5-1,1.1v6.5Z"/>
    <path class="cls-1" d="M200.8,276.6c0,2.7-2,4.9-4.5,4.9s-4.5-2.2-4.5-4.9,2-4.9,4.5-4.9,4.5,2.2,4.5,4.9ZM194,276.6c0,1.7,1.1,3,2.4,3s2.4-1.4,2.4-3-1.1-3-2.4-3-2.4,1.4-2.4,3Z"/>
    <path class="cls-1" d="M209.7,269.3h1.9l-6.5,12h-1.9l6.5-12Z"/>
    <path class="cls-1" d="M156.9,303.1h-.4l-4.2-12.2h2l2.4,7,1.6-4.7-.8-2.3h2l2.4,7,2.4-7h2.1l-4.2,12.2h-.4l-2.4-7-2.4,7Z"/>
    <path class="cls-1" d="M176.8,298.2c0,2.7-2,4.9-4.5,4.9s-4.5-2.2-4.5-4.9,2-4.9,4.5-4.9,4.5,2.2,4.5,4.9ZM170,298.2c0,1.7,1.1,3,2.4,3s2.4-1.4,2.4-3-1.1-3-2.4-3-2.4,1.4-2.4,3Z"/>
    <path class="cls-1" d="M182.3,297.4v5.5h-2v-9.4h.7l.8,1.4c.7-.9,1.7-1.6,2.9-1.6s.6,0,.6,0v3.9h-.7l-1-1.9c-.7.3-1.2,1.1-1.2,2.1Z"/>
    <path class="cls-1" d="M194.4,293.5h2.6l-4.5,4.5,4.9,4.9h-2.8l-4.3-4.3v4.3h-2v-14h2v8.7l4.1-4.1Z"/>
    <path class="cls-1" d="M203.2,303.1c-1.1,0-2-.4-3-1.1l.2-1.7c1.2.6,2,1,2.8,1s1.6-.3,1.6-1c0-1.6-4.7-1-4.7-4.2s1.6-2.9,3.5-2.9,2,.3,3.1,1.2l-.6,1.5c-.9-.5-1.7-.9-2.5-.9s-1.5.4-1.5.9c0,1.5,4.7,1.1,4.7,4.1s-1.8,3-3.7,3Z"/>
    <path class="cls-1" d="M214.9,293.3c2.1,0,3.7,1.7,3.7,4.5v5.1h-2v-5.1c0-1.7-.9-2.6-2-2.6s-2.2,1-2.2,2.2v5.5h-2v-14h2v5.3c.6-.6,1.6-.9,2.5-.9Z"/>
    <path class="cls-1" d="M230.8,298.2c0,2.7-2,4.9-4.5,4.9s-4.5-2.2-4.5-4.9,2-4.9,4.5-4.9,4.5,2.2,4.5,4.9ZM224,298.2c0,1.7,1.1,3,2.4,3s2.4-1.4,2.4-3-1.1-3-2.4-3-2.4,1.4-2.4,3Z"/>
    <path class="cls-1" d="M238.8,303.1c-.9,0-1.8-.4-2.4-1v4.8h-2v-13.4h.7l.8,1.4c.7-1,1.8-1.6,3-1.6,2.2,0,4,2.2,4,4.9s-1.8,4.9-4,4.9ZM238.6,295.2c-1.2,0-2.2,1.4-2.2,3s1,3,2.2,3,2.2-1.4,2.2-3-1-3-2.2-3Z"/>
    <path class="cls-1" d="M156.3,324.5h-2v-7.6c0-3,1.8-4.6,4-4.6s4,1.6,4,4.6v7.6h-2v-4h-4v4ZM160.3,316.9c0-1.8-.9-2.6-2-2.6s-2,.8-2,2.6v1.6h4v-1.6Z"/>
    <path class="cls-1" d="M168.3,319v5.5h-2v-9.4h.7l.8,1.4c.7-.9,1.7-1.6,2.9-1.6s.6,0,.6,0v3.9h-.7l-1-1.9c-.7.3-1.2,1.1-1.2,2.1Z"/>
    <path class="cls-1" d="M178.9,322.8c1.1,0,1.9-.6,2.4-1.1l1,1.3c-.8,1-2.2,1.7-3.6,1.7-3,0-4.8-2.2-4.8-4.9s1.9-4.9,4.6-4.9,4.6,2.3,4.1,5.1h-6.6c0,1.3.9,2.8,2.8,2.8ZM180.4,318.4c0-.9-.7-1.6-2-1.6s-1.8.4-2.2,1.6h4.2Z"/>
    <path class="cls-1" d="M193.7,324.5l-.8-1.4c-.8,1-1.8,1.6-3,1.6-2.3,0-4-2.2-4-4.9s1.8-4.9,4-4.9,2.3.6,3,1.6l.8-1.4h.7v9.4h-.7ZM190.2,316.8c-1.2,0-2.2,1.4-2.2,3s1,3,2.2,3,2.2-1.4,2.2-3-1-3-2.2-3Z"/>
  </g>
  <g>
    <path class="cls-13" d="M75.3,176.2h-2.3v-8.9c0-3.5,2.1-5.4,4.7-5.4s4.7,1.9,4.7,5.4v8.9h-2.3v-4.7h-4.7v4.7ZM80,167.3c0-2.1-1.1-3-2.4-3s-2.3,1-2.3,3v1.9h4.7v-1.9Z"/>
    <path class="cls-13" d="M94,180.8v-5.6c-.8.7-1.8,1.2-2.9,1.2-2.6,0-4.7-2.5-4.7-5.7s2.1-5.7,4.7-5.7,2.6.7,3.5,1.9l.9-1.7h.8v15.6h-2.3ZM91.4,167.2c-1.4,0-2.6,1.6-2.6,3.5s1.1,3.5,2.6,3.5,2.6-1.6,2.6-3.5-1.1-3.5-2.6-3.5Z"/>
    <path class="cls-13" d="M109.5,176.2l-.9-1.6c-.8,1.1-2.2,1.8-3.6,1.8-2.4,0-4.3-2-4.3-5.2v-6h2.3v5.9c0,2,1.1,3,2.3,3s2.6-1.1,2.6-2.6v-6.4h2.3v11h-.8Z"/>
    <path class="cls-13" d="M123.5,176.2l-.9-1.7c-.9,1.2-2.1,1.9-3.5,1.9-2.6,0-4.7-2.5-4.7-5.7,0-3.2,2.1-5.7,4.7-5.7s2.6.7,3.5,1.9l.9-1.7h.8v11h-.8ZM119.4,167.2c-1.4,0-2.6,1.6-2.6,3.5s1.1,3.5,2.6,3.5,2.6-1.6,2.6-3.5-1.1-3.5-2.6-3.5Z"/>
    <path class="cls-13" d="M131.3,169.8v6.4h-2.3v-11h.8l.9,1.6c.8-1.1,2-1.8,3.4-1.8s.7,0,.7,0v4.5h-.8l-1.2-2.2c-.8.4-1.4,1.3-1.4,2.4Z"/>
    <path class="cls-13" d="M140.9,161c0,.8-.6,1.4-1.4,1.4s-1.4-.6-1.4-1.4.6-1.4,1.4-1.4,1.4.6,1.4,1.4ZM138.3,165.2h2.3v11h-2.3v-11Z"/>
    <path class="cls-13" d="M153.8,176.2l-.9-1.6c-.8,1.1-2.2,1.8-3.6,1.8-2.4,0-4.3-2-4.3-5.2v-6h2.3v5.9c0,2,1.1,3,2.3,3s2.6-1.1,2.6-2.6v-6.4h2.3v11h-.8Z"/>
    <path class="cls-13" d="M166.3,176.2h-2.3v-7.4c0-1-.5-1.5-1.2-1.5s-1.2.6-1.2,1.3v7.6h-2.3v-11h.8l.6,1.1c.5-.8,1.4-1.3,2.4-1.3s1.8.4,2.4,1.2c.5-.7,1.4-1.2,2.3-1.2,1.8,0,3.2,1.5,3.2,3.8v7.3h-2.3v-7.4c0-1-.5-1.5-1.2-1.5s-1.2.6-1.2,1.3v7.6Z"/>
    <path class="cls-13" d="M78.6,187.1c1.7,0,3.5,1.1,4.5,2.7l-1.5,1.3c-.9-1.2-1.9-1.7-2.9-1.7-1.8,0-3.4,1.9-3.4,4.9s1.6,4.9,3.4,4.9,2-.5,2.9-1.7l1.5,1.3c-1,1.6-2.8,2.7-4.5,2.7-3.5,0-5.9-3.3-5.9-7.2s2.4-7.2,5.9-7.2Z"/>
    <path class="cls-13" d="M86.9,185h2.3v16.3h-2.3v-16.3Z"/>
    <path class="cls-13" d="M102.5,201.4l-.9-1.7c-.9,1.2-2.1,1.9-3.5,1.9-2.6,0-4.7-2.5-4.7-5.7,0-3.2,2.1-5.7,4.7-5.7s2.6.7,3.5,1.9l.9-1.7h.8v11h-.8ZM98.4,192.4c-1.4,0-2.6,1.6-2.6,3.5s1.1,3.5,2.6,3.5,2.6-1.6,2.6-3.5-1.1-3.5-2.6-3.5Z"/>
    <path class="cls-13" d="M111.3,201.6c-1.3,0-2.3-.4-3.5-1.3l.3-2c1.4.7,2.4,1.1,3.3,1.1s1.8-.4,1.8-1.2c0-1.9-5.5-1.2-5.5-4.9s1.8-3.3,4-3.3,2.3.4,3.6,1.4l-.7,1.7c-1-.6-2-1-2.9-1s-1.7.5-1.7,1.1c0,1.7,5.5,1.3,5.5,4.8s-2.1,3.5-4.3,3.5Z"/>
    <path class="cls-13" d="M122.9,201.6c-1.3,0-2.3-.4-3.5-1.3l.3-2c1.4.7,2.4,1.1,3.3,1.1s1.8-.4,1.8-1.2c0-1.9-5.5-1.2-5.5-4.9s1.8-3.3,4-3.3,2.3.4,3.6,1.4l-.7,1.7c-1-.6-2-1-2.9-1s-1.7.5-1.7,1.1c0,1.7,5.5,1.3,5.5,4.8s-2.1,3.5-4.3,3.5Z"/>
  </g>
  <g>
    <path class="cls-1" d="M402.8,298.9h2.8c3,0,5.4,2.7,5.4,6s-2.4,6-5.4,6h-2.8v-12ZM404.8,308.9h.8c1.7,0,3.2-1.8,3.2-4s-1.4-4-3.2-4h-.8v8Z"/>
    <path class="cls-1" d="M419.3,309.3c1.1,0,1.9-.6,2.4-1.1l1,1.3c-.8,1-2.2,1.7-3.6,1.7-3,0-4.8-2.2-4.8-4.9s1.9-4.9,4.6-4.9,4.6,2.3,4.1,5.1h-6.6c0,1.3.9,2.8,2.8,2.8ZM420.9,304.8c0-.9-.7-1.6-2-1.6s-1.8.4-2.2,1.6h4.2Z"/>
    <path class="cls-1" d="M432.8,310.9h-2v-6.3c0-.8-.5-1.3-1-1.3s-1,.5-1,1.1v6.5h-2v-9.4h.7l.5.9c.5-.7,1.2-1.1,2.1-1.1s1.5.4,2,1c.5-.6,1.2-1,2-1,1.5,0,2.7,1.3,2.7,3.3v6.3h-2v-6.3c0-.8-.5-1.3-1-1.3s-1,.5-1,1.1v6.5Z"/>
    <path class="cls-1" d="M449.3,306.2c0,2.7-2,4.9-4.5,4.9s-4.5-2.2-4.5-4.9,2-4.9,4.5-4.9,4.5,2.2,4.5,4.9ZM442.4,306.2c0,1.7,1.1,3,2.4,3s2.4-1.4,2.4-3-1.1-3-2.4-3-2.4,1.4-2.4,3Z"/>
    <path class="cls-1" d="M458.1,298.9h1.9l-6.5,12h-1.9l6.5-12Z"/>
    <path class="cls-1" d="M373.4,332.7h-.4l-4.2-12.2h2l2.4,7,1.6-4.7-.8-2.3h2l2.4,7,2.4-7h2.1l-4.2,12.2h-.4l-2.4-7-2.4,7Z"/>
    <path class="cls-1" d="M393.3,327.8c0,2.7-2,4.9-4.5,4.9s-4.5-2.2-4.5-4.9,2-4.9,4.5-4.9,4.5,2.2,4.5,4.9ZM386.4,327.8c0,1.7,1.1,3,2.4,3s2.4-1.4,2.4-3-1.1-3-2.4-3-2.4,1.4-2.4,3Z"/>
    <path class="cls-1" d="M398.8,327.1v5.5h-2v-9.4h.7l.8,1.4c.7-.9,1.7-1.6,2.9-1.6s.6,0,.6,0v3.9h-.7l-1-1.9c-.7.3-1.2,1.1-1.2,2.1Z"/>
    <path class="cls-1" d="M410.9,323.1h2.6l-4.5,4.5,4.9,4.9h-2.8l-4.3-4.3v4.3h-2v-14h2v8.7l4.1-4.1Z"/>
    <path class="cls-1" d="M419.6,332.8c-1.1,0-2-.4-3-1.1l.2-1.7c1.2.6,2,1,2.8,1s1.6-.3,1.6-1c0-1.6-4.7-1-4.7-4.2s1.6-2.9,3.5-2.9,2,.3,3.1,1.2l-.6,1.5c-.9-.5-1.7-.9-2.5-.9s-1.5.4-1.5.9c0,1.5,4.7,1.1,4.7,4.1s-1.8,3-3.7,3Z"/>
    <path class="cls-1" d="M431.3,322.9c2.1,0,3.7,1.7,3.7,4.5v5.1h-2v-5.1c0-1.7-.9-2.6-2-2.6s-2.2,1-2.2,2.2v5.5h-2v-14h2v5.3c.6-.6,1.6-.9,2.5-.9Z"/>
    <path class="cls-1" d="M447.3,327.8c0,2.7-2,4.9-4.5,4.9s-4.5-2.2-4.5-4.9,2-4.9,4.5-4.9,4.5,2.2,4.5,4.9ZM440.4,327.8c0,1.7,1.1,3,2.4,3s2.4-1.4,2.4-3-1.1-3-2.4-3-2.4,1.4-2.4,3Z"/>
    <path class="cls-1" d="M455.2,332.7c-.9,0-1.8-.4-2.4-1v4.8h-2v-13.4h.7l.8,1.4c.7-1,1.8-1.6,3-1.6,2.2,0,4,2.2,4,4.9s-1.8,4.9-4,4.9ZM455,324.8c-1.2,0-2.2,1.4-2.2,3s1,3,2.2,3,2.2-1.4,2.2-3-1-3-2.2-3Z"/>
    <path class="cls-1" d="M420.8,354.1h-2v-7.6c0-3,1.8-4.6,4-4.6s4,1.6,4,4.6v7.6h-2v-4h-4v4ZM424.8,346.5c0-1.8-.9-2.6-2-2.6s-2,.8-2,2.6v1.6h4v-1.6Z"/>
    <path class="cls-1" d="M432.8,348.7v5.5h-2v-9.4h.7l.8,1.4c.7-.9,1.7-1.6,2.9-1.6s.6,0,.6,0v3.9h-.7l-1-1.9c-.7.3-1.2,1.1-1.2,2.1Z"/>
    <path class="cls-1" d="M443.3,352.5c1.1,0,1.9-.6,2.4-1.1l1,1.3c-.8,1-2.2,1.7-3.6,1.7-3,0-4.8-2.2-4.8-4.9s1.9-4.9,4.6-4.9,4.6,2.3,4.1,5.1h-6.6c0,1.3.9,2.8,2.8,2.8ZM444.9,348c0-.9-.7-1.6-2-1.6s-1.8.4-2.2,1.6h4.2Z"/>
    <path class="cls-1" d="M458.1,354.1l-.8-1.4c-.8,1-1.8,1.6-3,1.6-2.3,0-4-2.2-4-4.9s1.8-4.9,4-4.9,2.3.6,3,1.6l.8-1.4h.7v9.4h-.7ZM454.6,346.4c-1.2,0-2.2,1.4-2.2,3s1,3,2.2,3,2.2-1.4,2.2-3-1-3-2.2-3Z"/>
  </g>
  <g>
    <path class="cls-1" d="M628.5,470.1h-2v-2h6v2h-2v8h2v2h-6v-2h2v-8Z"/>
    <path class="cls-1" d="M635.1,470.1v-2h8.8v2h-3.4v10h-2v-10h-3.4Z"/>
    <path class="cls-1" d="M656.5,467.9c2.7,0,4.2,2.8,4.2,6.2s-1.5,6.2-4.2,6.2-4.2-2.8-4.2-6.2,1.5-6.2,4.2-6.2ZM656.5,478.3c1.4,0,2.1-1.9,2.1-4.2s-.7-4.2-2.1-4.2-2.1,1.9-2.1,4.2.7,4.2,2.1,4.2Z"/>
    <path class="cls-1" d="M671.3,468.4c-.4-.2-.9-.4-1.5-.4s-1.5.5-1.5,1.9v.8h2.8v2h-2.8v7.4h-2v-7.4h-2.2v-2h2.2v-.9c0-2.3,1.3-3.7,3-3.7s1.9.3,2.4.6l-.4,1.6Z"/>
    <path class="cls-1" d="M678.3,472.7v7.4h-2v-7.4h-2.2v-2h2.2v-.9c0-2.3,1.3-3.7,3-3.7s1.9.3,2.4.6l-.4,1.6c-.4-.2-.9-.4-1.5-.4s-1.5.5-1.5,1.9v.8h8.2v9.4h-2v-7.4h-6.2ZM686.7,467.1c0,.6-.5,1.2-1.2,1.2s-1.2-.5-1.2-1.2.5-1.2,1.2-1.2,1.2.5,1.2,1.2Z"/>
    <path class="cls-1" d="M696.5,473.4c-.5-.7-1.3-1-2-1-1.3,0-2.4,1.3-2.4,3s1.1,3,2.4,3,1.6-.3,2-1l1.2,1c-.8,1.1-2,1.9-3.4,1.9-2.4,0-4.3-2.2-4.3-4.9s1.9-4.9,4.3-4.9,2.6.7,3.4,1.9l-1.2,1Z"/>
    <path class="cls-1" d="M705,478.5c1.1,0,1.9-.6,2.4-1.1l1,1.3c-.8,1-2.2,1.7-3.6,1.7-3,0-4.8-2.2-4.8-4.9s1.9-4.9,4.6-4.9,4.6,2.3,4.1,5.1h-6.6c0,1.3.9,2.8,2.8,2.8ZM706.6,474c0-.9-.7-1.6-2-1.6s-1.8.4-2.2,1.6h4.2Z"/>
  </g>
  <g>
    <path class="cls-1" d="M661.8,397.6h-1.6v-5.9c0-2.3,1.4-3.6,3.1-3.6s3.1,1.3,3.1,3.6v5.9h-1.6v-3.1h-3.1v3.1ZM665,391.7c0-1.4-.7-2-1.6-2s-1.6.7-1.6,2v1.2h3.1v-1.2Z"/>
    <path class="cls-1" d="M675.3,397.6l-.6-1.1c-.6.8-1.4,1.3-2.3,1.3-1.8,0-3.1-1.7-3.1-3.8s1.4-3.8,3.1-3.8,1.4.3,1.9.8v-4.2h1.6v10.9h-.5ZM672.6,391.6c-1,0-1.7,1.1-1.7,2.4s.8,2.4,1.7,2.4,1.7-1.1,1.7-2.4-.8-2.4-1.7-2.4Z"/>
    <path class="cls-1" d="M683.6,397.6h-1.6v-4.9c0-.7-.3-1-.8-1s-.8.4-.8.9v5.1h-1.6v-7.3h.5l.4.7c.4-.5,1-.9,1.6-.9s1.2.3,1.6.8c.4-.4.9-.8,1.6-.8,1.2,0,2.1,1,2.1,2.6v4.9h-1.6v-4.9c0-.7-.4-1-.8-1s-.8.4-.8.9v5.1Z"/>
    <path class="cls-1" d="M691.6,387.5c0,.5-.4.9-.9.9s-.9-.4-.9-.9.4-.9.9-.9.9.4.9.9ZM689.8,390.3h1.6v7.3h-1.6v-7.3Z"/>
    <path class="cls-1" d="M699.3,397.6v-3.9c0-1.3-.7-2-1.6-2s-1.7.8-1.7,1.7v4.2h-1.6v-7.3h.5l.6,1.1c.5-.7,1.5-1.2,2.4-1.2,1.6,0,2.9,1.3,2.9,3.5v4h-1.6Z"/>
    <path class="cls-1" d="M705.6,387.5c0,.5-.4.9-.9.9s-.9-.4-.9-.9.4-.9.9-.9.9.4.9.9ZM703.8,390.3h1.6v7.3h-1.6v-7.3Z"/>
    <path class="cls-1" d="M710.7,397.8c-.9,0-1.5-.3-2.3-.8l.2-1.3c1,.5,1.6.7,2.2.7s1.2-.3,1.2-.8c0-1.2-3.7-.8-3.7-3.3s1.2-2.2,2.7-2.2,1.5.3,2.4.9l-.5,1.1c-.7-.4-1.3-.7-1.9-.7s-1.1.3-1.1.7c0,1.2,3.7.9,3.7,3.2s-1.4,2.4-2.8,2.4Z"/>
    <path class="cls-1" d="M716,391.8v-1.6h1.4v-2.6h1.6v2.6h2.3v1.6h-2.3v3.1c0,1.1.5,1.5,1.1,1.5s.6,0,.9-.2l.2,1c-.4.4-.9.6-1.5.6-1.3,0-2.3-1.1-2.3-2.9v-3h-1.4Z"/>
    <path class="cls-1" d="M725.6,393.3v4.2h-1.6v-7.3h.5l.6,1.1c.5-.7,1.3-1.2,2.2-1.2s.4,0,.4,0v3h-.5l-.8-1.4c-.6.3-1,.9-1,1.6Z"/>
    <path class="cls-1" d="M736,397.6l-.6-1.1c-.6.8-1.4,1.3-2.3,1.3-1.8,0-3.1-1.7-3.1-3.8,0-2.1,1.4-3.8,3.1-3.8s1.8.5,2.3,1.3l.6-1.1h.5v7.3h-.5ZM733.3,391.6c-1,0-1.7,1.1-1.7,2.4s.8,2.4,1.7,2.4,1.7-1.1,1.7-2.4-.8-2.4-1.7-2.4Z"/>
    <path class="cls-1" d="M739.3,391.8v-1.6h1.4v-2.6h1.6v2.6h2.3v1.6h-2.3v3.1c0,1.1.5,1.5,1.1,1.5s.6,0,.9-.2l.2,1c-.4.4-.9.6-1.5.6-1.3,0-2.3-1.1-2.3-2.9v-3h-1.4Z"/>
    <path class="cls-1" d="M749.1,387.5c0,.5-.4.9-.9.9s-.9-.4-.9-.9.4-.9.9-.9.9.4.9.9ZM747.4,390.3h1.6v7.3h-1.6v-7.3Z"/>
    <path class="cls-1" d="M754.7,397.7h-.5l-3-7.5h1.7l1.6,4.1,1.6-4.1h1.7l-3,7.5Z"/>
    <path class="cls-1" d="M763.4,396.3c.8,0,1.5-.5,1.9-.8l.8,1c-.6.7-1.7,1.3-2.8,1.3-2.4,0-3.8-1.7-3.8-3.8s1.5-3.8,3.6-3.8,3.6,1.8,3.2,4h-5.1c0,1,.7,2.2,2.2,2.2ZM764.6,392.8c0-.7-.6-1.2-1.5-1.2s-1.4.3-1.7,1.2h3.2Z"/>
    <path class="cls-1" d="M725.6,404.9c2.1,0,3.3,2.2,3.3,4.8s-1.2,4.8-3.3,4.8-3.3-2.2-3.3-4.8,1.2-4.8,3.3-4.8ZM725.6,413c1.1,0,1.6-1.5,1.6-3.3s-.6-3.3-1.6-3.3-1.6,1.5-1.6,3.3.6,3.3,1.6,3.3Z"/>
    <path class="cls-1" d="M737.2,405.2c-.3-.1-.7-.3-1.2-.3s-1.1.4-1.1,1.5v.6h2.2v1.6h-2.2v5.8h-1.6v-5.8h-1.7v-1.6h1.7v-.7c0-1.8,1-2.9,2.3-2.9s1.5.3,1.9.5l-.3,1.3Z"/>
    <path class="cls-1" d="M742.6,408.6v5.8h-1.6v-5.8h-1.7v-1.6h1.7v-.7c0-1.8,1-2.9,2.3-2.9s1.5.3,1.9.5l-.3,1.3c-.3-.1-.7-.3-1.2-.3s-1.1.4-1.1,1.5v.6h6.4v7.3h-1.6v-5.8h-4.8ZM749.1,404.3c0,.5-.4.9-.9.9s-.9-.4-.9-.9.4-.9.9-.9.9.4.9.9Z"/>
    <path class="cls-1" d="M756.7,409.1c-.4-.5-1-.8-1.6-.8-1,0-1.8,1-1.8,2.4s.8,2.4,1.8,2.4,1.2-.2,1.6-.8l.9.8c-.6.9-1.6,1.5-2.6,1.5-1.8,0-3.3-1.7-3.3-3.8s1.5-3.8,3.3-3.8,2,.6,2.6,1.5l-.9.8Z"/>
    <path class="cls-1" d="M763.4,413.1c.8,0,1.5-.5,1.9-.8l.8,1c-.6.7-1.7,1.3-2.8,1.3-2.4,0-3.8-1.7-3.8-3.8s1.5-3.8,3.6-3.8,3.6,1.8,3.2,4h-5.1c0,1,.7,2.2,2.2,2.2ZM764.6,409.6c0-.7-.6-1.2-1.5-1.2s-1.4.3-1.7,1.2h3.2Z"/>
  </g>
  <rect class="cls-2" x="645.7" y="387.8" width="7.6" height="25.7"/>
  <rect class="cls-2" x="487.6" y="387.8" width="7.6" height="25.7"/>
  <rect class="cls-2" x="674.6" y="324.1" width="7.6" height="25.7"/>
  <rect class="cls-2" x="674.6" y="99.1" width="7.6" height="25.7"/>
  <rect class="cls-2" x="500" y="70.2" width="7.6" height="25.7" transform="translate(586.9 -420.8) rotate(90)"/>
  <rect class="cls-2" x="349.4" y="70.3" width="7.6" height="25.7" transform="translate(436.4 -270.1) rotate(90)"/>
  <rect class="cls-2" x="316.6" y="51.5" width="7.6" height="25.7" transform="translate(640.8 128.8) rotate(180)"/>
  <rect class="cls-2" x="267.8" y="306.5" width="7.6" height="25.7" transform="translate(543.1 638.6) rotate(180)"/>
  <rect class="cls-2" x="267.8" y="222.1" width="7.6" height="25.7" transform="translate(543.1 469.9) rotate(180)"/>
  <rect class="cls-2" x="126.3" y="222.1" width="7.6" height="25.7" transform="translate(260.2 469.9) rotate(180)"/>
  <rect class="cls-8" x="487.3" y="105.4" width="172.6" height="116.8"/>
  <g>
    <rect class="cls-13" x="491.6" y="218.6" width="47.9" height="10.6"/>
    <path class="cls-19" d="M538,220.1v7.6h-44.9v-7.6h44.9M541,217.1h-50.9v13.6h50.9v-13.6h0Z"/>
  </g>
</svg>