<?xml version="1.0" encoding="UTF-8"?>
<svg id="katman_1" data-name="katman 1" xmlns="http://www.w3.org/2000/svg" viewBox="0 0 687.3 511.8">
  <defs>
    <style>
      .cls-1 {
        stroke-width: 1.8px;
      }

      .cls-1, .cls-2 {
        fill: none;
        stroke: #f08211;
        stroke-miterlimit: 10;
      }

      .cls-3 {
        fill: #f08211;
      }

      .cls-4 {
        fill: #fffefe;
      }

      .cls-5 {
        fill: #878787;
      }

      .cls-2 {
        stroke-width: 2px;
      }

      .cls-6 {
        fill: #e73447;
      }
    </style>
  </defs>
  <rect class="cls-2" x="284" y="89" width="182.2" height="357"/>
  <g>
    <path class="cls-3" d="M27.8,167.8H.4v-19.2h3.7v14.3h8.2v-12.3h3.6v12.3h11.8v4.8Z"/>
    <path class="cls-3" d="M27.8,144H.4v-4.8h23.7v-13.9h3.7v18.8Z"/>
    <path class="cls-3" d="M8.5,98.9h11.2c6.4,0,8.5,5.4,8.5,11.6s-2.1,11.6-8.5,11.6h-11.2c-6.4,0-8.5-5.5-8.5-11.6s2.1-11.6,8.5-11.6ZM9.6,117.3h9.1c4.6,0,5.8-2.8,5.8-6.8s-1.2-6.8-5.8-6.8h-9.1c-4.5,0-5.8,2.8-5.8,6.8s1.2,6.8,5.8,6.8Z"/>
    <path class="cls-3" d="M8.5,68.6h11.2c6.4,0,8.5,5.4,8.5,11.6s-2.1,11.6-8.5,11.6h-11.2c-6.4,0-8.5-5.5-8.5-11.6s2.1-11.6,8.5-11.6ZM9.6,87h9.1c4.6,0,5.8-2.8,5.8-6.8s-1.2-6.8-5.8-6.8h-9.1c-4.5,0-5.8,2.8-5.8,6.8s1.2,6.8,5.8,6.8Z"/>
    <path class="cls-3" d="M27.8,42.9l-11.5,6.8v7h11.5v4.8H.4v-14.4c0-3.9,2.7-6.8,6.1-6.8h3.7c2.6,0,4.9,1.8,5.7,4.4l11.9-7.1v5.3ZM7.5,45.2c-2.3,0-3.4,1.1-3.4,4.1v7.4h8.5v-7.4c0-3-1.1-4.1-3.4-4.1h-1.8Z"/>
    <path class="cls-3" d="M6.6,4h1.7c2.3,0,4.5,1.2,5.5,4.1,1.1-3.7,3.4-4.8,5.7-4.8h2c5.2,0,6.8,5.3,6.8,10.1s-1.5,10.1-6.8,10.1h-2c-2.3,0-4.5-1.1-5.7-4.8-1,2.8-3.2,4.1-5.5,4.1h-1.7c-4,0-6.6-3.2-6.6-9.3S2.7,4,6.6,4ZM7.1,17.9h1.1c2.5,0,3.8-1.1,3.9-3.8v-.9c0-2.9-1.3-4.3-3.9-4.3h-1.1c-2.7,0-3.8,1.6-3.8,4.5s1.1,4.5,3.8,4.5ZM19.7,8.1c-2.6,0-3.9,1.5-4,4.7v1c0,3.3,1.3,4.7,4,4.7h1.4c2.6,0,3.7-1.8,3.7-5.2s-1.1-5.2-3.7-5.2h-1.4Z"/>
  </g>
  <rect class="cls-2" x="476.7" y="236.4" width="209.6" height="96.9"/>
  <rect class="cls-2" x="84" y="386" width="100.7" height="59.8"/>
  <rect class="cls-2" x="476.7" y="349.9" width="209.6" height="96.8"/>
  <g>
    <path class="cls-4" d="M554.3,400.3h-2v-2h4v6h-.6l-.4-.7c-.7.6-1.6.9-2.5.9-2.9,0-4.9-2.8-4.9-6.2s2-6.2,4.9-6.2,2.9.9,3.7,2.3l-1.2,1.1c-.8-1-1.5-1.4-2.4-1.4-1.5,0-2.8,1.6-2.8,4.2s1.3,4.2,2.8,4.2,1-.1,1.4-.5v-1.7Z"/>
    <path class="cls-4" d="M562.1,402.3h3.4v2h-5.4v-12h2v10Z"/>
    <path class="cls-4" d="M566.7,394.3v-2h8.8v2h-3.4v10h-2v-10h-3.4Z"/>
    <path class="cls-4" d="M584.8,395.4c0-1.8,1.5-3.3,3.3-3.3s3.3,1.5,3.3,3.3-.3,1.6-.8,2.2c.9.7,1.4,1.8,1.4,3,0,2.2-1.7,3.9-3.9,3.9s-3.9-1.7-3.9-3.9.6-2.3,1.4-3c-.5-.6-.8-1.4-.8-2.2ZM590,400.6c0-1.1-.8-1.9-1.9-1.9s-1.9.9-1.9,1.9.8,1.9,1.9,1.9,1.9-.8,1.9-1.9ZM586.8,395.4c0,.7.6,1.3,1.3,1.3s1.3-.6,1.3-1.3-.6-1.3-1.3-1.3-1.3.6-1.3,1.3Z"/>
    <path class="cls-4" d="M600.1,392.1c2.7,0,4.2,2.8,4.2,6.2s-1.5,6.2-4.2,6.2-4.2-2.8-4.2-6.2,1.5-6.2,4.2-6.2ZM600.1,402.5c1.4,0,2.1-1.9,2.1-4.2s-.7-4.2-2.1-4.2-2.1,1.9-2.1,4.2.7,4.2,2.1,4.2Z"/>
    <path class="cls-4" d="M611.1,396.1l-2.2.8-.5-.8,4-4h.6v10.2h2v2h-6v-2h2v-6.2Z"/>
  </g>
  <g id="glt802">
    <path class="cls-4" d="M553.8,286.9h-2v-2h4v6h-.6l-.4-.7c-.7.6-1.6.9-2.5.9-2.9,0-4.9-2.8-4.9-6.2s2-6.2,4.9-6.2,2.9.9,3.7,2.3l-1.2,1.1c-.8-1-1.5-1.4-2.4-1.4-1.5,0-2.8,1.6-2.8,4.2s1.3,4.2,2.8,4.2,1-.1,1.4-.5v-1.7Z"/>
    <path class="cls-4" d="M561.6,288.8h3.4v2h-5.4v-12h2v10Z"/>
    <path class="cls-4" d="M566.2,280.8v-2h8.8v2h-3.4v10h-2v-10h-3.4Z"/>
    <path class="cls-4" d="M584.3,282c0-1.8,1.5-3.3,3.3-3.3s3.3,1.5,3.3,3.3-.3,1.6-.8,2.2c.9.7,1.4,1.8,1.4,3,0,2.2-1.7,3.9-3.9,3.9s-3.9-1.7-3.9-3.9.6-2.3,1.4-3c-.5-.6-.8-1.4-.8-2.2ZM589.5,287.2c0-1.1-.8-1.9-1.9-1.9s-1.9.9-1.9,1.9.8,1.9,1.9,1.9,1.9-.8,1.9-1.9ZM586.2,282c0,.7.6,1.3,1.3,1.3s1.3-.6,1.3-1.3-.6-1.3-1.3-1.3-1.3.6-1.3,1.3Z"/>
    <path class="cls-4" d="M599.6,278.6c2.7,0,4.2,2.8,4.2,6.2s-1.5,6.2-4.2,6.2-4.2-2.8-4.2-6.2,1.5-6.2,4.2-6.2ZM599.6,289c1.4,0,2.1-1.9,2.1-4.2s-.7-4.2-2.1-4.2-2.1,1.9-2.1,4.2.7,4.2,2.1,4.2Z"/>
    <path class="cls-4" d="M613.6,282.6c0-1.1-.9-2-2-2s-2,.9-2,2v1h-2v-1c0-2.2,1.8-4,4-4s4,1.8,4,4-.8,2.7-1.9,3.8l-2.6,2.4h4.5v2h-8v-.7l4.3-4.6c.7-.7,1.7-1.8,1.7-2.9Z"/>
  </g>
  <g id="glt803">
    <rect class="cls-2" x="476.7" y="160.3" width="130.1" height="58.9"/>
    <g>
      <path class="cls-4" d="M514,191.8h-2v-2h4v6h-.6l-.4-.7c-.7.6-1.6.9-2.5.9-2.9,0-4.9-2.8-4.9-6.2s2-6.2,4.9-6.2,2.9.9,3.7,2.3l-1.2,1.1c-.8-1-1.5-1.4-2.4-1.4-1.5,0-2.8,1.6-2.8,4.2s1.3,4.2,2.8,4.2,1-.1,1.4-.5v-1.7Z"/>
      <path class="cls-4" d="M521.8,193.8h3.4v2h-5.4v-12h2v10Z"/>
      <path class="cls-4" d="M526.4,185.8v-2h8.8v2h-3.4v10h-2v-10h-3.4Z"/>
      <path class="cls-4" d="M544.5,186.9c0-1.8,1.5-3.3,3.3-3.3s3.3,1.5,3.3,3.3-.3,1.6-.8,2.2c.9.7,1.4,1.8,1.4,3,0,2.2-1.7,3.9-3.9,3.9s-3.9-1.7-3.9-3.9.6-2.3,1.4-3c-.5-.6-.8-1.4-.8-2.2ZM549.7,192.1c0-1.1-.8-1.9-1.9-1.9s-1.9.9-1.9,1.9.8,1.9,1.9,1.9,1.9-.8,1.9-1.9ZM546.4,186.9c0,.7.6,1.3,1.3,1.3s1.3-.6,1.3-1.3-.6-1.3-1.3-1.3-1.3.6-1.3,1.3Z"/>
      <path class="cls-4" d="M559.8,183.6c2.7,0,4.2,2.8,4.2,6.2s-1.5,6.2-4.2,6.2-4.2-2.8-4.2-6.2,1.5-6.2,4.2-6.2ZM559.8,194c1.4,0,2.1-1.9,2.1-4.2s-.7-4.2-2.1-4.2-2.1,1.9-2.1,4.2.7,4.2,2.1,4.2Z"/>
      <path class="cls-4" d="M575.8,192c0,2.2-1.8,4-4,4s-3.3-1.2-3.8-2.8l1.9-.7c.2.8,1,1.5,1.9,1.5s2-.9,2-2-.9-2-2-2h-1.5v-.6l2.6-3.6h-3.2l-1,1.6h-.6v-3.6h7.9v1l-2.6,3.5c1.4.6,2.4,2,2.4,3.7Z"/>
    </g>
  </g>
  <rect class="cls-2" x="102" y="271.1" width="171.9" height="96.9"/>
  <g>
    <path class="cls-4" d="M160.8,321.6h-2v-2h4v6h-.6l-.4-.7c-.7.6-1.6.9-2.5.9-2.9,0-4.9-2.8-4.9-6.2s2-6.2,4.9-6.2,2.9.9,3.7,2.3l-1.2,1.1c-.8-1-1.5-1.4-2.4-1.4-1.5,0-2.8,1.6-2.8,4.2s1.3,4.2,2.8,4.2,1-.1,1.4-.5v-1.7Z"/>
    <path class="cls-4" d="M168.6,323.6h3.4v2h-5.4v-12h2v10Z"/>
    <path class="cls-4" d="M173.2,315.6v-2h8.8v2h-3.4v10h-2v-10h-3.4Z"/>
    <path class="cls-4" d="M191.3,316.7c0-1.8,1.5-3.3,3.3-3.3s3.3,1.5,3.3,3.3-.3,1.6-.8,2.2c.9.7,1.4,1.8,1.4,3,0,2.2-1.7,3.9-3.9,3.9s-3.9-1.7-3.9-3.9.6-2.3,1.4-3c-.5-.6-.8-1.4-.8-2.2ZM196.5,322c0-1.1-.8-1.9-1.9-1.9s-1.9.9-1.9,1.9.8,1.9,1.9,1.9,1.9-.8,1.9-1.9ZM193.3,316.7c0,.7.6,1.3,1.3,1.3s1.3-.6,1.3-1.3-.6-1.3-1.3-1.3-1.3.6-1.3,1.3Z"/>
    <path class="cls-4" d="M205.6,317.5l-2.2.8-.5-.8,4-4h.6v10.2h2v2h-6v-2h2v-6.2Z"/>
    <path class="cls-4" d="M217.6,317.5l-2.2.8-.5-.8,4-4h.6v10.2h2v2h-6v-2h2v-6.2Z"/>
  </g>
  <rect class="cls-2" x="102.9" y="185.2" width="170.2" height="67.9"/>
  <g>
    <path class="cls-4" d="M160.2,221.2h-2v-2h4v6h-.6l-.4-.7c-.7.6-1.6.9-2.5.9-2.9,0-4.9-2.8-4.9-6.2s2-6.2,4.9-6.2,2.9.9,3.7,2.3l-1.2,1.1c-.8-1-1.5-1.4-2.4-1.4-1.5,0-2.8,1.6-2.8,4.2s1.3,4.2,2.8,4.2,1-.1,1.4-.5v-1.7Z"/>
    <path class="cls-4" d="M168,223.2h3.4v2h-5.4v-12h2v10Z"/>
    <path class="cls-4" d="M172.6,215.2v-2h8.8v2h-3.4v10h-2v-10h-3.4Z"/>
    <path class="cls-4" d="M190.7,216.3c0-1.8,1.5-3.3,3.3-3.3s3.3,1.5,3.3,3.3-.3,1.6-.8,2.2c.9.7,1.4,1.8,1.4,3,0,2.2-1.7,3.9-3.9,3.9s-3.9-1.7-3.9-3.9.6-2.3,1.4-3c-.5-.6-.8-1.4-.8-2.2ZM195.9,221.5c0-1.1-.8-1.9-1.9-1.9s-1.9.9-1.9,1.9.8,1.9,1.9,1.9,1.9-.8,1.9-1.9ZM192.7,216.3c0,.7.6,1.3,1.3,1.3s1.3-.6,1.3-1.3-.6-1.3-1.3-1.3-1.3.6-1.3,1.3Z"/>
    <path class="cls-4" d="M205,217l-2.2.8-.5-.8,4-4h.6v10.2h2v2h-6v-2h2v-6.2Z"/>
    <path class="cls-4" d="M218,213c2.7,0,4.2,2.8,4.2,6.2s-1.5,6.2-4.2,6.2-4.2-2.8-4.2-6.2,1.5-6.2,4.2-6.2ZM218,223.4c1.4,0,2.1-1.9,2.1-4.2s-.7-4.2-2.1-4.2-2.1,1.9-2.1,4.2.7,4.2,2.1,4.2Z"/>
  </g>
  <rect class="cls-1" x="476.8" y="99.4" width="128.3" height="48.9"/>
  <g>
    <path class="cls-4" d="M513.3,120.9h-2v-2h4v6h-.6l-.4-.7c-.7.6-1.6.9-2.5.9-2.9,0-4.9-2.8-4.9-6.2s2-6.2,4.9-6.2,2.9.9,3.7,2.3l-1.2,1.1c-.8-1-1.5-1.4-2.4-1.4-1.5,0-2.8,1.6-2.8,4.2s1.3,4.2,2.8,4.2,1-.1,1.4-.5v-1.7Z"/>
    <path class="cls-4" d="M521.1,122.9h3.4v2h-5.4v-12h2v10Z"/>
    <path class="cls-4" d="M525.6,114.9v-2h8.8v2h-3.4v10h-2v-10h-3.4Z"/>
    <path class="cls-4" d="M543.8,116c0-1.8,1.5-3.3,3.3-3.3s3.3,1.5,3.3,3.3-.3,1.6-.8,2.2c.9.7,1.4,1.8,1.4,3,0,2.2-1.7,3.9-3.9,3.9s-3.9-1.7-3.9-3.9.6-2.3,1.4-3c-.5-.6-.8-1.4-.8-2.2ZM549,121.2c0-1.1-.8-1.9-1.9-1.9s-1.9.9-1.9,1.9.8,1.9,1.9,1.9,1.9-.8,1.9-1.9ZM545.7,116c0,.7.6,1.3,1.3,1.3s1.3-.6,1.3-1.3-.6-1.3-1.3-1.3-1.3.6-1.3,1.3Z"/>
    <path class="cls-4" d="M559.1,112.7c2.7,0,4.2,2.8,4.2,6.2s-1.5,6.2-4.2,6.2-4.2-2.8-4.2-6.2,1.5-6.2,4.2-6.2ZM559.1,123.1c1.4,0,2.1-1.9,2.1-4.2s-.7-4.2-2.1-4.2-2.1,1.9-2.1,4.2.7,4.2,2.1,4.2Z"/>
    <path class="cls-4" d="M566.3,121.1l5.9-8.4h.9v8.2h2v2h-2v2h-2v-2h-4.8v-1.8ZM571.1,120.9v-3.7l-2.6,3.7h2.6Z"/>
  </g>
  <rect class="cls-2" x="476.8" y="48.1" width="106.7" height="40.8"/>
  <g>
    <path class="cls-4" d="M502.5,70.5h-2v-2h4v6h-.6l-.4-.7c-.7.6-1.6.9-2.5.9-2.9,0-4.9-2.8-4.9-6.2s2-6.2,4.9-6.2,2.9.9,3.7,2.3l-1.2,1.1c-.8-1-1.5-1.4-2.4-1.4-1.5,0-2.8,1.6-2.8,4.2s1.3,4.2,2.8,4.2,1-.1,1.4-.5v-1.7Z"/>
    <path class="cls-4" d="M510.3,72.5h3.4v2h-5.4v-12h2v10Z"/>
    <path class="cls-4" d="M514.9,64.5v-2h8.8v2h-3.4v10h-2v-10h-3.4Z"/>
    <path class="cls-4" d="M533,65.6c0-1.8,1.5-3.3,3.3-3.3s3.3,1.5,3.3,3.3-.3,1.6-.8,2.2c.9.7,1.4,1.8,1.4,3,0,2.2-1.7,3.9-3.9,3.9s-3.9-1.7-3.9-3.9.6-2.3,1.4-3c-.5-.6-.8-1.4-.8-2.2ZM538.2,70.9c0-1.1-.8-1.9-1.9-1.9s-1.9.9-1.9,1.9.8,1.9,1.9,1.9,1.9-.8,1.9-1.9ZM534.9,65.6c0,.7.6,1.3,1.3,1.3s1.3-.6,1.3-1.3-.6-1.3-1.3-1.3-1.3.6-1.3,1.3Z"/>
    <path class="cls-4" d="M548.3,62.3c2.7,0,4.2,2.8,4.2,6.2s-1.5,6.2-4.2,6.2-4.2-2.8-4.2-6.2,1.5-6.2,4.2-6.2ZM548.3,72.7c1.4,0,2.1-1.9,2.1-4.2s-.7-4.2-2.1-4.2-2.1,1.9-2.1,4.2.7,4.2,2.1,4.2Z"/>
    <path class="cls-4" d="M556.9,62.5h7v3.6h-.6l-1-1.6h-3.4v2.5c.4-.2.9-.3,1.4-.3,2.2,0,4,1.8,4,4s-1.8,4-4,4-3.3-1.2-3.8-2.8l1.9-.7c.2.8,1,1.5,1.9,1.5s2-.9,2-2-.9-2-2-2-1.3.4-1.7.9h-1.7v-7.1Z"/>
  </g>
  <rect class="cls-2" x="287.6" y="5.2" width="83.8" height="75.3"/>
  <rect class="cls-2" x="382.3" y="5.2" width="80.9" height="75.3"/>
  <rect class="cls-2" x="102.9" y="99" width="170.2" height="67.9"/>
  <g>
    <path class="cls-4" d="M160.3,135h-2v-2h4v6h-.6l-.4-.7c-.7.6-1.6.9-2.5.9-2.9,0-4.9-2.8-4.9-6.2s2-6.2,4.9-6.2,2.9.9,3.7,2.3l-1.2,1.1c-.8-1-1.5-1.4-2.4-1.4-1.5,0-2.8,1.6-2.8,4.2s1.3,4.2,2.8,4.2,1-.1,1.4-.5v-1.7Z"/>
    <path class="cls-4" d="M168.1,137h3.4v2h-5.4v-12h2v10Z"/>
    <path class="cls-4" d="M172.7,129v-2h8.8v2h-3.4v10h-2v-10h-3.4Z"/>
    <path class="cls-4" d="M190.8,130.1c0-1.8,1.5-3.3,3.3-3.3s3.3,1.5,3.3,3.3-.3,1.6-.8,2.2c.9.7,1.4,1.8,1.4,3,0,2.2-1.7,3.9-3.9,3.9s-3.9-1.7-3.9-3.9.6-2.3,1.4-3c-.5-.6-.8-1.4-.8-2.2ZM196,135.3c0-1.1-.8-1.9-1.9-1.9s-1.9.9-1.9,1.9.8,1.9,1.9,1.9,1.9-.8,1.9-1.9ZM192.8,130.1c0,.7.6,1.3,1.3,1.3s1.3-.6,1.3-1.3-.6-1.3-1.3-1.3-1.3.6-1.3,1.3Z"/>
    <path class="cls-4" d="M206.1,126.8c2.7,0,4.2,2.8,4.2,6.2s-1.5,6.2-4.2,6.2-4.2-2.8-4.2-6.2,1.5-6.2,4.2-6.2ZM206.1,137.2c1.4,0,2.1-1.9,2.1-4.2s-.7-4.2-2.1-4.2-2.1,1.9-2.1,4.2.7,4.2,2.1,4.2Z"/>
    <path class="cls-4" d="M221.1,133.5l-3.8,5.4h-2.4l3-4.2c-2-.2-3.7-1.9-3.7-4s1.8-4,4-4,4,1.8,4,4c0,1.2-.5,1.9-1,2.8ZM218.1,128.8c-1.1,0-2,.9-2,2s.9,2,2,2,2-.9,2-2-.9-2-2-2Z"/>
  </g>
  <g>
    <polygon class="cls-3" points="501.5 492 487.3 493.9 487 491.6 501.2 489.7 501.5 492"/>
    <polygon class="cls-3" points="501 488.5 486.8 487 487 484.7 501.2 486.1 501 488.5"/>
    <polygon class="cls-3" points="501.3 484.5 487.7 480.2 488.4 478 502 482.3 501.3 484.5"/>
    <polygon class="cls-3" points="502.8 481 491.6 472.2 493.1 470.4 504.3 479.2 502.8 481"/>
    <polygon class="cls-3" points="505.5 478.3 497.3 466.7 499.2 465.3 507.4 477 505.5 478.3"/>
    <polygon class="cls-3" points="509.1 476.6 504.3 463.2 506.5 462.4 511.3 475.9 509.1 476.6"/>
    <g>
      <polygon class="cls-3" points="520.9 481.8 534.7 478.4 535.3 480.6 521.4 484.1 520.9 481.8"/>
      <polygon class="cls-3" points="521.8 485.3 536 485.2 536 487.5 521.7 487.6 521.8 485.3"/>
      <polygon class="cls-3" points="521.8 489.3 535.8 492 535.3 494.3 521.4 491.6 521.8 489.3"/>
      <polygon class="cls-3" points="520.7 492.9 532.8 500.4 531.6 502.4 519.5 494.8 520.7 492.9"/>
      <polygon class="cls-3" points="518.4 495.9 527.8 506.6 526 508.1 516.6 497.4 518.4 495.9"/>
      <polygon class="cls-3" points="514.9 498 521.2 510.8 519 511.8 512.8 499 514.9 498"/>
    </g>
    <g>
      <path class="cls-6" d="M510.2,487.9v.4s-.5,0-.5,0v.2s.4,0,.4,0v.4s-.4,0-.4,0v.5s-.5,0-.5,0v-1.6s1,0,1,0Z"/>
      <path class="cls-6" d="M510.9,487.9v1.5s-.5,0-.5,0v-1.5s.5,0,.5,0Z"/>
      <path class="cls-6" d="M511.7,488.9h0s0,.5,0,.5h-.5s0-1.5,0-1.5h.7s.4,0,.4,0v.8s-.1,0-.1,0l.3.4-.4.2-.3-.5ZM511.6,488.6h.3s0-.3,0-.3h-.3s0,.3,0,.3Z"/>
      <path class="cls-6" d="M513.5,489.4h-1s0-1.5,0-1.5h0c0,0,.8,0,.8,0v.4s-.5,0-.5,0v.2s.4,0,.4,0v.4s-.4,0-.4,0v.2s.5,0,.5,0v.4Z"/>
      <path class="cls-6" d="M509.4,490.3h-.3s0-.4,0-.4h0s.3,0,.3,0h0c0,.1-.1.1-.1.1h0c0,0,.1,0,.1,0h0c0,.1-.1.1-.1.1h0c0,0,.2,0,.2,0h0Z"/>
      <path class="cls-6" d="M509.6,490.2h0s0,.2,0,.2h-.2s0-.2,0-.2h0s0,0,0,0v-.2s.1,0,.1,0h0c0,.1,0,.2,0,.2h0s0-.1,0-.1h.1s0,.2,0,.2h0s0,0,0,0v.2s-.1,0-.1,0h0c0-.1,0-.2,0-.2Z"/>
      <path class="cls-6" d="M510.2,490h-.1s0,.3,0,.3h-.1s0-.3,0-.3h-.1s0-.1,0-.1h.4s0,.1,0,.1Z"/>
      <path class="cls-6" d="M510.4,489.9v.5s-.1,0-.1,0v-.5s.1,0,.1,0Z"/>
      <path class="cls-6" d="M510.8,490.3h-.1s0-.1,0-.1h-.1c0-.1,0,.1,0,.1h-.1s0-.4,0-.4h.1s.1.1.1.1h0c0-.1.1-.2.1-.2v.5Z"/>
      <path class="cls-6" d="M511,489.9h.3s0,.1,0,.1h-.2v.2h0s0-.1,0-.1h.1s0,.3,0,.3h-.3s0-.4,0-.4h0Z"/>
      <path class="cls-6" d="M511.7,489.9v.4s0,0,0,0h-.3s0,0,0,0v-.4s.1,0,.1,0v.3s0,0,0,0v-.3s.1,0,.1,0Z"/>
      <path class="cls-6" d="M511.9,489.9v.5s-.1,0-.1,0v-.5s.1,0,.1,0Z"/>
      <path class="cls-6" d="M512.3,489.9h0c0,.1-.1.1-.1.1h0s.2.1.2.1v.2s-.3,0-.3,0v-.2s.2,0,.2,0h0s-.2-.1-.2-.1v-.2s.1,0,.1,0h.2Z"/>
      <path class="cls-6" d="M512.6,490.2h0s0,.2,0,.2h-.1v-.5s.1,0,.1,0v.2s0,0,0,0v-.2s.1,0,.1,0v.5s-.1,0-.1,0v-.2Z"/>
      <path class="cls-6" d="M513.1,490.3h-.3s0-.4,0-.4h0s.3,0,.3,0h0c0,.1-.1.1-.1.1h0c0,0,.1,0,.1,0h0c0,.1-.1.1-.1.1h0c0,0,.2,0,.2,0h0Z"/>
      <path class="cls-6" d="M513.3,490.2h0s0,.2,0,.2h-.1s0-.5,0-.5h.2s.1,0,.1,0v.3s0,0,0,0h0c0,.1-.1.2-.1.2v-.2ZM513.3,490.1h0s0-.1,0-.1h0s0,.1,0,.1Z"/>
    </g>
    <path class="cls-6" d="M507.3,493.2l3.9,2.9c0,0,.1,0,.2,0l3.9-2.9c0,0,0-.1,0-.2,0,0,0-.1-.2-.1h-1.7v-1.8c0,0,0-.2-.2-.2h-3.9c0,0-.2,0-.2.2v1.8h-1.7c0,0-.1,0-.2.1,0,0,0,.1,0,.2Z"/>
    <path class="cls-6" d="M518.3,482.6s0,0-.1,0,0,0,0,0l-3.1.7c0,0,0,0-.1,0,0,0,0,0,0,.1h-3.4c0-.1,0-.3,0-.4,0-.3-.1-.6-.3-.8-.2-.2-.5-.3-.8-.3s-.6.1-.8.3c-.2.2-.3.5-.3.8s0,.4.2.6c-.3,0-.5.2-.8.4-.2.2-.4.3-.6.5-.2.2-.3.3-.4.5-.1.2-.2.3-.3.4,0,0,0,.1-.1.2,0,.1,0,.2,0,.3,0,.1.1.2.2.3,0,0,.1,0,.2,0,.2,0,.3,0,.4-.2,0,0,0,0,0-.2,0,0,.1-.2.3-.4.1-.2.3-.3.5-.5.2-.1.4-.3.6-.4.3-.1.5-.2.8-.2h.2v.8c-.5.1-.8.4-1.1.8-.3.4-.4.8-.4,1.3h0c0,0,4.4,0,4.4,0h0c0-.6-.2-1.1-.5-1.5-.3-.4-.8-.7-1.3-.8v-.7h3.1c0,0,0,0,0,.1,0,0,0,0,.1,0l3.1.7s0,0,0,0c0,0,.1,0,.1,0,0,0,0,0,0-.2v-2.2c0,0,0-.1,0-.2ZM510.8,483.3c0,0-.2.1-.3.1s-.2,0-.3-.1c0,0-.1-.2-.1-.3s0-.2.1-.3c0,0,.2-.1.3-.1s.2,0,.3.1c0,0,.1.2.1.3s0,.2-.1.3Z"/>
    <rect class="cls-5" x="284.2" y="476.3" width="83.8" height="30.4"/>
    <rect class="cls-5" x="382.6" y="476.4" width="83.8" height="30.4"/>
    <polygon class="cls-3" points="260.8 497.5 260.8 488 248 488 248 478.4 235.2 478.4 235.2 468.7 222.5 468.7 222.5 459 209.7 459 209.7 468.7 209.7 507.2 235.2 507.2 248 507.2 260.6 507.2 273.4 507.2 273.4 497.5 260.8 497.5"/>
  </g>
  <rect class="cls-2" x="102.9" y="1" width="170.2" height="88.4"/>
  <g>
    <path class="cls-4" d="M158.4,47.2h-2v-2h4v6h-.6l-.4-.7c-.7.6-1.6.9-2.5.9-2.9,0-4.9-2.8-4.9-6.2s2-6.2,4.9-6.2,2.9.9,3.7,2.3l-1.2,1.1c-.8-1-1.5-1.4-2.4-1.4-1.5,0-2.8,1.6-2.8,4.2s1.3,4.2,2.8,4.2,1-.1,1.4-.5v-1.7Z"/>
    <path class="cls-4" d="M166.2,49.2h3.4v2h-5.4v-12h2v10Z"/>
    <path class="cls-4" d="M170.8,41.2v-2h8.8v2h-3.4v10h-2v-10h-3.4Z"/>
    <path class="cls-4" d="M188.9,42.3c0-1.8,1.5-3.3,3.3-3.3s3.3,1.5,3.3,3.3-.3,1.6-.8,2.2c.9.7,1.4,1.8,1.4,3,0,2.2-1.7,3.9-3.9,3.9s-3.9-1.7-3.9-3.9.6-2.3,1.4-3c-.5-.6-.8-1.4-.8-2.2ZM194.1,47.5c0-1.1-.8-1.9-1.9-1.9s-1.9.9-1.9,1.9.8,1.9,1.9,1.9,1.9-.8,1.9-1.9ZM190.9,42.3c0,.7.6,1.3,1.3,1.3s1.3-.6,1.3-1.3-.6-1.3-1.3-1.3-1.3.6-1.3,1.3Z"/>
    <path class="cls-4" d="M204.2,39c2.7,0,4.2,2.8,4.2,6.2s-1.5,6.2-4.2,6.2-4.2-2.8-4.2-6.2,1.5-6.2,4.2-6.2ZM204.2,49.4c1.4,0,2.1-1.9,2.1-4.2s-.7-4.2-2.1-4.2-2.1,1.9-2.1,4.2.7,4.2,2.1,4.2Z"/>
    <path class="cls-4" d="M212.9,42.3c0-1.8,1.5-3.3,3.3-3.3s3.3,1.5,3.3,3.3-.3,1.6-.8,2.2c.9.7,1.4,1.8,1.4,3,0,2.2-1.7,3.9-3.9,3.9s-3.9-1.7-3.9-3.9.6-2.3,1.4-3c-.5-.6-.8-1.4-.8-2.2ZM218.1,47.5c0-1.1-.8-1.9-1.9-1.9s-1.9.9-1.9,1.9.8,1.9,1.9,1.9,1.9-.8,1.9-1.9ZM214.9,42.3c0,.7.6,1.3,1.3,1.3s1.3-.6,1.3-1.3-.6-1.3-1.3-1.3-1.3.6-1.3,1.3Z"/>
  </g>
  <g>
    <path class="cls-4" d="M99.5,411.8v-2h8.8v2h-3.4v10h-2v-10h-3.4Z"/>
    <path class="cls-4" d="M115.4,420.1c1.1,0,1.9-.6,2.4-1.1l1,1.3c-.8,1-2.2,1.7-3.6,1.7-3,0-4.8-2.2-4.8-4.9s1.9-4.9,4.6-4.9,4.6,2.3,4.1,5.1h-6.6c0,1.3.9,2.8,2.8,2.8ZM117,415.7c0-.9-.7-1.6-2-1.6s-1.8.4-2.2,1.6h4.2Z"/>
    <path class="cls-4" d="M124.9,416.3v5.5h-2v-9.4h.7l.8,1.4c.7-.9,1.7-1.6,2.9-1.6s.6,0,.6,0v3.9h-.7l-1-1.9c-.7.3-1.2,1.1-1.2,2.1Z"/>
    <path class="cls-4" d="M132.9,416.3v5.5h-2v-9.4h.7l.8,1.4c.7-.9,1.7-1.6,2.9-1.6s.6,0,.6,0v3.9h-.7l-1-1.9c-.7.3-1.2,1.1-1.2,2.1Z"/>
    <path class="cls-4" d="M146.2,421.8l-.8-1.4c-.8,1-1.8,1.6-3,1.6-2.3,0-4-2.2-4-4.9,0-2.7,1.8-4.9,4-4.9s2.3.6,3,1.6l.8-1.4h.7v9.4h-.7ZM142.7,414.1c-1.2,0-2.2,1.4-2.2,3s1,3,2.2,3,2.2-1.4,2.2-3-1-3-2.2-3Z"/>
    <path class="cls-4" d="M156.8,415.1c-.5-.7-1.3-1-2-1-1.3,0-2.4,1.3-2.4,3s1.1,3,2.4,3,1.6-.3,2-1l1.2,1c-.8,1.1-2,1.9-3.4,1.9-2.4,0-4.3-2.2-4.3-4.9s1.9-4.9,4.3-4.9,2.6.7,3.4,1.9l-1.2,1Z"/>
    <path class="cls-4" d="M165.4,420.1c1.1,0,1.9-.6,2.4-1.1l1,1.3c-.8,1-2.2,1.7-3.6,1.7-3,0-4.8-2.2-4.8-4.9s1.9-4.9,4.6-4.9,4.6,2.3,4.1,5.1h-6.6c0,1.3.9,2.8,2.8,2.8ZM167,415.7c0-.9-.7-1.6-2-1.6s-1.8.4-2.2,1.6h4.2Z"/>
  </g>
  <g>
    <path class="cls-4" d="M322.6,34.1h-2v-2h4v6h-.6l-.4-.7c-.7.6-1.6.9-2.5.9-2.9,0-4.9-2.8-4.9-6.2s2-6.2,4.9-6.2,2.9.9,3.7,2.3l-1.2,1.1c-.8-1-1.5-1.4-2.4-1.4-1.5,0-2.8,1.6-2.8,4.2s1.3,4.2,2.8,4.2,1-.1,1.4-.5v-1.7Z"/>
    <path class="cls-4" d="M330.4,36.1h3.4v2h-5.4v-12h2v10Z"/>
    <path class="cls-4" d="M335,28.1v-2h8.8v2h-3.4v10h-2v-10h-3.4Z"/>
    <path class="cls-4" d="M314.1,50.8c0-1.8,1.5-3.3,3.3-3.3s3.3,1.5,3.3,3.3-.3,1.6-.8,2.2c.9.7,1.4,1.8,1.4,3,0,2.2-1.7,3.9-3.9,3.9s-3.9-1.7-3.9-3.9.6-2.3,1.4-3c-.5-.6-.8-1.4-.8-2.2ZM319.3,56c0-1.1-.8-1.9-1.9-1.9s-1.9.9-1.9,1.9.8,1.9,1.9,1.9,1.9-.8,1.9-1.9ZM316.1,50.8c0,.7.6,1.3,1.3,1.3s1.3-.6,1.3-1.3-.6-1.3-1.3-1.3-1.3.6-1.3,1.3Z"/>
    <path class="cls-4" d="M329.4,47.5c2.7,0,4.2,2.8,4.2,6.2s-1.5,6.2-4.2,6.2-4.2-2.8-4.2-6.2,1.5-6.2,4.2-6.2ZM329.4,57.9c1.4,0,2.1-1.9,2.1-4.2s-.7-4.2-2.1-4.2-2.1,1.9-2.1,4.2.7,4.2,2.1,4.2Z"/>
    <path class="cls-4" d="M336.8,49.7v-2h8.6v1l-5.5,11h-2.1l5-10h-6Z"/>
  </g>
  <g>
    <path class="cls-4" d="M415.8,34.1h-2v-2h4v6h-.6l-.4-.7c-.7.6-1.6.9-2.5.9-2.9,0-4.9-2.8-4.9-6.2s2-6.2,4.9-6.2,2.9.9,3.7,2.3l-1.2,1.1c-.8-1-1.5-1.4-2.4-1.4-1.5,0-2.8,1.6-2.8,4.2s1.3,4.2,2.8,4.2,1-.1,1.4-.5v-1.7Z"/>
    <path class="cls-4" d="M423.6,36.1h3.4v2h-5.4v-12h2v10Z"/>
    <path class="cls-4" d="M428.2,28.1v-2h8.8v2h-3.4v10h-2v-10h-3.4Z"/>
    <path class="cls-4" d="M407.3,50.8c0-1.8,1.5-3.3,3.3-3.3s3.3,1.5,3.3,3.3-.3,1.6-.8,2.2c.9.7,1.4,1.8,1.4,3,0,2.2-1.7,3.9-3.9,3.9s-3.9-1.7-3.9-3.9.6-2.3,1.4-3c-.5-.6-.8-1.4-.8-2.2ZM412.5,56c0-1.1-.8-1.9-1.9-1.9s-1.9.9-1.9,1.9.8,1.9,1.9,1.9,1.9-.8,1.9-1.9ZM409.3,50.8c0,.7.6,1.3,1.3,1.3s1.3-.6,1.3-1.3-.6-1.3-1.3-1.3-1.3.6-1.3,1.3Z"/>
    <path class="cls-4" d="M422.6,47.5c2.7,0,4.2,2.8,4.2,6.2s-1.5,6.2-4.2,6.2-4.2-2.8-4.2-6.2,1.5-6.2,4.2-6.2ZM422.6,57.9c1.4,0,2.1-1.9,2.1-4.2s-.7-4.2-2.1-4.2-2.1,1.9-2.1,4.2.7,4.2,2.1,4.2Z"/>
    <path class="cls-4" d="M435.5,47.7h2.4l-3,4.2c2.1.2,3.7,1.9,3.7,4s-1.8,4-4,4-4-1.8-4-4c0-1.1.5-1.9,1-2.8l3.8-5.5ZM434.6,53.9c-1.1,0-2,.9-2,2s.9,2,2,2,2-.9,2-2-.9-2-2-2Z"/>
  </g>
  <rect class="cls-2" x="354.8" y="63.9" width="7.6" height="25.7" transform="translate(435.4 -281.9) rotate(90)"/>
  <rect class="cls-2" x="391.3" y="63.9" width="7.6" height="25.7" transform="translate(471.9 -318.4) rotate(90)"/>
  <rect class="cls-2" x="486" y="72.3" width="7.6" height="25.7" transform="translate(574.9 -404.7) rotate(90)"/>
  <rect class="cls-2" x="486" y="90.5" width="7.6" height="25.7" transform="translate(593.2 -386.4) rotate(90)"/>
  <polygon class="cls-2" points="273.9 425.9 216.4 425.7 216.5 445.7 194.6 445.8 194.6 386.1 273.9 386.1 273.9 425.9"/>
  <rect class="cls-2" x="241.8" y="409.2" width="7.6" height="25.7" transform="translate(667.7 176.5) rotate(90)"/>
  <g>
    <path class="cls-4" d="M210.6,401.1c2.7,0,4.2,2.8,4.2,6.2s-1.5,6.2-4.2,6.2-4.2-2.8-4.2-6.2,1.5-6.2,4.2-6.2ZM210.6,411.5c1.3,0,2.1-1.9,2.1-4.2s-.7-4.2-2.1-4.2-2.1,1.9-2.1,4.2.7,4.2,2.1,4.2Z"/>
    <path class="cls-4" d="M225.4,401.6c-.4-.2-.9-.4-1.5-.4s-1.5.5-1.5,1.9v.8h2.8v2h-2.8v7.4h-2v-7.4h-2.2v-2h2.2v-.9c0-2.3,1.3-3.7,3-3.7s1.9.3,2.4.6l-.4,1.6Z"/>
    <path class="cls-4" d="M232.4,405.9v7.4h-2v-7.4h-2.2v-2h2.2v-.9c0-2.3,1.3-3.7,3-3.7s1.9.3,2.4.6l-.4,1.6c-.4-.2-.9-.4-1.5-.4s-1.5.5-1.5,1.9v.8h8.2v9.4h-2v-7.4h-6.2ZM240.8,400.3c0,.6-.5,1.2-1.2,1.2s-1.2-.5-1.2-1.2.5-1.2,1.2-1.2,1.2.5,1.2,1.2Z"/>
    <path class="cls-4" d="M250.6,406.6c-.5-.7-1.3-1-2-1-1.3,0-2.4,1.3-2.4,3s1.1,3,2.4,3,1.6-.3,2-1l1.2,1c-.8,1.1-2,1.9-3.4,1.9-2.4,0-4.3-2.2-4.3-4.9s1.9-4.9,4.3-4.9,2.6.7,3.4,1.9l-1.2,1Z"/>
    <path class="cls-4" d="M259.1,411.7c1.1,0,1.9-.6,2.4-1.1l1,1.3c-.8,1-2.2,1.7-3.6,1.7-3,0-4.8-2.2-4.8-4.9s1.9-4.9,4.6-4.9,4.6,2.3,4.1,5.1h-6.6c0,1.3.9,2.8,2.8,2.8ZM260.7,407.2c0-.9-.7-1.6-2-1.6s-1.8.4-2.2,1.6h4.2Z"/>
  </g>
  <rect class="cls-2" x="177" y="400.3" width="7.6" height="25.7" transform="translate(361.7 826.3) rotate(180)"/>
  <rect class="cls-2" x="266.3" y="342.4" width="7.6" height="25.7" transform="translate(540.3 710.5) rotate(180)"/>
  <rect class="cls-2" x="266.3" y="271.2" width="7.6" height="25.7" transform="translate(540.3 568.1) rotate(180)"/>
  <rect class="cls-2" x="265.4" y="227.3" width="7.6" height="25.7" transform="translate(538.5 480.4) rotate(180)"/>
  <rect class="cls-2" x="256.4" y="90" width="7.6" height="25.7" transform="translate(157.4 363) rotate(-90)"/>
  <rect class="cls-2" x="256.4" y="72.8" width="7.6" height="25.7" transform="translate(174.6 345.8) rotate(-90)"/>
  <rect class="cls-2" x="476.7" y="236.4" width="7.6" height="25.7" transform="translate(961.1 498.5) rotate(180)"/>
  <rect class="cls-2" x="476.7" y="307.3" width="7.6" height="25.7" transform="translate(961.1 640.3) rotate(180)"/>
  <rect class="cls-2" x="476.7" y="364.6" width="7.6" height="25.7" transform="translate(961.1 755) rotate(180)"/>
  <rect class="cls-2" x="476.7" y="402.5" width="7.6" height="25.7" transform="translate(961.1 830.7) rotate(180)"/>
  <rect class="cls-2" x="476.7" y="193.2" width="7.6" height="25.7" transform="translate(961.1 412.2) rotate(180)"/>
</svg>