<?xml version="1.0" encoding="UTF-8"?>
<svg id="Layer_1" data-name="Layer 1" xmlns="http://www.w3.org/2000/svg" viewBox="0 0 761.9 522">
  <defs>
    <style>
      .cls-1 {
        fill: #3c3c3b;
      }

      .cls-2 {
        fill: #868686;
      }

      .cls-3 {
        fill: #e42528;
      }

      .cls-4 {
        fill: none;
        stroke: #000;
        stroke-miterlimit: 10;
        stroke-width: 3.8px;
      }
    </style>
  </defs>
  <g>
    <path d="M27.3,188H.4v-18.8h3.6v14h8.1v-12.1h3.6v12.1h11.6v4.7Z"/>
    <path d="M27.3,164.6H.4v-4.7h23.2v-13.7h3.6v18.4Z"/>
    <path d="M8.4,120.5h10.9c6.3,0,8.4,5.3,8.4,11.4s-2.1,11.4-8.4,11.4h-10.9c-6.3,0-8.4-5.3-8.4-11.4s2.1-11.4,8.4-11.4ZM9.4,138.5h8.9c4.5,0,5.7-2.7,5.7-6.6s-1.2-6.6-5.7-6.6h-8.9c-4.4,0-5.6,2.7-5.6,6.6s1.2,6.6,5.6,6.6Z"/>
    <path d="M8.4,90.8h10.9c6.3,0,8.4,5.3,8.4,11.4s-2.1,11.4-8.4,11.4h-10.9c-6.3,0-8.4-5.3-8.4-11.4s2.1-11.4,8.4-11.4ZM9.4,108.9h8.9c4.5,0,5.7-2.7,5.7-6.6s-1.2-6.6-5.7-6.6h-8.9c-4.4,0-5.6,2.7-5.6,6.6s1.2,6.6,5.6,6.6Z"/>
    <path d="M27.3,65.7l-11.3,6.7v6.9h11.3v4.7H.4v-14.1c0-3.9,2.7-6.7,6-6.7h3.7c2.6,0,4.8,1.7,5.6,4.3l11.6-7v5.2ZM7.3,67.9c-2.2,0-3.3,1.1-3.3,4v7.3h8.3v-7.3c0-2.9-1.1-4-3.3-4h-1.7Z"/>
  </g>
  <path d="M16,30.2h3c6.5,0,8.7,3.5,8.7,9s-2.2,9-8.7,9h-3c-6.5,0-8.7-3.6-8.7-9s2.2-9,8.7-9ZM16.2,43.9h2.5c3.5,0,5-1.3,5-4.7s-1.5-4.7-5-4.7h-2.5c-3.5,0-5,1.3-5,4.7s1.4,4.7,5,4.7Z"/>
  <polyline class="cls-4" points="715.5 392.7 715.5 454.4 50.4 454.4 50.4 1.9 715.5 1.9 715.5 302.3"/>
  <g>
    <path class="cls-1" d="M261.9,215.9h10v3.3h-6.7v4h6.7v3.3h-6.7v6h6.7v3.3h-10v-20Z"/>
    <path class="cls-1" d="M288.9,235.9v-8.4c0-2.8-1.6-4.3-3.4-4.3s-3.7,1.6-3.7,3.7v9.1h-3.3v-15.6h1.1l1.3,2.3c1.1-1.6,3.2-2.6,5.1-2.6,3.4,0,6.1,2.8,6.1,7.5v8.5h-3.3Z"/>
    <path class="cls-1" d="M297.9,223.6v-3.3h3v-5.7h3.3v5.7h5v3.3h-5v6.5c0,2.4,1.1,3.3,2.5,3.3s1.3-.2,1.9-.5l.4,2c-.9.7-1.9,1.3-3.1,1.3-2.8,0-4.9-2.4-4.9-6.2v-6.4h-3Z"/>
    <path class="cls-1" d="M318.5,226.8v9.1h-3.3v-15.6h1.1l1.3,2.3c1.1-1.6,2.8-2.6,4.8-2.6s1,0,1,0v6.5h-1.1l-1.6-3.1c-1.2.6-2.1,1.9-2.1,3.4Z"/>
    <path class="cls-1" d="M340.7,235.9l-1.3-2.4c-1.3,1.7-3,2.7-5,2.7-3.7,0-6.7-3.6-6.7-8.2,0-4.5,3-8.2,6.7-8.2s3.7,1,5,2.7l1.3-2.4h1.1v15.6h-1.1ZM334.9,223c-2,0-3.7,2.3-3.7,5s1.6,5,3.7,5,3.7-2.3,3.7-5-1.6-5-3.7-5Z"/>
    <path class="cls-1" d="M358.8,235.9v-8.4c0-2.8-1.6-4.3-3.4-4.3s-3.7,1.6-3.7,3.7v9.1h-3.3v-15.6h1.1l1.3,2.3c1.1-1.6,3.2-2.6,5.1-2.6,3.4,0,6.1,2.8,6.1,7.5v8.5h-3.3Z"/>
    <path class="cls-1" d="M378.4,224.7c-.8-1.1-2.1-1.7-3.3-1.7-2.2,0-3.9,2.1-3.9,5s1.8,5,3.9,5,2.7-.5,3.3-1.7l2,1.7c-1.3,1.9-3.3,3.1-5.6,3.1-4,0-7.1-3.6-7.1-8.2s3.1-8.2,7.1-8.2,4.3,1.2,5.6,3.1l-2,1.7Z"/>
    <path class="cls-1" d="M392.7,233.1c1.8,0,3.1-1,4-1.8l1.7,2.1c-1.3,1.6-3.6,2.8-6.1,2.8-5.1,0-8.1-3.6-8.1-8.1s3.1-8.2,7.7-8.2,7.7,3.8,6.9,8.5h-11c-.1,2.1,1.5,4.6,4.7,4.6ZM395.3,225.7c0-1.5-1.2-2.7-3.3-2.7s-2.9.7-3.7,2.7h6.9Z"/>
    <path class="cls-1" d="M415.1,215.9h10.7v3.3h-7.3v4h7.3v3.3h-7.3v9.3h-3.3v-20Z"/>
    <path class="cls-1" d="M431.8,212.6h3.3v23.3h-3.3v-23.3Z"/>
    <path class="cls-1" d="M455.9,228.1c0,4.5-3.3,8.2-7.5,8.2s-7.4-3.6-7.4-8.2,3.3-8.2,7.4-8.2,7.5,3.6,7.5,8.2ZM444.5,228.1c0,2.8,1.8,5,4,5s4-2.3,4-5-1.8-5-4-5-4,2.3-4,5Z"/>
    <path class="cls-1" d="M475.9,228.1c0,4.5-3.3,8.2-7.5,8.2s-7.4-3.6-7.4-8.2,3.3-8.2,7.4-8.2,7.5,3.6,7.5,8.2ZM464.4,228.1c0,2.8,1.8,5,4,5s4-2.3,4-5-1.8-5-4-5-4,2.3-4,5Z"/>
    <path class="cls-1" d="M485.1,226.8v9.1h-3.3v-15.6h1.1l1.3,2.3c1.1-1.6,2.8-2.6,4.8-2.6s1,0,1,0v6.5h-1.1l-1.6-3.1c-1.2.6-2.1,1.9-2.1,3.4Z"/>
  </g>
  <g>
    <rect class="cls-2" x="292.1" y="484.6" width="83.8" height="30.4"/>
    <rect class="cls-2" x="390.5" y="484.7" width="83.8" height="30.4"/>
    <g>
      <polygon points="498.3 502.2 484.2 504.1 483.9 501.8 498 499.9 498.3 502.2"/>
      <polygon points="497.8 498.7 483.6 497.2 483.9 494.9 498.1 496.3 497.8 498.7"/>
      <polygon points="498.2 494.7 484.6 490.5 485.3 488.2 498.9 492.5 498.2 494.7"/>
      <polygon points="499.7 491.3 488.5 482.4 490 480.6 501.1 489.4 499.7 491.3"/>
      <polygon points="502.4 488.5 494.1 476.9 496.1 475.5 504.3 487.2 502.4 488.5"/>
      <polygon points="506 486.8 501.2 473.4 503.4 472.6 508.2 486.1 506 486.8"/>
    </g>
    <g>
      <polygon points="517.7 492 531.6 488.6 532.2 490.8 518.3 494.3 517.7 492"/>
      <polygon points="518.6 495.5 532.9 495.4 532.9 497.7 518.6 497.8 518.6 495.5"/>
      <polygon points="518.7 499.5 532.7 502.2 532.2 504.5 518.2 501.8 518.7 499.5"/>
      <polygon points="517.6 503.1 529.7 510.6 528.4 512.6 516.3 505 517.6 503.1"/>
      <polygon points="515.2 506.1 524.7 516.8 522.9 518.3 513.5 507.6 515.2 506.1"/>
      <polygon points="511.8 508.2 518 521 515.9 522 509.7 509.2 511.8 508.2"/>
    </g>
    <g>
      <path class="cls-3" d="M507,498.1v.4s-.5,0-.5,0v.2s.4,0,.4,0v.4s-.4,0-.4,0v.5s-.5,0-.5,0v-1.6s1,0,1,0Z"/>
      <path class="cls-3" d="M507.7,498.1v1.5s-.5,0-.5,0v-1.5s.5,0,.5,0Z"/>
      <path class="cls-3" d="M508.5,499.1h0s0,.5,0,.5h-.5s0-1.5,0-1.5h.7s.4,0,.4,0v.8s-.1,0-.1,0l.3.4-.4.2-.3-.5ZM508.4,498.8h.3s0-.3,0-.3h-.3s0,.3,0,.3Z"/>
      <path class="cls-3" d="M510.3,499.6h-1s0-1.5,0-1.5h0c0,0,.8,0,.8,0v.4s-.5,0-.5,0v.2s.4,0,.4,0v.4s-.4,0-.4,0v.2s.5,0,.5,0v.4Z"/>
      <path class="cls-3" d="M506.2,500.5h-.3s0-.4,0-.4h0s.3,0,.3,0h0c0,.1-.1.1-.1.1h0c0,0,.1,0,.1,0h0c0,.1-.1.1-.1.1h0c0,0,.2,0,.2,0h0Z"/>
      <path class="cls-3" d="M506.5,500.4h0s0,.2,0,.2h-.2s0-.2,0-.2h0s0,0,0,0v-.2s.1,0,.1,0h0c0,.1,0,.2,0,.2h0s0-.1,0-.1h.1s0,.2,0,.2h0s0,0,0,0v.2s-.1,0-.1,0h0c0-.1,0-.2,0-.2Z"/>
      <path class="cls-3" d="M507.1,500.2h-.1s0,.3,0,.3h-.1s0-.3,0-.3h-.1s0-.1,0-.1h.4s0,.1,0,.1Z"/>
      <path class="cls-3" d="M507.3,500.1v.5s-.1,0-.1,0v-.5s.1,0,.1,0Z"/>
      <path class="cls-3" d="M507.7,500.5h-.1s0-.1,0-.1h-.1c0-.1,0,.1,0,.1h-.1s0-.4,0-.4h.1s.1.1.1.1h0c0-.1.1-.2.1-.2v.5Z"/>
      <path class="cls-3" d="M507.9,500.1h.3s0,.1,0,.1h-.2v.2h0s0-.1,0-.1h.1s0,.3,0,.3h-.3s0-.4,0-.4h0Z"/>
      <path class="cls-3" d="M508.6,500.1v.4s0,0,0,0h-.3s0,0,0,0v-.4s.1,0,.1,0v.3s0,0,0,0v-.3s.1,0,.1,0Z"/>
      <path class="cls-3" d="M508.8,500.1v.5s-.1,0-.1,0v-.5s.1,0,.1,0Z"/>
      <path class="cls-3" d="M509.2,500.1h0c0,.1-.1.1-.1.1h0s.2.1.2.1v.2s-.3,0-.3,0v-.2s.2,0,.2,0h0s-.2-.1-.2-.1v-.2s.1,0,.1,0h.2Z"/>
      <path class="cls-3" d="M509.5,500.4h0s0,.2,0,.2h-.1v-.5s.1,0,.1,0v.2s0,0,0,0v-.2s.1,0,.1,0v.5s-.1,0-.1,0v-.2Z"/>
      <path class="cls-3" d="M510,500.5h-.3s0-.4,0-.4h0s.3,0,.3,0h0c0,.1-.1.1-.1.1h0c0,0,.1,0,.1,0h0c0,.1-.1.1-.1.1h0c0,0,.2,0,.2,0h0Z"/>
      <path class="cls-3" d="M510.2,500.4h0s0,.2,0,.2h-.1s0-.5,0-.5h.2s.1,0,.1,0v.3s0,0,0,0h0c0,.1-.1.2-.1.2v-.2ZM510.2,500.3h0s0-.1,0-.1h0s0,.1,0,.1Z"/>
    </g>
    <path class="cls-3" d="M504.2,503.4l3.9,2.9c0,0,.1,0,.2,0l3.9-2.9c0,0,0-.1,0-.2,0,0,0-.1-.2-.1h-1.7v-1.8c0,0,0-.2-.2-.2h-3.9c0,0-.2,0-.2.2v1.8h-1.7c0,0-.1,0-.2.1,0,0,0,.1,0,.2Z"/>
    <path class="cls-3" d="M515.2,492.8s0,0-.1,0,0,0,0,0l-3.1.7c0,0,0,0-.1,0,0,0,0,0,0,.1h-3.4c0-.1,0-.3,0-.4,0-.3-.1-.6-.3-.8-.2-.2-.5-.3-.8-.3s-.6.1-.8.3c-.2.2-.3.5-.3.8s0,.4.2.6c-.3,0-.5.2-.8.4-.2.2-.4.3-.6.5-.2.2-.3.3-.4.5-.1.2-.2.3-.3.4,0,0,0,.1-.1.2,0,.1,0,.2,0,.3,0,.1.1.2.2.3,0,0,.1,0,.2,0,.2,0,.3,0,.4-.2,0,0,0,0,0-.2,0,0,.1-.2.3-.4.1-.2.3-.3.5-.5.2-.1.4-.3.6-.4.3-.1.5-.2.8-.2h.2v.8c-.5.1-.8.4-1.1.8-.3.4-.4.8-.4,1.3h0c0,0,4.4,0,4.4,0h0c0-.6-.2-1.1-.5-1.5-.3-.4-.8-.7-1.3-.8v-.7h3.1c0,0,0,0,0,.1,0,0,0,0,.1,0l3.1.7s0,0,0,0c0,0,.1,0,.1,0,0,0,0,0,0-.2v-2.2c0,0,0-.1,0-.2ZM507.7,493.5c0,0-.2.1-.3.1s-.2,0-.3-.1c0,0-.1-.2-.1-.3s0-.2.1-.3c0,0,.2-.1.3-.1s.2,0,.3.1c0,0,.1.2.1.3s0,.2-.1.3Z"/>
    <polygon points="264.9 505.7 264.9 496.2 252.1 496.2 252.1 486.5 239.3 486.5 239.3 476.9 226.5 476.9 226.5 467.2 213.8 467.2 213.8 476.9 213.8 515.4 239.3 515.4 252.1 515.4 264.7 515.4 277.5 515.4 277.5 505.7 264.9 505.7"/>
  </g>
</svg>