<?xml version="1.0" encoding="UTF-8"?>
<svg id="katman_1" data-name="katman 1" xmlns="http://www.w3.org/2000/svg" viewBox="0 0 770.6 552.2">
  <defs>
    <style>
      .cls-1 {
        fill: #3c3c3b;
      }

      .cls-2 {
        stroke: #fff;
      }

      .cls-2, .cls-3, .cls-4, .cls-5 {
        stroke-miterlimit: 10;
      }

      .cls-2, .cls-6, .cls-4 {
        fill: #fff;
      }

      .cls-2, .cls-5 {
        stroke-width: 3px;
      }

      .cls-7 {
        fill: #e52629;
      }

      .cls-3, .cls-4 {
        stroke-width: 2px;
      }

      .cls-3, .cls-4, .cls-5 {
        stroke: #618e3f;
      }

      .cls-3, .cls-5 {
        fill: none;
      }

      .cls-8 {
        fill: #dadada;
      }

      .cls-9 {
        fill: #878787;
      }

      .cls-10 {
        fill: #618e3f;
      }
    </style>
  </defs>
  <polygon class="cls-3" points="596.8 251.3 596.8 478.2 171.1 478.2 171.1 207 234.4 207 234.4 206.8 171.1 206.8 171.1 207 119.8 207 119.8 118.4 530 118.4 530 177.7 553.9 177.7 553.9 251.3 596.8 251.3"/>
  <rect class="cls-3" x="171.1" y="206.8" width="63.3" height=".2"/>
  <rect class="cls-3" x="612.7" y="367.4" width="156.9" height="108.6"/>
  <rect class="cls-3" x="255.3" y="1" width="106.8" height="98"/>
  <rect class="cls-3" x="373.7" y="6.8" width="120.9" height="103"/>
  <polygon class="cls-3" points="696.1 162.7 696.1 251.3 553.9 251.3 553.9 177.7 671.2 177.7 671.2 162.7 696.1 162.7"/>
  <rect class="cls-3" x="27.1" y="230" width="131" height="142.5"/>
  <rect class="cls-4" x="171.1" y="206.8" width="63.3" height=".2"/>
  <g>
    <path class="cls-10" d="M37.6,188.9H10.6v-18.9h3.6v14.1h8.1v-12.2h3.6v12.2h11.7v4.8Z"/>
    <path class="cls-10" d="M37.6,165.4H10.6v-4.8h23.3v-13.7h3.7v18.5Z"/>
    <path class="cls-10" d="M18.6,120.9h11c6.3,0,8.4,5.3,8.4,11.5s-2.1,11.5-8.4,11.5h-11c-6.3,0-8.4-5.4-8.4-11.5s2.1-11.5,8.4-11.5ZM19.6,139h9c4.5,0,5.7-2.8,5.7-6.7s-1.2-6.7-5.7-6.7h-9c-4.5,0-5.7,2.8-5.7,6.7s1.2,6.7,5.7,6.7Z"/>
    <path class="cls-10" d="M18.6,91h11c6.3,0,8.4,5.3,8.4,11.5s-2.1,11.5-8.4,11.5h-11c-6.3,0-8.4-5.4-8.4-11.5s2.1-11.5,8.4-11.5ZM19.6,109.2h9c4.5,0,5.7-2.8,5.7-6.7s-1.2-6.7-5.7-6.7h-9c-4.5,0-5.7,2.8-5.7,6.7s1.2,6.7,5.7,6.7Z"/>
    <path class="cls-10" d="M37.6,65.7l-11.3,6.7v6.9h11.3v4.8H10.6v-14.2c0-3.9,2.7-6.7,6-6.7h3.7c2.6,0,4.8,1.7,5.6,4.3l11.7-7v5.2ZM17.5,67.9c-2.2,0-3.3,1.1-3.3,4.1v7.3h8.4v-7.3c0-2.9-1.1-4.1-3.3-4.1h-1.8Z"/>
    <path class="cls-10" d="M38.6,30.6c4.7,0,7.5,2.8,7.5,9.7s-.5,8.1-.5,8.1h-3.7s.5-4.8.5-8-.5-5.1-3.5-5.1h-1.8l-3.1,3.6v6.8h-3.6v-6.9l-2.9-3.4h-2.4c-2.6,0-3.2.8-3.2,3.8s.5,8.3.5,8.3h-3.7s-.5-6-.5-8.7c0-7.2,3.1-8.2,7.2-8.2h2.3c.3,0,.8,0,1.2.3l3.4,4.1,3.6-4.2c.3-.2.8-.3,1.2-.3h1.6Z"/>
  </g>
  <g>
    <rect class="cls-9" x="341.3" y="514.8" width="83.8" height="30.4"/>
    <rect class="cls-9" x="439.7" y="514.9" width="83.8" height="30.4"/>
    <g>
      <polygon class="cls-10" points="547.5 532.5 533.3 534.4 533 532.1 547.2 530.1 547.5 532.5"/>
      <polygon class="cls-10" points="547 528.9 532.8 527.4 533.1 525.1 547.3 526.6 547 528.9"/>
      <polygon class="cls-10" points="547.4 524.9 533.7 520.7 534.5 518.4 548.1 522.7 547.4 524.9"/>
      <polygon class="cls-10" points="548.8 521.5 537.6 512.7 539.1 510.8 550.3 519.7 548.8 521.5"/>
      <polygon class="cls-10" points="551.5 518.7 543.3 507.1 545.2 505.8 553.5 517.4 551.5 518.7"/>
      <polygon class="cls-10" points="555.2 517.1 550.4 503.6 552.6 502.9 557.4 516.3 555.2 517.1"/>
    </g>
    <g>
      <polygon class="cls-10" points="566.9 522.3 580.8 518.8 581.3 521.1 567.4 524.5 566.9 522.3"/>
      <polygon class="cls-10" points="567.8 525.7 582.1 525.6 582.1 528 567.8 528.1 567.8 525.7"/>
      <polygon class="cls-10" points="567.9 529.7 581.9 532.5 581.4 534.8 567.4 532 567.9 529.7"/>
      <polygon class="cls-10" points="566.8 533.3 578.9 540.9 577.6 542.8 565.5 535.3 566.8 533.3"/>
      <polygon class="cls-10" points="564.4 536.3 573.8 547 572.1 548.5 562.6 537.8 564.4 536.3"/>
      <polygon class="cls-10" points="561 538.4 567.2 551.2 565.1 552.2 558.9 539.4 561 538.4"/>
    </g>
    <g>
      <path class="cls-7" d="M556.2,528.3v.4s-.5,0-.5,0v.2s.4,0,.4,0v.4s-.4,0-.4,0v.5s-.5,0-.5,0v-1.6s1,0,1,0Z"/>
      <path class="cls-7" d="M556.9,528.3v1.5s-.5,0-.5,0v-1.5s.5,0,.5,0Z"/>
      <path class="cls-7" d="M557.7,529.4h0s0,.5,0,.5h-.5s0-1.5,0-1.5h.7s.4,0,.4,0v.8s-.1,0-.1,0l.3.4-.4.2-.3-.5ZM557.6,529h.3s0-.3,0-.3h-.3s0,.3,0,.3Z"/>
      <path class="cls-7" d="M559.5,529.9h-1s0-1.5,0-1.5h0c0,0,.8,0,.8,0v.4s-.5,0-.5,0v.2s.4,0,.4,0v.4s-.4,0-.4,0v.2s.5,0,.5,0v.4Z"/>
      <path class="cls-7" d="M555.4,530.8h-.3s0-.4,0-.4h0s.3,0,.3,0h0c0,.1-.1.1-.1.1h0c0,0,.1,0,.1,0h0c0,.1-.1.1-.1.1h0c0,0,.2,0,.2,0h0Z"/>
      <path class="cls-7" d="M555.7,530.6h0s0,.2,0,.2h-.2s0-.2,0-.2h0s0,0,0,0v-.2s.1,0,.1,0h0c0,.1,0,.2,0,.2h0s0-.1,0-.1h.1s0,.2,0,.2h0s0,0,0,0v.2s-.1,0-.1,0h0c0-.1,0-.2,0-.2Z"/>
      <path class="cls-7" d="M556.2,530.4h-.1s0,.3,0,.3h-.1s0-.3,0-.3h-.1s0-.1,0-.1h.4s0,.1,0,.1Z"/>
      <path class="cls-7" d="M556.4,530.3v.5s-.1,0-.1,0v-.5s.1,0,.1,0Z"/>
      <path class="cls-7" d="M556.9,530.8h-.1s0-.1,0-.1h-.1c0-.1,0,.1,0,.1h-.1s0-.4,0-.4h.1s.1.1.1.1h0c0-.1.1-.2.1-.2v.5Z"/>
      <path class="cls-7" d="M557,530.3h.3s0,.1,0,.1h-.2v.2h0s0-.1,0-.1h.1s0,.3,0,.3h-.3s0-.4,0-.4h0Z"/>
      <path class="cls-7" d="M557.7,530.3v.4s0,0,0,0h-.3s0,0,0,0v-.4s.1,0,.1,0v.3s0,0,0,0v-.3s.1,0,.1,0Z"/>
      <path class="cls-7" d="M558,530.3v.5s-.1,0-.1,0v-.5s.1,0,.1,0Z"/>
      <path class="cls-7" d="M558.3,530.3h0c0,.1-.1.1-.1.1h0s.2.1.2.1v.2s-.3,0-.3,0v-.2s.2,0,.2,0h0s-.2-.1-.2-.1v-.2s.1,0,.1,0h.2Z"/>
      <path class="cls-7" d="M558.6,530.6h0s0,.2,0,.2h-.1v-.5s.1,0,.1,0v.2s0,0,0,0v-.2s.1,0,.1,0v.5s-.1,0-.1,0v-.2Z"/>
      <path class="cls-7" d="M559.2,530.8h-.3s0-.4,0-.4h0s.3,0,.3,0h0c0,.1-.1.1-.1.1h0c0,0,.1,0,.1,0h0c0,.1-.1.1-.1.1h0c0,0,.2,0,.2,0h0Z"/>
      <path class="cls-7" d="M559.4,530.6h0s0,.2,0,.2h-.1s0-.5,0-.5h.2s.1,0,.1,0v.3s0,0,0,0h0c0,.1-.1.2-.1.2v-.2ZM559.3,530.5h0s0-.1,0-.1h0s0,.1,0,.1Z"/>
    </g>
    <path class="cls-7" d="M553.3,533.6l3.9,2.9c0,0,.1,0,.2,0l3.9-2.9c0,0,0-.1,0-.2,0,0,0-.1-.2-.1h-1.7v-1.8c0,0,0-.2-.2-.2h-3.9c0,0-.2,0-.2.2v1.8h-1.7c0,0-.1,0-.2.1,0,0,0,.1,0,.2Z"/>
    <path class="cls-7" d="M564.4,523.1s0,0-.1,0,0,0,0,0l-3.1.7c0,0,0,0-.1,0,0,0,0,0,0,.1h-3.4c0-.1,0-.3,0-.4,0-.3-.1-.6-.3-.8-.2-.2-.5-.3-.8-.3s-.6.1-.8.3c-.2.2-.3.5-.3.8s0,.4.2.6c-.3,0-.5.2-.8.4-.2.2-.4.3-.6.5-.2.2-.3.3-.4.5-.1.2-.2.3-.3.4,0,0,0,.1-.1.2,0,.1,0,.2,0,.3,0,.1.1.2.2.3,0,0,.1,0,.2,0,.2,0,.3,0,.4-.2,0,0,0,0,0-.2,0,0,.1-.2.3-.4.1-.2.3-.3.5-.5.2-.1.4-.3.6-.4.3-.1.5-.2.8-.2h.2v.8c-.5.1-.8.4-1.1.8-.3.4-.4.8-.4,1.3h0c0,0,4.4,0,4.4,0h0c0-.6-.2-1.1-.5-1.5-.3-.4-.8-.7-1.3-.8v-.7h3.1c0,0,0,0,0,.1,0,0,0,0,.1,0l3.1.7s0,0,0,0c0,0,.1,0,.1,0,0,0,0,0,0-.2v-2.2c0,0,0-.1,0-.2ZM556.8,523.8c0,0-.2.1-.3.1s-.2,0-.3-.1c0,0-.1-.2-.1-.3s0-.2.1-.3c0,0,.2-.1.3-.1s.2,0,.3.1c0,0,.1.2.1.3s0,.2-.1.3Z"/>
    <polygon class="cls-10" points="314.1 535.9 314.1 526.4 301.3 526.4 301.3 516.8 288.5 516.8 288.5 507.1 275.7 507.1 275.7 497.4 262.9 497.4 262.9 507.1 262.9 545.6 288.5 545.6 301.3 545.6 313.9 545.6 326.6 545.6 326.6 535.9 314.1 535.9"/>
  </g>
  <rect class="cls-4" x="612.6" y="367.4" width="7.6" height="44.9" transform="translate(1232.9 779.6) rotate(180)"/>
  <rect class="cls-4" x="561.6" y="235.9" width="7.6" height="23.1" transform="translate(318 812.9) rotate(-90)"/>
  <rect class="cls-4" x="530" y="154" width="8.7" height="23.8"/>
  <rect class="cls-4" x="381.5" y="94.5" width="7.6" height="23.1" transform="translate(279.3 491.3) rotate(-90)"/>
  <rect class="cls-4" x="346.5" y="83.4" width="7.6" height="23.1" transform="translate(255.4 445.3) rotate(-90)"/>
  <rect class="cls-4" x="147.6" y="230" width="10.5" height="49.8"/>
  <g id="greenbox">
    <g>
      <path class="cls-1" d="M311.1,321h-3.2v-3.2h6.4v9.5h-1l-.7-1.2c-1.2.9-2.6,1.5-4,1.5-4.6,0-7.7-4.4-7.7-9.9s3.1-9.9,7.7-9.9,4.6,1.5,5.9,3.7l-1.9,1.8c-1.2-1.6-2.5-2.3-3.8-2.3-2.4,0-4.4,2.5-4.4,6.7s2,6.7,4.4,6.7,1.5-.2,2.3-.7v-2.8Z"/>
      <path class="cls-1" d="M323.5,318.7v8.7h-3.2v-15h1.1l1.2,2.2c1.1-1.5,2.7-2.5,4.6-2.5s.9,0,.9,0v6.2h-1.1l-1.6-3c-1.1.5-2,1.8-2,3.3Z"/>
      <path class="cls-1" d="M340.3,324.7c1.7,0,3-1,3.8-1.7l1.7,2c-1.2,1.5-3.4,2.7-5.8,2.7-4.8,0-7.7-3.5-7.7-7.7s3-7.9,7.4-7.9,7.4,3.6,6.6,8.2h-10.5c-.1,2,1.4,4.4,4.5,4.4ZM342.8,317.6c0-1.5-1.1-2.6-3.1-2.6s-2.8.6-3.5,2.6h6.6Z"/>
      <path class="cls-1" d="M359.4,324.7c1.7,0,3-1,3.8-1.7l1.7,2c-1.2,1.5-3.4,2.7-5.8,2.7-4.8,0-7.7-3.5-7.7-7.7s3-7.9,7.4-7.9,7.4,3.6,6.6,8.2h-10.5c-.1,2,1.4,4.4,4.5,4.4ZM361.9,317.6c0-1.5-1.1-2.6-3.1-2.6s-2.8.6-3.5,2.6h6.6Z"/>
      <path class="cls-1" d="M381.2,327.4v-8.1c0-2.7-1.5-4.2-3.2-4.2s-3.5,1.6-3.5,3.5v8.7h-3.2v-15h1.1l1.2,2.2c1.1-1.5,3-2.5,4.9-2.5,3.3,0,5.9,2.7,5.9,7.1v8.1h-3.2Z"/>
      <path class="cls-1" d="M400,308.2h6.7c2.8,0,5.1,2.3,5.1,5.1s-.4,2.3-1.1,3.2c1.5,1.1,2.4,2.7,2.4,4.8,0,3.4-2.7,6-6,6h-7v-19.1ZM403.2,315.3h3.5c1.1,0,1.9-.9,1.9-1.9s-.9-1.9-1.9-1.9h-3.5v3.8ZM403.2,324.2h3.8c1.6,0,2.9-1.3,2.9-2.9s-1.3-2.9-2.9-2.9h-3.8v5.7Z"/>
      <path class="cls-1" d="M432.6,319.9c0,4.3-3.2,7.8-7.1,7.8s-7.1-3.5-7.1-7.8,3.2-7.8,7.1-7.8,7.1,3.5,7.1,7.8ZM421.7,319.9c0,2.6,1.7,4.8,3.8,4.8s3.8-2.2,3.8-4.8-1.7-4.8-3.8-4.8-3.8,2.2-3.8,4.8Z"/>
      <path class="cls-1" d="M449.6,327.4h-3.5l-3.1-5-3.1,5h-3.5l4.9-7.8-4.5-7.2h3.5l2.8,4.4,2.7-4.4h3.5l-4.5,7.2,4.9,7.8Z"/>
    </g>
  </g>
  <g id="cinemahall">
    <rect class="cls-5" x="186.5" y="257.4" width="76.4" height="206.7"/>
  </g>
  <g>
    <path class="cls-1" d="M220,416.8c0-1.7,1.1-3.5,2.7-4.5l1.3,1.5c-1.2.9-1.7,1.9-1.7,2.9,0,1.8,1.9,3.4,4.9,3.4s4.9-1.6,4.9-3.4-.5-2-1.7-2.9l1.3-1.5c1.6,1,2.7,2.8,2.7,4.5,0,3.5-3.3,5.9-7.2,5.9s-7.2-2.4-7.2-5.9Z"/>
    <path class="cls-1" d="M219,405.9c.8,0,1.4.6,1.4,1.4s-.6,1.4-1.4,1.4-1.4-.6-1.4-1.4.6-1.4,1.4-1.4ZM223.2,408.5v-2.3h11v2.3h-11Z"/>
    <path class="cls-1" d="M234.2,394.2h-5.9c-2,0-3,1.1-3,2.4s1.2,2.6,2.6,2.6h6.4v2.3h-11v-.8l1.6-.9c-1.1-.8-1.8-2.2-1.8-3.6,0-2.4,2-4.3,5.2-4.3h6v2.3Z"/>
    <path class="cls-1" d="M232.2,382.2c0-1.2-.7-2.2-1.3-2.8l1.5-1.2c1.1.9,2,2.5,2,4.2,0,3.5-2.5,5.6-5.7,5.6s-5.8-2.2-5.8-5.4,2.6-5.4,6-4.8v7.7c1.5.1,3.3-1,3.3-3.3ZM227.1,380.3c-1.1,0-1.9.8-1.9,2.3s.5,2.1,1.9,2.6v-4.8Z"/>
    <path class="cls-1" d="M234.2,366.5v2.3h-7.4c-1,0-1.5.5-1.5,1.2s.6,1.2,1.3,1.2h7.6v2.3h-11v-.8l1.1-.6c-.8-.5-1.3-1.4-1.3-2.4s.4-1.8,1.2-2.4c-.7-.5-1.2-1.4-1.2-2.3,0-1.8,1.5-3.1,3.8-3.1h7.3v2.3h-7.4c-1,0-1.5.5-1.5,1.2s.6,1.2,1.3,1.2h7.6Z"/>
    <path class="cls-1" d="M234.2,348.6l-1.7.9c1.2.9,1.9,2.1,1.9,3.5,0,2.6-2.5,4.7-5.7,4.7-3.2,0-5.7-2.1-5.7-4.7s.7-2.6,1.9-3.5l-1.7-.9v-.8h11v.8ZM225.2,352.7c0,1.4,1.6,2.6,3.5,2.6s3.5-1.1,3.5-2.6-1.6-2.6-3.5-2.6-3.5,1.1-3.5,2.6Z"/>
    <path class="cls-1" d="M225.3,329.1h-5.1v-2.3h14v2.3h-6.5v4.7h6.5v2.3h-14v-2.3h5.1v-4.7Z"/>
    <path class="cls-1" d="M234.2,313.6l-1.7.9c1.2.9,1.9,2.1,1.9,3.5,0,2.6-2.5,4.7-5.7,4.7-3.2,0-5.7-2.1-5.7-4.7s.7-2.6,1.9-3.5l-1.7-.9v-.8h11v.8ZM225.2,317.7c0,1.4,1.6,2.6,3.5,2.6s3.5-1.1,3.5-2.6-1.6-2.6-3.5-2.6-3.5,1.1-3.5,2.6Z"/>
    <path class="cls-1" d="M217.9,308.1v-2.3h16.3v2.3h-16.3Z"/>
    <path class="cls-1" d="M217.9,301.1v-2.3h16.3v2.3h-16.3Z"/>
  </g>
  <g id="gltvlog">
    <g id="gltvlog-2" data-name="gltvlog">
      <g id="gltvlog-3" data-name="gltvlog">
        <rect class="cls-10" y="384" width="158.1" height="98.1"/>
      </g>
      <g>
        <path class="cls-6" d="M18.9,443.6c-1.5,0-2.6-.5-3.9-1.5l.3-2.1c1.4.8,2.6,1.2,3.8,1.2s2.4-.6,2.4-1.7c0-2.7-6.6-1.6-6.6-6.3s2.1-4.1,4.6-4.1,2.6.5,4.1,1.7l-.7,1.8c-1-.7-2.2-1.2-3.3-1.2s-2.3.8-2.3,1.6c0,2.5,6.6,1.9,6.6,6.2s-2.4,4.4-4.9,4.4Z"/>
        <path class="cls-6" d="M37.2,437.9c0,3.2-2.3,5.7-5.2,5.7s-5.2-2.5-5.2-5.7,2.3-5.7,5.2-5.7,5.2,2.5,5.2,5.7ZM29.2,437.9c0,1.9,1.2,3.5,2.8,3.5s2.8-1.6,2.8-3.5-1.2-3.5-2.8-3.5-2.8,1.6-2.8,3.5Z"/>
        <path class="cls-6" d="M48.6,443.4v-5.9c0-2-1.1-3-2.4-3s-2.6,1.2-2.6,2.6v6.4h-2.3v-11h.8l.9,1.6c.8-1.1,2.2-1.8,3.6-1.8,2.4,0,4.3,2,4.3,5.2v6h-2.3Z"/>
        <path class="cls-6" d="M55,448l2.6-6.5-3.7-9.1h2.5l2.5,6.1,2.4-6.1h2.5l-6.3,15.6h-2.5Z"/>
        <path class="cls-6" d="M77.8,443.6h-.5l-5.6-14.2h2.5l3.3,8.5,3.3-8.5h2.5l-5.6,14.2Z"/>
        <path class="cls-6" d="M88.3,428.2c0,.8-.6,1.4-1.4,1.4s-1.4-.6-1.4-1.4.6-1.4,1.4-1.4,1.4.6,1.4,1.4ZM85.7,432.4h2.3v11h-2.3v-11Z"/>
        <path class="cls-6" d="M101.2,443.4l-.9-1.7c-.9,1.2-2.1,1.9-3.5,1.9-2.6,0-4.7-2.5-4.7-5.7s2.1-5.7,4.7-5.7,2.1.4,2.8,1.1v-6.3h2.4v16.3h-.8ZM97.1,434.3c-1.4,0-2.6,1.6-2.6,3.5s1.1,3.5,2.6,3.5,2.6-1.6,2.6-3.5-1.1-3.5-2.6-3.5Z"/>
        <path class="cls-6" d="M112,441.4c1.2,0,2.2-.7,2.8-1.3l1.2,1.5c-.9,1.1-2.5,2-4.2,2-3.5,0-5.6-2.5-5.6-5.7s2.2-5.8,5.4-5.8,5.4,2.6,4.8,6h-7.7c-.1,1.5,1,3.3,3.3,3.3ZM113.8,436.2c0-1.1-.8-1.9-2.3-1.9s-2.1.5-2.6,1.9h4.8Z"/>
        <path class="cls-6" d="M130.6,437.9c0,3.2-2.3,5.7-5.2,5.7s-5.2-2.5-5.2-5.7,2.3-5.7,5.2-5.7,5.2,2.5,5.2,5.7ZM122.6,437.9c0,1.9,1.2,3.5,2.8,3.5s2.8-1.6,2.8-3.5-1.2-3.5-2.8-3.5-2.8,1.6-2.8,3.5Z"/>
        <path class="cls-6" d="M19.4,468.8h-.5l-5.6-14.2h2.5l3.3,8.5,3.3-8.5h2.5l-5.6,14.2Z"/>
        <path class="cls-6" d="M27.3,452.2h2.3v16.3h-2.3v-16.3Z"/>
        <path class="cls-6" d="M44.2,463.1c0,3.2-2.3,5.7-5.2,5.7s-5.2-2.5-5.2-5.7,2.3-5.7,5.2-5.7,5.2,2.5,5.2,5.7ZM36.2,463.1c0,1.9,1.2,3.5,2.8,3.5s2.8-1.6,2.8-3.5-1.2-3.5-2.8-3.5-2.8,1.6-2.8,3.5Z"/>
        <path class="cls-6" d="M52.7,473.2c-1.9,0-3.5-1.1-4.3-2.3l1.3-1.3c.9.9,1.8,1.5,3.2,1.5s2.5-1,2.5-3.1v-.4c-.8.7-1.8,1.2-2.9,1.2-2.6,0-4.7-2.5-4.7-5.7s2.1-5.7,4.7-5.7,2.6.7,3.5,1.9l.9-1.7h.8v10.2c0,3.5-2.2,5.4-5,5.4ZM52.8,459.5c-1.4,0-2.6,1.6-2.6,3.5s1.1,3.5,2.6,3.5,2.6-1.6,2.6-3.5-1.1-3.5-2.6-3.5Z"/>
        <path class="cls-6" d="M71.7,466.2h4v2.3h-6.3v-14h2.3v11.7Z"/>
        <path class="cls-6" d="M87.2,468.6l-.9-1.7c-.9,1.2-2.1,1.9-3.5,1.9-2.6,0-4.7-2.5-4.7-5.7,0-3.2,2.1-5.7,4.7-5.7s2.6.7,3.5,1.9l.9-1.7h.8v11h-.8ZM83.1,459.5c-1.4,0-2.6,1.6-2.6,3.5s1.1,3.5,2.6,3.5,2.6-1.6,2.6-3.5-1.1-3.5-2.6-3.5Z"/>
        <path class="cls-6" d="M93.5,468.6h-.8v-16.3h2.3v6.3c.8-.7,1.8-1.1,2.9-1.1,2.6,0,4.7,2.5,4.7,5.7s-2.1,5.7-4.7,5.7-2.6-.7-3.5-1.9l-.9,1.7ZM95,463.1c0,1.9,1.2,3.5,2.6,3.5s2.6-1.6,2.6-3.5-1.1-3.5-2.6-3.5-2.6,1.6-2.6,3.5Z"/>
      </g>
      <g>
        <path class="cls-8" d="M18.3,403.7h-1.6v-1.6h3.1v4.7h-.5l-.3-.6c-.6.5-1.3.7-2,.7-2.3,0-3.8-2.2-3.8-4.8s1.5-4.8,3.8-4.8,2.3.7,2.9,1.8l-.9.9c-.6-.8-1.2-1.1-1.9-1.1-1.2,0-2.2,1.2-2.2,3.3s1,3.3,2.2,3.3.7-.1,1.1-.4v-1.3Z"/>
        <path class="cls-8" d="M24.4,405.3h2.6v1.6h-4.2v-9.3h1.6v7.8Z"/>
        <path class="cls-8" d="M28,399.1v-1.6h6.8v1.6h-2.6v7.8h-1.6v-7.8h-2.6Z"/>
        <path class="cls-8" d="M44,407h-.3l-3.7-9.5h1.7l2.2,5.6,2.2-5.6h1.7l-3.7,9.5Z"/>
        <path class="cls-8" d="M50.8,405.3h2.6v1.6h-4.2v-9.3h1.6v7.8Z"/>
        <path class="cls-8" d="M58.6,397.4c2.1,0,3.3,2.2,3.3,4.8s-1.2,4.8-3.3,4.8-3.3-2.2-3.3-4.8,1.2-4.8,3.3-4.8ZM58.6,405.5c1.1,0,1.6-1.5,1.6-3.3s-.6-3.3-1.6-3.3-1.6,1.5-1.6,3.3.6,3.3,1.6,3.3Z"/>
        <path class="cls-8" d="M69.7,403.7h-1.6v-1.6h3.1v4.7h-.5l-.3-.6c-.6.5-1.3.7-2,.7-2.3,0-3.8-2.2-3.8-4.8s1.5-4.8,3.8-4.8,2.3.7,2.9,1.8l-.9.9c-.6-.8-1.2-1.1-1.9-1.1-1.2,0-2.2,1.2-2.2,3.3s1,3.3,2.2,3.3.7-.1,1.1-.4v-1.3Z"/>
      </g>
    </g>
    <g>
      <rect class="cls-10" x="149.5" y="384" width="9.6" height="46.9"/>
      <path class="cls-6" d="M158.1,385v44.9h-7.6v-44.9h7.6M160.1,383h-11.6v48.9h11.6v-48.9h0Z"/>
    </g>
  </g>
  <g id="glt301">
    <g id="glt301-2" data-name="glt301">
      <rect class="cls-10" x="612.2" y="262.9" width="142.6" height="93.3"/>
    </g>
    <g>
      <rect class="cls-10" x="611.2" y="310.3" width="9.6" height="46.9"/>
      <path class="cls-6" d="M619.8,311.3v44.9h-7.6v-44.9h7.6M621.8,309.3h-11.6v48.9h11.6v-48.9h0Z"/>
    </g>
    <g>
      <path class="cls-8" d="M701.3,275.5h-1.6v-1.6h3.1v4.7h-.5l-.3-.6c-.6.5-1.3.7-2,.7-2.3,0-3.8-2.2-3.8-4.8s1.5-4.8,3.8-4.8,2.3.7,2.9,1.8l-.9.9c-.6-.8-1.2-1.1-1.9-1.1-1.2,0-2.2,1.2-2.2,3.3s1,3.3,2.2,3.3.7-.1,1.1-.4v-1.3Z"/>
      <path class="cls-8" d="M707.3,277h2.6v1.6h-4.2v-9.3h1.6v7.8Z"/>
      <path class="cls-8" d="M710.9,270.8v-1.6h6.8v1.6h-2.6v7.8h-1.6v-7.8h-2.6Z"/>
      <path class="cls-8" d="M730.7,275.6c0,1.7-1.4,3.1-3.1,3.1s-2.6-.9-3-2.2l1.5-.5c.2.6.8,1.2,1.5,1.2s1.6-.7,1.6-1.6-.7-1.6-1.6-1.6h-1.2v-.5l2.1-2.8h-2.5l-.8,1.2h-.5v-2.8h6.1v.8l-2,2.7c1.1.5,1.9,1.5,1.9,2.9Z"/>
      <path class="cls-8" d="M736.9,269.1c2.1,0,3.3,2.2,3.3,4.8s-1.2,4.8-3.3,4.8-3.3-2.2-3.3-4.8,1.2-4.8,3.3-4.8ZM736.9,277.2c1.1,0,1.6-1.5,1.6-3.3s-.6-3.3-1.6-3.3-1.6,1.5-1.6,3.3.6,3.3,1.6,3.3Z"/>
      <path class="cls-8" d="M745.5,272.2l-1.7.6-.4-.6,3.1-3.1h.5v7.9h1.6v1.6h-4.7v-1.6h1.6v-4.8Z"/>
    </g>
    <g>
      <path class="cls-6" d="M672.6,304.8h2.4v16h-2l-6.3-10.2v10.2h-2.4v-16h2l6.3,10.2v-10.2Z"/>
      <path class="cls-6" d="M686.3,318.5c1.4,0,2.5-.8,3.2-1.4l1.4,1.7c-1,1.3-2.9,2.3-4.8,2.3-4.1,0-6.5-2.9-6.5-6.5s2.5-6.6,6.2-6.6,6.2,3,5.5,6.8h-8.8c-.1,1.7,1.2,3.7,3.8,3.7ZM688.4,312.6c0-1.2-1-2.1-2.6-2.1s-2.4.5-2.9,2.1h5.5Z"/>
      <path class="cls-6" d="M695.8,310.9v-2.7h2.4v-4.5h2.7v4.5h4v2.7h-4v5.2c0,1.9.9,2.6,2,2.6s1-.2,1.5-.4l.3,1.6c-.7.6-1.6,1-2.5,1-2.2,0-4-1.9-4-5v-5.1h-2.4Z"/>
      <path class="cls-6" d="M716.7,304.6c-1.1,0-2,.7-2,2.6v1.1h3.7v2.7h-3.7v9.9h-2.7v-9.9h-2.9v-2.7h2.9v-1.2c0-3.1,1.8-5,4-5h9.6v18.7h-2.7v-16.2h-6.3Z"/>
      <path class="cls-6" d="M733.9,303.4c0,.9-.7,1.6-1.6,1.6s-1.6-.7-1.6-1.6.7-1.6,1.6-1.6,1.6.7,1.6,1.6ZM731,308.2h2.7v12.5h-2.7v-12.5Z"/>
      <path class="cls-6" d="M748.5,320.8h-3l-2.6-4.2-2.6,4.2h-3l4.1-6.5-3.7-6h2.9l2.3,3.7,2.3-3.7h2.9l-3.7,6,4.1,6.5Z"/>
      <path class="cls-6" d="M692.1,333.3c2,0,4,1.2,5.2,3.1l-1.7,1.5c-1.1-1.3-2.2-1.9-3.4-1.9-2.1,0-3.9,2.1-3.9,5.6s1.8,5.6,3.9,5.6,2.3-.6,3.4-1.9l1.7,1.5c-1.1,1.8-3.2,3.1-5.2,3.1-4,0-6.7-3.7-6.7-8.3s2.7-8.3,6.7-8.3Z"/>
      <path class="cls-6" d="M701.6,330.9h2.7v18.7h-2.7v-18.7Z"/>
      <path class="cls-6" d="M719.4,349.6l-1-1.9c-1,1.3-2.4,2.2-4,2.2-3,0-5.3-2.9-5.4-6.5s2.4-6.5,5.4-6.5,3,.8,4,2.2l1-1.9h.9v12.5h-.9ZM714.7,339.3c-1.6,0-2.9,1.8-2.9,4s1.3,4,2.9,4,2.9-1.8,2.9-4-1.3-4-2.9-4Z"/>
      <path class="cls-6" d="M729.4,349.9c-1.5,0-2.6-.5-4-1.4l.3-2.3c1.6.8,2.7,1.3,3.8,1.3s2.1-.4,2.1-1.3c0-2.1-6.3-1.3-6.3-5.6s2.1-3.8,4.6-3.8,2.6.5,4.2,1.6l-.8,2c-1.2-.6-2.3-1.2-3.3-1.2s-1.9.6-1.9,1.2c0,2,6.3,1.5,6.3,5.5s-2.4,4.1-4.9,4.1Z"/>
      <path class="cls-6" d="M742.8,349.9c-1.5,0-2.6-.5-4-1.4l.3-2.3c1.6.8,2.7,1.3,3.8,1.3s2.1-.4,2.1-1.3c0-2.1-6.3-1.3-6.3-5.6s2.1-3.8,4.6-3.8,2.6.5,4.2,1.6l-.8,2c-1.2-.6-2.3-1.2-3.3-1.2s-1.9.6-1.9,1.2c0,2,6.3,1.5,6.3,5.5s-2.4,4.1-4.9,4.1Z"/>
    </g>
  </g>
  <g id="digitalcontentstudio">
    <rect class="cls-3" x="530" y="64.8" width="141.2" height="112.9"/>
  </g>
  <g>
    <path class="cls-1" d="M586.7,81.8h3.3c3.5,0,6.3,3.1,6.3,7s-2.8,7-6.3,7h-3.3v-14ZM589,93.5h.9c2,0,3.7-2.1,3.7-4.7s-1.7-4.7-3.7-4.7h-.9v9.3Z"/>
    <path class="cls-1" d="M603.3,80.7c0,.8-.6,1.4-1.4,1.4s-1.4-.6-1.4-1.4.6-1.4,1.4-1.4,1.4.6,1.4,1.4ZM600.7,84.9h2.3v11h-2.3v-11Z"/>
    <path class="cls-1" d="M612.1,100.5c-1.9,0-3.5-1.1-4.3-2.3l1.3-1.3c.9.9,1.8,1.5,3.2,1.5s2.5-1,2.5-3.1v-.4c-.8.7-1.8,1.2-2.9,1.2-2.6,0-4.7-2.5-4.7-5.7s2.1-5.7,4.7-5.7,2.6.7,3.5,1.9l.9-1.7h.8v10.2c0,3.5-2.2,5.4-5,5.4ZM612.1,86.8c-1.4,0-2.6,1.6-2.6,3.5s1.1,3.5,2.6,3.5,2.6-1.6,2.6-3.5-1.1-3.5-2.6-3.5Z"/>
    <path class="cls-1" d="M624.3,80.7c0,.8-.6,1.4-1.4,1.4s-1.4-.6-1.4-1.4.6-1.4,1.4-1.4,1.4.6,1.4,1.4ZM621.7,84.9h2.3v11h-2.3v-11Z"/>
    <path class="cls-1" d="M628.2,87.2v-2.3h2.1v-4h2.3v4h3.5v2.3h-3.5v4.6c0,1.7.8,2.3,1.7,2.3s.9-.1,1.3-.3l.3,1.4c-.6.5-1.4.9-2.2.9-1.9,0-3.5-1.7-3.5-4.4v-4.5h-2.1Z"/>
    <path class="cls-1" d="M648.9,95.8l-.9-1.7c-.9,1.2-2.1,1.9-3.5,1.9-2.6,0-4.7-2.5-4.7-5.7,0-3.2,2.1-5.7,4.7-5.7s2.6.7,3.5,1.9l.9-1.7h.8v11h-.8ZM644.8,86.8c-1.4,0-2.6,1.6-2.6,3.5s1.1,3.5,2.6,3.5,2.6-1.6,2.6-3.5-1.1-3.5-2.6-3.5Z"/>
    <path class="cls-1" d="M654.4,79.5h2.3v16.3h-2.3v-16.3Z"/>
    <path class="cls-1" d="M573.6,106.8c1.7,0,3.5,1.1,4.5,2.7l-1.5,1.3c-.9-1.2-1.9-1.7-2.9-1.7-1.8,0-3.4,1.9-3.4,4.9s1.6,4.9,3.4,4.9,2-.5,2.9-1.7l1.5,1.3c-1,1.6-2.8,2.7-4.5,2.7-3.5,0-5.9-3.3-5.9-7.2s2.4-7.2,5.9-7.2Z"/>
    <path class="cls-1" d="M591.9,115.5c0,3.2-2.3,5.7-5.2,5.7s-5.2-2.5-5.2-5.7,2.3-5.7,5.2-5.7,5.2,2.5,5.2,5.7ZM583.9,115.5c0,1.9,1.2,3.5,2.8,3.5s2.8-1.6,2.8-3.5-1.2-3.5-2.8-3.5-2.8,1.6-2.8,3.5Z"/>
    <path class="cls-1" d="M603.2,121v-5.9c0-2-1.1-3-2.4-3s-2.6,1.2-2.6,2.6v6.4h-2.3v-11h.8l.9,1.6c.8-1.1,2.2-1.8,3.6-1.8,2.4,0,4.3,2,4.3,5.2v6h-2.3Z"/>
    <path class="cls-1" d="M609.5,112.4v-2.3h2.1v-4h2.3v4h3.5v2.3h-3.5v4.6c0,1.7.8,2.3,1.7,2.3s.9-.1,1.3-.3l.3,1.4c-.6.5-1.4.9-2.2.9-1.9,0-3.5-1.7-3.5-4.4v-4.5h-2.1Z"/>
    <path class="cls-1" d="M626.9,119.1c1.2,0,2.2-.7,2.8-1.3l1.2,1.5c-.9,1.1-2.5,2-4.2,2-3.5,0-5.6-2.5-5.6-5.7s2.2-5.8,5.4-5.8,5.4,2.6,4.8,6h-7.7c-.1,1.5,1,3.3,3.3,3.3ZM628.8,113.9c0-1.1-.8-1.9-2.3-1.9s-2.1.5-2.6,1.9h4.8Z"/>
    <path class="cls-1" d="M642.9,121v-5.9c0-2-1.1-3-2.4-3s-2.6,1.2-2.6,2.6v6.4h-2.3v-11h.8l.9,1.6c.8-1.1,2.2-1.8,3.6-1.8,2.4,0,4.3,2,4.3,5.2v6h-2.3Z"/>
    <path class="cls-1" d="M649.2,112.4v-2.3h2.1v-4h2.3v4h3.5v2.3h-3.5v4.6c0,1.7.8,2.3,1.7,2.3s.9-.1,1.3-.3l.3,1.4c-.6.5-1.4.9-2.2.9-1.9,0-3.5-1.7-3.5-4.4v-4.5h-2.1Z"/>
    <path class="cls-1" d="M592.2,146.5c-1.5,0-2.6-.5-3.9-1.5l.3-2.1c1.4.8,2.6,1.2,3.8,1.2s2.4-.6,2.4-1.7c0-2.7-6.6-1.6-6.6-6.3s2.1-4.1,4.6-4.1,2.6.5,4.1,1.7l-.7,1.8c-1-.7-2.2-1.2-3.3-1.2s-2.3.8-2.3,1.6c0,2.5,6.6,1.9,6.6,6.2s-2.4,4.4-4.9,4.4Z"/>
    <path class="cls-1" d="M600.2,137.6v-2.3h2.1v-4h2.3v4h3.5v2.3h-3.5v4.6c0,1.7.8,2.3,1.7,2.3s.9-.1,1.3-.3l.3,1.4c-.6.5-1.4.9-2.2.9-1.9,0-3.5-1.7-3.5-4.4v-4.5h-2.1Z"/>
    <path class="cls-1" d="M620.9,146.2l-.9-1.6c-.8,1.1-2.2,1.8-3.6,1.8-2.4,0-4.3-2-4.3-5.2v-6h2.3v5.9c0,2,1.1,3,2.3,3s2.6-1.1,2.6-2.6v-6.4h2.3v11h-.8Z"/>
    <path class="cls-1" d="M634.9,146.2l-.9-1.7c-.9,1.2-2.1,1.9-3.5,1.9-2.6,0-4.7-2.5-4.7-5.7s2.1-5.7,4.7-5.7,2.1.4,2.8,1.1v-6.3h2.4v16.3h-.8ZM630.8,137.2c-1.4,0-2.6,1.6-2.6,3.5s1.1,3.5,2.6,3.5,2.6-1.6,2.6-3.5-1.1-3.5-2.6-3.5Z"/>
    <path class="cls-1" d="M642.9,131.1c0,.8-.6,1.4-1.4,1.4s-1.4-.6-1.4-1.4.6-1.4,1.4-1.4,1.4.6,1.4,1.4ZM640.4,135.3h2.3v11h-2.3v-11Z"/>
    <path class="cls-1" d="M657.2,140.7c0,3.2-2.3,5.7-5.2,5.7s-5.2-2.5-5.2-5.7,2.3-5.7,5.2-5.7,5.2,2.5,5.2,5.7ZM649.2,140.7c0,1.9,1.2,3.5,2.8,3.5s2.8-1.6,2.8-3.5-1.2-3.5-2.8-3.5-2.8,1.6-2.8,3.5Z"/>
  </g>
  <rect class="cls-5" x="279.8" y="206.8" width="184.5" height="223.5"/>
  <rect class="cls-4" x="371.4" y="191.7" width="10.7" height="40.9" transform="translate(164.6 588.9) rotate(-90)"/>
  <rect class="cls-4" x="281.2" y="303" width="10.7" height="41"/>
  <rect class="cls-2" x="261.2" y="435" width="3.4" height="17.6"/>
  <line class="cls-3" x1="235.5" y1="206.8" x2="234.4" y2="206.8"/>
  <line class="cls-3" x1="171.1" y1="206.8" x2="120.9" y2="206.8"/>
</svg>