<?xml version="1.0" encoding="UTF-8"?>
<svg id="katman_1" data-name="katman 1" xmlns="http://www.w3.org/2000/svg" viewBox="0 0 645.1 638.8">
  <defs>
    <style>
      .cls-1 {
        fill: #4cbdcb;
      }

      .cls-2 {
        font-size: 22.5px;
      }

      .cls-2, .cls-3, .cls-4 {
        fill: #fff;
      }

      .cls-5 {
        fill: #f4f4f4;
      }

      .cls-6 {
        fill: #e52629;
      }

      .cls-7, .cls-8 {
        fill: none;
      }

      .cls-7, .cls-8, .cls-4 {
        stroke: #a5d8dc;
        stroke-miterlimit: 10;
      }

      .cls-7, .cls-4 {
        stroke-width: 2px;
      }

      .cls-8 {
        stroke-width: 2px;
      }

      .cls-9 {
        fill: #878787;
      }

      .cls-10 {
        fill: #a5d8dc;
      }

      .cls-11 {
        fill: #fffefe;
        font-size: 18px;
      }
    </style>
  </defs>
  <path class="cls-10" d="M470.9,112.4v336.2h-175.9V112.4h175.9M472.9,110.4h-179.9v340.2h179.9V110.4h0Z"/>
  <g>
    <path class="cls-10" d="M27.4,180.8H.4v-18.9h3.6v14.1h8.1v-12.2h3.6v12.2h11.7v4.8Z"/>
    <path class="cls-10" d="M27.4,157.2H.4v-4.8h23.3v-13.7h3.7v18.5Z"/>
    <path class="cls-10" d="M8.4,112.8h11c6.3,0,8.4,5.3,8.4,11.5s-2.1,11.5-8.4,11.5h-11c-6.3,0-8.4-5.4-8.4-11.5s2.1-11.5,8.4-11.5ZM9.4,130.9h9c4.5,0,5.7-2.8,5.7-6.7s-1.2-6.7-5.7-6.7h-9c-4.5,0-5.7,2.8-5.7,6.7s1.2,6.7,5.7,6.7Z"/>
    <path class="cls-10" d="M8.4,82.9h11c6.3,0,8.4,5.3,8.4,11.5s-2.1,11.5-8.4,11.5h-11c-6.3,0-8.4-5.4-8.4-11.5s2.1-11.5,8.4-11.5ZM9.4,101.1h9c4.5,0,5.7-2.8,5.7-6.7s-1.2-6.7-5.7-6.7h-9c-4.5,0-5.7,2.8-5.7,6.7s1.2,6.7,5.7,6.7Z"/>
    <path class="cls-10" d="M27.4,57.6l-11.3,6.7v6.9h11.3v4.8H.4v-14.2c0-3.9,2.7-6.7,6-6.7h3.7c2.6,0,4.8,1.7,5.6,4.3l11.7-7v5.2ZM7.4,59.8c-2.2,0-3.3,1.1-3.3,4.1v7.3h8.4v-7.3c0-2.9-1.1-4.1-3.3-4.1h-1.8Z"/>
    <path class="cls-10" d="M35.5,39.3l-23.4-12.6v14.5h-3.6v-19.7h3.1l23.9,12.4v5.4Z"/>
  </g>
  <rect class="cls-7" x="485.4" y="21.5" width="92.6" height="75.3"/>
  <rect class="cls-8" x="293" y="1" width="179" height="95.8"/>
  <text class="cls-2" transform="translate(499.6 224.5)"><tspan x="0" y="0">GLT ANIM.</tspan></text>
  <g id="glt701">
    <rect class="cls-10" x="484.8" y="344.4" width="160.4" height="106.2"/>
    <g>
      <path class="cls-3" d="M524.9,400.4h-3v-2.9h5.9v8.8h-.9l-.6-1.1c-1.1.9-2.4,1.4-3.7,1.4-4.3,0-7.1-4.1-7.1-9.1s2.9-9.1,7.1-9.1,4.3,1.3,5.5,3.4l-1.7,1.6c-1.1-1.4-2.3-2.1-3.5-2.1-2.2,0-4.1,2.3-4.1,6.2s1.9,6.1,4.1,6.1,1.4-.2,2.1-.7v-2.5Z"/>
      <path class="cls-3" d="M536.4,403.4h5v2.9h-7.9v-17.6h2.9v14.6Z"/>
      <path class="cls-3" d="M543.1,391.6v-2.9h12.9v2.9h-5v14.6h-2.9v-14.6h-5Z"/>
      <path class="cls-3" d="M567.9,391.6v-2.9h12.7v1.4l-8.1,16.1h-3.1l7.3-14.6h-8.8Z"/>
      <path class="cls-3" d="M592.3,388.4c4,0,6.2,4.1,6.2,9.1s-2.2,9.1-6.2,9.1-6.2-4.1-6.2-9.1,2.2-9.1,6.2-9.1ZM592.3,403.6c2,0,3.1-2.8,3.1-6.1s-1.1-6.2-3.1-6.2-3,2.8-3,6.2,1.1,6.1,3,6.1Z"/>
      <path class="cls-3" d="M608.5,394.4l-3.2,1.2-.7-1.2,5.9-5.9h.9v14.9h2.9v2.9h-8.8v-2.9h2.9v-9Z"/>
    </g>
  </g>
  <g id="glt702">
    <rect class="cls-10" x="484.8" y="230.4" width="160.4" height="107.8"/>
  </g>
  <g id="glt703">
    <rect class="cls-10" x="484.8" y="114.4" width="160.4" height="110.3"/>
  </g>
  <g>
    <path class="cls-3" d="M524.1,172.3h-2.7v-2.7h5.4v8h-.8l-.6-1c-1,.8-2.2,1.2-3.4,1.2-3.9,0-6.5-3.7-6.5-8.3s2.6-8.3,6.5-8.3,3.9,1.2,4.9,3.1l-1.6,1.5c-1-1.3-2.1-1.9-3.2-1.9-2,0-3.7,2.1-3.7,5.6s1.7,5.6,3.7,5.6,1.3-.2,1.9-.6v-2.3Z"/>
    <path class="cls-3" d="M534.4,174.9h4.5v2.7h-7.2v-16h2.7v13.3Z"/>
    <path class="cls-3" d="M540.6,164.3v-2.7h11.7v2.7h-4.5v13.3h-2.7v-13.3h-4.5Z"/>
    <path class="cls-3" d="M563,164.3v-2.7h11.5v1.3l-7.3,14.7h-2.8l6.6-13.3h-7.9Z"/>
    <path class="cls-3" d="M585.1,161.3c3.6,0,5.6,3.7,5.6,8.3s-2,8.3-5.6,8.3-5.6-3.7-5.6-8.3,2-8.3,5.6-8.3ZM585.1,175.2c1.8,0,2.8-2.5,2.8-5.6s-1-5.6-2.8-5.6-2.8,2.5-2.8,5.6,1,5.6,2.8,5.6Z"/>
    <path class="cls-3" d="M606.5,172.5c0,2.9-2.4,5.3-5.4,5.3s-4.4-1.6-5.1-3.8l2.5-.9c.3,1.1,1.3,2,2.6,2s2.7-1.2,2.7-2.7-1.2-2.7-2.7-2.7h-2v-.8l3.5-4.8h-4.3l-1.3,2.1h-.8v-4.8h10.5v1.3l-3.5,4.7c1.8.8,3.2,2.6,3.2,4.9Z"/>
  </g>
  <g>
    <path class="cls-3" d="M524.1,287.3h-2.7v-2.7h5.4v8h-.8l-.6-1c-1,.8-2.2,1.2-3.4,1.2-3.9,0-6.5-3.7-6.5-8.3s2.6-8.3,6.5-8.3,3.9,1.2,4.9,3.1l-1.6,1.5c-1-1.3-2.1-1.9-3.2-1.9-2,0-3.7,2.1-3.7,5.6s1.7,5.6,3.7,5.6,1.3-.2,1.9-.6v-2.3Z"/>
    <path class="cls-3" d="M534.4,289.9h4.5v2.7h-7.2v-16h2.7v13.3Z"/>
    <path class="cls-3" d="M540.6,279.2v-2.7h11.7v2.7h-4.5v13.3h-2.7v-13.3h-4.5Z"/>
    <path class="cls-3" d="M563,279.2v-2.7h11.5v1.3l-7.3,14.7h-2.8l6.6-13.3h-7.9Z"/>
    <path class="cls-3" d="M585.1,276.3c3.6,0,5.6,3.7,5.6,8.3s-2,8.3-5.6,8.3-5.6-3.7-5.6-8.3,2-8.3,5.6-8.3ZM585.1,290.2c1.8,0,2.8-2.5,2.8-5.6s-1-5.6-2.8-5.6-2.8,2.5-2.8,5.6,1,5.6,2.8,5.6Z"/>
    <path class="cls-3" d="M603.8,281.6c0-1.5-1.2-2.7-2.7-2.7s-2.7,1.2-2.7,2.7v1.3h-2.7v-1.3c0-2.9,2.4-5.3,5.3-5.3s5.4,2.4,5.4,5.3-1,3.6-2.5,5l-3.5,3.3h6v2.7h-10.7v-1l5.7-6.1c.9-.9,2.3-2.4,2.3-3.9Z"/>
  </g>
  <g>
    <rect class="cls-10" x="485.6" y="191.1" width="9.6" height="27.7"/>
    <path class="cls-3" d="M494.3,192.1v25.7h-7.6v-25.7h7.6M496.3,190.1h-11.6v29.7h11.6v-29.7h0Z"/>
  </g>
  <g id="gltmac03">
    <g id="maclab3">
      <rect class="cls-10" x="149.3" y="54.2" width="131" height="80.4"/>
    </g>
    <g>
      <path class="cls-5" d="M168.3,74.8h-1.6v-1.6h3.1v4.7h-.5l-.3-.6c-.6.5-1.3.7-2,.7-2.3,0-3.8-2.2-3.8-4.8s1.5-4.8,3.8-4.8,2.3.7,2.9,1.8l-.9.9c-.6-.8-1.2-1.1-1.9-1.1-1.2,0-2.2,1.2-2.2,3.3s1,3.3,2.2,3.3.7-.1,1.1-.4v-1.3Z"/>
      <path class="cls-5" d="M174.4,76.3h2.6v1.6h-4.2v-9.3h1.6v7.8Z"/>
      <path class="cls-5" d="M177.9,70.1v-1.6h6.8v1.6h-2.6v7.8h-1.6v-7.8h-2.6Z"/>
      <path class="cls-5" d="M197.8,77.9v-5.6l-2.3,4.2h-.3l-2.3-4.2v5.6h-1.5v-9.3h1.3l2.6,4.9,2.6-4.9h1.3v9.3h-1.5Z"/>
      <path class="cls-5" d="M203.9,77.9h-1.6v-5.9c0-2.3,1.4-3.6,3.1-3.6s3.1,1.3,3.1,3.6v5.9h-1.6v-3.1h-3.1v3.1ZM207,72c0-1.4-.7-2-1.6-2s-1.6.7-1.6,2v1.2h3.1v-1.2Z"/>
      <path class="cls-5" d="M215.5,68.4c1.1,0,2.4.7,3,1.8l-1,.9c-.6-.8-1.3-1.1-2-1.1-1.2,0-2.3,1.2-2.3,3.3s1.1,3.3,2.3,3.3,1.3-.3,2-1.1l1,.9c-.7,1.1-1.9,1.8-3,1.8-2.4,0-3.9-2.2-3.9-4.8s1.6-4.8,3.9-4.8Z"/>
      <path class="cls-5" d="M224.2,68.4c2.1,0,3.3,2.2,3.3,4.8s-1.2,4.8-3.3,4.8-3.3-2.2-3.3-4.8,1.2-4.8,3.3-4.8ZM224.2,76.5c1.1,0,1.6-1.5,1.6-3.3s-.6-3.3-1.6-3.3-1.6,1.5-1.6,3.3.6,3.3,1.6,3.3Z"/>
      <path class="cls-5" d="M236.6,74.9c0,1.7-1.4,3.1-3.1,3.1s-2.6-.9-3-2.2l1.5-.5c.2.6.8,1.2,1.5,1.2s1.6-.7,1.6-1.6-.7-1.6-1.6-1.6h-1.2v-.5l2.1-2.8h-2.5l-.8,1.2h-.5v-2.8h6.1v.8l-2,2.7c1.1.5,1.9,1.5,1.9,2.9Z"/>
    </g>
    <g>
      <path class="cls-3" d="M170.5,122.7v-8.4l-3.4,6.3h-.5l-3.4-6.3v8.4h-2.2v-14h1.9l3.9,7.4,3.9-7.4h1.9v14h-2.2Z"/>
      <path class="cls-3" d="M185.9,122.7l-.9-1.7c-.9,1.2-2.1,1.9-3.5,1.9-2.6,0-4.7-2.5-4.7-5.7,0-3.2,2.1-5.7,4.7-5.7s2.6.7,3.5,1.9l.9-1.7h.8v11h-.8ZM181.9,113.7c-1.4,0-2.6,1.6-2.6,3.5s1.1,3.5,2.6,3.5,2.6-1.6,2.6-3.5-1.1-3.5-2.6-3.5Z"/>
      <path class="cls-3" d="M198.4,114.8c-.5-.8-1.5-1.2-2.3-1.2-1.5,0-2.8,1.5-2.8,3.5s1.2,3.5,2.8,3.5,1.9-.3,2.3-1.2l1.4,1.2c-.9,1.3-2.3,2.2-3.9,2.2-2.8,0-5-2.5-5-5.7s2.2-5.7,5-5.7,3,.9,3.9,2.2l-1.4,1.2Z"/>
      <path class="cls-3" d="M212.4,120.3h4v2.3h-6.3v-14h2.3v11.7Z"/>
      <path class="cls-3" d="M227.9,122.7l-.9-1.7c-.9,1.2-2.1,1.9-3.5,1.9-2.6,0-4.7-2.5-4.7-5.7,0-3.2,2.1-5.7,4.7-5.7s2.6.7,3.5,1.9l.9-1.7h.8v11h-.8ZM223.9,113.7c-1.4,0-2.6,1.6-2.6,3.5s1.1,3.5,2.6,3.5,2.6-1.6,2.6-3.5-1.1-3.5-2.6-3.5Z"/>
      <path class="cls-3" d="M234.2,122.7h-.8v-16.3h2.3v6.3c.8-.7,1.8-1.1,2.9-1.1,2.6,0,4.7,2.5,4.7,5.7s-2.1,5.7-4.7,5.7-2.6-.7-3.5-1.9l-.9,1.7ZM235.7,117.2c0,1.9,1.2,3.5,2.6,3.5s2.6-1.6,2.6-3.5-1.1-3.5-2.6-3.5-2.6,1.6-2.6,3.5Z"/>
      <path class="cls-3" d="M263.8,118.2c0,2.6-2.1,4.7-4.7,4.7s-3.9-1.4-4.5-3.3l2.2-.8c.3.9,1.1,1.7,2.2,1.7s2.3-1,2.3-2.3-1-2.3-2.3-2.3h-1.7v-.7l3.1-4.2h-3.8l-1.1,1.9h-.7v-4.2h9.2v1.2l-3.1,4.1c1.6.7,2.8,2.3,2.8,4.3Z"/>
    </g>
    <g>
      <rect class="cls-10" x="271.2" y="74.7" width="9.6" height="27.7"/>
      <path class="cls-3" d="M279.8,75.7v25.7h-7.6v-25.7h7.6M281.8,73.7h-11.6v29.7h11.6v-29.7h0Z"/>
    </g>
  </g>
  <g>
    <rect class="cls-9" x="291.7" y="492.5" width="83.8" height="30.4"/>
    <rect class="cls-9" x="390.1" y="492.6" width="83.8" height="30.4"/>
    <g>
      <polygon class="cls-10" points="483.5 509.7 483.8 512 498 510.1 497.7 507.8 483.5 509.7"/>
      <polygon class="cls-10" points="497.7 504.2 483.5 502.8 483.2 505.1 497.5 506.6 497.7 504.2"/>
      <polygon class="cls-10" points="484.2 498.3 497.8 502.6 498.5 500.3 484.9 496.1 484.2 498.3"/>
      <polygon class="cls-10" points="488.1 490.3 499.3 499.1 500.8 497.3 489.6 488.5 488.1 490.3"/>
      <polygon class="cls-10" points="493.8 484.8 502 496.4 503.9 495.1 495.7 483.4 493.8 484.8"/>
      <polygon class="cls-10" points="500.8 481.3 505.6 494.7 507.8 493.9 503 480.5 500.8 481.3"/>
      <polygon class="cls-10" points="531.8 498.7 531.2 496.5 517.4 499.9 517.9 502.2 531.8 498.7"/>
      <polygon class="cls-10" points="518.2 503.4 518.2 505.7 532.5 505.6 532.5 503.3 518.2 503.4"/>
      <polygon class="cls-10" points="517.9 509.7 531.8 512.4 532.3 510.1 518.3 507.4 517.9 509.7"/>
      <polygon class="cls-10" points="516 512.9 528 520.5 529.3 518.5 517.2 511 516 512.9"/>
      <polygon class="cls-10" points="513.1 515.5 522.5 526.2 524.3 524.6 514.8 514 513.1 515.5"/>
      <polygon class="cls-10" points="509.3 517.1 515.5 529.9 517.7 528.9 511.4 516 509.3 517.1"/>
    </g>
    <g>
      <path class="cls-6" d="M506.7,505.9v.4s-.5,0-.5,0v.2s.4,0,.4,0v.4s-.4,0-.4,0v.5s-.5,0-.5,0v-1.6s1,0,1,0Z"/>
      <path class="cls-6" d="M507.4,506v1.5s-.5,0-.5,0v-1.5s.5,0,.5,0Z"/>
      <path class="cls-6" d="M508.2,507h0s0,.5,0,.5h-.5s0-1.5,0-1.5h.7s.4,0,.4,0v.8s-.1,0-.1,0l.3.4-.4.2-.3-.5ZM508,506.7h.3s0-.3,0-.3h-.3s0,.3,0,.3Z"/>
      <path class="cls-6" d="M510,507.5h-1s0-1.5,0-1.5h0c0,0,.8,0,.8,0v.4s-.5,0-.5,0v.2s.4,0,.4,0v.4s-.4,0-.4,0v.2s.5,0,.5,0v.4Z"/>
      <path class="cls-6" d="M505.9,508.4h-.3s0-.4,0-.4h0s.3,0,.3,0h0c0,.1-.1.1-.1.1h0c0,0,.1,0,.1,0h0c0,.1-.1.1-.1.1h0c0,0,.2,0,.2,0h0Z"/>
      <path class="cls-6" d="M506.1,508.3h0s0,.2,0,.2h-.2s0-.2,0-.2h0s0,0,0,0v-.2s.1,0,.1,0h0c0,.1,0,.2,0,.2h0s0-.1,0-.1h.1s0,.2,0,.2h0s0,0,0,0v.2s-.1,0-.1,0h0c0-.1,0-.2,0-.2Z"/>
      <path class="cls-6" d="M506.7,508.1h-.1s0,.3,0,.3h-.1s0-.3,0-.3h-.1s0-.1,0-.1h.4s0,.1,0,.1Z"/>
      <path class="cls-6" d="M506.9,507.9v.5s-.1,0-.1,0v-.5s.1,0,.1,0Z"/>
      <path class="cls-6" d="M507.3,508.4h-.1s0-.1,0-.1h-.1c0-.1,0,.1,0,.1h-.1s0-.4,0-.4h.1s.1.1.1.1h0c0-.1.1-.2.1-.2v.5Z"/>
      <path class="cls-6" d="M507.5,508h.3s0,.1,0,.1h-.2v.2h0s0-.1,0-.1h.1s0,.3,0,.3h-.3s0-.4,0-.4h0Z"/>
      <path class="cls-6" d="M508.2,508v.4s0,0,0,0h-.3s0,0,0,0v-.4s.1,0,.1,0v.3s0,0,0,0v-.3s.1,0,.1,0Z"/>
      <path class="cls-6" d="M508.4,507.9v.5s-.1,0-.1,0v-.5s.1,0,.1,0Z"/>
      <path class="cls-6" d="M508.8,507.9h0c0,.1-.1.1-.1.1h0s.2.1.2.1v.2s-.3,0-.3,0v-.2s.2,0,.2,0h0s-.2-.1-.2-.1v-.2s.1,0,.1,0h.2Z"/>
      <path class="cls-6" d="M509.1,508.2h0s0,.2,0,.2h-.1v-.5s.1,0,.1,0v.2s0,0,0,0v-.2s.1,0,.1,0v.5s-.1,0-.1,0v-.2Z"/>
      <path class="cls-6" d="M509.6,508.4h-.3s0-.4,0-.4h0s.3,0,.3,0h0c0,.1-.1.1-.1.1h0c0,0,.1,0,.1,0h0c0,.1-.1.1-.1.1h0c0,0,.2,0,.2,0h0Z"/>
      <path class="cls-6" d="M509.8,508.3h0s0,.2,0,.2h-.1s0-.5,0-.5h.2s.1,0,.1,0v.3s0,0,0,0h0c0,.1-.1.2-.1.2v-.2ZM509.8,508.2h0s0-.1,0-.1h0s0,.1,0,.1Z"/>
    </g>
    <path class="cls-6" d="M503.8,511.3l3.9,2.9c0,0,.1,0,.2,0l3.9-2.9c0,0,0-.1,0-.2,0,0,0-.1-.2-.1h-1.7v-1.8c0,0,0-.2-.2-.2h-3.9c0,0-.2,0-.2.2v1.8h-1.7c0,0-.1,0-.2.1,0,0,0,.1,0,.2Z"/>
    <path class="cls-6" d="M514.8,500.7s0,0-.1,0,0,0,0,0l-3.1.7c0,0,0,0-.1,0,0,0,0,0,0,.1h-3.4c0-.1,0-.3,0-.4,0-.3-.1-.6-.3-.8-.2-.2-.5-.3-.8-.3s-.6.1-.8.3c-.2.2-.3.5-.3.8s0,.4.2.6c-.3,0-.5.2-.8.4-.2.2-.4.3-.6.5-.2.2-.3.3-.4.5-.1.2-.2.3-.3.4,0,0,0,.1-.1.2,0,.1,0,.2,0,.3,0,.1.1.2.2.3,0,0,.1,0,.2,0,.2,0,.3,0,.4-.2,0,0,0,0,0-.2,0,0,.1-.2.3-.4.1-.2.3-.3.5-.5.2-.1.4-.3.6-.4.3-.1.5-.2.8-.2h.2v.8c-.5.1-.8.4-1.1.8-.3.4-.4.8-.4,1.3h0c0,0,4.4,0,4.4,0h0c0-.6-.2-1.1-.5-1.5-.3-.4-.8-.7-1.3-.8v-.7h3.1c0,0,0,0,0,.1,0,0,0,0,.1,0l3.1.7s0,0,0,0c0,0,.1,0,.1,0,0,0,0,0,0-.2v-2.2c0,0,0-.1,0-.2ZM507.3,501.4c0,0-.2.1-.3.1s-.2,0-.3-.1c0,0-.1-.2-.1-.3s0-.2.1-.3c0,0,.2-.1.3-.1s.2,0,.3.1c0,0,.1.2.1.3s0,.2-.1.3Z"/>
    <polygon class="cls-10" points="264.5 513.6 264.5 504.1 251.7 504.1 251.7 494.4 239 494.4 239 484.8 226.2 484.8 226.2 475.1 213.4 475.1 213.4 484.8 213.4 523.3 239 523.3 251.7 523.3 264.3 523.3 277.1 523.3 277.1 513.6 264.5 513.6"/>
  </g>
  <path class="cls-10" d="M278.8,388.6v60h-98.4v-60h98.4M280.8,386.6h-102.4v64h102.4v-64h0Z"/>
  <text class="cls-11" transform="translate(192.2 423.6)"><tspan x="0" y="0">Terrace</tspan></text>
  <rect class="cls-4" x="485.4" y="50.3" width="7.6" height="25.7"/>
  <rect class="cls-4" x="413.9" y="79.5" width="7.6" height="25.7" transform="translate(510.2 -325.4) rotate(90)"/>
  <rect class="cls-4" x="327.9" y="80.1" width="7.6" height="25.7" transform="translate(424.7 -238.8) rotate(90)"/>
  <rect class="cls-4" x="272.2" y="423.6" width="7.6" height="25.7" transform="translate(552 872.9) rotate(180)"/>
  <g>
    <rect class="cls-10" x="485.6" y="223" width="27.7" height="9.6"/>
    <path class="cls-3" d="M512.3,224v7.6h-25.7v-7.6h25.7M514.3,222h-29.7v11.6h29.7v-11.6h0Z"/>
  </g>
  <g>
    <rect class="cls-10" x="485.6" y="236.9" width="9.6" height="27.7"/>
    <path class="cls-3" d="M494.3,237.9v25.7h-7.6v-25.7h7.6M496.3,235.9h-11.6v29.7h11.6v-29.7h0Z"/>
  </g>
  <g>
    <rect class="cls-10" x="485.6" y="304.3" width="9.6" height="27.7"/>
    <path class="cls-3" d="M494.3,305.3v25.7h-7.6v-25.7h7.6M496.3,303.3h-11.6v29.7h11.6v-29.7h0Z"/>
  </g>
  <g>
    <rect class="cls-10" x="485.6" y="336.2" width="27.7" height="9.6"/>
    <path class="cls-3" d="M512.3,337.2v7.6h-25.7v-7.6h25.7M514.3,335.2h-29.7v11.6h29.7v-11.6h0Z"/>
  </g>
  <g>
    <rect class="cls-10" x="485.6" y="350.1" width="9.6" height="27.7"/>
    <path class="cls-3" d="M494.3,351.1v25.7h-7.6v-25.7h7.6M496.3,349.1h-11.6v29.7h11.6v-29.7h0Z"/>
  </g>
  <g>
    <rect class="cls-10" x="485.6" y="114.1" width="9.6" height="27.7"/>
    <path class="cls-3" d="M494.3,115.1v25.7h-7.6v-25.7h7.6M496.3,113.1h-11.6v29.7h11.6v-29.7h0Z"/>
  </g>
  <g>
    <rect class="cls-10" x="271.2" y="168.6" width="9.6" height="27.7"/>
    <path class="cls-3" d="M279.8,169.6v25.7h-7.6v-25.7h7.6M281.8,167.6h-11.6v29.7h11.6v-29.7h0Z"/>
  </g>
  <g>
    <g id="glt703-2" data-name="glt703">
      <rect class="cls-1" x="121.6" y="144.2" width="160.4" height="110.3"/>
    </g>
    <g>
      <path class="cls-3" d="M165.7,201.8h-2.7v-2.7h5.4v8h-.8l-.6-1c-1,.8-2.2,1.2-3.4,1.2-3.9,0-6.5-3.7-6.5-8.3s2.6-8.3,6.5-8.3,3.9,1.2,4.9,3.1l-1.6,1.5c-1-1.3-2.1-1.9-3.2-1.9-2,0-3.7,2.1-3.7,5.6s1.7,5.6,3.7,5.6,1.3-.2,1.9-.6v-2.3Z"/>
      <path class="cls-3" d="M176.1,204.5h4.5v2.7h-7.2v-16h2.7v13.3Z"/>
      <path class="cls-3" d="M182.2,193.8v-2.7h11.7v2.7h-4.5v13.3h-2.7v-13.3h-4.5Z"/>
      <path class="cls-3" d="M204.6,193.8v-2.7h11.5v1.3l-7.3,14.7h-2.8l6.6-13.3h-7.9Z"/>
      <path class="cls-3" d="M226.8,190.9c3.6,0,5.6,3.7,5.6,8.3s-2,8.3-5.6,8.3-5.6-3.7-5.6-8.3,2-8.3,5.6-8.3ZM226.8,204.7c1.8,0,2.8-2.5,2.8-5.6s-1-5.6-2.8-5.6-2.8,2.5-2.8,5.6,1,5.6,2.8,5.6Z"/>
      <path class="cls-3" d="M236.4,202.1l7.8-11.2h1.2v10.9h2.7v2.7h-2.7v2.7h-2.7v-2.7h-6.4v-2.4ZM242.8,201.8v-4.9l-3.4,4.9h3.4Z"/>
    </g>
  </g>
  <g>
    <g id="glt703-3" data-name="glt703">
      <rect class="cls-10" x="121.6" y="260.9" width="160.4" height="110.3"/>
    </g>
    <g>
      <path class="cls-3" d="M163.2,318.4h-2.7v-2.7h5.4v8h-.8l-.6-1c-1,.8-2.2,1.2-3.4,1.2-3.9,0-6.5-3.7-6.5-8.3s2.6-8.3,6.5-8.3,3.9,1.2,4.9,3.1l-1.6,1.5c-1-1.3-2.1-1.9-3.2-1.9-2,0-3.7,2.1-3.7,5.6s1.7,5.6,3.7,5.6,1.3-.2,1.9-.6v-2.3Z"/>
      <path class="cls-3" d="M173.6,321.1h4.5v2.7h-7.2v-16h2.7v13.3Z"/>
      <path class="cls-3" d="M179.7,310.4v-2.7h11.7v2.7h-4.5v13.3h-2.7v-13.3h-4.5Z"/>
      <path class="cls-3" d="M202.1,310.4v-2.7h11.5v1.3l-7.3,14.7h-2.8l6.6-13.3h-7.9Z"/>
      <path class="cls-3" d="M224.2,307.5c3.6,0,5.6,3.7,5.6,8.3s-2,8.3-5.6,8.3-5.6-3.7-5.6-8.3,2-8.3,5.6-8.3ZM224.2,321.3c1.8,0,2.8-2.5,2.8-5.6s-1-5.6-2.8-5.6-2.8,2.5-2.8,5.6,1,5.6,2.8,5.6Z"/>
      <path class="cls-3" d="M235.7,307.7h9.3v4.8h-.8l-1.3-2.1h-4.6v3.3c.6-.2,1.2-.3,1.8-.3,3,0,5.4,2.4,5.4,5.3s-2.4,5.3-5.4,5.3-4.4-1.6-5.1-3.8l2.5-.9c.3,1.1,1.3,2,2.6,2s2.7-1.2,2.7-2.7-1.2-2.7-2.7-2.7-1.7.5-2.2,1.2h-2.3v-9.5Z"/>
    </g>
  </g>
  <g>
    <rect class="cls-1" x="271.6" y="144.8" width="9.6" height="27.7"/>
    <path class="cls-3" d="M280.2,145.8v25.7h-7.6v-25.7h7.6M282.2,143.8h-11.6v29.7h11.6v-29.7h0Z"/>
  </g>
  <g>
    <rect class="cls-1" x="271.6" y="226.1" width="9.6" height="27.7"/>
    <path class="cls-3" d="M280.2,227.1v25.7h-7.6v-25.7h7.6M282.2,225.1h-11.6v29.7h11.6v-29.7h0Z"/>
  </g>
  <g>
    <rect class="cls-10" x="271.6" y="260.4" width="9.6" height="27.7"/>
    <path class="cls-3" d="M280.2,261.4v25.7h-7.6v-25.7h7.6M282.2,259.4h-11.6v29.7h11.6v-29.7h0Z"/>
  </g>
  <g>
    <rect class="cls-10" x="271.6" y="342.7" width="9.6" height="27.7"/>
    <path class="cls-3" d="M280.2,343.7v25.7h-7.6v-25.7h7.6M282.2,341.7h-11.6v29.7h11.6v-29.7h0Z"/>
  </g>
</svg>