<?xml version="1.0" encoding="UTF-8"?>
<svg id="katman_1" data-name="katman 1" xmlns="http://www.w3.org/2000/svg" viewBox="0 0 656.1 508.6">
  <defs>
    <style>
      .cls-1 {
        fill: #3c3c3b;
      }

      .cls-2 {
        stroke-width: 3px;
      }

      .cls-2, .cls-3, .cls-4, .cls-5, .cls-6 {
        fill: none;
        stroke: #ffd022;
        stroke-miterlimit: 10;
      }

      .cls-7 {
        fill: #e52629;
      }

      .cls-3 {
        stroke-width: 2px;
      }

      .cls-8 {
        fill: #878787;
      }

      .cls-4 {
        stroke-width: 2px;
      }

      .cls-5 {
        stroke-width: 2px;
      }

      .cls-6 {
        stroke-width: 2px;
      }

      .cls-9 {
        fill: #ffd022;
      }
    </style>
  </defs>
  <rect class="cls-6" x="291.2" y="105" width="180.4" height="319.7"/>
  <g>
    <path class="cls-9" d="M27.9,164.1H.4v-19.2h3.7v14.4h8.2v-12.4h3.7v12.4h11.9v4.9Z"/>
    <path class="cls-9" d="M27.9,140.1H.4v-4.9h23.7v-14h3.7v18.8Z"/>
    <path class="cls-9" d="M8.6,94.9h11.2c6.4,0,8.6,5.4,8.6,11.7s-2.2,11.7-8.6,11.7h-11.2c-6.4,0-8.6-5.5-8.6-11.7s2.2-11.7,8.6-11.7ZM9.6,113.4h9.1c4.6,0,5.8-2.8,5.8-6.8s-1.2-6.8-5.8-6.8h-9.1c-4.6,0-5.8,2.8-5.8,6.8s1.2,6.8,5.8,6.8Z"/>
    <path class="cls-9" d="M8.6,64.6h11.2c6.4,0,8.6,5.4,8.6,11.7s-2.2,11.7-8.6,11.7h-11.2c-6.4,0-8.6-5.5-8.6-11.7s2.2-11.7,8.6-11.7ZM9.6,83h9.1c4.6,0,5.8-2.8,5.8-6.8s-1.2-6.8-5.8-6.8h-9.1c-4.6,0-5.8,2.8-5.8,6.8s1.2,6.8,5.8,6.8Z"/>
    <path class="cls-9" d="M27.9,38.8l-11.5,6.9v7h11.5v4.9H.4v-14.5c0-3.9,2.7-6.9,6.1-6.9h3.7c2.6,0,4.9,1.8,5.7,4.4l11.9-7.1v5.3ZM7.5,41.1c-2.3,0-3.4,1.1-3.4,4.1v7.5h8.5v-7.5c0-3-1.1-4.1-3.4-4.1h-1.8Z"/>
    <path class="cls-9" d="M19,20.1h-4.3c-5.2,0-6.6-5.2-6.6-10S9.5,0,14.7,0h13.6c6.4,0,8.2,4.1,8.2,10.4s-.3,5.9-.5,8.5h-3.9s.6-6.6.6-8c0-5.4-1.7-6-4.6-6h-2.9c.6,1.7.9,2.9.9,5.9,0,7.1-2.8,9.3-7,9.3ZM15.4,4.9c-2.6,0-3.7,1.8-3.7,5.2s1.1,5.2,3.7,5.2h3.1c2.7,0,3.6-1.1,3.6-4.5s-.9-5.9-.9-5.9h-5.9Z"/>
  </g>
  <rect class="cls-4" x="157.4" y="299.4" width="133.7" height="125.3"/>
  <rect class="cls-3" x="158.2" y="170.7" width="132.9" height="0"/>
  <rect class="cls-5" x="471.6" y="105" width="139.1" height="67.8"/>
  <g>
    <rect class="cls-8" x="291.2" y="471.2" width="83.8" height="30.4"/>
    <rect class="cls-8" x="389.6" y="471.3" width="83.8" height="30.4"/>
    <g>
      <polygon class="cls-9" points="483 488.5 483.3 490.8 497.5 488.9 497.2 486.5 483 488.5"/>
      <polygon class="cls-9" points="497.2 483 483 481.5 482.8 483.8 497 485.3 497.2 483"/>
      <polygon class="cls-9" points="483.7 477.1 497.3 481.3 498 479.1 484.4 474.8 483.7 477.1"/>
      <polygon class="cls-9" points="487.6 469.1 498.8 477.9 500.3 476.1 489.1 467.2 487.6 469.1"/>
      <polygon class="cls-9" points="493.3 463.5 501.5 475.1 503.4 473.8 495.2 462.2 493.3 463.5"/>
      <polygon class="cls-9" points="500.3 460 505.1 473.5 507.3 472.7 502.5 459.3 500.3 460"/>
      <polygon class="cls-9" points="531.3 477.5 530.7 475.2 516.9 478.7 517.4 480.9 531.3 477.5"/>
      <polygon class="cls-9" points="517.8 482.1 517.7 484.5 532 484.4 532 482 517.8 482.1"/>
      <polygon class="cls-9" points="517.4 488.4 531.3 491.2 531.8 488.9 517.8 486.1 517.4 488.4"/>
      <polygon class="cls-9" points="515.5 491.7 527.6 499.2 528.8 497.3 516.7 489.7 515.5 491.7"/>
      <polygon class="cls-9" points="512.6 494.2 522 504.9 523.8 503.4 514.4 492.7 512.6 494.2"/>
      <polygon class="cls-9" points="508.8 495.8 515 508.6 517.2 507.6 510.9 494.8 508.8 495.8"/>
    </g>
    <g>
      <path class="cls-7" d="M506.2,484.7v.4s-.5,0-.5,0v.2s.4,0,.4,0v.4s-.4,0-.4,0v.5s-.5,0-.5,0v-1.6s1,0,1,0Z"/>
      <path class="cls-7" d="M506.9,484.7v1.5s-.5,0-.5,0v-1.5s.5,0,.5,0Z"/>
      <path class="cls-7" d="M507.7,485.8h0s0,.5,0,.5h-.5s0-1.5,0-1.5h.7s.4,0,.4,0v.8s-.1,0-.1,0l.3.4-.4.2-.3-.5ZM507.6,485.4h.3s0-.3,0-.3h-.3s0,.3,0,.3Z"/>
      <path class="cls-7" d="M509.5,486.3h-1s0-1.5,0-1.5h0c0,0,.8,0,.8,0v.4s-.5,0-.5,0v.2s.4,0,.4,0v.4s-.4,0-.4,0v.2s.5,0,.5,0v.4Z"/>
      <path class="cls-7" d="M505.4,487.2h-.3s0-.4,0-.4h0s.3,0,.3,0h0c0,.1-.1.1-.1.1h0c0,0,.1,0,.1,0h0c0,.1-.1.1-.1.1h0c0,0,.2,0,.2,0h0Z"/>
      <path class="cls-7" d="M505.6,487h0s0,.2,0,.2h-.2s0-.2,0-.2h0s0,0,0,0v-.2s.1,0,.1,0h0c0,.1,0,.2,0,.2h0s0-.1,0-.1h.1s0,.2,0,.2h0s0,0,0,0v.2s-.1,0-.1,0h0c0-.1,0-.2,0-.2Z"/>
      <path class="cls-7" d="M506.2,486.8h-.1s0,.3,0,.3h-.1s0-.3,0-.3h-.1s0-.1,0-.1h.4s0,.1,0,.1Z"/>
      <path class="cls-7" d="M506.4,486.7v.5s-.1,0-.1,0v-.5s.1,0,.1,0Z"/>
      <path class="cls-7" d="M506.8,487.2h-.1s0-.1,0-.1h-.1c0-.1,0,.1,0,.1h-.1s0-.4,0-.4h.1s.1.1.1.1h0c0-.1.1-.2.1-.2v.5Z"/>
      <path class="cls-7" d="M507,486.7h.3s0,.1,0,.1h-.2v.2h0s0-.1,0-.1h.1s0,.3,0,.3h-.3s0-.4,0-.4h0Z"/>
      <path class="cls-7" d="M507.7,486.7v.4s0,0,0,0h-.3s0,0,0,0v-.4s.1,0,.1,0v.3s0,0,0,0v-.3s.1,0,.1,0Z"/>
      <path class="cls-7" d="M507.9,486.7v.5s-.1,0-.1,0v-.5s.1,0,.1,0Z"/>
      <path class="cls-7" d="M508.3,486.7h0c0,.1-.1.1-.1.1h0s.2.1.2.1v.2s-.3,0-.3,0v-.2s.2,0,.2,0h0s-.2-.1-.2-.1v-.2s.1,0,.1,0h.2Z"/>
      <path class="cls-7" d="M508.6,487h0s0,.2,0,.2h-.1v-.5s.1,0,.1,0v.2s0,0,0,0v-.2s.1,0,.1,0v.5s-.1,0-.1,0v-.2Z"/>
      <path class="cls-7" d="M509.1,487.2h-.3s0-.4,0-.4h0s.3,0,.3,0h0c0,.1-.1.1-.1.1h0c0,0,.1,0,.1,0h0c0,.1-.1.1-.1.1h0c0,0,.2,0,.2,0h0Z"/>
      <path class="cls-7" d="M509.3,487h0s0,.2,0,.2h-.1s0-.5,0-.5h.2s.1,0,.1,0v.3s0,0,0,0h0c0,.1-.1.2-.1.2v-.2ZM509.3,486.9h0s0-.1,0-.1h0s0,.1,0,.1Z"/>
    </g>
    <path class="cls-7" d="M503.3,490l3.9,2.9c0,0,.1,0,.2,0l3.9-2.9c0,0,0-.1,0-.2,0,0,0-.1-.2-.1h-1.7v-1.8c0,0,0-.2-.2-.2h-3.9c0,0-.2,0-.2.2v1.8h-1.7c0,0-.1,0-.2.1,0,0,0,.1,0,.2Z"/>
    <path class="cls-7" d="M514.3,479.5s0,0-.1,0,0,0,0,0l-3.1.7c0,0,0,0-.1,0,0,0,0,0,0,.1h-3.4c0-.1,0-.3,0-.4,0-.3-.1-.6-.3-.8-.2-.2-.5-.3-.8-.3s-.6.1-.8.3c-.2.2-.3.5-.3.8s0,.4.2.6c-.3,0-.5.2-.8.4-.2.2-.4.3-.6.5-.2.2-.3.3-.4.5-.1.2-.2.3-.3.4,0,0,0,.1-.1.2,0,.1,0,.2,0,.3,0,.1.1.2.2.3,0,0,.1,0,.2,0,.2,0,.3,0,.4-.2,0,0,0,0,0-.2,0,0,.1-.2.3-.4.1-.2.3-.3.5-.5.2-.1.4-.3.6-.4.3-.1.5-.2.8-.2h.2v.8c-.5.1-.8.4-1.1.8-.3.4-.4.8-.4,1.3h0c0,0,4.4,0,4.4,0h0c0-.6-.2-1.1-.5-1.5-.3-.4-.8-.7-1.3-.8v-.7h3.1c0,0,0,0,0,.1,0,0,0,0,.1,0l3.1.7s0,0,0,0c0,0,.1,0,.1,0,0,0,0,0,0-.2v-2.2c0,0,0-.1,0-.2ZM506.8,480.2c0,0-.2.1-.3.1s-.2,0-.3-.1c0,0-.1-.2-.1-.3s0-.2.1-.3c0,0,.2-.1.3-.1s.2,0,.3.1c0,0,.1.2.1.3s0,.2-.1.3Z"/>
    <polygon class="cls-9" points="264 492.3 264 482.8 251.2 482.8 251.2 473.2 238.5 473.2 238.5 463.5 225.7 463.5 225.7 453.8 212.9 453.8 212.9 463.5 212.9 502 238.5 502 251.2 502 263.8 502 276.6 502 276.6 492.3 264 492.3"/>
  </g>
  <g id="canteen">
    <path class="cls-9" d="M607.7,301.3v121.4h-133.8v-121.4h133.8M610.7,298.3h-139.8v127.4h139.8v-127.4h0Z"/>
    <g>
      <path class="cls-1" d="M501,355.9c1.7,0,3.5,1.1,4.5,2.7l-1.5,1.3c-.9-1.2-1.9-1.7-2.9-1.7-1.8,0-3.4,1.9-3.4,4.9s1.6,4.9,3.4,4.9,2-.5,2.9-1.7l1.5,1.3c-1,1.6-2.8,2.7-4.5,2.7-3.5,0-5.9-3.3-5.9-7.2s2.4-7.2,5.9-7.2Z"/>
      <path class="cls-1" d="M517.9,370.1l-.9-1.7c-.9,1.2-2.1,1.9-3.5,1.9-2.6,0-4.7-2.5-4.7-5.7,0-3.2,2.1-5.7,4.7-5.7s2.6.7,3.5,1.9l.9-1.7h.8v11h-.8ZM513.8,361.1c-1.4,0-2.6,1.6-2.6,3.5s1.1,3.5,2.6,3.5,2.6-1.6,2.6-3.5-1.1-3.5-2.6-3.5Z"/>
      <path class="cls-1" d="M530.6,370.1v-5.9c0-2-1.1-3-2.4-3s-2.6,1.2-2.6,2.6v6.4h-2.3v-11h.8l.9,1.6c.8-1.1,2.2-1.8,3.6-1.8,2.4,0,4.3,2,4.3,5.2v6h-2.3Z"/>
      <path class="cls-1" d="M536.9,361.5v-2.3h2.1v-4h2.3v4h3.5v2.3h-3.5v4.6c0,1.7.8,2.3,1.7,2.3s.9-.1,1.3-.3l.3,1.4c-.6.5-1.4.9-2.2.9-1.9,0-3.5-1.7-3.5-4.4v-4.5h-2.1Z"/>
      <path class="cls-1" d="M554.3,368.1c1.2,0,2.2-.7,2.8-1.3l1.2,1.5c-.9,1.1-2.5,2-4.2,2-3.5,0-5.6-2.5-5.6-5.7s2.2-5.8,5.4-5.8,5.4,2.6,4.8,6h-7.7c-.1,1.5,1,3.3,3.3,3.3ZM556.2,363c0-1.1-.8-1.9-2.3-1.9s-2.1.5-2.6,1.9h4.9Z"/>
      <path class="cls-1" d="M568.3,368.1c1.2,0,2.2-.7,2.8-1.3l1.2,1.5c-.9,1.1-2.5,2-4.2,2-3.5,0-5.6-2.5-5.6-5.7s2.2-5.8,5.4-5.8,5.4,2.6,4.8,6h-7.7c-.1,1.5,1,3.3,3.3,3.3ZM570.2,363c0-1.1-.8-1.9-2.3-1.9s-2.1.5-2.6,1.9h4.9Z"/>
      <path class="cls-1" d="M584.3,370.1v-5.9c0-2-1.1-3-2.4-3s-2.6,1.2-2.6,2.6v6.4h-2.3v-11h.8l.9,1.6c.8-1.1,2.2-1.8,3.6-1.8,2.4,0,4.3,2,4.3,5.2v6h-2.3Z"/>
    </g>
  </g>
  <g id="galataterrace">
    <polygon class="cls-2" points="112.1 299.8 112.1 13.3 654.6 13.3 654.6 299.8 610.6 299.8 610.6 104.2 157 104.2 157 299.8 112.1 299.8 112.1 299.8"/>
    <g>
      <path class="cls-1" d="M310,57.7h-2.4v-2.3h4.7v7h-.7l-.5-.9c-.9.7-1.9,1.1-2.9,1.1-3.4,0-5.7-3.3-5.7-7.2s2.3-7.2,5.7-7.2,3.4,1.1,4.3,2.7l-1.4,1.3c-.9-1.2-1.8-1.7-2.8-1.7-1.8,0-3.3,1.9-3.3,4.9s1.5,4.9,3.3,4.9,1.1-.2,1.7-.5v-2Z"/>
      <path class="cls-1" d="M325.3,62.4l-.9-1.7c-.9,1.2-2.1,1.9-3.5,1.9-2.6,0-4.7-2.5-4.7-5.7,0-3.2,2.1-5.7,4.7-5.7s2.6.7,3.5,1.9l.9-1.7h.8v11h-.8ZM321.2,53.3c-1.4,0-2.6,1.6-2.6,3.5s1.1,3.5,2.6,3.5,2.6-1.6,2.6-3.5-1.1-3.5-2.6-3.5Z"/>
      <path class="cls-1" d="M330.8,46h2.3v16.3h-2.3v-16.3Z"/>
      <path class="cls-1" d="M346.3,62.4l-.9-1.7c-.9,1.2-2.1,1.9-3.5,1.9-2.6,0-4.7-2.5-4.7-5.7,0-3.2,2.1-5.7,4.7-5.7s2.6.7,3.5,1.9l.9-1.7h.8v11h-.8ZM342.2,53.3c-1.4,0-2.6,1.6-2.6,3.5s1.1,3.5,2.6,3.5,2.6-1.6,2.6-3.5-1.1-3.5-2.6-3.5Z"/>
      <path class="cls-1" d="M351.3,53.7v-2.3h2.1v-4h2.3v4h3.5v2.3h-3.5v4.6c0,1.7.8,2.3,1.7,2.3s.9-.1,1.3-.3l.3,1.4c-.6.5-1.4.9-2.2.9-1.9,0-3.5-1.7-3.5-4.4v-4.5h-2.1Z"/>
      <path class="cls-1" d="M372,62.4l-.9-1.7c-.9,1.2-2.1,1.9-3.5,1.9-2.6,0-4.7-2.5-4.7-5.7,0-3.2,2.1-5.7,4.7-5.7s2.6.7,3.5,1.9l.9-1.7h.8v11h-.8ZM367.9,53.3c-1.4,0-2.6,1.6-2.6,3.5s1.1,3.5,2.6,3.5,2.6-1.6,2.6-3.5-1.1-3.5-2.6-3.5Z"/>
      <path class="cls-1" d="M382.8,50.7v-2.3h10.3v2.3h-4v11.7h-2.3v-11.7h-4Z"/>
      <path class="cls-1" d="M401.4,60.4c1.2,0,2.2-.7,2.8-1.3l1.2,1.5c-.9,1.1-2.5,2-4.2,2-3.5,0-5.6-2.5-5.6-5.7s2.2-5.8,5.4-5.8,5.4,2.6,4.8,6h-7.7c-.1,1.5,1,3.3,3.3,3.3ZM403.2,55.2c0-1.1-.8-1.9-2.3-1.9s-2.1.5-2.6,1.9h4.9Z"/>
      <path class="cls-1" d="M412.4,56v6.4h-2.3v-11h.8l.9,1.6c.8-1.1,2-1.8,3.4-1.8s.7,0,.7,0v4.5h-.8l-1.2-2.2c-.8.4-1.4,1.3-1.4,2.4Z"/>
      <path class="cls-1" d="M421.8,56v6.4h-2.3v-11h.8l.9,1.6c.8-1.1,2-1.8,3.4-1.8s.7,0,.7,0v4.5h-.8l-1.2-2.2c-.8.4-1.4,1.3-1.4,2.4Z"/>
      <path class="cls-1" d="M437.3,62.4l-.9-1.7c-.9,1.2-2.1,1.9-3.5,1.9-2.6,0-4.7-2.5-4.7-5.7,0-3.2,2.1-5.7,4.7-5.7s2.6.7,3.5,1.9l.9-1.7h.8v11h-.8ZM433.2,53.3c-1.4,0-2.6,1.6-2.6,3.5s1.1,3.5,2.6,3.5,2.6-1.6,2.6-3.5-1.1-3.5-2.6-3.5Z"/>
      <path class="cls-1" d="M449.7,54.5c-.5-.8-1.5-1.2-2.3-1.2-1.5,0-2.8,1.5-2.8,3.5s1.2,3.5,2.8,3.5,1.9-.3,2.3-1.2l1.4,1.2c-.9,1.3-2.3,2.2-3.9,2.2-2.8,0-5-2.5-5-5.7s2.2-5.7,5-5.7,3,.9,3.9,2.2l-1.4,1.2Z"/>
      <path class="cls-1" d="M459.7,60.4c1.2,0,2.2-.7,2.8-1.3l1.2,1.5c-.9,1.1-2.5,2-4.2,2-3.5,0-5.6-2.5-5.6-5.7s2.2-5.8,5.4-5.8,5.4,2.6,4.8,6h-7.7c-.1,1.5,1,3.3,3.3,3.3ZM461.6,55.2c0-1.1-.8-1.9-2.3-1.9s-2.1.5-2.6,1.9h4.9Z"/>
    </g>
  </g>
</svg>