<?xml version="1.0" encoding="UTF-8"?>
<svg id="katman_1" data-name="katman 1" xmlns="http://www.w3.org/2000/svg" viewBox="0 0 628.4 508.6">
  <defs>
    <style>
      .cls-1 {
        fill: #e888b7;
      }

      .cls-2 {
        fill: #e40578;
      }

      .cls-3 {
        fill: none;
      }

      .cls-3, .cls-4 {
        stroke: #e888b7;
        stroke-miterlimit: 10;
        stroke-width: 2px;
      }

      .cls-5 {
        fill: #e52629;
      }

      .cls-6 {
        fill: #dadada;
      }

      .cls-4, .cls-7 {
        fill: #fff;
      }

      .cls-8 {
        fill: #878787;
      }
    </style>
  </defs>
  <polygon class="cls-3" points="471.5 204.7 471.5 442.7 242 442.7 242 102.5 418.8 102.5 418.8 204.7 471.5 204.7"/>
  <polygon class="cls-3" points="564.2 101.4 564.2 204.7 418.8 204.7 418.8 128.2 511.4 128.2 511.4 101.4 564.2 101.4"/>
  <g>
    <path class="cls-1" d="M34.3,199.5H.5v-23.6h4.5v17.6h10.1v-15.2h4.5v15.2h14.6v6Z"/>
    <path class="cls-1" d="M34.3,170.1H.5v-6h29.1v-17.2h4.6v23.1Z"/>
    <path class="cls-1" d="M10.5,114.6h13.8c7.9,0,10.5,6.7,10.5,14.3s-2.6,14.3-10.5,14.3h-13.8c-7.9,0-10.5-6.7-10.5-14.3s2.6-14.3,10.5-14.3ZM11.8,137.2h11.2c5.6,0,7.1-3.4,7.1-8.4s-1.5-8.4-7.1-8.4h-11.2c-5.6,0-7.1,3.4-7.1,8.4s1.5,8.4,7.1,8.4Z"/>
    <path class="cls-1" d="M10.5,77.3h13.8c7.9,0,10.5,6.7,10.5,14.3s-2.6,14.3-10.5,14.3h-13.8c-7.9,0-10.5-6.7-10.5-14.3s2.6-14.3,10.5-14.3ZM11.8,100h11.2c5.6,0,7.1-3.4,7.1-8.4s-1.5-8.4-7.1-8.4h-11.2c-5.6,0-7.1,3.4-7.1,8.4s1.5,8.4,7.1,8.4Z"/>
    <path class="cls-1" d="M34.3,45.6l-14.2,8.4v8.6h14.2v6H.5v-17.8c0-4.8,3.3-8.4,7.5-8.4h4.6c3.2,0,6,2.2,7,5.4l14.6-8.8v6.5ZM9.2,48.4c-2.8,0-4.1,1.4-4.1,5.1v9.2h10.5v-9.2c0-3.7-1.3-5.1-4.1-5.1h-2.2Z"/>
    <path class="cls-1" d="M29.7,0h4.6v24.1h-4.3l-7-12.2c-1.4-2.5-2.4-4.3-5.1-4.3h-.7c-1.6,0-2.3.6-2.3,3.2s.6,11,.6,11h-4.8s-.6-7.7-.6-11.5S11.2,1.6,15.4,1.6h3c2.6,0,4.7,1.6,6.5,4.8l4.6,8.2h.2V0Z"/>
  </g>
  <rect class="cls-3" x="482" y="227.3" width="145.4" height="96.9"/>
  <rect class="cls-3" x="114.6" y="114.6" width="106.4" height="121.1"/>
  <rect class="cls-3" x="202.1" y="6.4" width="90.9" height="84.1"/>
  <rect class="cls-3" x="306.4" y="29" width="93.2" height="61.5"/>
  <g>
    <rect class="cls-8" x="291.3" y="471.2" width="83.8" height="30.4"/>
    <rect class="cls-8" x="389.7" y="471.3" width="83.8" height="30.4"/>
    <g>
      <polygon class="cls-1" points="483.1 488.4 483.4 490.8 497.5 488.8 497.3 486.5 483.1 488.4"/>
      <polygon class="cls-1" points="497.3 483 483.1 481.5 482.8 483.8 497 485.3 497.3 483"/>
      <polygon class="cls-1" points="483.8 477.1 497.4 481.3 498.1 479.1 484.5 474.8 483.8 477.1"/>
      <polygon class="cls-1" points="487.7 469 498.9 477.9 500.3 476 489.2 467.2 487.7 469"/>
      <polygon class="cls-1" points="493.3 463.5 501.6 475.1 503.5 473.8 495.3 462.2 493.3 463.5"/>
      <polygon class="cls-1" points="500.4 460 505.2 473.4 507.4 472.7 502.6 459.3 500.4 460"/>
      <polygon class="cls-1" points="531.4 477.5 530.8 475.2 516.9 478.6 517.5 480.9 531.4 477.5"/>
      <polygon class="cls-1" points="517.8 482.1 517.8 484.5 532.1 484.4 532.1 482 517.8 482.1"/>
      <polygon class="cls-1" points="517.4 488.4 531.4 491.1 531.9 488.8 517.9 486.1 517.4 488.4"/>
      <polygon class="cls-1" points="515.5 491.7 527.6 499.2 528.9 497.3 516.8 489.7 515.5 491.7"/>
      <polygon class="cls-1" points="512.7 494.2 522.1 504.9 523.9 503.4 514.4 492.7 512.7 494.2"/>
      <polygon class="cls-1" points="508.9 495.8 515.1 508.6 517.2 507.6 511 494.8 508.9 495.8"/>
    </g>
    <g>
      <path class="cls-5" d="M506.3,484.7v.4s-.5,0-.5,0v.2s.4,0,.4,0v.4s-.4,0-.4,0v.5s-.5,0-.5,0v-1.6s1,0,1,0Z"/>
      <path class="cls-5" d="M506.9,484.7v1.5s-.5,0-.5,0v-1.5s.5,0,.5,0Z"/>
      <path class="cls-5" d="M507.7,485.8h0s0,.5,0,.5h-.5s0-1.5,0-1.5h.7s.4,0,.4,0v.8s-.1,0-.1,0l.3.4-.4.2-.3-.5ZM507.6,485.4h.3s0-.3,0-.3h-.3s0,.3,0,.3Z"/>
      <path class="cls-5" d="M509.5,486.2h-1s0-1.5,0-1.5h0c0,0,.8,0,.8,0v.4s-.5,0-.5,0v.2s.4,0,.4,0v.4s-.4,0-.4,0v.2s.5,0,.5,0v.4Z"/>
      <path class="cls-5" d="M505.5,487.2h-.3s0-.4,0-.4h0s.3,0,.3,0h0c0,.1-.1.1-.1.1h0c0,0,.1,0,.1,0h0c0,.1-.1.1-.1.1h0c0,0,.2,0,.2,0h0Z"/>
      <path class="cls-5" d="M505.7,487h0s0,.2,0,.2h-.2s0-.2,0-.2h0s0,0,0,0v-.2s.1,0,.1,0h0c0,.1,0,.2,0,.2h0s0-.1,0-.1h.1s0,.2,0,.2h0s0,0,0,0v.2s-.1,0-.1,0h0c0-.1,0-.2,0-.2Z"/>
      <path class="cls-5" d="M506.3,486.8h-.1s0,.3,0,.3h-.1s0-.3,0-.3h-.1s0-.1,0-.1h.4s0,.1,0,.1Z"/>
      <path class="cls-5" d="M506.5,486.7v.5s-.1,0-.1,0v-.5s.1,0,.1,0Z"/>
      <path class="cls-5" d="M506.9,487.1h-.1s0-.1,0-.1h-.1c0-.1,0,.1,0,.1h-.1s0-.4,0-.4h.1s.1.1.1.1h0c0-.1.1-.2.1-.2v.5Z"/>
      <path class="cls-5" d="M507.1,486.7h.3s0,.1,0,.1h-.2v.2h0s0-.1,0-.1h.1s0,.3,0,.3h-.3s0-.4,0-.4h0Z"/>
      <path class="cls-5" d="M507.8,486.7v.4s0,0,0,0h-.3s0,0,0,0v-.4s.1,0,.1,0v.3s0,0,0,0v-.3s.1,0,.1,0Z"/>
      <path class="cls-5" d="M508,486.7v.5s-.1,0-.1,0v-.5s.1,0,.1,0Z"/>
      <path class="cls-5" d="M508.4,486.7h0c0,.1-.1.1-.1.1h0s.2.1.2.1v.2s-.3,0-.3,0v-.2s.2,0,.2,0h0s-.2-.1-.2-.1v-.2s.1,0,.1,0h.2Z"/>
      <path class="cls-5" d="M508.7,487h0s0,.2,0,.2h-.1v-.5s.1,0,.1,0v.2s0,0,0,0v-.2s.1,0,.1,0v.5s-.1,0-.1,0v-.2Z"/>
      <path class="cls-5" d="M509.2,487.2h-.3s0-.4,0-.4h0s.3,0,.3,0h0c0,.1-.1.1-.1.1h0c0,0,.1,0,.1,0h0c0,.1-.1.1-.1.1h0c0,0,.2,0,.2,0h0Z"/>
      <path class="cls-5" d="M509.4,487h0s0,.2,0,.2h-.1s0-.5,0-.5h.2s.1,0,.1,0v.3s0,0,0,0h0c0,.1-.1.2-.1.2v-.2ZM509.4,486.9h0s0-.1,0-.1h0s0,.1,0,.1Z"/>
    </g>
    <path class="cls-5" d="M503.4,490l3.9,2.9c0,0,.1,0,.2,0l3.9-2.9c0,0,0-.1,0-.2,0,0,0-.1-.2-.1h-1.7v-1.8c0,0,0-.2-.2-.2h-3.9c0,0-.2,0-.2.2v1.8h-1.7c0,0-.1,0-.2.1,0,0,0,.1,0,.2Z"/>
    <path class="cls-5" d="M514.4,479.4s0,0-.1,0,0,0,0,0l-3.1.7c0,0,0,0-.1,0,0,0,0,0,0,.1h-3.4c0-.1,0-.3,0-.4,0-.3-.1-.6-.3-.8-.2-.2-.5-.3-.8-.3s-.6.1-.8.3c-.2.2-.3.5-.3.8s0,.4.2.6c-.3,0-.5.2-.8.4-.2.2-.4.3-.6.5-.2.2-.3.3-.4.5-.1.2-.2.3-.3.4,0,0,0,.1-.1.2,0,.1,0,.2,0,.3,0,.1.1.2.2.3,0,0,.1,0,.2,0,.2,0,.3,0,.4-.2,0,0,0,0,0-.2,0,0,.1-.2.3-.4.1-.2.3-.3.5-.5.2-.1.4-.3.6-.4.3-.1.5-.2.8-.2h.2v.8c-.5.1-.8.4-1.1.8-.3.4-.4.8-.4,1.3h0c0,0,4.4,0,4.4,0h0c0-.6-.2-1.1-.5-1.5-.3-.4-.8-.7-1.3-.8v-.7h3.1c0,0,0,0,0,.1,0,0,0,0,.1,0l3.1.7s0,0,0,0c0,0,.1,0,.1,0,0,0,0,0,0-.2v-2.2c0,0,0-.1,0-.2ZM506.9,480.2c0,0-.2.1-.3.1s-.2,0-.3-.1c0,0-.1-.2-.1-.3s0-.2.1-.3c0,0,.2-.1.3-.1s.2,0,.3.1c0,0,.1.2.1.3s0,.2-.1.3Z"/>
    <polygon class="cls-1" points="264.1 492.3 264.1 482.8 251.3 482.8 251.3 473.2 238.5 473.2 238.5 463.5 225.8 463.5 225.8 453.8 213 453.8 213 463.5 213 502 238.5 502 251.3 502 263.9 502 276.7 502 276.7 492.3 264.1 492.3"/>
  </g>
  <g id="gltsc03">
    <g id="gltsc03-2" data-name="gltsc03">
      <rect class="cls-1" x="98.4" y="348.2" width="123.4" height="94.3"/>
    </g>
    <g>
      <path class="cls-6" d="M134.6,397h-1.6v-1.6h3.1v4.7h-.5l-.3-.6c-.6.5-1.3.7-2,.7-2.3,0-3.8-2.2-3.8-4.8s1.5-4.8,3.8-4.8,2.3.7,2.9,1.8l-.9.9c-.6-.8-1.2-1.1-1.9-1.1-1.2,0-2.2,1.2-2.2,3.3s1,3.3,2.2,3.3.7-.1,1.1-.4v-1.3Z"/>
      <path class="cls-6" d="M140.7,398.5h2.6v1.6h-4.2v-9.3h1.6v7.8Z"/>
      <path class="cls-6" d="M144.2,392.3v-1.6h6.8v1.6h-2.6v7.8h-1.6v-7.8h-2.6Z"/>
      <path class="cls-6" d="M159.9,400.2c-1,0-1.8-.3-2.6-1l.2-1.4c.9.5,1.7.8,2.5.8s1.6-.4,1.6-1.1c0-1.8-4.4-1.1-4.4-4.2s1.4-2.7,3.1-2.7,1.8.4,2.7,1.1l-.5,1.2c-.7-.4-1.4-.8-2.2-.8s-1.5.5-1.5,1.1c0,1.7,4.4,1.2,4.4,4.1s-1.6,2.9-3.3,2.9Z"/>
      <path class="cls-6" d="M169.3,390.6c1.1,0,2.4.7,3,1.8l-1,.9c-.6-.8-1.3-1.1-2-1.1-1.2,0-2.3,1.2-2.3,3.3s1.1,3.3,2.3,3.3,1.3-.3,2-1.1l1,.9c-.7,1.1-1.9,1.8-3,1.8-2.4,0-3.9-2.2-3.9-4.8s1.6-4.8,3.9-4.8Z"/>
      <path class="cls-6" d="M178,390.6c2.1,0,3.3,2.2,3.3,4.8s-1.2,4.8-3.3,4.8-3.3-2.2-3.3-4.8,1.2-4.8,3.3-4.8ZM178,398.7c1.1,0,1.6-1.5,1.6-3.3s-.6-3.3-1.6-3.3-1.6,1.5-1.6,3.3.6,3.3,1.6,3.3Z"/>
      <path class="cls-6" d="M190.5,397.1c0,1.7-1.4,3.1-3.1,3.1s-2.6-.9-3-2.2l1.5-.5c.2.6.8,1.2,1.5,1.2s1.6-.7,1.6-1.6-.7-1.6-1.6-1.6h-1.2v-.5l2.1-2.8h-2.5l-.8,1.2h-.5v-2.8h6.1v.8l-2,2.7c1.1.5,1.9,1.5,1.9,2.9Z"/>
    </g>
    <g>
      <rect class="cls-1" x="212.5" y="346.9" width="9.6" height="27.7"/>
      <path class="cls-7" d="M221.1,347.9v25.7h-7.6v-25.7h7.6M223.1,345.9h-11.6v29.7h11.6v-29.7h0Z"/>
    </g>
  </g>
  <g id="gltsc01">
    <g id="gltsc01-2" data-name="gltsc01">
      <rect class="cls-2" x="61" y="246.6" width="160.8" height="91.6"/>
    </g>
    <g>
      <path class="cls-6" d="M116.2,294.2h-1.6v-1.6h3.1v4.7h-.5l-.3-.6c-.6.5-1.3.7-2,.7-2.3,0-3.8-2.2-3.8-4.8s1.5-4.8,3.8-4.8,2.3.7,2.9,1.8l-.9.9c-.6-.8-1.2-1.1-1.9-1.1-1.2,0-2.2,1.2-2.2,3.3s1,3.3,2.2,3.3.7-.1,1.1-.4v-1.3Z"/>
      <path class="cls-6" d="M122.3,295.7h2.6v1.6h-4.2v-9.3h1.6v7.8Z"/>
      <path class="cls-6" d="M125.9,289.5v-1.6h6.8v1.6h-2.6v7.8h-1.6v-7.8h-2.6Z"/>
      <path class="cls-6" d="M141.5,297.5c-1,0-1.8-.3-2.6-1l.2-1.4c.9.5,1.7.8,2.5.8s1.6-.4,1.6-1.1c0-1.8-4.4-1.1-4.4-4.2s1.4-2.7,3.1-2.7,1.8.4,2.7,1.1l-.5,1.2c-.7-.4-1.4-.8-2.2-.8s-1.5.5-1.5,1.1c0,1.7,4.4,1.2,4.4,4.1s-1.6,2.9-3.3,2.9Z"/>
      <path class="cls-6" d="M151,287.8c1.1,0,2.4.7,3,1.8l-1,.9c-.6-.8-1.3-1.1-2-1.1-1.2,0-2.3,1.2-2.3,3.3s1.1,3.3,2.3,3.3,1.3-.3,2-1.1l1,.9c-.7,1.1-1.9,1.8-3,1.8-2.4,0-3.9-2.2-3.9-4.8s1.6-4.8,3.9-4.8Z"/>
      <path class="cls-6" d="M159.6,287.8c2.1,0,3.3,2.2,3.3,4.8s-1.2,4.8-3.3,4.8-3.3-2.2-3.3-4.8,1.2-4.8,3.3-4.8ZM159.6,295.9c1.1,0,1.6-1.5,1.6-3.3s-.6-3.3-1.6-3.3-1.6,1.5-1.6,3.3.6,3.3,1.6,3.3Z"/>
      <path class="cls-6" d="M168.2,291l-1.7.6-.4-.6,3.1-3.1h.5v7.9h1.6v1.6h-4.7v-1.6h1.6v-4.8Z"/>
    </g>
  </g>
  <g>
    <rect class="cls-2" x="213.2" y="253.6" width="9.6" height="27.7"/>
    <path class="cls-7" d="M221.8,254.6v25.7h-7.6v-25.7h7.6M223.8,252.6h-11.6v29.7h11.6v-29.7h0Z"/>
  </g>
  <g id="gltbug">
    <g id="gltbug-2" data-name="gltbug">
      <rect class="cls-1" x="481.9" y="347.8" width="145.4" height="96.8"/>
    </g>
    <g>
      <path class="cls-6" d="M533,397.7h-1.6v-1.6h3.1v4.7h-.5l-.3-.6c-.6.5-1.3.7-2,.7-2.3,0-3.8-2.2-3.8-4.8s1.5-4.8,3.8-4.8,2.3.7,2.9,1.8l-.9.9c-.6-.8-1.2-1.1-1.9-1.1-1.2,0-2.2,1.2-2.2,3.3s1,3.3,2.2,3.3.7-.1,1.1-.4v-1.3Z"/>
      <path class="cls-6" d="M539,399.3h2.6v1.6h-4.2v-9.3h1.6v7.8Z"/>
      <path class="cls-6" d="M542.6,393v-1.6h6.8v1.6h-2.6v7.8h-1.6v-7.8h-2.6Z"/>
      <path class="cls-6" d="M556.1,391.5h3.3c1.4,0,2.5,1.1,2.5,2.5s-.2,1.1-.5,1.5c.7.5,1.2,1.3,1.2,2.4,0,1.6-1.3,3-3,3h-3.4v-9.3ZM557.7,394.9h1.7c.5,0,.9-.4.9-.9s-.4-.9-.9-.9h-1.7v1.9ZM557.7,399.3h1.9c.8,0,1.4-.6,1.4-1.4s-.6-1.4-1.4-1.4h-1.9v2.8Z"/>
      <path class="cls-6" d="M567,391.5v5.9c0,1.4.7,2,1.6,2s1.6-.7,1.6-2v-5.9h1.6v5.9c0,2.3-1.4,3.6-3.1,3.6s-3.1-1.3-3.1-3.6v-5.9h1.6Z"/>
      <path class="cls-6" d="M579.6,397.7h-1.6v-1.6h3.1v4.7h-.5l-.3-.6c-.6.5-1.3.7-2,.7-2.3,0-3.8-2.2-3.8-4.8s1.5-4.8,3.8-4.8,2.3.7,2.9,1.8l-.9.9c-.6-.8-1.2-1.1-1.9-1.1-1.2,0-2.2,1.2-2.2,3.3s1,3.3,2.2,3.3.7-.1,1.1-.4v-1.3Z"/>
    </g>
    <g>
      <rect class="cls-1" x="480.9" y="346.8" width="9.6" height="27.7"/>
      <path class="cls-7" d="M489.6,347.8v25.7h-7.6v-25.7h7.6M491.6,345.8h-11.6v29.7h11.6v-29.7h0Z"/>
    </g>
  </g>
  <rect class="cls-3" x="348.2" y="73.9" width="7.6" height="25.7" transform="translate(438.7 -265.3) rotate(90)"/>
  <rect class="cls-3" x="251" y="73.9" width="7.6" height="25.7" transform="translate(341.6 -168.1) rotate(90)"/>
  <rect class="cls-3" x="213.3" y="114.6" width="7.6" height="25.7" transform="translate(434.2 255) rotate(180)"/>
  <rect class="cls-4" x="482.2" y="298.5" width="7.6" height="25.7"/>
  <rect class="cls-4" x="418.8" y="196.9" width="25.7" height="7.6"/>
  <rect class="cls-3" x="418.8" y="52.9" width="92.6" height="75.3"/>
  <rect class="cls-4" x="418.8" y="102.4" width="7.6" height="25.7"/>
</svg>