<?xml version="1.0" encoding="UTF-8"?>
<svg id="katman_1" data-name="katman 1" xmlns="http://www.w3.org/2000/svg" viewBox="0 0 628 554.5">
  <defs>
    <style>
      .cls-1, .cls-2, .cls-3, .cls-4, .cls-5 {
        stroke: #764695;
        stroke-miterlimit: 10;
      }

      .cls-1, .cls-4 {
        stroke-width: 2px;
      }

      .cls-1, .cls-6 {
        fill: #fff;
      }

      .cls-2 {
        stroke-width: 3.4px;
      }

      .cls-2, .cls-3, .cls-4, .cls-5 {
        fill: none;
      }

      .cls-3 {
        stroke-width: 4px;
      }

      .cls-7 {
        fill: #4d2583;
      }

      .cls-8 {
        fill: #dadada;
      }

      .cls-9 {
        fill: #868686;
      }

      .cls-10 {
        fill: #fffefe;
      }

      .cls-5 {
        stroke-width: 1.8px;
      }

      .cls-11 {
        fill: #e42829;
      }

      .cls-12 {
        fill: #764695;
      }
    </style>
  </defs>
  <rect class="cls-3" x="293.6" y="148.5" width="177.5" height="340.2"/>
  <rect class="cls-4" x="483.8" y="358.9" width="83.1" height="60.5"/>
  <rect class="cls-4" x="483.8" y="429.2" width="83.1" height="60.4"/>
  <rect class="cls-5" x="144.6" y="442.4" width="106.4" height="47.8"/>
  <g>
    <path class="cls-12" d="M27.4,207.6H.4v-18.9h3.6v14.1h8.1v-12.2h3.6v12.2h11.7v4.8Z"/>
    <path class="cls-12" d="M27.4,184H.4v-4.8h23.3v-13.7h3.7v18.5Z"/>
    <path class="cls-12" d="M8.4,139.5h11c6.3,0,8.4,5.3,8.4,11.5s-2.1,11.5-8.4,11.5h-11c-6.3,0-8.4-5.4-8.4-11.5s2.1-11.5,8.4-11.5ZM9.4,157.7h9c4.5,0,5.7-2.8,5.7-6.7s-1.2-6.7-5.7-6.7h-9c-4.5,0-5.7,2.8-5.7,6.7s1.2,6.7,5.7,6.7Z"/>
    <path class="cls-12" d="M8.4,109.7h11c6.3,0,8.4,5.3,8.4,11.5s-2.1,11.5-8.4,11.5h-11c-6.3,0-8.4-5.4-8.4-11.5s2.1-11.5,8.4-11.5ZM9.4,127.9h9c4.5,0,5.7-2.8,5.7-6.7s-1.2-6.7-5.7-6.7h-9c-4.5,0-5.7,2.8-5.7,6.7s1.2,6.7,5.7,6.7Z"/>
    <path class="cls-12" d="M27.4,84.4l-11.3,6.7v6.9h11.3v4.8H.4v-14.2c0-3.9,2.7-6.7,6-6.7h3.7c2.6,0,4.8,1.7,5.6,4.3l11.7-7v5.2ZM7.4,86.6c-2.2,0-3.3,1.1-3.3,4.1v7.3h8.4v-7.3c0-2.9-1.1-4.1-3.3-4.1h-1.8Z"/>
    <path class="cls-12" d="M17.2,45.5h4.2c5.2,0,6.5,5.1,6.5,9.9s-1.3,9.9-6.5,9.9h-13.4c-6.3,0-8-4-8-10.2s.3-5.8.5-8.3h3.8s-.6,6.5-.6,7.9c0,5.3,1.7,5.9,4.6,5.9h2.8c-.6-1.6-.8-2.9-.8-5.8,0-7,2.8-9.1,6.9-9.1ZM20.7,60.4c2.6,0,3.6-1.8,3.6-5.1s-1-5.1-3.6-5.1h-3c-2.7,0-3.6,1.1-3.6,4.4s.8,5.8.8,5.8h5.8Z"/>
  </g>
  <rect class="cls-4" x="169.9" y="1" width="122.9" height="60.5"/>
  <rect class="cls-4" x="169.9" y="73.9" width="104.4" height="60.4"/>
  <rect class="cls-4" x="464.7" y="13.6" width="106.3" height="47.9"/>
  <rect class="cls-2" x="293.7" y="148.5" width="175.2" height="83.6"/>
  <rect class="cls-1" x="244.7" y="442.5" width="6.1" height="17.5"/>
  <rect class="cls-1" x="263.7" y="424.9" width="6.1" height="17.5" transform="translate(700.4 166.9) rotate(90)"/>
  <rect class="cls-1" x="268" y="74" width="6.1" height="17.5"/>
  <rect class="cls-1" x="280.9" y="49.7" width="6.1" height="17.5" transform="translate(342.5 -225.5) rotate(90)"/>
  <rect class="cls-1" x="294.8" y="192.2" width="6.1" height="17.5"/>
  <rect class="cls-1" x="483.8" y="401.9" width="6.1" height="17.5"/>
  <rect class="cls-1" x="483.8" y="429.2" width="6.1" height="17.5"/>
  <g id="gltanim">
    <g id="gltanim-2" data-name="gltanim">
      <rect class="cls-12" x="482.5" y="179" width="145.5" height="159.3"/>
      <g>
        <path class="cls-8" d="M558.4,197.3h-1.6v-1.6h3.1v4.7h-.5l-.3-.6c-.6.5-1.3.7-2,.7-2.3,0-3.8-2.2-3.8-4.8s1.5-4.8,3.8-4.8,2.3.7,2.9,1.8l-.9.9c-.6-.8-1.2-1.1-1.9-1.1-1.2,0-2.2,1.2-2.2,3.3s1,3.3,2.2,3.3.7-.1,1.1-.4v-1.3Z"/>
        <path class="cls-8" d="M564.5,198.9h2.6v1.6h-4.2v-9.3h1.6v7.8Z"/>
        <path class="cls-8" d="M568,192.6v-1.6h6.8v1.6h-2.6v7.8h-1.6v-7.8h-2.6Z"/>
        <path class="cls-8" d="M583.1,200.4h-1.6v-5.9c0-2.3,1.4-3.6,3.1-3.6s3.1,1.3,3.1,3.6v5.9h-1.6v-3.1h-3.1v3.1ZM586.3,194.5c0-1.4-.7-2-1.6-2s-1.6.7-1.6,2v1.2h3.1v-1.2Z"/>
        <path class="cls-8" d="M595.8,191.1h1.4v9.3h-1.2l-3.7-6v6h-1.4v-9.3h1.2l3.7,6v-6Z"/>
        <path class="cls-8" d="M601.8,192.6h-1.6v-1.6h4.7v1.6h-1.6v6.2h1.6v1.6h-4.7v-1.6h1.6v-6.2Z"/>
        <path class="cls-8" d="M614.3,200.4v-5.6l-2.3,4.2h-.3l-2.3-4.2v5.6h-1.5v-9.3h1.3l2.6,4.9,2.6-4.9h1.3v9.3h-1.5Z"/>
      </g>
    </g>
    <g>
      <path class="cls-6" d="M510.4,300.9h-2.3v-8.9c0-3.5,2.1-5.4,4.7-5.4s4.7,1.9,4.7,5.4v8.9h-2.3v-4.7h-4.7v4.7ZM515,292c0-2.1-1.1-3-2.4-3s-2.3,1-2.3,3v1.9h4.7v-1.9Z"/>
      <path class="cls-6" d="M529.3,300.9v-5.9c0-2-1.1-3-2.4-3s-2.6,1.2-2.6,2.6v6.4h-2.3v-11h.8l.9,1.6c.8-1.1,2.2-1.8,3.6-1.8,2.4,0,4.3,2,4.3,5.2v6h-2.3Z"/>
      <path class="cls-6" d="M538.6,285.7c0,.8-.6,1.4-1.4,1.4s-1.4-.6-1.4-1.4.6-1.4,1.4-1.4,1.4.6,1.4,1.4ZM536,289.9h2.3v11h-2.3v-11Z"/>
      <path class="cls-6" d="M550,300.9h-2.3v-7.4c0-1-.5-1.5-1.2-1.5s-1.2.6-1.2,1.3v7.6h-2.3v-11h.8l.6,1.1c.5-.8,1.4-1.3,2.4-1.3s1.8.4,2.4,1.2c.5-.7,1.4-1.2,2.3-1.2,1.8,0,3.1,1.5,3.1,3.8v7.3h-2.3v-7.4c0-1-.5-1.5-1.2-1.5s-1.2.6-1.2,1.3v7.6Z"/>
      <path class="cls-6" d="M567.9,300.9l-.9-1.7c-.9,1.2-2.1,1.9-3.5,1.9-2.6,0-4.7-2.5-4.7-5.7,0-3.2,2.1-5.7,4.7-5.7s2.6.7,3.5,1.9l.9-1.7h.8v11h-.8ZM563.8,291.9c-1.4,0-2.6,1.6-2.6,3.5s1.1,3.5,2.6,3.5,2.6-1.6,2.6-3.5-1.1-3.5-2.6-3.5Z"/>
      <path class="cls-6" d="M572.9,292.3v-2.3h2.1v-4h2.3v4h3.5v2.3h-3.5v4.6c0,1.7.8,2.3,1.7,2.3s.9-.1,1.3-.3l.3,1.4c-.6.5-1.4.9-2.2.9-1.9,0-3.5-1.7-3.5-4.4v-4.5h-2.1Z"/>
      <path class="cls-6" d="M587.6,285.7c0,.8-.6,1.4-1.4,1.4s-1.4-.6-1.4-1.4.6-1.4,1.4-1.4,1.4.6,1.4,1.4ZM585.1,289.9h2.3v11h-2.3v-11Z"/>
      <path class="cls-6" d="M601.9,295.4c0,3.2-2.3,5.7-5.2,5.7s-5.2-2.5-5.2-5.7,2.3-5.7,5.2-5.7,5.2,2.5,5.2,5.7ZM593.9,295.4c0,1.9,1.2,3.5,2.8,3.5s2.8-1.6,2.8-3.5-1.2-3.5-2.8-3.5-2.8,1.6-2.8,3.5Z"/>
      <path class="cls-6" d="M613.3,300.9v-5.9c0-2-1.1-3-2.4-3s-2.6,1.2-2.6,2.6v6.4h-2.3v-11h.8l.9,1.6c.8-1.1,2.2-1.8,3.6-1.8,2.4,0,4.3,2,4.3,5.2v6h-2.3Z"/>
      <path class="cls-6" d="M550.9,326.3c-1.5,0-2.6-.5-3.9-1.5l.3-2.1c1.4.8,2.6,1.2,3.8,1.2s2.4-.6,2.4-1.7c0-2.7-6.6-1.6-6.6-6.3s2.1-4.1,4.6-4.1,2.6.5,4.1,1.7l-.7,1.8c-1-.7-2.2-1.2-3.3-1.2s-2.3.8-2.3,1.6c0,2.5,6.6,1.9,6.6,6.2s-2.4,4.4-4.9,4.4Z"/>
      <path class="cls-6" d="M558.9,317.5v-2.3h2.1v-4h2.3v4h3.5v2.3h-3.5v4.6c0,1.7.8,2.3,1.7,2.3s.9-.1,1.3-.3l.3,1.4c-.6.5-1.4.9-2.2.9-1.9,0-3.5-1.7-3.5-4.4v-4.5h-2.1Z"/>
      <path class="cls-6" d="M579.6,326.1l-.9-1.6c-.8,1.1-2.2,1.8-3.6,1.8-2.4,0-4.3-2-4.3-5.2v-6h2.3v5.9c0,2,1.1,3,2.3,3s2.6-1.1,2.6-2.6v-6.4h2.3v11h-.8Z"/>
      <path class="cls-6" d="M593.6,326.1l-.9-1.7c-.9,1.2-2.1,1.9-3.5,1.9-2.6,0-4.7-2.5-4.7-5.7s2.1-5.7,4.7-5.7,2.1.4,2.8,1.1v-6.3h2.4v16.3h-.8ZM589.5,317.1c-1.4,0-2.6,1.6-2.6,3.5s1.1,3.5,2.6,3.5,2.6-1.6,2.6-3.5-1.1-3.5-2.6-3.5Z"/>
      <path class="cls-6" d="M601.6,310.9c0,.8-.6,1.4-1.4,1.4s-1.4-.6-1.4-1.4.6-1.4,1.4-1.4,1.4.6,1.4,1.4ZM599.1,315.1h2.3v11h-2.3v-11Z"/>
      <path class="cls-6" d="M615.9,320.6c0,3.2-2.3,5.7-5.2,5.7s-5.2-2.5-5.2-5.7,2.3-5.7,5.2-5.7,5.2,2.5,5.2,5.7ZM607.9,320.6c0,1.9,1.2,3.5,2.8,3.5s2.8-1.6,2.8-3.5-1.2-3.5-2.8-3.5-2.8,1.6-2.8,3.5Z"/>
    </g>
    <g>
      <rect class="cls-12" x="481.5" y="309.2" width="8.4" height="29.7"/>
      <path class="cls-6" d="M488.9,310.2v27.7h-6.4v-27.7h6.4M490.9,308.2h-10.4v31.7h10.4v-31.7h0Z"/>
    </g>
  </g>
  <g id="gltbasic">
    <g id="gltbasic-2" data-name="gltbasic">
      <rect class="cls-12" x="118.2" y="155.5" width="157" height="219.5"/>
      <g>
        <path class="cls-8" d="M135.1,173.9h-1.6v-1.6h3.1v4.7h-.5l-.3-.6c-.6.5-1.3.7-2,.7-2.3,0-3.8-2.2-3.8-4.8s1.5-4.8,3.8-4.8,2.3.7,2.9,1.8l-.9.9c-.6-.8-1.2-1.1-1.9-1.1-1.2,0-2.2,1.2-2.2,3.3s1,3.3,2.2,3.3.7-.1,1.1-.4v-1.3Z"/>
        <path class="cls-8" d="M141.2,175.5h2.6v1.6h-4.2v-9.3h1.6v7.8Z"/>
        <path class="cls-8" d="M144.8,169.2v-1.6h6.8v1.6h-2.6v7.8h-1.6v-7.8h-2.6Z"/>
        <path class="cls-8" d="M158.3,167.7h3.3c1.4,0,2.5,1.1,2.5,2.5s-.2,1.1-.5,1.5c.7.5,1.2,1.3,1.2,2.4,0,1.6-1.3,3-3,3h-3.4v-9.3ZM159.9,171.1h1.7c.5,0,.9-.4.9-.9s-.4-.9-.9-.9h-1.7v1.9ZM159.9,175.5h1.9c.8,0,1.4-.6,1.4-1.4s-.6-1.4-1.4-1.4h-1.9v2.8Z"/>
        <path class="cls-8" d="M169.2,177h-1.6v-5.9c0-2.3,1.4-3.6,3.1-3.6s3.1,1.3,3.1,3.6v5.9h-1.6v-3.1h-3.1v3.1ZM172.3,171.1c0-1.4-.7-2-1.6-2s-1.6.7-1.6,2v1.2h3.1v-1.2Z"/>
        <path class="cls-8" d="M179.1,177.2c-1,0-1.8-.3-2.6-1l.2-1.4c.9.5,1.7.8,2.5.8s1.6-.4,1.6-1.1c0-1.8-4.4-1.1-4.4-4.2s1.4-2.7,3.1-2.7,1.8.4,2.7,1.1l-.5,1.2c-.7-.4-1.4-.8-2.2-.8s-1.5.5-1.5,1.1c0,1.7,4.4,1.2,4.4,4.1s-1.6,2.9-3.3,2.9Z"/>
        <path class="cls-8" d="M186.3,169.2h-1.6v-1.6h4.7v1.6h-1.6v6.2h1.6v1.6h-4.7v-1.6h1.6v-6.2Z"/>
        <path class="cls-8" d="M196.3,167.5c1.1,0,2.4.7,3,1.8l-1,.9c-.6-.8-1.3-1.1-2-1.1-1.2,0-2.3,1.2-2.3,3.3s1.1,3.3,2.3,3.3,1.3-.3,2-1.1l1,.9c-.7,1.1-1.9,1.8-3,1.8-2.4,0-3.9-2.2-3.9-4.8s1.6-4.8,3.9-4.8Z"/>
      </g>
    </g>
    <g>
      <rect class="cls-12" x="267.8" y="218.7" width="8.4" height="29.7"/>
      <path class="cls-6" d="M275.2,219.7v27.7h-6.4v-27.7h6.4M277.2,217.7h-10.4v31.7h10.4v-31.7h0Z"/>
    </g>
    <g>
      <rect class="cls-12" x="267.8" y="346.3" width="8.4" height="29.7"/>
      <path class="cls-6" d="M275.2,347.3v27.7h-6.4v-27.7h6.4M277.2,345.3h-10.4v31.7h10.4v-31.7h0Z"/>
    </g>
    <g>
      <path class="cls-6" d="M131.1,298.4h4.9c2.1,0,3.7,1.7,3.7,3.7s-.3,1.7-.8,2.3c1.1.8,1.8,2,1.8,3.5,0,2.5-2,4.4-4.4,4.4h-5.1v-14ZM133.4,303.5h2.6c.8,0,1.4-.6,1.4-1.4s-.6-1.4-1.4-1.4h-2.6v2.8ZM133.4,310.1h2.8c1.2,0,2.1-.9,2.1-2.1s-.9-2.1-2.1-2.1h-2.8v4.2Z"/>
      <path class="cls-6" d="M153.6,312.4l-.9-1.7c-.9,1.2-2.1,1.9-3.5,1.9-2.6,0-4.7-2.5-4.7-5.7,0-3.2,2.1-5.7,4.7-5.7s2.6.7,3.5,1.9l.9-1.7h.8v11h-.8ZM149.5,303.4c-1.4,0-2.6,1.6-2.6,3.5s1.1,3.5,2.6,3.5,2.6-1.6,2.6-3.5-1.1-3.5-2.6-3.5Z"/>
      <path class="cls-6" d="M162.4,312.7c-1.3,0-2.3-.4-3.5-1.3l.3-2c1.4.7,2.4,1.1,3.3,1.1s1.8-.4,1.8-1.2c0-1.9-5.5-1.2-5.5-4.9s1.8-3.3,4-3.3,2.3.4,3.6,1.4l-.7,1.7c-1-.6-2-1-2.9-1s-1.7.5-1.7,1.1c0,1.7,5.5,1.3,5.5,4.8s-2.1,3.5-4.3,3.5Z"/>
      <path class="cls-6" d="M173.3,297.2c0,.8-.6,1.4-1.4,1.4s-1.4-.6-1.4-1.4.6-1.4,1.4-1.4,1.4.6,1.4,1.4ZM170.7,301.4h2.3v11h-2.3v-11Z"/>
      <path class="cls-6" d="M184.7,304.6c-.5-.8-1.5-1.2-2.3-1.2-1.5,0-2.8,1.5-2.8,3.5s1.2,3.5,2.8,3.5,1.9-.3,2.3-1.2l1.4,1.2c-.9,1.3-2.3,2.2-3.9,2.2-2.8,0-5-2.5-5-5.7s2.2-5.7,5-5.7,3,.9,3.9,2.2l-1.4,1.2Z"/>
      <path class="cls-6" d="M131.1,323.6h3.3c3.5,0,6.3,3.1,6.3,7s-2.8,7-6.3,7h-3.3v-14ZM133.4,335.3h.9c2,0,3.7-2.1,3.7-4.7s-1.7-4.7-3.7-4.7h-.9v9.3Z"/>
      <path class="cls-6" d="M150.3,335.6c1.2,0,2.2-.7,2.8-1.3l1.2,1.5c-.9,1.1-2.5,2-4.2,2-3.5,0-5.6-2.5-5.6-5.7s2.2-5.8,5.4-5.8,5.4,2.6,4.8,6h-7.7c-.1,1.5,1,3.3,3.3,3.3ZM152.2,330.5c0-1.1-.8-1.9-2.3-1.9s-2.1.5-2.6,1.9h4.9Z"/>
      <path class="cls-6" d="M162.4,337.9c-1.3,0-2.3-.4-3.5-1.3l.3-2c1.4.7,2.4,1.1,3.3,1.1s1.8-.4,1.8-1.2c0-1.9-5.5-1.2-5.5-4.9s1.8-3.3,4-3.3,2.3.4,3.6,1.4l-.7,1.7c-1-.6-2-1-2.9-1s-1.7.5-1.7,1.1c0,1.7,5.5,1.3,5.5,4.8s-2.1,3.5-4.3,3.5Z"/>
      <path class="cls-6" d="M173.3,322.4c0,.8-.6,1.4-1.4,1.4s-1.4-.6-1.4-1.4.6-1.4,1.4-1.4,1.4.6,1.4,1.4ZM170.7,326.6h2.3v11h-2.3v-11Z"/>
      <path class="cls-6" d="M182.1,342.3c-1.9,0-3.5-1.1-4.3-2.3l1.3-1.3c.9.9,1.8,1.5,3.2,1.5s2.5-1,2.5-3.1v-.4c-.8.7-1.8,1.2-2.9,1.2-2.6,0-4.7-2.5-4.7-5.7s2.1-5.7,4.7-5.7,2.6.7,3.5,1.9l.9-1.7h.8v10.2c0,3.5-2.2,5.4-5,5.4ZM182.2,328.6c-1.4,0-2.6,1.6-2.6,3.5s1.1,3.5,2.6,3.5,2.6-1.6,2.6-3.5-1.1-3.5-2.6-3.5Z"/>
      <path class="cls-6" d="M199,337.6v-5.9c0-2-1.1-3-2.4-3s-2.6,1.2-2.6,2.6v6.4h-2.3v-11h.8l.9,1.6c.8-1.1,2.2-1.8,3.6-1.8,2.4,0,4.3,2,4.3,5.2v6h-2.3Z"/>
      <path class="cls-6" d="M134.3,363c-1.5,0-2.6-.5-3.9-1.5l.3-2.1c1.4.8,2.6,1.2,3.8,1.2s2.4-.6,2.4-1.7c0-2.7-6.6-1.6-6.6-6.3s2.1-4.1,4.6-4.1,2.6.5,4.1,1.7l-.7,1.8c-1-.7-2.2-1.2-3.3-1.2s-2.3.8-2.3,1.6c0,2.5,6.6,1.9,6.6,6.2s-2.4,4.4-4.9,4.4Z"/>
      <path class="cls-6" d="M142.3,354.2v-2.3h2.1v-4h2.3v4h3.5v2.3h-3.5v4.6c0,1.7.8,2.3,1.7,2.3s.9-.1,1.3-.3l.3,1.4c-.6.5-1.4.9-2.2.9-1.9,0-3.5-1.7-3.5-4.4v-4.5h-2.1Z"/>
      <path class="cls-6" d="M163,362.8l-.9-1.6c-.8,1.1-2.2,1.8-3.6,1.8-2.4,0-4.3-2-4.3-5.2v-6h2.3v5.9c0,2,1.1,3,2.3,3s2.6-1.1,2.6-2.6v-6.4h2.3v11h-.8Z"/>
      <path class="cls-6" d="M177,362.8l-.9-1.7c-.9,1.2-2.1,1.9-3.5,1.9-2.6,0-4.7-2.5-4.7-5.7s2.1-5.7,4.7-5.7,2.1.4,2.8,1.1v-6.3h2.4v16.3h-.8ZM172.9,353.8c-1.4,0-2.6,1.6-2.6,3.5s1.1,3.5,2.6,3.5,2.6-1.6,2.6-3.5-1.1-3.5-2.6-3.5Z"/>
      <path class="cls-6" d="M185,347.6c0,.8-.6,1.4-1.4,1.4s-1.4-.6-1.4-1.4.6-1.4,1.4-1.4,1.4.6,1.4,1.4ZM182.4,351.8h2.3v11h-2.3v-11Z"/>
      <path class="cls-6" d="M199.3,357.3c0,3.2-2.3,5.7-5.2,5.7s-5.2-2.5-5.2-5.7,2.3-5.7,5.2-5.7,5.2,2.5,5.2,5.7ZM191.3,357.3c0,1.9,1.2,3.5,2.8,3.5s2.8-1.6,2.8-3.5-1.2-3.5-2.8-3.5-2.8,1.6-2.8,3.5Z"/>
    </g>
  </g>
  <g>
    <path class="cls-10" d="M501.8,455.2c2.7,0,4.2,2.8,4.2,6.2s-1.5,6.2-4.2,6.2-4.2-2.8-4.2-6.2,1.5-6.2,4.2-6.2ZM501.8,465.6c1.3,0,2.1-1.9,2.1-4.2s-.7-4.2-2.1-4.2-2.1,1.9-2.1,4.2.7,4.2,2.1,4.2Z"/>
    <path class="cls-10" d="M516.7,455.6c-.4-.2-.9-.4-1.5-.4s-1.5.5-1.5,1.9v.8h2.8v2h-2.8v7.4h-2v-7.4h-2.2v-2h2.2v-.9c0-2.3,1.3-3.7,3-3.7s1.9.3,2.4.6l-.4,1.6Z"/>
    <path class="cls-10" d="M523.6,460v7.4h-2v-7.4h-2.2v-2h2.2v-.9c0-2.3,1.3-3.7,3-3.7s1.9.3,2.4.6l-.4,1.6c-.4-.2-.9-.4-1.5-.4s-1.5.5-1.5,1.9v.8h8.2v9.4h-2v-7.4h-6.2ZM532,454.4c0,.6-.5,1.2-1.2,1.2s-1.2-.5-1.2-1.2.5-1.2,1.2-1.2,1.2.5,1.2,1.2Z"/>
    <path class="cls-10" d="M541.8,460.7c-.5-.7-1.3-1-2-1-1.3,0-2.4,1.3-2.4,3s1.1,3,2.4,3,1.6-.3,2-1l1.2,1c-.8,1.1-2,1.9-3.4,1.9-2.4,0-4.3-2.2-4.3-4.9s1.9-4.9,4.3-4.9,2.6.7,3.4,1.9l-1.2,1Z"/>
    <path class="cls-10" d="M550.4,465.7c1.1,0,1.9-.6,2.4-1.1l1,1.3c-.8,1-2.2,1.7-3.6,1.7-3,0-4.8-2.2-4.8-4.9s1.9-4.9,4.6-4.9,4.6,2.3,4.1,5.1h-6.6c0,1.3.9,2.8,2.8,2.8ZM552,461.3c0-.9-.7-1.6-2-1.6s-1.8.4-2.2,1.6h4.2Z"/>
  </g>
  <g>
    <path class="cls-10" d="M501,384.3c2.7,0,4.2,2.8,4.2,6.2s-1.5,6.2-4.2,6.2-4.2-2.8-4.2-6.2,1.5-6.2,4.2-6.2ZM501,394.7c1.3,0,2.1-1.9,2.1-4.2s-.7-4.2-2.1-4.2-2.1,1.9-2.1,4.2.7,4.2,2.1,4.2Z"/>
    <path class="cls-10" d="M515.8,384.8c-.4-.2-.9-.4-1.5-.4s-1.5.5-1.5,1.9v.8h2.8v2h-2.8v7.4h-2v-7.4h-2.2v-2h2.2v-.9c0-2.3,1.3-3.7,3-3.7s1.9.3,2.4.6l-.4,1.6Z"/>
    <path class="cls-10" d="M522.8,389.1v7.4h-2v-7.4h-2.2v-2h2.2v-.9c0-2.3,1.3-3.7,3-3.7s1.9.3,2.4.6l-.4,1.6c-.4-.2-.9-.4-1.5-.4s-1.5.5-1.5,1.9v.8h8.2v9.4h-2v-7.4h-6.2ZM531.2,383.5c0,.6-.5,1.2-1.2,1.2s-1.2-.5-1.2-1.2.5-1.2,1.2-1.2,1.2.5,1.2,1.2Z"/>
    <path class="cls-10" d="M541,389.8c-.5-.7-1.3-1-2-1-1.3,0-2.4,1.3-2.4,3s1.1,3,2.4,3,1.6-.3,2-1l1.2,1c-.8,1.1-2,1.9-3.4,1.9-2.4,0-4.3-2.2-4.3-4.9s1.9-4.9,4.3-4.9,2.6.7,3.4,1.9l-1.2,1Z"/>
    <path class="cls-10" d="M549.5,394.9c1.1,0,1.9-.6,2.4-1.1l1,1.3c-.8,1-2.2,1.7-3.6,1.7-3,0-4.8-2.2-4.8-4.9s1.9-4.9,4.6-4.9,4.6,2.3,4.1,5.1h-6.6c0,1.3.9,2.8,2.8,2.8ZM551.1,390.4c0-.9-.7-1.6-2-1.6s-1.8.4-2.2,1.6h4.2Z"/>
  </g>
  <rect class="cls-4" x="144.5" y="388.9" width="131" height="47.8"/>
  <g>
    <path class="cls-10" d="M159.4,413.8h-2v-2h6v2h-2v8h2v2h-6v-2h2v-8Z"/>
    <path class="cls-10" d="M173.6,423.8v-5.1c0-1.7-.9-2.6-2-2.6s-2.2,1-2.2,2.2v5.5h-2v-9.4h.7l.8,1.4c.7-.9,1.9-1.6,3.1-1.6,2.1,0,3.7,1.7,3.7,4.5v5.1h-2Z"/>
    <path class="cls-10" d="M183.2,416.4v7.4h-2v-7.4h-2.2v-2h2.2v-.9c0-2.3,1.3-3.7,3-3.7s1.9.3,2.4.6l-.4,1.6c-.4-.2-.9-.4-1.5-.4s-1.5.5-1.5,1.9v.8h8.2v9.4h-2v-7.4h-6.2ZM191.6,410.8c0,.6-.5,1.2-1.2,1.2s-1.2-.5-1.2-1.2.5-1.2,1.2-1.2,1.2.5,1.2,1.2Z"/>
    <path class="cls-10" d="M197.4,418.3v5.5h-2v-9.4h.7l.8,1.4c.7-.9,1.7-1.6,2.9-1.6s.6,0,.6,0v3.9h-.7l-1-1.9c-.7.3-1.2,1.1-1.2,2.1Z"/>
    <path class="cls-10" d="M209.4,423.8h-2v-6.3c0-.8-.4-1.3-1-1.3s-1,.5-1,1.1v6.5h-2v-9.4h.7l.5.9c.5-.7,1.2-1.1,2.1-1.1s1.5.4,2,1c.5-.6,1.2-1,2-1,1.5,0,2.7,1.3,2.7,3.3v6.3h-2v-6.3c0-.8-.5-1.3-1-1.3s-1,.5-1,1.1v6.5Z"/>
    <path class="cls-10" d="M224.8,423.8l-.8-1.4c-.8,1-1.8,1.6-3,1.6-2.3,0-4-2.2-4-4.9,0-2.7,1.8-4.9,4-4.9s2.3.6,3,1.6l.8-1.4h.7v9.4h-.7ZM221.3,416.1c-1.2,0-2.2,1.4-2.2,3s1,3,2.2,3,2.2-1.4,2.2-3-1-3-2.2-3Z"/>
    <path class="cls-10" d="M231.4,418.3v5.5h-2v-9.4h.7l.8,1.4c.7-.9,1.7-1.6,2.9-1.6s.6,0,.6,0v3.9h-.7l-1-1.9c-.7.3-1.2,1.1-1.2,2.1Z"/>
    <path class="cls-10" d="M237.1,427.8l2.3-5.6-3.2-7.8h2.1l2.1,5.2,2.1-5.2h2.1l-5.4,13.4h-2.1Z"/>
  </g>
  <g>
    <path class="cls-10" d="M159.4,477.2h-2v-12h2v5.5l4-5.5h2.4l-4.2,5.9,4.4,6.1h-2.4l-4.2-5.8v5.8Z"/>
    <path class="cls-10" d="M171.6,464.2c0,.6-.5,1.2-1.2,1.2s-1.2-.5-1.2-1.2.5-1.2,1.2-1.2,1.2.5,1.2,1.2ZM169.4,467.8h2v9.4h-2v-9.4Z"/>
    <path class="cls-10" d="M175,469.8v-2h1.8v-3.4h2v3.4h3v2h-3v3.9c0,1.4.7,2,1.5,2s.8-.1,1.2-.3l.2,1.2c-.5.5-1.2.8-1.9.8-1.7,0-3-1.4-3-3.7v-3.8h-1.8Z"/>
    <path class="cls-10" d="M191.4,470.5c-.5-.7-1.3-1-2-1-1.3,0-2.4,1.3-2.4,3s1.1,3,2.4,3,1.6-.3,2-1l1.2,1c-.8,1.1-2,1.9-3.4,1.9-2.4,0-4.3-2.2-4.3-4.9s1.9-4.9,4.3-4.9,2.6.7,3.4,1.9l-1.2,1Z"/>
    <path class="cls-10" d="M199.9,467.6c2.1,0,3.7,1.7,3.7,4.5v5.1h-2v-5.1c0-1.7-.9-2.6-2-2.6s-2.2,1-2.2,2.2v5.5h-2v-14h2v5.3c.6-.6,1.6-.9,2.5-.9Z"/>
    <path class="cls-10" d="M211.9,475.5c1.1,0,1.9-.6,2.4-1.1l1,1.3c-.8,1-2.2,1.7-3.6,1.7-3,0-4.8-2.2-4.8-4.9s1.9-4.9,4.6-4.9,4.6,2.3,4.1,5.1h-6.6c0,1.3.9,2.8,2.8,2.8ZM213.5,471.1c0-.9-.7-1.6-2-1.6s-1.8.4-2.2,1.6h4.2Z"/>
    <path class="cls-10" d="M225.6,477.2v-5.1c0-1.7-.9-2.6-2-2.6s-2.2,1-2.2,2.2v5.5h-2v-9.4h.7l.8,1.4c.7-.9,1.9-1.6,3.1-1.6,2.1,0,3.7,1.7,3.7,4.5v5.1h-2Z"/>
  </g>
  <g>
    <path class="cls-10" d="M198,98.9c2.7,0,4.2,2.8,4.2,6.2s-1.5,6.2-4.2,6.2-4.2-2.8-4.2-6.2,1.5-6.2,4.2-6.2ZM198,109.3c1.3,0,2.1-1.9,2.1-4.2s-.7-4.2-2.1-4.2-2.1,1.9-2.1,4.2.7,4.2,2.1,4.2Z"/>
    <path class="cls-10" d="M212.8,99.3c-.4-.2-.9-.4-1.5-.4s-1.5.5-1.5,1.9v.8h2.8v2h-2.8v7.4h-2v-7.4h-2.2v-2h2.2v-.9c0-2.3,1.3-3.7,3-3.7s1.9.3,2.4.6l-.4,1.6Z"/>
    <path class="cls-10" d="M219.8,103.7v7.4h-2v-7.4h-2.2v-2h2.2v-.9c0-2.3,1.3-3.7,3-3.7s1.9.3,2.4.6l-.4,1.6c-.4-.2-.9-.4-1.5-.4s-1.5.5-1.5,1.9v.8h8.2v9.4h-2v-7.4h-6.2ZM228.2,98.1c0,.6-.5,1.2-1.2,1.2s-1.2-.5-1.2-1.2.5-1.2,1.2-1.2,1.2.5,1.2,1.2Z"/>
    <path class="cls-10" d="M238,104.4c-.5-.7-1.3-1-2-1-1.3,0-2.4,1.3-2.4,3s1.1,3,2.4,3,1.6-.3,2-1l1.2,1c-.8,1.1-2,1.9-3.4,1.9-2.4,0-4.3-2.2-4.3-4.9s1.9-4.9,4.3-4.9,2.6.7,3.4,1.9l-1.2,1Z"/>
    <path class="cls-10" d="M246.5,109.4c1.1,0,1.9-.6,2.4-1.1l1,1.3c-.8,1-2.2,1.7-3.6,1.7-3,0-4.8-2.2-4.8-4.9s1.9-4.9,4.6-4.9,4.6,2.3,4.1,5.1h-6.6c0,1.3.9,2.8,2.8,2.8ZM248.1,105c0-.9-.7-1.6-2-1.6s-1.8.4-2.2,1.6h4.2Z"/>
  </g>
  <g>
    <path class="cls-10" d="M207.2,26.1c2.7,0,4.2,2.8,4.2,6.2s-1.5,6.2-4.2,6.2-4.2-2.8-4.2-6.2,1.5-6.2,4.2-6.2ZM207.2,36.5c1.3,0,2.1-1.9,2.1-4.2s-.7-4.2-2.1-4.2-2.1,1.9-2.1,4.2.7,4.2,2.1,4.2Z"/>
    <path class="cls-10" d="M222.1,26.5c-.4-.2-.9-.4-1.5-.4s-1.5.5-1.5,1.9v.8h2.8v2h-2.8v7.4h-2v-7.4h-2.2v-2h2.2v-.9c0-2.3,1.3-3.7,3-3.7s1.9.3,2.4.6l-.4,1.6Z"/>
    <path class="cls-10" d="M229,30.9v7.4h-2v-7.4h-2.2v-2h2.2v-.9c0-2.3,1.3-3.7,3-3.7s1.9.3,2.4.6l-.4,1.6c-.4-.2-.9-.4-1.5-.4s-1.5.5-1.5,1.9v.8h8.2v9.4h-2v-7.4h-6.2ZM237.5,25.3c0,.6-.5,1.2-1.2,1.2s-1.2-.5-1.2-1.2.5-1.2,1.2-1.2,1.2.5,1.2,1.2Z"/>
    <path class="cls-10" d="M247.2,31.6c-.5-.7-1.3-1-2-1-1.3,0-2.4,1.3-2.4,3s1.1,3,2.4,3,1.6-.3,2-1l1.2,1c-.8,1.1-2,1.9-3.4,1.9-2.4,0-4.3-2.2-4.3-4.9s1.9-4.9,4.3-4.9,2.6.7,3.4,1.9l-1.2,1Z"/>
    <path class="cls-10" d="M255.8,36.6c1.1,0,1.9-.6,2.4-1.1l1,1.3c-.8,1-2.2,1.7-3.6,1.7-3,0-4.8-2.2-4.8-4.9s1.9-4.9,4.6-4.9,4.6,2.3,4.1,5.1h-6.6c0,1.3.9,2.8,2.8,2.8ZM257.4,32.1c0-.9-.7-1.6-2-1.6s-1.8.4-2.2,1.6h4.2Z"/>
  </g>
  <g>
    <path class="cls-10" d="M493.7,32.4c2.7,0,4.2,2.8,4.2,6.2s-1.5,6.2-4.2,6.2-4.2-2.8-4.2-6.2,1.5-6.2,4.2-6.2ZM493.7,42.8c1.3,0,2.1-1.9,2.1-4.2s-.7-4.2-2.1-4.2-2.1,1.9-2.1,4.2.7,4.2,2.1,4.2Z"/>
    <path class="cls-10" d="M508.6,32.8c-.4-.2-.9-.4-1.5-.4s-1.5.5-1.5,1.9v.8h2.8v2h-2.8v7.4h-2v-7.4h-2.2v-2h2.2v-.9c0-2.3,1.3-3.7,3-3.7s1.9.3,2.4.6l-.4,1.6Z"/>
    <path class="cls-10" d="M515.6,37.2v7.4h-2v-7.4h-2.2v-2h2.2v-.9c0-2.3,1.3-3.7,3-3.7s1.9.3,2.4.6l-.4,1.6c-.4-.2-.9-.4-1.5-.4s-1.5.5-1.5,1.9v.8h8.2v9.4h-2v-7.4h-6.2ZM524,31.6c0,.6-.5,1.2-1.2,1.2s-1.2-.5-1.2-1.2.5-1.2,1.2-1.2,1.2.5,1.2,1.2Z"/>
    <path class="cls-10" d="M533.7,37.9c-.5-.7-1.3-1-2-1-1.3,0-2.4,1.3-2.4,3s1.1,3,2.4,3,1.6-.3,2-1l1.2,1c-.8,1.1-2,1.9-3.4,1.9-2.4,0-4.3-2.2-4.3-4.9s1.9-4.9,4.3-4.9,2.6.7,3.4,1.9l-1.2,1Z"/>
    <path class="cls-10" d="M542.3,42.9c1.1,0,1.9-.6,2.4-1.1l1,1.3c-.8,1-2.2,1.7-3.6,1.7-3,0-4.8-2.2-4.8-4.9s1.9-4.9,4.6-4.9,4.6,2.3,4.1,5.1h-6.6c0,1.3.9,2.8,2.8,2.8ZM543.9,38.4c0-.9-.7-1.6-2-1.6s-1.8.4-2.2,1.6h4.2Z"/>
  </g>
  <g>
    <path class="cls-10" d="M379.3,170.8c0,2.2-1.8,4-4,4s-3.3-1.2-3.8-2.8l1.9-.7c.2.8,1,1.5,1.9,1.5s2-.9,2-2-.9-2-2-2h-1.5v-.6l2.6-3.6h-3.2l-1,1.6h-.6v-3.6h7.9v1l-2.6,3.5c1.4.6,2.4,2,2.4,3.7Z"/>
    <path class="cls-10" d="M383.3,162.6h2.8c3,0,5.4,2.7,5.4,6s-2.4,6-5.4,6h-2.8v-12ZM385.3,172.6h.8c1.7,0,3.2-1.8,3.2-4s-1.4-4-3.2-4h-.8v8Z"/>
    <path class="cls-10" d="M352.7,188.2c0,2.2-1.8,4-4,4h-2.4v4h-2v-12h4.4c2.2,0,4,1.8,4,4ZM350.7,188.2c0-1.1-.9-2-2-2h-2.4v4h2.4c1.1,0,2-.9,2-2Z"/>
    <path class="cls-10" d="M358.3,190.7v5.5h-2v-9.4h.7l.8,1.4c.7-.9,1.7-1.6,2.9-1.6s.6,0,.6,0v3.9h-.7l-1-1.9c-.7.3-1.2,1.1-1.2,2.1Z"/>
    <path class="cls-10" d="M366.4,183.2c0,.6-.5,1.2-1.2,1.2s-1.2-.5-1.2-1.2.5-1.2,1.2-1.2,1.2.5,1.2,1.2ZM364.3,186.8h2v9.4h-2v-9.4Z"/>
    <path class="cls-10" d="M376.5,196.2v-5.1c0-1.7-.9-2.6-2-2.6s-2.2,1-2.2,2.2v5.5h-2v-9.4h.7l.8,1.4c.7-.9,1.9-1.6,3.1-1.6,2.1,0,3.7,1.7,3.7,4.5v5.1h-2Z"/>
    <path class="cls-10" d="M381.9,188.8v-2h1.8v-3.4h2v3.4h3v2h-3v3.9c0,1.4.7,2,1.5,2s.8-.1,1.2-.3l.2,1.2c-.5.5-1.2.8-1.9.8-1.7,0-3-1.4-3-3.7v-3.8h-1.8Z"/>
    <path class="cls-10" d="M394.5,183.2c0,.6-.5,1.2-1.2,1.2s-1.2-.5-1.2-1.2.5-1.2,1.2-1.2,1.2.5,1.2,1.2ZM392.3,186.8h2v9.4h-2v-9.4Z"/>
    <path class="cls-10" d="M404.5,196.2v-5.1c0-1.7-.9-2.6-2-2.6s-2.2,1-2.2,2.2v5.5h-2v-9.4h.7l.8,1.4c.7-.9,1.9-1.6,3.1-1.6,2.1,0,3.7,1.7,3.7,4.5v5.1h-2Z"/>
    <path class="cls-10" d="M414,200.2c-1.6,0-3-1-3.7-2l1.1-1.1c.8.8,1.5,1.3,2.7,1.3s2.1-.8,2.1-2.6v-.4c-.7.6-1.5,1-2.4,1-2.2,0-4-2.2-4-4.9s1.8-4.9,4-4.9,2.3.6,3,1.6l.8-1.4h.7v8.8c0,3-1.9,4.6-4.2,4.6ZM414.1,188.4c-1.2,0-2.2,1.4-2.2,3s1,3,2.2,3,2.2-1.4,2.2-3-1-3-2.2-3Z"/>
    <path class="cls-10" d="M369.3,215.8h3.4v2h-5.4v-12h2v10Z"/>
    <path class="cls-10" d="M382.6,217.8l-.8-1.4c-.8,1-1.8,1.6-3,1.6-2.3,0-4-2.2-4-4.9s1.8-4.9,4-4.9,2.3.6,3,1.6l.8-1.4h.7v9.4h-.7ZM379.1,210c-1.2,0-2.2,1.4-2.2,3s1,3,2.2,3,2.2-1.4,2.2-3-1-3-2.2-3Z"/>
    <path class="cls-10" d="M387.9,217.8h-.7v-14h2v5.4c.7-.6,1.5-1,2.4-1,2.2,0,4,2.2,4,4.9s-1.8,4.9-4,4.9-2.3-.6-3-1.6l-.8,1.4ZM389.3,213.1c0,1.7,1,3,2.2,3s2.2-1.4,2.2-3-1-3-2.2-3-2.2,1.4-2.2,3Z"/>
  </g>
  <g>
    <rect class="cls-9" x="291.3" y="517.1" width="83.8" height="30.4"/>
    <rect class="cls-9" x="389.7" y="517.2" width="83.8" height="30.4"/>
    <g>
      <path class="cls-11" d="M506.2,530.5v.4s-.5,0-.5,0v.2s.4,0,.4,0v.4s-.4,0-.4,0v.5s-.5,0-.5,0v-1.6s1,0,1,0Z"/>
      <path class="cls-11" d="M506.9,530.6v1.5s-.5,0-.5,0v-1.5s.5,0,.5,0Z"/>
      <path class="cls-11" d="M507.7,531.6h0s0,.5,0,.5h-.5s0-1.5,0-1.5h.7s.4,0,.4,0v.8s-.1,0-.1,0l.3.4-.4.2-.3-.5ZM507.6,531.3h.3s0-.3,0-.3h-.3s0,.3,0,.3Z"/>
      <path class="cls-11" d="M509.5,532.1h-1s0-1.5,0-1.5h0c0,0,.8,0,.8,0v.4s-.5,0-.5,0v.2s.4,0,.4,0v.4s-.4,0-.4,0v.2s.5,0,.5,0v.4Z"/>
      <path class="cls-11" d="M505.4,533h-.3s0-.4,0-.4h0s.3,0,.3,0h0c0,.1-.1.1-.1.1h0c0,0,.1,0,.1,0h0c0,.1-.1.1-.1.1h0c0,0,.2,0,.2,0h0Z"/>
      <path class="cls-11" d="M505.7,532.9h0s0,.2,0,.2h-.2s0-.2,0-.2h0s0,0,0,0v-.2s.1,0,.1,0h0c0,.1,0,.2,0,.2h0s0-.1,0-.1h.1s0,.2,0,.2h0s0,0,0,0v.2s-.1,0-.1,0h0c0-.1,0-.2,0-.2Z"/>
      <path class="cls-11" d="M506.3,532.7h-.1s0,.3,0,.3h-.1s0-.3,0-.3h-.1s0-.1,0-.1h.4s0,.1,0,.1Z"/>
      <path class="cls-11" d="M506.4,532.5v.5s-.1,0-.1,0v-.5s.1,0,.1,0Z"/>
      <path class="cls-11" d="M506.9,533h-.1s0-.1,0-.1h-.1c0-.1,0,.1,0,.1h-.1s0-.4,0-.4h.1s.1.1.1.1h0c0-.1.1-.2.1-.2v.5Z"/>
      <path class="cls-11" d="M507,532.5h.3s0,.1,0,.1h-.2v.2h0s0-.1,0-.1h.1s0,.3,0,.3h-.3s0-.4,0-.4h0Z"/>
      <path class="cls-11" d="M507.8,532.6v.4s0,0,0,0h-.3s0,0,0,0v-.4s.1,0,.1,0v.3s0,0,0,0v-.3s.1,0,.1,0Z"/>
      <path class="cls-11" d="M508,532.5v.5s-.1,0-.1,0v-.5s.1,0,.1,0Z"/>
      <path class="cls-11" d="M508.3,532.5h0c0,.1-.1.1-.1.1h0s.2.1.2.1v.2s-.3,0-.3,0v-.2s.2,0,.2,0h0s-.2-.1-.2-.1v-.2s.1,0,.1,0h.2Z"/>
      <path class="cls-11" d="M508.7,532.8h0s0,.2,0,.2h-.1v-.5s.1,0,.1,0v.2s0,0,0,0v-.2s.1,0,.1,0v.5s-.1,0-.1,0v-.2Z"/>
      <path class="cls-11" d="M509.2,533h-.3s0-.4,0-.4h0s.3,0,.3,0h0c0,.1-.1.1-.1.1h0c0,0,.1,0,.1,0h0c0,.1-.1.1-.1.1h0c0,0,.2,0,.2,0h0Z"/>
      <path class="cls-11" d="M509.4,532.9h0s0,.2,0,.2h-.1s0-.5,0-.5h.2s.1,0,.1,0v.3s0,0,0,0h0c0,.1-.1.2-.1.2v-.2ZM509.4,532.8h0s0-.1,0-.1h0s0,.1,0,.1Z"/>
    </g>
    <path class="cls-11" d="M503.3,535.9l3.9,2.9c0,0,.1,0,.2,0l3.9-2.9c0,0,0-.1,0-.2,0,0,0-.1-.2-.1h-1.7v-1.8c0,0,0-.2-.2-.2h-3.9c0,0-.2,0-.2.2v1.8h-1.7c0,0-.1,0-.2.1,0,0,0,.1,0,.2Z"/>
    <path class="cls-11" d="M514.4,525.3s0,0-.1,0,0,0,0,0l-3.1.7c0,0,0,0-.1,0,0,0,0,0,0,.1h-3.4c0-.1,0-.3,0-.4,0-.3-.1-.6-.3-.8-.2-.2-.5-.3-.8-.3s-.6.1-.8.3c-.2.2-.3.5-.3.8s0,.4.2.6c-.3,0-.5.2-.8.4-.2.2-.4.3-.6.5-.2.2-.3.3-.4.5-.1.2-.2.3-.3.4,0,0,0,.1-.1.2,0,.1,0,.2,0,.3,0,.1.1.2.2.3,0,0,.1,0,.2,0,.2,0,.3,0,.4-.2,0,0,0,0,0-.2,0,0,.1-.2.3-.4.1-.2.3-.3.5-.5.2-.1.4-.3.6-.4.3-.1.5-.2.8-.2h.2v.8c-.5.1-.8.4-1.1.8-.3.4-.4.8-.4,1.3h0c0,0,4.4,0,4.4,0h0c0-.6-.2-1.1-.5-1.5-.3-.4-.8-.7-1.3-.8v-.7h3.1c0,0,0,0,0,.1,0,0,0,0,.1,0l3.1.7s0,0,0,0c0,0,.1,0,.1,0,0,0,0,0,0-.2v-2.2c0,0,0-.1,0-.2ZM506.9,526c0,0-.2.1-.3.1s-.2,0-.3-.1c0,0-.1-.2-.1-.3s0-.2.1-.3c0,0,.2-.1.3-.1s.2,0,.3.1c0,0,.1.2.1.3s0,.2-.1.3Z"/>
    <g>
      <g>
        <polygon class="cls-12" points="483 534.3 483.3 536.6 497.5 534.7 497.2 532.4 483 534.3"/>
        <polygon class="cls-12" points="497.3 528.8 483.1 527.4 482.8 529.7 497 531.2 497.3 528.8"/>
        <polygon class="cls-12" points="483.8 522.9 497.4 527.2 498.1 524.9 484.5 520.7 483.8 522.9"/>
        <polygon class="cls-12" points="487.7 514.9 498.9 523.7 500.3 521.9 489.1 513.1 487.7 514.9"/>
        <polygon class="cls-12" points="493.3 509.4 501.5 521 503.5 519.7 495.2 508 493.3 509.4"/>
        <polygon class="cls-12" points="500.4 505.9 505.2 519.3 507.4 518.5 502.6 505.1 500.4 505.9"/>
        <polygon class="cls-12" points="531.4 523.3 530.8 521.1 516.9 524.5 517.5 526.8 531.4 523.3"/>
        <polygon class="cls-12" points="517.8 528 517.8 530.3 532.1 530.2 532.1 527.9 517.8 528"/>
        <polygon class="cls-12" points="517.4 534.3 531.4 537 531.9 534.7 517.9 532 517.4 534.3"/>
        <polygon class="cls-12" points="515.5 537.5 527.6 545.1 528.9 543.1 516.8 535.6 515.5 537.5"/>
        <polygon class="cls-12" points="512.6 540.1 522.1 550.8 523.9 549.2 514.4 538.6 512.6 540.1"/>
        <polygon class="cls-12" points="508.9 541.7 515.1 554.5 517.2 553.5 511 540.6 508.9 541.7"/>
      </g>
      <polygon class="cls-12" points="264.1 538.2 264.1 528.7 251.3 528.7 251.3 519 238.5 519 238.5 509.4 225.7 509.4 225.7 499.7 212.9 499.7 212.9 509.4 212.9 547.9 238.5 547.9 251.3 547.9 263.9 547.9 276.7 547.9 276.7 538.2 264.1 538.2"/>
    </g>
  </g>
  <g id="glt601">
    <rect class="cls-7" x="307.9" y="5.1" width="148.4" height="127.4"/>
  </g>
  <g>
    <path class="cls-8" d="M362.2,65.4c.7,0,1.3.3,1.9,1.1l.9-.9c-.6-1.1-1.8-1.8-2.9-1.8-2.3,0-3.8,2.2-3.8,4.8s1.5,4.8,3.8,4.8,1.4-.3,2-.7l.3.6h.5v-4.7h-3.1v1.6h1.6v1.3c-.4.3-.7.4-1.1.4-1.2,0-2.2-1.2-2.2-3.3s1-3.3,2.2-3.3Z"/>
    <polygon class="cls-8" points="369.3 64 367.8 64 367.8 73.4 372 73.4 372 71.8 369.3 71.8 369.3 64"/>
    <polygon class="cls-8" points="372.9 65.6 375.6 65.6 375.6 73.4 377.1 73.4 377.1 65.6 379.8 65.6 379.8 64 372.9 64 372.9 65.6"/>
    <path class="cls-8" d="M385.2,67.3l2.3-3.3h-1.9l-3,4.2c-.4.6-.8,1.3-.8,2.1,0,1.7,1.4,3.1,3.1,3.1s3.1-1.4,3.1-3.1-1.3-3-2.9-3.1ZM384.9,72c-.9,0-1.6-.7-1.6-1.6s.7-1.6,1.6-1.6,1.6.7,1.6,1.6-.7,1.6-1.6,1.6Z"/>
    <path class="cls-8" d="M394.2,63.9c-2.1,0-3.3,2.2-3.3,4.8s1.2,4.8,3.3,4.8,3.3-2.2,3.3-4.8-1.2-4.8-3.3-4.8ZM394.2,72c-1,0-1.6-1.5-1.6-3.3s.6-3.3,1.6-3.3,1.6,1.5,1.6,3.3-.6,3.3-1.6,3.3Z"/>
    <polygon class="cls-8" points="404.4 71.8 404.4 63.9 403.9 63.9 400.8 67 401.1 67.7 402.8 67 402.8 71.8 401.2 71.8 401.2 73.4 405.9 73.4 405.9 71.8 404.4 71.8"/>
  </g>
  <g>
    <rect class="cls-7" x="448.7" y="86" width="8.4" height="29.7"/>
    <path class="cls-6" d="M456.1,87v27.7h-6.4v-27.7h6.4M458.1,85h-10.4v31.7h10.4v-31.7h0Z"/>
  </g>
  <rect class="cls-1" x="470.6" y="49.6" width="6.1" height="17.5" transform="translate(532.1 -415.3) rotate(90)"/>
  <g id="gltmac02">
    <g id="gltmac02-2" data-name="gltmac02">
      <rect class="cls-12" x="482.4" y="71.6" width="145.4" height="97.3"/>
      <g>
        <path class="cls-8" d="M547.6,89.9h-1.6v-1.6h3.1v4.7h-.5l-.3-.6c-.6.5-1.3.7-2,.7-2.3,0-3.8-2.2-3.8-4.8s1.5-4.8,3.8-4.8,2.3.7,2.9,1.8l-.9.9c-.6-.8-1.2-1.1-1.9-1.1-1.2,0-2.2,1.2-2.2,3.3s1,3.3,2.2,3.3.7-.1,1.1-.4v-1.3Z"/>
        <path class="cls-8" d="M553.7,91.5h2.6v1.6h-4.2v-9.3h1.6v7.8Z"/>
        <path class="cls-8" d="M557.2,85.2v-1.6h6.8v1.6h-2.6v7.8h-1.6v-7.8h-2.6Z"/>
        <path class="cls-8" d="M577.1,93v-5.6l-2.3,4.2h-.3l-2.3-4.2v5.6h-1.5v-9.3h1.3l2.6,4.9,2.6-4.9h1.3v9.3h-1.5Z"/>
        <path class="cls-8" d="M583.2,93h-1.6v-5.9c0-2.3,1.4-3.6,3.1-3.6s3.1,1.3,3.1,3.6v5.9h-1.6v-3.1h-3.1v3.1ZM586.3,87.1c0-1.4-.7-2-1.6-2s-1.6.7-1.6,2v1.2h3.1v-1.2Z"/>
        <path class="cls-8" d="M594.8,83.5c1.1,0,2.4.7,3,1.8l-1,.9c-.6-.8-1.3-1.1-2-1.1-1.2,0-2.3,1.2-2.3,3.3s1.1,3.3,2.3,3.3,1.3-.3,2-1.1l1,.9c-.7,1.1-1.9,1.8-3,1.8-2.4,0-3.9-2.2-3.9-4.8s1.6-4.8,3.9-4.8Z"/>
        <path class="cls-8" d="M603.4,83.5c2.1,0,3.3,2.2,3.3,4.8s-1.2,4.8-3.3,4.8-3.3-2.2-3.3-4.8,1.2-4.8,3.3-4.8ZM603.4,91.6c1.1,0,1.6-1.5,1.6-3.3s-.6-3.3-1.6-3.3-1.6,1.5-1.6,3.3.6,3.3,1.6,3.3Z"/>
        <path class="cls-8" d="M614.3,86.6c0-.9-.7-1.6-1.6-1.6s-1.6.7-1.6,1.6v.8h-1.6v-.8c0-1.7,1.4-3.1,3.1-3.1s3.1,1.4,3.1,3.1-.6,2.1-1.5,2.9l-2,1.9h3.5v1.6h-6.2v-.6l3.3-3.5c.5-.5,1.3-1.4,1.3-2.3Z"/>
      </g>
    </g>
    <g>
      <rect class="cls-12" x="481.5" y="140.2" width="8.4" height="29.7"/>
      <path class="cls-6" d="M488.9,141.2v27.7h-6.4v-27.7h6.4M490.9,139.2h-10.4v31.7h10.4v-31.7h0Z"/>
    </g>
    <g>
      <path class="cls-6" d="M522.8,156.8v-8.4l-3.4,6.3h-.5l-3.4-6.3v8.4h-2.2v-14h1.9l3.9,7.4,3.9-7.4h1.9v14h-2.2Z"/>
      <path class="cls-6" d="M538.2,156.8l-.9-1.7c-.9,1.2-2.1,1.9-3.5,1.9-2.6,0-4.7-2.5-4.7-5.7,0-3.2,2.1-5.7,4.7-5.7s2.6.7,3.5,1.9l.9-1.7h.8v11h-.8ZM534.1,147.8c-1.4,0-2.6,1.6-2.6,3.5s1.1,3.5,2.6,3.5,2.6-1.6,2.6-3.5-1.1-3.5-2.6-3.5Z"/>
      <path class="cls-6" d="M550.6,149c-.5-.8-1.5-1.2-2.3-1.2-1.5,0-2.8,1.5-2.8,3.5s1.2,3.5,2.8,3.5,1.9-.3,2.3-1.2l1.4,1.2c-.9,1.3-2.3,2.2-3.9,2.2-2.8,0-5-2.5-5-5.7s2.2-5.7,5-5.7,3,.9,3.9,2.2l-1.4,1.2Z"/>
      <path class="cls-6" d="M564.7,154.5h4v2.3h-6.3v-14h2.3v11.7Z"/>
      <path class="cls-6" d="M580.2,156.8l-.9-1.7c-.9,1.2-2.1,1.9-3.5,1.9-2.6,0-4.7-2.5-4.7-5.7,0-3.2,2.1-5.7,4.7-5.7s2.6.7,3.5,1.9l.9-1.7h.8v11h-.8ZM576.1,147.8c-1.4,0-2.6,1.6-2.6,3.5s1.1,3.5,2.6,3.5,2.6-1.6,2.6-3.5-1.1-3.5-2.6-3.5Z"/>
      <path class="cls-6" d="M586.5,156.8h-.8v-16.3h2.3v6.3c.8-.7,1.8-1.1,2.9-1.1,2.6,0,4.7,2.5,4.7,5.7s-2.1,5.7-4.7,5.7-2.6-.7-3.5-1.9l-.9,1.7ZM588,151.4c0,1.9,1.2,3.5,2.6,3.5s2.6-1.6,2.6-3.5-1.1-3.5-2.6-3.5-2.6,1.6-2.6,3.5Z"/>
      <path class="cls-6" d="M613.7,147.3c0-1.3-1-2.3-2.3-2.3s-2.3,1-2.3,2.3v1.2h-2.3v-1.2c0-2.6,2.1-4.7,4.7-4.7s4.7,2.1,4.7,4.7-.9,3.1-2.2,4.4l-3,2.9h5.2v2.3h-9.3v-.8l5-5.3c.8-.8,2-2.1,2-3.4Z"/>
    </g>
  </g>
</svg>