<?xml version="1.0" encoding="UTF-8"?>
<svg id="Layer_1" data-name="Layer 1" xmlns="http://www.w3.org/2000/svg" viewBox="0 0 1007.8 422.1">
  <defs>
    <style>
      .cls-1, .cls-2, .cls-3, .cls-4 {
        fill: #273b8b;
      }

      .cls-5 {
        fill: #fff;
      }

      .cls-5, .cls-4 {
        fill-rule: evenodd;
      }

      .cls-6 {
        letter-spacing: 0em;
      }

      .cls-7 {
        fill: #0aa1c6;
      }

      .cls-2 {
        font-size: 39.8px;
        letter-spacing: 0em;
      }

      .cls-2, .cls-3 {
        font-family: STIXTwoTextRoman-SemiBold, 'STIX Two Text';
        font-variation-settings: 'wght' 600;
        font-weight: 600;
      }

      .cls-3 {
        font-size: 34.7px;
      }

      .cls-8 {
        letter-spacing: 0em;
      }

      .cls-9 {
        letter-spacing: 0em;
      }

      .cls-10 {
        letter-spacing: 0em;
      }

      .cls-11 {
        letter-spacing: 0em;
      }

      .cls-12 {
        letter-spacing: 0em;
      }

      .cls-13 {
        letter-spacing: 0em;
      }
    </style>
  </defs>
  <g>
    <path class="cls-5" d="M4.6,222c-6.1-6.1-6.1-15.9,0-21.9L200.4,4.5c6.1-6.1,15.9-6.1,22,0l197.1,195.5c6.1,6.1,6.1,15.9,0,21.9l-195.9,195.5c-6.1,6.1-15.9,6.1-22,0L4.6,222Z"/>
    <path class="cls-7" d="M92.9,298.4h238.5l-108.7,108.5c-5.8,5.7-15.1,5.7-20.9,0l-108.9-108.5Z"/>
    <path class="cls-1" d="M15.7,221.5c-5.8-5.7-5.8-15.1,0-20.8l13.7-13.7,63.6,111.4L15.7,221.5ZM29.5,186.9l49.1-49,44.2,135.6L29.5,186.9ZM78.7,137.7l57-56.8,21.6,177.3-78.5-120.4ZM288.5,81.1l56.9,56.7-78.5,120.3,21.5-177.1ZM345.6,137.9l49.1,48.9-93.2,86.6,44.1-135.5ZM394.8,187l13.7,13.7c5.8,5.7,5.8,15.1,0,20.8l-77.2,77,63.4-111.4ZM135.8,80.8L201.5,15.2c2.9-2.9,6.7-4.3,10.4-4.3l-18.6,240.4-57.5-170.5ZM212.3,10.9c3.7,0,7.3,1.5,10.1,4.3l66,65.7-57.5,170.4L212.3,10.9Z"/>
  </g>
  <path class="cls-4" d="M597.8,255.4c0,27.1-19.9,33.4-31.6,33.4s-12-.3-19.1-3.1c-8.4-3.4-9.1-7.8-9.1-25v-61.8c0-1.3.5-1.8,1.6-1.8,3.9,0,6.5,0,11.2.3,10.2.5,16.2,2.3,21.7,6.3,19.9,13.8,25.4,35.7,25.4,51.9ZM538,118.2c0-2.9.5-3.9,2.4-4.4,2.6-.5,5-.5,8.6-.5,22.5,0,32.7,23,32.7,40.4s-3.9,22.2-10.7,27.6c-4.4,3.9-10.2,5-18.8,5s-9.9-.3-12.3-.8c-1-.3-1.8-.8-1.8-2.9v-64.4h0ZM506.6,224.1c0,24,0,44.6-1.3,55.6-1,7.6-2.4,13.3-7.6,14.3-2.4.5-5.5,1-9.4,1s-4.2.8-4.2,2.1,1.8,2.6,5.2,2.6c5.2,0,12-.5,18-.5,6.3-.3,12-.3,14.9-.3s11.8.3,19.6.8c7.6.3,15.2.8,18.3.8,48.1,0,69.8-28.9,69.8-56.9s-26.1-49-47.6-56.3c14.4-11.5,26.7-24.3,26.7-45.6s-8.4-39.1-55.7-39.1-19.1.8-31.9.8-21.7-.8-35.5-.8-5.8.5-5.8,2.3,1.6,2.3,4.4,2.3,8.1.3,10.2.8c8.6,1.8,10.7,6,11.2,14.9.5,8.3.5,15.6.5,55.3v45.9Z"/>
  <path class="cls-4" d="M696.7,218.6c-1,0-1.3-.8-1-1.8l24-64.2c.3-1,.8-2.3,1.6-2.3s1,1.3,1.3,2.3l23.5,64.4c.3.8,0,1.6-1.3,1.6h-48.1ZM749.7,231.7c1.3,0,2.1.5,2.6,1.8l20.9,55.3c1.3,3.1-.5,5.5-2.4,6-2.6.3-3.7.8-3.7,2.3s3.1,1.8,7.8,2.1c20.9.5,40,.5,49.4.5s12-.5,12-2.6-1.3-2.1-3.4-2.1c-3.1,0-7.1-.3-11-1-5.5-1.6-13.1-5.2-23-28.6-16.7-39.5-58.6-145.9-64.8-160.3-2.6-6-4.2-8.3-6.5-8.3s-4.2,2.9-7.3,10.4l-65.6,163.8c-5.2,13-10.2,21.9-22.2,23.5-2.1.3-5.8.5-8.1.5s-3.1.5-3.1,2.1,1.6,2.6,5,2.6c13.6,0,28-.8,30.8-.8,8.1,0,19.3.8,27.7.8s4.4-.5,4.4-2.6-.8-2.1-3.9-2.1h-3.9c-8.1,0-10.5-3.4-10.5-8.1s1.3-9.4,3.9-15.9l14.1-37.3c.5-1.6,1-2.1,2.4-2.1h58.3Z"/>
  <path class="cls-4" d="M824.8,216.3c0,37.8,9.9,57.1,23.3,69.1,19.1,17.2,44.2,18,58,18s35.8-2.9,54.4-18.8c22-18.8,24.8-49.6,24.8-78.5v-27.9c0-39.6,0-47,.5-55.3.5-9.1,2.6-13.6,9.7-14.9,3.1-.5,4.7-.8,7.6-.8s4.7-.5,4.7-2.3-1.8-2.4-5.5-2.4c-10.2,0-26.7.8-29.8.8s-16.7-.8-30.1-.8-5.5.5-5.5,2.4,1.6,2.3,4.4,2.3,7.3.3,9.4.8c8.6,1.8,10.7,6,11.2,14.9.5,8.3.5,15.6.5,55.3v32.6c0,26.9-.8,50.3-15.2,64.7-10.5,10.4-24.6,14.1-36.1,14.1s-20.9-1-32.7-10.7c-12.8-10.4-20.4-26.3-20.4-64.2v-36.5c0-39.6,0-47,.5-55.3.5-9.1,2.6-13.6,9.7-14.9,3.1-.5,4.7-.8,7.6-.8s4.2-.5,4.2-2.3-1.8-2.4-5.7-2.4c-9.4,0-25.9.8-32.2.8s-24.3-.8-38.2-.8-5.8.5-5.8,2.4,1.6,2.3,4.4,2.3,8.1.3,10.2.8c8.6,1.8,10.7,6,11.2,14.9.5,8.3.5,15.6.5,55.3v38.1h0Z"/>
  <path class="cls-4" d="M495.6,345.9c0-3-1.1-5.3-3.4-6.9-.7-.5-1.7-.8-2.9-.8-.4,0-.9,0-1.5,0s-.2,0-.2.2v8.2c0,1.2,0,2,.2,2.4.1.4.5.8,1,1,.7.3,1.5.4,2.5.4s1.9-.3,2.7-.9c1-.8,1.5-2,1.5-3.6ZM487.6,327.6v8.6c0,.2,0,.3.2.4.3,0,.8.1,1.6.1,1.1,0,2-.2,2.5-.7,1-.8,1.4-2,1.4-3.7s-.3-2.5-1-3.6c-.8-1.2-1.9-1.8-3.3-1.8s-1.2,0-1.3.1c0,0-.1.3-.1.5ZM483.4,341.7v-6.1c0-4.2,0-6.6,0-7.4,0-1.1-.6-1.8-1.5-2-.3,0-.8-.1-1.4-.1s-.6-.1-.6-.3.3-.3.8-.3,1.6,0,2.8,0c1.2,0,1.8,0,1.9,0,.6,0,1.4,0,2.3,0,1,0,1.6,0,1.9,0,2.8,0,4.8.6,6.1,1.9.9.9,1.4,2,1.4,3.3,0,2.2-1.2,4.2-3.5,6.1,1.7.6,3.1,1.4,4.2,2.6,1.4,1.4,2.1,3.1,2.1,4.9s-.7,3.8-2.2,5.2c-1.7,1.6-4.1,2.4-7.1,2.4s-1.1,0-2.4-.1c-1.4,0-2.2-.1-2.6-.1s-.9,0-2,0c-1.1,0-1.9,0-2.4,0s-.7-.1-.7-.3.3-.3.8-.3c.3,0,.7,0,1-.1.5-.1.9-.8,1-1.9.1-.9.2-3.4.2-7.4Z"/>
  <path class="cls-4" d="M510.1,341h6.4c.2,0,.2,0,.2-.2l-3.1-8.6c0-.2-.1-.3-.2-.3s-.2.1-.2.3l-3.2,8.6c0,.2,0,.2.1.2ZM517.2,342.7h-7.8c-.1,0-.2,0-.3.3l-1.9,5c-.3.9-.5,1.6-.5,2.1,0,.7.5,1.1,1.4,1.1h.5c.3,0,.5,0,.5.3s-.2.3-.6.3-1,0-1.9,0c-.9,0-1.5,0-1.8,0,0,0-.5,0-1.5,0-1,0-1.9,0-2.6,0s-.7-.1-.7-.3.1-.3.4-.3.7,0,1.1,0c.7,0,1.3-.4,1.8-1,.4-.4.8-1.2,1.1-2.2l8.7-21.8c.4-.9.7-1.4,1-1.4s.5.4.9,1.1c2.1,5.4,5,12.5,8.6,21.4,1,2.3,2,3.6,3.1,3.8.4,0,.9.1,1.5.1s.5,0,.5.3-.1.2-.3.3c-.2,0-.6,0-1.3,0-2.9,0-5.1,0-6.6,0-.7,0-1-.1-1-.3s.2-.3.5-.3c.4-.1.5-.4.3-.8l-2.8-7.4c0-.2-.2-.2-.3-.2Z"/>
  <path class="cls-4" d="M536.9,336.5h13.3c.1,0,.2,0,.2-.2v-.7c0-4.2,0-6.6,0-7.4,0-1.1-.6-1.8-1.5-2-.3,0-.8-.1-1.4-.1s-.6-.1-.6-.3.2-.3.7-.3c.7,0,1.6,0,2.9,0,1.2,0,1.9,0,2.2,0s.9,0,2,0c1.1,0,1.9,0,2.4,0s.7.1.7.3-.2.3-.6.3-.6,0-1,.1c-.8.1-1.2.8-1.3,2,0,.8,0,3.2,0,7.4v6.1c0,3.9,0,6.4.2,7.4.1,1.1.6,1.8,1.4,1.9.7,0,1.3.1,1.8.1s.6,0,.6.3-.2.3-.7.3c-.9,0-1.9,0-3.2,0-1.3,0-2,0-2.2,0s-.9,0-1.9,0c-1.1,0-1.9,0-2.4,0s-.7-.1-.7-.3.3-.3.8-.3c.3,0,.7,0,1-.1.5-.1.9-.8,1-1.9.1-.9.2-3.4.2-7.4v-3.1c0-.1,0-.2-.2-.2h-13.3c-.1,0-.2,0-.2.2v3.1c0,3.9,0,6.4.2,7.4.1,1.1.6,1.8,1.4,1.9.7,0,1.3.1,1.8.1s.6,0,.6.3-.2.3-.7.3c-.9,0-1.9,0-3.2,0-1.3,0-2,0-2.2,0s-.9,0-2,0c-1.1,0-1.9,0-2.4,0s-.7-.1-.7-.3.3-.3.8-.3c.3,0,.7,0,1-.1.5-.1.9-.8,1-1.9.1-.9.2-3.4.2-7.4v-6.1c0-4.2,0-6.6,0-7.4,0-1.1-.6-1.8-1.5-2-.3,0-.8-.1-1.4-.1s-.6-.1-.6-.3.2-.3.7-.3c.7,0,1.6,0,2.9,0,1.2,0,1.9,0,2.2,0s.9,0,2,0c1.1,0,1.9,0,2.4,0s.7.1.7.3-.2.3-.6.3-.6,0-1,.1c-.8.1-1.2.8-1.3,2,0,.8,0,3.2,0,7.4v.7c0,.2,0,.2.2.2Z"/>
  <path class="cls-4" d="M575.2,351.7h2.1l-3.5,2.3h0c3,.3,4.5,1.3,4.5,2.9s-.4,1.5-1.1,2.1c-.6.5-1.3.9-2.2,1.1-1.2.3-2.4.5-3.7.5s-.6-.1-.6-.3.3-.4.9-.5c1,0,1.8-.3,2.4-.8.7-.4,1-.9,1-1.6,0-1.2-1.1-2.1-3.3-2.6-.5,0-.7-.2-.7-.3s.2-.3.7-.6l3.5-2.3ZM578.6,352.3c-5.1,0-9-1.3-11.9-3.8-2.9-2.5-4.3-6-4.3-10.3s1.3-7,4-9.5c2.7-2.5,6.4-3.7,11-3.7s3.3.1,5,.3c.8.2,2,.4,3.5.6.3,0,.5.2.5.4s0,.3,0,.6c0,.4,0,.9-.1,1.3,0,1,0,2.3-.1,3.8,0,.5-.2.8-.4.8s-.4-.3-.4-.8c0-1.2-.5-2.3-1.4-3.2-.6-.6-1.5-1.1-2.8-1.5-1.3-.4-2.8-.6-4.3-.6-2.8,0-5,.7-6.5,2.2-2.1,1.9-3.2,5-3.2,9s1.2,6.9,3.7,9.3c2.2,2.1,4.6,3.1,7.2,3.1s2.6,0,3.4-.3c1.2-.3,2.2-.8,2.9-1.7.6-.7,1-1.5,1.2-2.3,0-.5.2-.7.5-.7s.3.2.3.5,0,.9-.2,2c-.2,1.2-.4,2.1-.5,2.6-.1.5-.4.9-.9,1-1.3.5-3.4.8-6.3.8Z"/>
  <path class="cls-4" d="M594,341.7v-6.1c0-4.2,0-6.6,0-7.4,0-1.1-.6-1.8-1.5-2-.3,0-.8-.1-1.4-.1s-.6-.1-.6-.3.3-.3.8-.3,1.6,0,2.8,0c1.2,0,1.9,0,2.2,0,5.5,0,8.4,0,8.7,0,.6,0,1.1-.1,1.5-.2.4,0,.6-.1.6-.1.1,0,.2.1.2.3s0,.2-.1.6c0,.5-.1,1-.2,1.6,0,.6,0,1.4-.2,2.3,0,.3-.2.4-.3.4s-.3-.1-.3-.4c0-.3,0-.5,0-.7,0-.2,0-.4-.1-.6-.3-.7-1.1-1.1-2.3-1.3-.8,0-2.4-.1-4.9-.1s-.2.1-.2.3v8.8c0,.3,0,.4.2.4,3.2,0,5,0,5.6,0,.4,0,.7,0,.9-.1.3,0,.6-.2.8-.4.3-.3.5-.5.6-.5.2,0,.2,0,.2.3s0,.3-.1.7c0,.5-.1,1.1-.2,1.8,0,1.3-.1,2.1-.1,2.3,0,.4-.1.7-.3.7s-.3-.1-.3-.3,0-.7-.1-1.2c-.2-.8-.8-1.2-1.9-1.4-.6,0-2.3-.1-4.9-.1s-.2.1-.2.3v8.1c0,1.2.3,2,.8,2.4.5.3,1.6.5,3.4.5s2.7-.1,3.3-.4c.8-.4,1.3-1.2,1.6-2.6,0-.3.2-.5.4-.5s.3.2.3.6c0,1.4-.1,2.7-.5,3.9-.1.4-.3.7-.5.8-.2,0-.7.1-1.4.1-2,0-4,0-6-.1-2,0-3.2-.1-3.6-.1s-.9,0-2,0c-1.1,0-1.9,0-2.4,0s-.7-.1-.7-.3.3-.3.8-.3c.4,0,.7,0,1-.1.5-.1.9-.8,1-1.9.1-.9.2-3.4.2-7.4Z"/>
  <path class="cls-4" d="M618.4,352.3c-1.6,0-3-.4-4.3-.9-.4-.2-.7-.6-.7-1.2,0-1.3,0-2.8.2-4.6,0-.6.2-.9.4-.9s.3.2.3.6.1,1.1.3,1.8c.7,2.3,2.4,3.5,5,3.5s2.6-.4,3.5-1.3c.8-.8,1.1-1.7,1.1-2.7,0-1.9-1.1-3.8-3.4-5.6l-1.6-1.3c-3.4-2.7-5.1-5.4-5.1-8.2s.7-3.5,2.2-4.7c1.5-1.2,3.4-1.8,5.8-1.8s3.1.2,4.6.6c.3,0,.5.2.5.4,0,0,0,.4,0,1.3,0,.9,0,1.8,0,2.9s-.1,1-.4,1-.3-.2-.3-.6c0-.8-.3-1.5-.9-2.3-.9-1.1-2.2-1.7-3.8-1.7s-2.3.3-3,1c-.7.7-1.1,1.5-1.1,2.6s.3,1.6.8,2.3c.5.7,1.5,1.6,2.9,2.7l1,.7c2.1,1.6,3.6,3,4.4,4.4.9,1.3,1.3,2.8,1.3,4.5,0,2.6-1.1,4.6-3.3,6.1-1.2.7-2.6,1.2-4.2,1.4l-2.7,1.8h0c3,.3,4.5,1.3,4.5,2.9s-.4,1.5-1.1,2.1c-.6.5-1.3.9-2.2,1.1-1.2.3-2.4.5-3.7.5s-.6-.1-.6-.3.3-.4.9-.5c1,0,1.8-.3,2.4-.8.7-.4,1-.9,1-1.6,0-1.2-1.1-2.1-3.3-2.6-.5,0-.7-.2-.7-.3s.2-.3.7-.6l2.6-1.7Z"/>
  <path class="cls-4" d="M636.3,341.7v-6.1c0-4.2,0-6.6,0-7.4,0-1.1-.6-1.8-1.5-2-.3,0-.8-.1-1.4-.1s-.6-.1-.6-.3.3-.3.8-.3,1.6,0,2.8,0c1.2,0,1.9,0,2.2,0,5.5,0,8.4,0,8.7,0,.6,0,1.1-.1,1.5-.2.4,0,.6-.1.6-.1.1,0,.2.1.2.3s0,.2-.1.6c0,.5-.1,1-.2,1.6,0,.6,0,1.4-.2,2.3,0,.3-.2.4-.3.4s-.3-.1-.3-.4c0-.3,0-.5,0-.7,0-.2,0-.4-.1-.6-.3-.7-1.1-1.1-2.3-1.3-.8,0-2.4-.1-4.9-.1s-.2.1-.2.3v8.8c0,.3,0,.4.2.4,3.2,0,5,0,5.6,0,.4,0,.7,0,.9-.1.3,0,.6-.2.8-.4.3-.3.5-.5.6-.5.2,0,.2,0,.2.3s0,.3-.1.7c0,.5-.1,1.1-.2,1.8,0,1.3-.1,2.1-.1,2.3,0,.4-.1.7-.3.7s-.3-.1-.3-.3,0-.7-.1-1.2c-.2-.8-.8-1.2-1.9-1.4-.7,0-2.3-.1-4.9-.1s-.2.1-.2.3v8.1c0,1.2.3,2,.8,2.4.5.3,1.6.5,3.4.5s2.7-.1,3.3-.4c.8-.4,1.3-1.2,1.6-2.6,0-.3.2-.5.4-.5s.3.2.3.6c0,1.4-.2,2.7-.5,3.9-.1.4-.3.7-.5.8-.2,0-.7.1-1.4.1-2,0-4,0-6-.1-2,0-3.2-.1-3.6-.1s-.9,0-2,0c-1.1,0-1.9,0-2.4,0s-.7-.1-.7-.3.3-.3.8-.3c.3,0,.7,0,1-.1.5-.1.9-.8,1-1.9.1-.9.2-3.4.2-7.4Z"/>
  <path class="cls-4" d="M662.8,336.5h13.3c.1,0,.2,0,.2-.2v-.7c0-4.2,0-6.6,0-7.4,0-1.1-.6-1.8-1.5-2-.3,0-.8-.1-1.4-.1s-.6-.1-.6-.3.2-.3.7-.3c.7,0,1.6,0,2.9,0,1.2,0,1.9,0,2.2,0s.9,0,2,0c1.1,0,1.9,0,2.4,0s.7.1.7.3-.2.3-.6.3-.6,0-1,.1c-.8.1-1.2.8-1.3,2,0,.8,0,3.2,0,7.4v6.1c0,3.9,0,6.4.2,7.4.1,1.1.6,1.8,1.4,1.9.7,0,1.3.1,1.8.1s.6,0,.6.3-.2.3-.7.3c-.9,0-1.9,0-3.2,0-1.3,0-2,0-2.2,0s-.9,0-1.9,0c-1.1,0-1.9,0-2.4,0s-.7-.1-.7-.3.3-.3.8-.3c.3,0,.7,0,1-.1.5-.1.9-.8,1-1.9.1-.9.2-3.4.2-7.4v-3.1c0-.1,0-.2-.2-.2h-13.3c-.1,0-.2,0-.2.2v3.1c0,3.9,0,6.4.2,7.4.1,1.1.6,1.8,1.4,1.9.7,0,1.3.1,1.8.1s.6,0,.6.3-.2.3-.7.3c-.9,0-1.9,0-3.2,0-1.3,0-2,0-2.2,0s-.9,0-2,0c-1.1,0-1.9,0-2.4,0s-.7-.1-.7-.3.3-.3.8-.3c.3,0,.7,0,1-.1.5-.1.9-.8,1-1.9.1-.9.2-3.4.2-7.4v-6.1c0-4.2,0-6.6,0-7.4,0-1.1-.6-1.8-1.5-2-.3,0-.8-.1-1.4-.1s-.6-.1-.6-.3.2-.3.7-.3c.7,0,1.6,0,2.9,0,1.2,0,1.9,0,2.2,0s.9,0,2,0c1.1,0,1.9,0,2.4,0s.7.1.7.3-.2.3-.6.3-.6,0-1,.1c-.8.1-1.2.8-1.3,2,0,.8,0,3.2,0,7.4v.7c0,.2,0,.2.2.2Z"/>
  <path class="cls-4" d="M694.3,322.8c-.6,0-1.1-.2-1.5-.7-.3-.3-.5-.8-.5-1.3s.2-.9.5-1.3c.4-.5.9-.7,1.5-.7s1.1.2,1.4.5c.4.3.6.8.6,1.4s-.2,1.1-.6,1.5c-.4.4-.8.6-1.4.6ZM692.1,341.7v-6.1c0-4.2,0-6.6,0-7.4,0-1.1-.5-1.8-1.2-1.9-.4,0-.8-.1-1.2-.1s-.6-.1-.6-.3.3-.3.8-.3,1.3,0,2.4,0c1.1,0,1.9,0,2.2,0s.9,0,1.9,0c1,0,1.8,0,2.3,0s.7,0,.7.3-.2.3-.5.3-.7,0-1.1.1c-.8.1-1.2.8-1.3,2,0,.8,0,3.2,0,7.4v6.1c0,4.2,0,6.7.1,7.6,0,1,.6,1.6,1.4,1.7.7,0,1.3.1,1.8.1s.6,0,.6.3-.2.3-.7.3c-.9,0-2,0-3.2,0-1.3,0-2,0-2.2,0s-.9,0-2,0c-1.1,0-1.9,0-2.4,0s-.7-.1-.7-.3.3-.3.8-.3c.3,0,.7,0,1-.1.6-.1.9-.7,1-1.7.1-1,.2-3.6.2-7.6Z"/>
  <path class="cls-4" d="M711.9,327.7v10.6c0,.3.1.6.3.6.6.2,1.5.3,2.6.3s1.9-.2,2.5-.6c1.4-1,2.1-2.7,2.1-5.2s-.6-3.9-1.9-5c-1-.9-2.1-1.3-3.4-1.3s-1.8,0-2,.2c-.1,0-.2.2-.2.4ZM707.8,341.7v-6.1c0-4.2,0-6.6,0-7.4,0-1.1-.6-1.8-1.5-2-.3,0-.8-.1-1.4-.1s-.6-.1-.6-.3.3-.3.8-.3,1.7,0,2.8,0c1.2,0,1.8,0,1.9,0,.4,0,1.2,0,2.5,0,1.3,0,2.1,0,2.4,0,2.8,0,4.9.5,6.4,1.5.6.4,1.1,1,1.5,1.8.6.9.8,1.9.8,3,0,2.7-1.5,5.3-4.6,7.8,2.5,3.2,3.9,4.9,4.2,5.2,1.3,1.7,2.5,3,3.4,3.9,1.3,1.3,2.6,2.1,3.9,2.4.3,0,.5,0,.8,0,.4,0,.6.1.6.3s-.2.3-.7.3h-3.3c-1.7,0-2.9-.2-3.7-.7-1.1-.6-2.7-2.3-4.8-5.1-1-1.4-2.1-3-3.4-4.8-.1-.2-.3-.2-.6-.2h-3c-.2,0-.3,0-.3.2v.5c0,3.9,0,6.4.2,7.4.1,1.2.6,1.8,1.4,1.9.7,0,1.3.1,1.7.1s.4,0,.4.3-.2.3-.7.3c-.8,0-1.8,0-3.1,0-1.3,0-1.9,0-2,0-.2,0-.8,0-1.8,0-1.1,0-1.9,0-2.4,0s-.7-.1-.7-.3.3-.3.8-.3c.3,0,.7,0,1-.1.5-.1.9-.8,1-1.9.1-.9.2-3.4.2-7.4Z"/>
  <path class="cls-1" d="M766.6,325.5c-.5,0-1.3,0-2.3,0-1,0-1.6,0-1.6,0-1.6,0-3-.1-4-.1s-.7.1-.7.3.2.3.6.3.9,0,1.3.1c.9.2,1.4.9,1.5,2,0,.8,0,3.2,0,7.4v4.3c0,2.2,0,3.9-.3,4.9-.3,1.6-.9,2.8-1.7,3.7-1.2,1.3-2.9,1.9-4.8,1.9s-3.2-.5-4.3-1.4c-1.8-1.5-2.7-4.3-2.7-8.6v-4.9c0-4.2,0-6.6,0-7.4,0-1.2.5-1.8,1.3-2,.4,0,.7-.1,1-.1s.6-.1.6-.3-.3-.3-.8-.3-1.2,0-2.3,0c-1.1,0-1.7,0-2,0s-1,0-2.3,0c-1.2,0-2.1,0-2.8,0s-.8.1-.8.3.2.3.6.3c.6,0,1,0,1.4.1.9.2,1.4.9,1.5,2,0,.8,0,3.2,0,7.4v5.1c0,4.3,1,7.4,3.1,9.2,1.8,1.6,4.3,2.4,7.7,2.4s5.3-.8,7.2-2.5c1.3-1.1,2.2-2.7,2.7-4.7.4-1.5.6-3.4.6-5.7v-3.7c0-4.2,0-6.6,0-7.4,0-1.2.5-1.8,1.3-2,.4,0,.7-.1,1-.1.4,0,.6-.1.6-.3s-.2-.3-.7-.3Z"/>
  <path class="cls-4" d="M775.7,332.4l.4,14.6c0,2.3.5,3.6,1.2,3.9,0,0,.5,0,1.4.2.7,0,1,.2,1,.3,0,.2-.3.3-.8.3-.9,0-1.8,0-2.8,0-.9,0-1.5,0-1.6,0,0,0-.4,0-1.3,0-.9,0-1.7,0-2.4,0s-.8-.1-.8-.3.3-.3.9-.3c.4,0,.8,0,1.2-.1.4-.1.7-.5.9-1.1.1-.5.2-1.6.2-3.2l.3-20.6c0-.8.2-1.2.5-1.2s.6.4,1.3,1.1c1.9,2,5.5,5.8,10.8,11.2,2.4,2.5,4.9,5.1,7.7,7.9h.2l-.3-15.6c0-.9,0-1.5-.1-1.8-.2-.7-.5-1.2-1-1.4-.4-.1-1-.2-1.8-.2s-.6-.1-.6-.3.3-.3.9-.3,1.5,0,2.5,0c1,0,1.5,0,1.7,0s.4,0,1.2,0c.8,0,1.5,0,2.2,0s.8.1.8.3-.2.3-.6.3c-1.2,0-1.9.4-2.1,1.1-.1.4-.2,1.1-.2,1.9l-.4,22c0,.7-.2,1.1-.5,1.1s-.6-.3-1.2-.8c-2.2-2.2-5.6-5.6-10.3-10.2-1.6-1.6-3.4-3.4-5.3-5.5-1-1.1-2-2.2-3-3.2h-.1Z"/>
  <path class="cls-4" d="M809.3,322.8c-.6,0-1.1-.2-1.5-.7-.3-.3-.5-.8-.5-1.3s.1-.9.5-1.3c.4-.5.9-.7,1.5-.7s1.1.2,1.4.5c.4.3.6.8.6,1.4s-.2,1.1-.6,1.5c-.4.4-.8.6-1.4.6ZM807.1,341.7v-6.1c0-4.2,0-6.6,0-7.4,0-1.1-.5-1.8-1.2-1.9-.4,0-.8-.1-1.2-.1s-.6-.1-.6-.3.3-.3.8-.3,1.3,0,2.4,0c1.1,0,1.9,0,2.2,0s.9,0,1.9,0c1,0,1.8,0,2.3,0s.7,0,.7.3-.2.3-.5.3-.7,0-1.1.1c-.8.1-1.2.8-1.3,2,0,.8,0,3.2,0,7.4v6.1c0,4.2,0,6.7.1,7.6,0,1,.6,1.6,1.4,1.7.7,0,1.3.1,1.8.1s.6,0,.6.3-.2.3-.7.3c-.9,0-2,0-3.2,0-1.2,0-2,0-2.2,0s-.9,0-2,0c-1.1,0-1.9,0-2.4,0s-.7-.1-.7-.3.3-.3.8-.3c.3,0,.7,0,1-.1.6-.1.9-.7,1-1.7.1-1,.2-3.6.2-7.6Z"/>
  <path class="cls-4" d="M828.4,350.1l-8.8-21.3c-.4-.9-.8-1.5-1.1-1.9-.3-.3-.8-.5-1.5-.7-.3,0-.8-.1-1.4-.1s-.4-.1-.4-.3.3-.3.9-.3,1.6,0,2.8,0c1.2,0,1.9,0,2.3,0s.8,0,1.8,0c1,0,1.8,0,2.5,0s.8.1.8.3-.2.3-.5.3c-.7,0-1.1,0-1.4.2-.2.2-.3.4-.3.7s.3,1.3.8,2.7l6,15.8h.1c2-5,4.3-10.8,6.9-17.3.2-.6.3-1,.3-1.3s-.2-.6-.5-.7c-.3-.1-.8-.2-1.4-.2s-.6,0-.6-.3.3-.3,1-.3,1.5,0,2.3,0c.9,0,1.3,0,1.4,0,.2,0,.6,0,1.5,0,.8,0,1.4,0,1.8,0s.7.1.7.3-.2.3-.6.3c-.7,0-1.3.1-1.7.4-.6.4-1.2,1.4-1.9,3.1-.7,1.7-2.1,4.9-4.1,9.4l-4.6,10.6c-.5,1.1-.8,1.8-.9,2.1-.2.3-.4.5-.7.5s-.4-.2-.6-.5c-.1-.2-.4-.8-.7-1.7Z"/>
  <path class="cls-4" d="M848,341.7v-6.1c0-4.2,0-6.6,0-7.4,0-1.1-.6-1.8-1.5-2-.3,0-.8-.1-1.4-.1s-.6-.1-.6-.3.3-.3.8-.3,1.6,0,2.8,0c1.2,0,1.9,0,2.2,0,5.5,0,8.4,0,8.7,0,.6,0,1.1-.1,1.5-.2.4,0,.6-.1.6-.1.1,0,.2.1.2.3s0,.2-.1.6c0,.5-.1,1-.2,1.6,0,.6,0,1.4-.2,2.3,0,.3-.2.4-.3.4s-.3-.1-.3-.4c0-.3,0-.5,0-.7,0-.2,0-.4-.1-.6-.3-.7-1.1-1.1-2.3-1.3-.8,0-2.4-.1-4.9-.1s-.2.1-.2.3v8.8c0,.3,0,.4.2.4,3.2,0,5,0,5.6,0,.4,0,.7,0,.9-.1.3,0,.6-.2.8-.4.3-.3.5-.5.6-.5.2,0,.2,0,.2.3s0,.3-.1.7c0,.5-.1,1.1-.2,1.8,0,1.3-.1,2.1-.1,2.3,0,.4-.1.7-.3.7s-.3-.1-.3-.3,0-.7-.1-1.2c-.2-.8-.8-1.2-1.9-1.4-.6,0-2.3-.1-4.9-.1s-.2.1-.2.3v8.1c0,1.2.3,2,.8,2.4.5.3,1.6.5,3.4.5s2.7-.1,3.3-.4c.8-.4,1.3-1.2,1.6-2.6,0-.3.2-.5.4-.5s.3.2.3.6c0,1.4-.2,2.7-.5,3.9-.1.4-.3.7-.5.8-.2,0-.7.1-1.4.1-2,0-4,0-6-.1-2,0-3.2-.1-3.6-.1s-.9,0-2,0c-1.1,0-1.9,0-2.4,0s-.7-.1-.7-.3.3-.3.8-.3c.4,0,.7,0,1-.1.5-.1.9-.8,1-1.9.1-.9.2-3.4.2-7.4Z"/>
  <path class="cls-4" d="M874.1,327.7v10.6c0,.3.1.6.3.6.7.2,1.5.3,2.6.3s1.9-.2,2.5-.6c1.4-1,2.1-2.7,2.1-5.2s-.6-3.9-1.9-5c-1-.9-2.1-1.3-3.4-1.3s-1.8,0-2,.2c-.1,0-.2.2-.2.4ZM870,341.7v-6.1c0-4.2,0-6.6,0-7.4,0-1.1-.6-1.8-1.5-2-.3,0-.8-.1-1.4-.1s-.6-.1-.6-.3.3-.3.8-.3,1.7,0,2.8,0c1.2,0,1.8,0,1.9,0,.4,0,1.2,0,2.5,0,1.3,0,2.1,0,2.4,0,2.8,0,4.9.5,6.4,1.5.6.4,1.1,1,1.5,1.8.6.9.8,1.9.8,3,0,2.7-1.5,5.3-4.6,7.8,2.5,3.2,3.9,4.9,4.2,5.2,1.3,1.7,2.5,3,3.4,3.9,1.3,1.3,2.6,2.1,3.9,2.4.3,0,.5,0,.8,0,.4,0,.6.1.6.3s-.2.3-.7.3h-3.3c-1.7,0-2.9-.2-3.7-.7-1.1-.6-2.7-2.3-4.8-5.1-1-1.4-2.1-3-3.4-4.8-.1-.2-.3-.2-.6-.2h-3c-.2,0-.3,0-.3.2v.5c0,3.9,0,6.4.2,7.4.1,1.2.6,1.8,1.4,1.9.7,0,1.3.1,1.7.1s.4,0,.4.3-.2.3-.7.3c-.8,0-1.8,0-3.1,0-1.3,0-1.9,0-2,0-.2,0-.8,0-1.8,0-1.1,0-1.9,0-2.4,0s-.7-.1-.7-.3.3-.3.8-.3c.3,0,.7,0,1-.1.5-.1.9-.8,1-1.9.1-.9.2-3.4.2-7.4Z"/>
  <path class="cls-4" d="M899.4,352.3c-2,0-3.7-.3-5.1-.9-.4-.2-.7-.6-.7-1.2,0-1.3,0-2.8.2-4.6,0-.6.2-.9.4-.9s.3.2.3.6.1,1.1.3,1.8c.7,2.3,2.4,3.5,5,3.5s2.6-.4,3.5-1.3c.8-.8,1.1-1.7,1.1-2.7,0-1.9-1.1-3.8-3.4-5.6l-1.6-1.3c-3.4-2.7-5.2-5.4-5.2-8.2s.7-3.5,2.2-4.7c1.5-1.2,3.4-1.8,5.8-1.8s3.1.2,4.6.6c.3,0,.5.2.5.4,0,0,0,.4,0,1.3,0,.9,0,1.8,0,2.9s-.1,1-.4,1-.3-.2-.3-.6c0-.8-.3-1.5-.9-2.3-.9-1.1-2.2-1.7-3.8-1.7s-2.3.3-3,1c-.7.7-1.1,1.5-1.1,2.6s.3,1.6.8,2.3c.5.7,1.5,1.6,2.9,2.7l1,.7c2.1,1.6,3.6,3,4.4,4.4.9,1.3,1.3,2.8,1.3,4.5,0,2.6-1.1,4.6-3.3,6.1-1.5.9-3.3,1.4-5.5,1.4Z"/>
  <path class="cls-4" d="M918.7,322.8c-.7,0-1.1-.2-1.5-.7-.3-.3-.4-.8-.4-1.3s.1-.9.4-1.3c.4-.5.9-.7,1.5-.7s1.1.2,1.4.5c.4.3.6.8.6,1.4s-.2,1.1-.6,1.5c-.4.4-.8.6-1.4.6ZM916.5,341.7v-6.1c0-4.2,0-6.6,0-7.4,0-1.1-.5-1.8-1.2-1.9-.4,0-.8-.1-1.2-.1s-.6-.1-.6-.3.3-.3.8-.3,1.2,0,2.4,0c1.1,0,1.9,0,2.2,0s.9,0,1.9,0c1,0,1.8,0,2.3,0s.7,0,.7.3-.2.3-.5.3-.7,0-1.1.1c-.8.1-1.2.8-1.3,2,0,.8,0,3.2,0,7.4v6.1c0,4.2,0,6.7.1,7.6,0,1,.6,1.6,1.4,1.7.7,0,1.3.1,1.8.1s.6,0,.6.3-.2.3-.7.3c-.9,0-2,0-3.2,0-1.3,0-2,0-2.2,0s-.9,0-2,0c-1.1,0-1.9,0-2.4,0s-.7-.1-.7-.3.3-.3.8-.3c.3,0,.7,0,1-.1.6-.1.9-.7,1-1.7.1-1,.2-3.6.2-7.6Z"/>
  <path class="cls-4" d="M936.8,341.7v-14.3h-5.2c-1.8.2-3,.5-3.4,1.2-.3.4-.5.8-.6,1.2,0,.3-.2.4-.4.4s-.3-.2-.3-.6c0-.6.2-2,.7-4,.1-.4.3-.7.4-.7s.3,0,.6.2c.3.1.6.2.9.2,1.3.1,2.4.2,3.5.2h13.8c.9,0,1.7,0,2.4-.2.7-.1,1-.2.9-.2.2,0,.3.2.3.7s0,.9,0,1.9c0,1.1,0,1.8,0,2.1,0,.3-.1.5-.3.5s-.3-.2-.4-.7v-.4c-.1-1.2-1.5-1.9-4.1-1.9h-4.4c0-.1,0,14.2,0,14.2,0,3.9,0,6.4.2,7.4.1,1.1.6,1.8,1.4,1.9.7,0,1.3.1,1.8.1s.6,0,.6.3-.2.3-.7.3c-.9,0-2,0-3.2,0-1.3,0-2,0-2.2,0s-.9,0-2,0c-1.1,0-1.9,0-2.4,0s-.7-.1-.7-.3.3-.3.8-.3c.3,0,.7,0,1-.1.5-.1.9-.8,1-1.9.1-1,.2-3.5.2-7.4Z"/>
  <text class="cls-3" transform="translate(487.6 391.1)"><tspan class="cls-13" x="0" y="0">C</tspan><tspan x="23.2" y="0">OMMUNIC</tspan><tspan class="cls-9" x="206.4" y="0">A</tspan><tspan x="229.9" y="0">TION </tspan><tspan class="cls-8" x="326.3" y="0">F</tspan><tspan class="cls-12" x="345" y="0">A</tspan><tspan class="cls-6" x="369.2" y="0">CU</tspan><tspan class="cls-11" x="419.9" y="0">L</tspan><tspan x="439.8" y="0">T</tspan><tspan class="cls-10" x="461.9" y="0">Y</tspan></text>
  <text class="cls-2" transform="translate(953.1 351.8)"><tspan x="0" y="0">Y</tspan></text>
</svg>